%TF.GenerationSoftware,KiCad,Pcbnew,(6.0.1-0)*%
%TF.CreationDate,2022-08-06T01:28:06+01:00*%
%TF.ProjectId,powerboard_sc21_as25,706f7765-7262-46f6-9172-645f73633231,rev?*%
%TF.SameCoordinates,Original*%
%TF.FileFunction,Legend,Top*%
%TF.FilePolarity,Positive*%
%FSLAX46Y46*%
G04 Gerber Fmt 4.6, Leading zero omitted, Abs format (unit mm)*
G04 Created by KiCad (PCBNEW (6.0.1-0)) date 2022-08-06 01:28:06*
%MOMM*%
%LPD*%
G01*
G04 APERTURE LIST*
G04 Aperture macros list*
%AMRoundRect*
0 Rectangle with rounded corners*
0 $1 Rounding radius*
0 $2 $3 $4 $5 $6 $7 $8 $9 X,Y pos of 4 corners*
0 Add a 4 corners polygon primitive as box body*
4,1,4,$2,$3,$4,$5,$6,$7,$8,$9,$2,$3,0*
0 Add four circle primitives for the rounded corners*
1,1,$1+$1,$2,$3*
1,1,$1+$1,$4,$5*
1,1,$1+$1,$6,$7*
1,1,$1+$1,$8,$9*
0 Add four rect primitives between the rounded corners*
20,1,$1+$1,$2,$3,$4,$5,0*
20,1,$1+$1,$4,$5,$6,$7,0*
20,1,$1+$1,$6,$7,$8,$9,0*
20,1,$1+$1,$8,$9,$2,$3,0*%
G04 Aperture macros list end*
%ADD10C,0.150000*%
%ADD11C,0.100000*%
%ADD12C,0.070000*%
%ADD13C,0.120000*%
%ADD14C,0.127000*%
%ADD15C,0.300000*%
%ADD16RoundRect,0.250000X-0.262500X-0.450000X0.262500X-0.450000X0.262500X0.450000X-0.262500X0.450000X0*%
%ADD17RoundRect,0.250000X-0.450000X0.262500X-0.450000X-0.262500X0.450000X-0.262500X0.450000X0.262500X0*%
%ADD18RoundRect,0.200000X0.275000X-0.200000X0.275000X0.200000X-0.275000X0.200000X-0.275000X-0.200000X0*%
%ADD19RoundRect,0.225000X-0.225000X-0.250000X0.225000X-0.250000X0.225000X0.250000X-0.225000X0.250000X0*%
%ADD20R,5.400000X2.900000*%
%ADD21RoundRect,0.218750X0.218750X0.256250X-0.218750X0.256250X-0.218750X-0.256250X0.218750X-0.256250X0*%
%ADD22R,2.450000X2.450000*%
%ADD23RoundRect,0.062500X0.062500X0.325000X-0.062500X0.325000X-0.062500X-0.325000X0.062500X-0.325000X0*%
%ADD24RoundRect,0.062500X0.325000X0.062500X-0.325000X0.062500X-0.325000X-0.062500X0.325000X-0.062500X0*%
%ADD25RoundRect,1.500000X-1.500000X1.500000X-1.500000X-1.500000X1.500000X-1.500000X1.500000X1.500000X0*%
%ADD26C,6.000000*%
%ADD27RoundRect,0.225000X0.225000X0.250000X-0.225000X0.250000X-0.225000X-0.250000X0.225000X-0.250000X0*%
%ADD28RoundRect,0.250000X0.250000X0.475000X-0.250000X0.475000X-0.250000X-0.475000X0.250000X-0.475000X0*%
%ADD29R,3.100000X2.410000*%
%ADD30RoundRect,0.150000X-0.150000X0.650000X-0.150000X-0.650000X0.150000X-0.650000X0.150000X0.650000X0*%
%ADD31RoundRect,0.200000X-0.275000X0.200000X-0.275000X-0.200000X0.275000X-0.200000X0.275000X0.200000X0*%
%ADD32R,1.100000X4.600000*%
%ADD33R,10.800000X9.400000*%
%ADD34RoundRect,0.225000X0.250000X-0.225000X0.250000X0.225000X-0.250000X0.225000X-0.250000X-0.225000X0*%
%ADD35RoundRect,0.200000X0.200000X0.275000X-0.200000X0.275000X-0.200000X-0.275000X0.200000X-0.275000X0*%
%ADD36R,1.440000X11.220000*%
%ADD37RoundRect,0.250001X1.399999X-1.099999X1.399999X1.099999X-1.399999X1.099999X-1.399999X-1.099999X0*%
%ADD38O,3.300000X2.700000*%
%ADD39RoundRect,0.250000X-0.787500X-1.025000X0.787500X-1.025000X0.787500X1.025000X-0.787500X1.025000X0*%
%ADD40RoundRect,0.250000X-0.475000X0.250000X-0.475000X-0.250000X0.475000X-0.250000X0.475000X0.250000X0*%
%ADD41RoundRect,0.250001X1.099999X1.399999X-1.099999X1.399999X-1.099999X-1.399999X1.099999X-1.399999X0*%
%ADD42O,2.700000X3.300000*%
%ADD43C,1.000000*%
%ADD44R,3.200000X4.900000*%
%ADD45R,0.950000X1.000000*%
%ADD46RoundRect,0.225000X-0.250000X0.225000X-0.250000X-0.225000X0.250000X-0.225000X0.250000X0.225000X0*%
%ADD47RoundRect,0.200000X-0.200000X-0.275000X0.200000X-0.275000X0.200000X0.275000X-0.200000X0.275000X0*%
%ADD48C,5.600000*%
%ADD49R,0.650000X0.400000*%
%ADD50RoundRect,0.250000X-1.025000X0.787500X-1.025000X-0.787500X1.025000X-0.787500X1.025000X0.787500X0*%
%ADD51R,1.700000X1.700000*%
%ADD52O,1.700000X1.700000*%
%ADD53RoundRect,0.250000X0.650000X2.450000X-0.650000X2.450000X-0.650000X-2.450000X0.650000X-2.450000X0*%
%ADD54R,0.400000X0.650000*%
%ADD55C,1.200000*%
%ADD56RoundRect,0.250000X0.600000X0.725000X-0.600000X0.725000X-0.600000X-0.725000X0.600000X-0.725000X0*%
%ADD57O,1.700000X1.950000*%
%ADD58RoundRect,0.250000X-2.450000X0.650000X-2.450000X-0.650000X2.450000X-0.650000X2.450000X0.650000X0*%
%ADD59RoundRect,0.218750X0.256250X-0.218750X0.256250X0.218750X-0.256250X0.218750X-0.256250X-0.218750X0*%
%ADD60RoundRect,0.250000X-0.625000X0.312500X-0.625000X-0.312500X0.625000X-0.312500X0.625000X0.312500X0*%
%ADD61RoundRect,0.218750X-0.256250X0.218750X-0.256250X-0.218750X0.256250X-0.218750X0.256250X0.218750X0*%
%ADD62RoundRect,0.250000X0.337500X0.475000X-0.337500X0.475000X-0.337500X-0.475000X0.337500X-0.475000X0*%
%ADD63RoundRect,0.250000X0.475000X-0.337500X0.475000X0.337500X-0.475000X0.337500X-0.475000X-0.337500X0*%
%ADD64R,4.600000X0.800000*%
%ADD65R,9.400000X10.800000*%
%ADD66RoundRect,0.250000X0.362500X1.075000X-0.362500X1.075000X-0.362500X-1.075000X0.362500X-1.075000X0*%
%ADD67R,4.900000X3.200000*%
%ADD68R,1.000000X0.950000*%
%ADD69R,0.800000X4.600000*%
%ADD70RoundRect,0.150000X-0.512500X-0.150000X0.512500X-0.150000X0.512500X0.150000X-0.512500X0.150000X0*%
%ADD71RoundRect,1.210000X0.000000X-1.335000X0.000000X1.335000X0.000000X1.335000X0.000000X-1.335000X0*%
%ADD72RoundRect,1.500000X1.500000X-1.500000X1.500000X1.500000X-1.500000X1.500000X-1.500000X-1.500000X0*%
%ADD73R,4.600000X1.100000*%
%ADD74R,0.800000X0.900000*%
%ADD75RoundRect,0.150000X-0.150000X0.512500X-0.150000X-0.512500X0.150000X-0.512500X0.150000X0.512500X0*%
%ADD76R,2.900000X5.400000*%
%ADD77RoundRect,0.250000X-0.750000X0.600000X-0.750000X-0.600000X0.750000X-0.600000X0.750000X0.600000X0*%
%ADD78O,2.000000X1.700000*%
%ADD79C,0.700000*%
%ADD80O,0.900000X2.400000*%
%ADD81O,0.900000X1.700000*%
%ADD82C,0.600000*%
%ADD83C,0.800000*%
G04 APERTURE END LIST*
D10*
X70870000Y-81630000D02*
X70680000Y-81470000D01*
X70250000Y-81630000D02*
X70870000Y-81630000D01*
X70868698Y-81630074D02*
X70708698Y-81770074D01*
D11*
X125185714Y-45557142D02*
X125271428Y-45585714D01*
X125300000Y-45614285D01*
X125328571Y-45671428D01*
X125328571Y-45757142D01*
X125300000Y-45814285D01*
X125271428Y-45842857D01*
X125214285Y-45871428D01*
X124985714Y-45871428D01*
X124985714Y-45271428D01*
X125185714Y-45271428D01*
X125242857Y-45300000D01*
X125271428Y-45328571D01*
X125300000Y-45385714D01*
X125300000Y-45442857D01*
X125271428Y-45500000D01*
X125242857Y-45528571D01*
X125185714Y-45557142D01*
X124985714Y-45557142D01*
X125700000Y-45271428D02*
X125814285Y-45271428D01*
X125871428Y-45300000D01*
X125928571Y-45357142D01*
X125957142Y-45471428D01*
X125957142Y-45671428D01*
X125928571Y-45785714D01*
X125871428Y-45842857D01*
X125814285Y-45871428D01*
X125700000Y-45871428D01*
X125642857Y-45842857D01*
X125585714Y-45785714D01*
X125557142Y-45671428D01*
X125557142Y-45471428D01*
X125585714Y-45357142D01*
X125642857Y-45300000D01*
X125700000Y-45271428D01*
X126328571Y-45271428D02*
X126442857Y-45271428D01*
X126500000Y-45300000D01*
X126557142Y-45357142D01*
X126585714Y-45471428D01*
X126585714Y-45671428D01*
X126557142Y-45785714D01*
X126500000Y-45842857D01*
X126442857Y-45871428D01*
X126328571Y-45871428D01*
X126271428Y-45842857D01*
X126214285Y-45785714D01*
X126185714Y-45671428D01*
X126185714Y-45471428D01*
X126214285Y-45357142D01*
X126271428Y-45300000D01*
X126328571Y-45271428D01*
X126757142Y-45271428D02*
X127100000Y-45271428D01*
X126928571Y-45871428D02*
X126928571Y-45271428D01*
X64157142Y-81221428D02*
X64528571Y-81221428D01*
X64328571Y-81450000D01*
X64414285Y-81450000D01*
X64471428Y-81478571D01*
X64500000Y-81507142D01*
X64528571Y-81564285D01*
X64528571Y-81707142D01*
X64500000Y-81764285D01*
X64471428Y-81792857D01*
X64414285Y-81821428D01*
X64242857Y-81821428D01*
X64185714Y-81792857D01*
X64157142Y-81764285D01*
X64700000Y-81221428D02*
X64900000Y-81821428D01*
X65100000Y-81221428D01*
X65242857Y-81221428D02*
X65614285Y-81221428D01*
X65414285Y-81450000D01*
X65500000Y-81450000D01*
X65557142Y-81478571D01*
X65585714Y-81507142D01*
X65614285Y-81564285D01*
X65614285Y-81707142D01*
X65585714Y-81764285D01*
X65557142Y-81792857D01*
X65500000Y-81821428D01*
X65328571Y-81821428D01*
X65271428Y-81792857D01*
X65242857Y-81764285D01*
X92471428Y-68514285D02*
X91871428Y-68514285D01*
X91871428Y-68285714D01*
X91900000Y-68228571D01*
X91928571Y-68200000D01*
X91985714Y-68171428D01*
X92071428Y-68171428D01*
X92128571Y-68200000D01*
X92157142Y-68228571D01*
X92185714Y-68285714D01*
X92185714Y-68514285D01*
X92300000Y-67942857D02*
X92300000Y-67657142D01*
X92471428Y-68000000D02*
X91871428Y-67800000D01*
X92471428Y-67600000D01*
X92414285Y-67057142D02*
X92442857Y-67085714D01*
X92471428Y-67171428D01*
X92471428Y-67228571D01*
X92442857Y-67314285D01*
X92385714Y-67371428D01*
X92328571Y-67400000D01*
X92214285Y-67428571D01*
X92128571Y-67428571D01*
X92014285Y-67400000D01*
X91957142Y-67371428D01*
X91900000Y-67314285D01*
X91871428Y-67228571D01*
X91871428Y-67171428D01*
X91900000Y-67085714D01*
X91928571Y-67057142D01*
X92471428Y-66800000D02*
X91871428Y-66800000D01*
X92471428Y-66457142D02*
X92128571Y-66714285D01*
X91871428Y-66457142D02*
X92214285Y-66800000D01*
X125357142Y-37157142D02*
X125557142Y-37157142D01*
X125642857Y-37471428D02*
X125357142Y-37471428D01*
X125357142Y-36871428D01*
X125642857Y-36871428D01*
X125900000Y-37471428D02*
X125900000Y-36871428D01*
X126242857Y-37471428D01*
X126242857Y-36871428D01*
X126368571Y-81213428D02*
X126082857Y-81213428D01*
X126082857Y-80613428D01*
X126568571Y-80899142D02*
X126768571Y-80899142D01*
X126854285Y-81213428D02*
X126568571Y-81213428D01*
X126568571Y-80613428D01*
X126854285Y-80613428D01*
X127111428Y-81213428D02*
X127111428Y-80613428D01*
X127254285Y-80613428D01*
X127340000Y-80642000D01*
X127397142Y-80699142D01*
X127425714Y-80756285D01*
X127454285Y-80870571D01*
X127454285Y-80956285D01*
X127425714Y-81070571D01*
X127397142Y-81127714D01*
X127340000Y-81184857D01*
X127254285Y-81213428D01*
X127111428Y-81213428D01*
X126054285Y-82150857D02*
X126140000Y-82179428D01*
X126282857Y-82179428D01*
X126340000Y-82150857D01*
X126368571Y-82122285D01*
X126397142Y-82065142D01*
X126397142Y-82008000D01*
X126368571Y-81950857D01*
X126340000Y-81922285D01*
X126282857Y-81893714D01*
X126168571Y-81865142D01*
X126111428Y-81836571D01*
X126082857Y-81808000D01*
X126054285Y-81750857D01*
X126054285Y-81693714D01*
X126082857Y-81636571D01*
X126111428Y-81608000D01*
X126168571Y-81579428D01*
X126311428Y-81579428D01*
X126397142Y-81608000D01*
X126997142Y-82122285D02*
X126968571Y-82150857D01*
X126882857Y-82179428D01*
X126825714Y-82179428D01*
X126740000Y-82150857D01*
X126682857Y-82093714D01*
X126654285Y-82036571D01*
X126625714Y-81922285D01*
X126625714Y-81836571D01*
X126654285Y-81722285D01*
X126682857Y-81665142D01*
X126740000Y-81608000D01*
X126825714Y-81579428D01*
X126882857Y-81579428D01*
X126968571Y-81608000D01*
X126997142Y-81636571D01*
X127597142Y-82179428D02*
X127397142Y-81893714D01*
X127254285Y-82179428D02*
X127254285Y-81579428D01*
X127482857Y-81579428D01*
X127540000Y-81608000D01*
X127568571Y-81636571D01*
X127597142Y-81693714D01*
X127597142Y-81779428D01*
X127568571Y-81836571D01*
X127540000Y-81865142D01*
X127482857Y-81893714D01*
X127254285Y-81893714D01*
X127854285Y-81865142D02*
X128054285Y-81865142D01*
X128140000Y-82179428D02*
X127854285Y-82179428D01*
X127854285Y-81579428D01*
X128140000Y-81579428D01*
X128397142Y-81865142D02*
X128597142Y-81865142D01*
X128682857Y-82179428D02*
X128397142Y-82179428D01*
X128397142Y-81579428D01*
X128682857Y-81579428D01*
X128940000Y-82179428D02*
X128940000Y-81579428D01*
X129282857Y-82179428D01*
X129282857Y-81579428D01*
X65421428Y-78721428D02*
X65421428Y-78121428D01*
X65564285Y-78121428D01*
X65650000Y-78150000D01*
X65707142Y-78207142D01*
X65735714Y-78264285D01*
X65764285Y-78378571D01*
X65764285Y-78464285D01*
X65735714Y-78578571D01*
X65707142Y-78635714D01*
X65650000Y-78692857D01*
X65564285Y-78721428D01*
X65421428Y-78721428D01*
X66021428Y-78492857D02*
X66478571Y-78492857D01*
X66250000Y-78721428D02*
X66250000Y-78264285D01*
X69000000Y-75771428D02*
X69000000Y-76257142D01*
X69028571Y-76314285D01*
X69057142Y-76342857D01*
X69114285Y-76371428D01*
X69228571Y-76371428D01*
X69285714Y-76342857D01*
X69314285Y-76314285D01*
X69342857Y-76257142D01*
X69342857Y-75771428D01*
X69600000Y-76342857D02*
X69685714Y-76371428D01*
X69828571Y-76371428D01*
X69885714Y-76342857D01*
X69914285Y-76314285D01*
X69942857Y-76257142D01*
X69942857Y-76200000D01*
X69914285Y-76142857D01*
X69885714Y-76114285D01*
X69828571Y-76085714D01*
X69714285Y-76057142D01*
X69657142Y-76028571D01*
X69628571Y-76000000D01*
X69600000Y-75942857D01*
X69600000Y-75885714D01*
X69628571Y-75828571D01*
X69657142Y-75800000D01*
X69714285Y-75771428D01*
X69857142Y-75771428D01*
X69942857Y-75800000D01*
X70400000Y-76057142D02*
X70485714Y-76085714D01*
X70514285Y-76114285D01*
X70542857Y-76171428D01*
X70542857Y-76257142D01*
X70514285Y-76314285D01*
X70485714Y-76342857D01*
X70428571Y-76371428D01*
X70200000Y-76371428D01*
X70200000Y-75771428D01*
X70400000Y-75771428D01*
X70457142Y-75800000D01*
X70485714Y-75828571D01*
X70514285Y-75885714D01*
X70514285Y-75942857D01*
X70485714Y-76000000D01*
X70457142Y-76028571D01*
X70400000Y-76057142D01*
X70200000Y-76057142D01*
X71542857Y-76371428D02*
X71257142Y-76371428D01*
X71257142Y-75771428D01*
X71742857Y-76057142D02*
X71942857Y-76057142D01*
X72028571Y-76371428D02*
X71742857Y-76371428D01*
X71742857Y-75771428D01*
X72028571Y-75771428D01*
X72285714Y-76371428D02*
X72285714Y-75771428D01*
X72428571Y-75771428D01*
X72514285Y-75800000D01*
X72571428Y-75857142D01*
X72600000Y-75914285D01*
X72628571Y-76028571D01*
X72628571Y-76114285D01*
X72600000Y-76228571D01*
X72571428Y-76285714D01*
X72514285Y-76342857D01*
X72428571Y-76371428D01*
X72285714Y-76371428D01*
D12*
X64283333Y-34976583D02*
X64283333Y-34626583D01*
X64400000Y-34743250D02*
X64533333Y-34743250D01*
X64450000Y-34976583D02*
X64450000Y-34676583D01*
X64466666Y-34643250D01*
X64500000Y-34626583D01*
X64533333Y-34626583D01*
X65066666Y-34959916D02*
X65033333Y-34976583D01*
X64966666Y-34976583D01*
X64933333Y-34959916D01*
X64916666Y-34943250D01*
X64900000Y-34909916D01*
X64900000Y-34809916D01*
X64916666Y-34776583D01*
X64933333Y-34759916D01*
X64966666Y-34743250D01*
X65033333Y-34743250D01*
X65066666Y-34759916D01*
X65216666Y-34976583D02*
X65216666Y-34626583D01*
X65366666Y-34976583D02*
X65366666Y-34793250D01*
X65350000Y-34759916D01*
X65316666Y-34743250D01*
X65266666Y-34743250D01*
X65233333Y-34759916D01*
X65216666Y-34776583D01*
X65683333Y-34976583D02*
X65683333Y-34793250D01*
X65666666Y-34759916D01*
X65633333Y-34743250D01*
X65566666Y-34743250D01*
X65533333Y-34759916D01*
X65683333Y-34959916D02*
X65650000Y-34976583D01*
X65566666Y-34976583D01*
X65533333Y-34959916D01*
X65516666Y-34926583D01*
X65516666Y-34893250D01*
X65533333Y-34859916D01*
X65566666Y-34843250D01*
X65650000Y-34843250D01*
X65683333Y-34826583D01*
X65850000Y-34743250D02*
X65850000Y-34976583D01*
X65850000Y-34776583D02*
X65866666Y-34759916D01*
X65900000Y-34743250D01*
X65950000Y-34743250D01*
X65983333Y-34759916D01*
X66000000Y-34793250D01*
X66000000Y-34976583D01*
X66316666Y-34743250D02*
X66316666Y-35026583D01*
X66300000Y-35059916D01*
X66283333Y-35076583D01*
X66250000Y-35093250D01*
X66200000Y-35093250D01*
X66166666Y-35076583D01*
X66316666Y-34959916D02*
X66283333Y-34976583D01*
X66216666Y-34976583D01*
X66183333Y-34959916D01*
X66166666Y-34943250D01*
X66150000Y-34909916D01*
X66150000Y-34809916D01*
X66166666Y-34776583D01*
X66183333Y-34759916D01*
X66216666Y-34743250D01*
X66283333Y-34743250D01*
X66316666Y-34759916D01*
X66483333Y-34976583D02*
X66483333Y-34743250D01*
X66483333Y-34626583D02*
X66466666Y-34643250D01*
X66483333Y-34659916D01*
X66500000Y-34643250D01*
X66483333Y-34626583D01*
X66483333Y-34659916D01*
X66650000Y-34743250D02*
X66650000Y-34976583D01*
X66650000Y-34776583D02*
X66666666Y-34759916D01*
X66700000Y-34743250D01*
X66750000Y-34743250D01*
X66783333Y-34759916D01*
X66800000Y-34793250D01*
X66800000Y-34976583D01*
X67116666Y-34743250D02*
X67116666Y-35026583D01*
X67100000Y-35059916D01*
X67083333Y-35076583D01*
X67050000Y-35093250D01*
X67000000Y-35093250D01*
X66966666Y-35076583D01*
X67116666Y-34959916D02*
X67083333Y-34976583D01*
X67016666Y-34976583D01*
X66983333Y-34959916D01*
X66966666Y-34943250D01*
X66950000Y-34909916D01*
X66950000Y-34809916D01*
X66966666Y-34776583D01*
X66983333Y-34759916D01*
X67016666Y-34743250D01*
X67083333Y-34743250D01*
X67116666Y-34759916D01*
X67666666Y-34793250D02*
X67716666Y-34809916D01*
X67733333Y-34826583D01*
X67750000Y-34859916D01*
X67750000Y-34909916D01*
X67733333Y-34943250D01*
X67716666Y-34959916D01*
X67683333Y-34976583D01*
X67550000Y-34976583D01*
X67550000Y-34626583D01*
X67666666Y-34626583D01*
X67700000Y-34643250D01*
X67716666Y-34659916D01*
X67733333Y-34693250D01*
X67733333Y-34726583D01*
X67716666Y-34759916D01*
X67700000Y-34776583D01*
X67666666Y-34793250D01*
X67550000Y-34793250D01*
X68050000Y-34976583D02*
X68050000Y-34793250D01*
X68033333Y-34759916D01*
X68000000Y-34743250D01*
X67933333Y-34743250D01*
X67900000Y-34759916D01*
X68050000Y-34959916D02*
X68016666Y-34976583D01*
X67933333Y-34976583D01*
X67900000Y-34959916D01*
X67883333Y-34926583D01*
X67883333Y-34893250D01*
X67900000Y-34859916D01*
X67933333Y-34843250D01*
X68016666Y-34843250D01*
X68050000Y-34826583D01*
X68166666Y-34743250D02*
X68300000Y-34743250D01*
X68216666Y-34626583D02*
X68216666Y-34926583D01*
X68233333Y-34959916D01*
X68266666Y-34976583D01*
X68300000Y-34976583D01*
X68366666Y-34626583D02*
X68483333Y-34976583D01*
X68600000Y-34626583D01*
X68733333Y-34959916D02*
X68733333Y-34976583D01*
X68716666Y-35009916D01*
X68700000Y-35026583D01*
X65325000Y-35523416D02*
X65291666Y-35540083D01*
X65225000Y-35540083D01*
X65191666Y-35523416D01*
X65175000Y-35506750D01*
X65158333Y-35473416D01*
X65158333Y-35373416D01*
X65175000Y-35340083D01*
X65191666Y-35323416D01*
X65225000Y-35306750D01*
X65291666Y-35306750D01*
X65325000Y-35323416D01*
X65475000Y-35540083D02*
X65475000Y-35190083D01*
X65625000Y-35540083D02*
X65625000Y-35356750D01*
X65608333Y-35323416D01*
X65575000Y-35306750D01*
X65525000Y-35306750D01*
X65491666Y-35323416D01*
X65475000Y-35340083D01*
X65941666Y-35540083D02*
X65941666Y-35356750D01*
X65925000Y-35323416D01*
X65891666Y-35306750D01*
X65825000Y-35306750D01*
X65791666Y-35323416D01*
X65941666Y-35523416D02*
X65908333Y-35540083D01*
X65825000Y-35540083D01*
X65791666Y-35523416D01*
X65775000Y-35490083D01*
X65775000Y-35456750D01*
X65791666Y-35423416D01*
X65825000Y-35406750D01*
X65908333Y-35406750D01*
X65941666Y-35390083D01*
X66108333Y-35306750D02*
X66108333Y-35540083D01*
X66108333Y-35340083D02*
X66125000Y-35323416D01*
X66158333Y-35306750D01*
X66208333Y-35306750D01*
X66241666Y-35323416D01*
X66258333Y-35356750D01*
X66258333Y-35540083D01*
X66575000Y-35306750D02*
X66575000Y-35590083D01*
X66558333Y-35623416D01*
X66541666Y-35640083D01*
X66508333Y-35656750D01*
X66458333Y-35656750D01*
X66425000Y-35640083D01*
X66575000Y-35523416D02*
X66541666Y-35540083D01*
X66475000Y-35540083D01*
X66441666Y-35523416D01*
X66425000Y-35506750D01*
X66408333Y-35473416D01*
X66408333Y-35373416D01*
X66425000Y-35340083D01*
X66441666Y-35323416D01*
X66475000Y-35306750D01*
X66541666Y-35306750D01*
X66575000Y-35323416D01*
X66875000Y-35523416D02*
X66841666Y-35540083D01*
X66775000Y-35540083D01*
X66741666Y-35523416D01*
X66725000Y-35490083D01*
X66725000Y-35356750D01*
X66741666Y-35323416D01*
X66775000Y-35306750D01*
X66841666Y-35306750D01*
X66875000Y-35323416D01*
X66891666Y-35356750D01*
X66891666Y-35390083D01*
X66725000Y-35423416D01*
X67508333Y-35540083D02*
X67391666Y-35373416D01*
X67308333Y-35540083D02*
X67308333Y-35190083D01*
X67441666Y-35190083D01*
X67475000Y-35206750D01*
X67491666Y-35223416D01*
X67508333Y-35256750D01*
X67508333Y-35306750D01*
X67491666Y-35340083D01*
X67475000Y-35356750D01*
X67441666Y-35373416D01*
X67308333Y-35373416D01*
X67641666Y-35223416D02*
X67658333Y-35206750D01*
X67691666Y-35190083D01*
X67775000Y-35190083D01*
X67808333Y-35206750D01*
X67825000Y-35223416D01*
X67841666Y-35256750D01*
X67841666Y-35290083D01*
X67825000Y-35340083D01*
X67625000Y-35540083D01*
X67841666Y-35540083D01*
D11*
X59585714Y-73492857D02*
X59557142Y-73464285D01*
X59528571Y-73378571D01*
X59528571Y-73321428D01*
X59557142Y-73235714D01*
X59614285Y-73178571D01*
X59671428Y-73150000D01*
X59785714Y-73121428D01*
X59871428Y-73121428D01*
X59985714Y-73150000D01*
X60042857Y-73178571D01*
X60100000Y-73235714D01*
X60128571Y-73321428D01*
X60128571Y-73378571D01*
X60100000Y-73464285D01*
X60071428Y-73492857D01*
X59528571Y-73750000D02*
X60128571Y-73750000D01*
X59842857Y-73750000D02*
X59842857Y-74092857D01*
X59528571Y-74092857D02*
X60128571Y-74092857D01*
X59700000Y-74350000D02*
X59700000Y-74635714D01*
X59528571Y-74292857D02*
X60128571Y-74492857D01*
X59528571Y-74692857D01*
X59528571Y-75235714D02*
X59814285Y-75035714D01*
X59528571Y-74892857D02*
X60128571Y-74892857D01*
X60128571Y-75121428D01*
X60100000Y-75178571D01*
X60071428Y-75207142D01*
X60014285Y-75235714D01*
X59928571Y-75235714D01*
X59871428Y-75207142D01*
X59842857Y-75178571D01*
X59814285Y-75121428D01*
X59814285Y-74892857D01*
X60100000Y-75807142D02*
X60128571Y-75750000D01*
X60128571Y-75664285D01*
X60100000Y-75578571D01*
X60042857Y-75521428D01*
X59985714Y-75492857D01*
X59871428Y-75464285D01*
X59785714Y-75464285D01*
X59671428Y-75492857D01*
X59614285Y-75521428D01*
X59557142Y-75578571D01*
X59528571Y-75664285D01*
X59528571Y-75721428D01*
X59557142Y-75807142D01*
X59585714Y-75835714D01*
X59785714Y-75835714D01*
X59785714Y-75721428D01*
X59842857Y-76092857D02*
X59842857Y-76292857D01*
X59528571Y-76378571D02*
X59528571Y-76092857D01*
X60128571Y-76092857D01*
X60128571Y-76378571D01*
X59528571Y-76978571D02*
X59814285Y-76778571D01*
X59528571Y-76635714D02*
X60128571Y-76635714D01*
X60128571Y-76864285D01*
X60100000Y-76921428D01*
X60071428Y-76950000D01*
X60014285Y-76978571D01*
X59928571Y-76978571D01*
X59871428Y-76950000D01*
X59842857Y-76921428D01*
X59814285Y-76864285D01*
X59814285Y-76635714D01*
X66371428Y-77771428D02*
X66371428Y-77171428D01*
X66514285Y-77171428D01*
X66600000Y-77200000D01*
X66657142Y-77257142D01*
X66685714Y-77314285D01*
X66714285Y-77428571D01*
X66714285Y-77514285D01*
X66685714Y-77628571D01*
X66657142Y-77685714D01*
X66600000Y-77742857D01*
X66514285Y-77771428D01*
X66371428Y-77771428D01*
X66971428Y-77542857D02*
X67428571Y-77542857D01*
X83521428Y-70342857D02*
X82921428Y-70342857D01*
X83492857Y-70085714D02*
X83521428Y-70000000D01*
X83521428Y-69857142D01*
X83492857Y-69800000D01*
X83464285Y-69771428D01*
X83407142Y-69742857D01*
X83350000Y-69742857D01*
X83292857Y-69771428D01*
X83264285Y-69800000D01*
X83235714Y-69857142D01*
X83207142Y-69971428D01*
X83178571Y-70028571D01*
X83150000Y-70057142D01*
X83092857Y-70085714D01*
X83035714Y-70085714D01*
X82978571Y-70057142D01*
X82950000Y-70028571D01*
X82921428Y-69971428D01*
X82921428Y-69828571D01*
X82950000Y-69742857D01*
X82921428Y-69371428D02*
X82921428Y-69257142D01*
X82950000Y-69200000D01*
X83007142Y-69142857D01*
X83121428Y-69114285D01*
X83321428Y-69114285D01*
X83435714Y-69142857D01*
X83492857Y-69200000D01*
X83521428Y-69257142D01*
X83521428Y-69371428D01*
X83492857Y-69428571D01*
X83435714Y-69485714D01*
X83321428Y-69514285D01*
X83121428Y-69514285D01*
X83007142Y-69485714D01*
X82950000Y-69428571D01*
X82921428Y-69371428D01*
X83521428Y-68571428D02*
X83521428Y-68857142D01*
X82921428Y-68857142D01*
X83350000Y-68400000D02*
X83350000Y-68114285D01*
X83521428Y-68457142D02*
X82921428Y-68257142D01*
X83521428Y-68057142D01*
X82921428Y-67942857D02*
X82921428Y-67600000D01*
X83521428Y-67771428D02*
X82921428Y-67771428D01*
X82921428Y-67285714D02*
X82921428Y-67171428D01*
X82950000Y-67114285D01*
X83007142Y-67057142D01*
X83121428Y-67028571D01*
X83321428Y-67028571D01*
X83435714Y-67057142D01*
X83492857Y-67114285D01*
X83521428Y-67171428D01*
X83521428Y-67285714D01*
X83492857Y-67342857D01*
X83435714Y-67400000D01*
X83321428Y-67428571D01*
X83121428Y-67428571D01*
X83007142Y-67400000D01*
X82950000Y-67342857D01*
X82921428Y-67285714D01*
X83521428Y-66428571D02*
X83235714Y-66628571D01*
X83521428Y-66771428D02*
X82921428Y-66771428D01*
X82921428Y-66542857D01*
X82950000Y-66485714D01*
X82978571Y-66457142D01*
X83035714Y-66428571D01*
X83121428Y-66428571D01*
X83178571Y-66457142D01*
X83207142Y-66485714D01*
X83235714Y-66542857D01*
X83235714Y-66771428D01*
X105682142Y-71678571D02*
X105710714Y-71650000D01*
X105767857Y-71621428D01*
X105910714Y-71621428D01*
X105967857Y-71650000D01*
X105996428Y-71678571D01*
X106025000Y-71735714D01*
X106025000Y-71792857D01*
X105996428Y-71878571D01*
X105653571Y-72221428D01*
X106025000Y-72221428D01*
X106539285Y-71821428D02*
X106539285Y-72221428D01*
X106396428Y-71592857D02*
X106253571Y-72021428D01*
X106625000Y-72021428D01*
X106767857Y-71621428D02*
X106967857Y-72221428D01*
X107167857Y-71621428D01*
X107796428Y-71592857D02*
X107282142Y-72364285D01*
X107939285Y-71621428D02*
X108310714Y-71621428D01*
X108110714Y-71850000D01*
X108196428Y-71850000D01*
X108253571Y-71878571D01*
X108282142Y-71907142D01*
X108310714Y-71964285D01*
X108310714Y-72107142D01*
X108282142Y-72164285D01*
X108253571Y-72192857D01*
X108196428Y-72221428D01*
X108025000Y-72221428D01*
X107967857Y-72192857D01*
X107939285Y-72164285D01*
X108482142Y-71621428D02*
X108682142Y-72221428D01*
X108882142Y-71621428D01*
X109025000Y-71621428D02*
X109396428Y-71621428D01*
X109196428Y-71850000D01*
X109282142Y-71850000D01*
X109339285Y-71878571D01*
X109367857Y-71907142D01*
X109396428Y-71964285D01*
X109396428Y-72107142D01*
X109367857Y-72164285D01*
X109339285Y-72192857D01*
X109282142Y-72221428D01*
X109110714Y-72221428D01*
X109053571Y-72192857D01*
X109025000Y-72164285D01*
X110082142Y-71592857D02*
X109567857Y-72364285D01*
X110625000Y-72164285D02*
X110596428Y-72192857D01*
X110510714Y-72221428D01*
X110453571Y-72221428D01*
X110367857Y-72192857D01*
X110310714Y-72135714D01*
X110282142Y-72078571D01*
X110253571Y-71964285D01*
X110253571Y-71878571D01*
X110282142Y-71764285D01*
X110310714Y-71707142D01*
X110367857Y-71650000D01*
X110453571Y-71621428D01*
X110510714Y-71621428D01*
X110596428Y-71650000D01*
X110625000Y-71678571D01*
X110853571Y-72050000D02*
X111139285Y-72050000D01*
X110796428Y-72221428D02*
X110996428Y-71621428D01*
X111196428Y-72221428D01*
X111396428Y-72221428D02*
X111396428Y-71621428D01*
X111739285Y-72221428D01*
X111739285Y-71621428D01*
%TO.C,L3*%
X92015000Y-41963571D02*
X92300714Y-41963571D01*
X92300714Y-42563571D01*
X91872142Y-42563571D02*
X91500714Y-42563571D01*
X91700714Y-42335000D01*
X91615000Y-42335000D01*
X91557857Y-42306428D01*
X91529285Y-42277857D01*
X91500714Y-42220714D01*
X91500714Y-42077857D01*
X91529285Y-42020714D01*
X91557857Y-41992142D01*
X91615000Y-41963571D01*
X91786428Y-41963571D01*
X91843571Y-41992142D01*
X91872142Y-42020714D01*
%TO.C,PackLED1*%
X68371428Y-80121428D02*
X68371428Y-79521428D01*
X68600000Y-79521428D01*
X68657142Y-79550000D01*
X68685714Y-79578571D01*
X68714285Y-79635714D01*
X68714285Y-79721428D01*
X68685714Y-79778571D01*
X68657142Y-79807142D01*
X68600000Y-79835714D01*
X68371428Y-79835714D01*
X69228571Y-80121428D02*
X69228571Y-79807142D01*
X69200000Y-79750000D01*
X69142857Y-79721428D01*
X69028571Y-79721428D01*
X68971428Y-79750000D01*
X69228571Y-80092857D02*
X69171428Y-80121428D01*
X69028571Y-80121428D01*
X68971428Y-80092857D01*
X68942857Y-80035714D01*
X68942857Y-79978571D01*
X68971428Y-79921428D01*
X69028571Y-79892857D01*
X69171428Y-79892857D01*
X69228571Y-79864285D01*
X69771428Y-80092857D02*
X69714285Y-80121428D01*
X69600000Y-80121428D01*
X69542857Y-80092857D01*
X69514285Y-80064285D01*
X69485714Y-80007142D01*
X69485714Y-79835714D01*
X69514285Y-79778571D01*
X69542857Y-79750000D01*
X69600000Y-79721428D01*
X69714285Y-79721428D01*
X69771428Y-79750000D01*
X70028571Y-80121428D02*
X70028571Y-79521428D01*
X70085714Y-79892857D02*
X70257142Y-80121428D01*
X70257142Y-79721428D02*
X70028571Y-79950000D01*
X70800000Y-80121428D02*
X70514285Y-80121428D01*
X70514285Y-79521428D01*
X71000000Y-79807142D02*
X71200000Y-79807142D01*
X71285714Y-80121428D02*
X71000000Y-80121428D01*
X71000000Y-79521428D01*
X71285714Y-79521428D01*
X71542857Y-80121428D02*
X71542857Y-79521428D01*
X71685714Y-79521428D01*
X71771428Y-79550000D01*
X71828571Y-79607142D01*
X71857142Y-79664285D01*
X71885714Y-79778571D01*
X71885714Y-79864285D01*
X71857142Y-79978571D01*
X71828571Y-80035714D01*
X71771428Y-80092857D01*
X71685714Y-80121428D01*
X71542857Y-80121428D01*
X72457142Y-80121428D02*
X72114285Y-80121428D01*
X72285714Y-80121428D02*
X72285714Y-79521428D01*
X72228571Y-79607142D01*
X72171428Y-79664285D01*
X72114285Y-79692857D01*
%TO.C,CTTC1*%
X75577142Y-31855714D02*
X75605714Y-31827142D01*
X75691428Y-31798571D01*
X75748571Y-31798571D01*
X75834285Y-31827142D01*
X75891428Y-31884285D01*
X75920000Y-31941428D01*
X75948571Y-32055714D01*
X75948571Y-32141428D01*
X75920000Y-32255714D01*
X75891428Y-32312857D01*
X75834285Y-32370000D01*
X75748571Y-32398571D01*
X75691428Y-32398571D01*
X75605714Y-32370000D01*
X75577142Y-32341428D01*
X75405714Y-32398571D02*
X75062857Y-32398571D01*
X75234285Y-31798571D02*
X75234285Y-32398571D01*
X74948571Y-32398571D02*
X74605714Y-32398571D01*
X74777142Y-31798571D02*
X74777142Y-32398571D01*
X74062857Y-31855714D02*
X74091428Y-31827142D01*
X74177142Y-31798571D01*
X74234285Y-31798571D01*
X74320000Y-31827142D01*
X74377142Y-31884285D01*
X74405714Y-31941428D01*
X74434285Y-32055714D01*
X74434285Y-32141428D01*
X74405714Y-32255714D01*
X74377142Y-32312857D01*
X74320000Y-32370000D01*
X74234285Y-32398571D01*
X74177142Y-32398571D01*
X74091428Y-32370000D01*
X74062857Y-32341428D01*
X73491428Y-31798571D02*
X73834285Y-31798571D01*
X73662857Y-31798571D02*
X73662857Y-32398571D01*
X73720000Y-32312857D01*
X73777142Y-32255714D01*
X73834285Y-32227142D01*
%TO.C,IC1*%
X75504285Y-32781428D02*
X75504285Y-32181428D01*
X76132857Y-32724285D02*
X76104285Y-32752857D01*
X76018571Y-32781428D01*
X75961428Y-32781428D01*
X75875714Y-32752857D01*
X75818571Y-32695714D01*
X75790000Y-32638571D01*
X75761428Y-32524285D01*
X75761428Y-32438571D01*
X75790000Y-32324285D01*
X75818571Y-32267142D01*
X75875714Y-32210000D01*
X75961428Y-32181428D01*
X76018571Y-32181428D01*
X76104285Y-32210000D01*
X76132857Y-32238571D01*
X76704285Y-32781428D02*
X76361428Y-32781428D01*
X76532857Y-32781428D02*
X76532857Y-32181428D01*
X76475714Y-32267142D01*
X76418571Y-32324285D01*
X76361428Y-32352857D01*
%TO.C,C43*%
X130574285Y-52464285D02*
X130545714Y-52492857D01*
X130460000Y-52521428D01*
X130402857Y-52521428D01*
X130317142Y-52492857D01*
X130260000Y-52435714D01*
X130231428Y-52378571D01*
X130202857Y-52264285D01*
X130202857Y-52178571D01*
X130231428Y-52064285D01*
X130260000Y-52007142D01*
X130317142Y-51950000D01*
X130402857Y-51921428D01*
X130460000Y-51921428D01*
X130545714Y-51950000D01*
X130574285Y-51978571D01*
X131088571Y-52121428D02*
X131088571Y-52521428D01*
X130945714Y-51892857D02*
X130802857Y-52321428D01*
X131174285Y-52321428D01*
X131345714Y-51921428D02*
X131717142Y-51921428D01*
X131517142Y-52150000D01*
X131602857Y-52150000D01*
X131660000Y-52178571D01*
X131688571Y-52207142D01*
X131717142Y-52264285D01*
X131717142Y-52407142D01*
X131688571Y-52464285D01*
X131660000Y-52492857D01*
X131602857Y-52521428D01*
X131431428Y-52521428D01*
X131374285Y-52492857D01*
X131345714Y-52464285D01*
%TO.C,Q4*%
X72458571Y-51107142D02*
X72430000Y-51164285D01*
X72372857Y-51221428D01*
X72287142Y-51307142D01*
X72258571Y-51364285D01*
X72258571Y-51421428D01*
X72401428Y-51392857D02*
X72372857Y-51450000D01*
X72315714Y-51507142D01*
X72201428Y-51535714D01*
X72001428Y-51535714D01*
X71887142Y-51507142D01*
X71830000Y-51450000D01*
X71801428Y-51392857D01*
X71801428Y-51278571D01*
X71830000Y-51221428D01*
X71887142Y-51164285D01*
X72001428Y-51135714D01*
X72201428Y-51135714D01*
X72315714Y-51164285D01*
X72372857Y-51221428D01*
X72401428Y-51278571D01*
X72401428Y-51392857D01*
X72001428Y-50621428D02*
X72401428Y-50621428D01*
X71772857Y-50764285D02*
X72201428Y-50907142D01*
X72201428Y-50535714D01*
%TO.C,R2*%
X69800000Y-32471428D02*
X69600000Y-32185714D01*
X69457142Y-32471428D02*
X69457142Y-31871428D01*
X69685714Y-31871428D01*
X69742857Y-31900000D01*
X69771428Y-31928571D01*
X69800000Y-31985714D01*
X69800000Y-32071428D01*
X69771428Y-32128571D01*
X69742857Y-32157142D01*
X69685714Y-32185714D01*
X69457142Y-32185714D01*
X70028571Y-31928571D02*
X70057142Y-31900000D01*
X70114285Y-31871428D01*
X70257142Y-31871428D01*
X70314285Y-31900000D01*
X70342857Y-31928571D01*
X70371428Y-31985714D01*
X70371428Y-32042857D01*
X70342857Y-32128571D01*
X70000000Y-32471428D01*
X70371428Y-32471428D01*
%TO.C,C33*%
X82065714Y-36689285D02*
X82037142Y-36660714D01*
X82008571Y-36575000D01*
X82008571Y-36517857D01*
X82037142Y-36432142D01*
X82094285Y-36375000D01*
X82151428Y-36346428D01*
X82265714Y-36317857D01*
X82351428Y-36317857D01*
X82465714Y-36346428D01*
X82522857Y-36375000D01*
X82580000Y-36432142D01*
X82608571Y-36517857D01*
X82608571Y-36575000D01*
X82580000Y-36660714D01*
X82551428Y-36689285D01*
X82608571Y-36889285D02*
X82608571Y-37260714D01*
X82380000Y-37060714D01*
X82380000Y-37146428D01*
X82351428Y-37203571D01*
X82322857Y-37232142D01*
X82265714Y-37260714D01*
X82122857Y-37260714D01*
X82065714Y-37232142D01*
X82037142Y-37203571D01*
X82008571Y-37146428D01*
X82008571Y-36975000D01*
X82037142Y-36917857D01*
X82065714Y-36889285D01*
X82608571Y-37460714D02*
X82608571Y-37832142D01*
X82380000Y-37632142D01*
X82380000Y-37717857D01*
X82351428Y-37775000D01*
X82322857Y-37803571D01*
X82265714Y-37832142D01*
X82122857Y-37832142D01*
X82065714Y-37803571D01*
X82037142Y-37775000D01*
X82008571Y-37717857D01*
X82008571Y-37546428D01*
X82037142Y-37489285D01*
X82065714Y-37460714D01*
%TO.C,RFast1*%
X55857142Y-38671428D02*
X55657142Y-38385714D01*
X55514285Y-38671428D02*
X55514285Y-38071428D01*
X55742857Y-38071428D01*
X55800000Y-38100000D01*
X55828571Y-38128571D01*
X55857142Y-38185714D01*
X55857142Y-38271428D01*
X55828571Y-38328571D01*
X55800000Y-38357142D01*
X55742857Y-38385714D01*
X55514285Y-38385714D01*
X56314285Y-38357142D02*
X56114285Y-38357142D01*
X56114285Y-38671428D02*
X56114285Y-38071428D01*
X56400000Y-38071428D01*
X56885714Y-38671428D02*
X56885714Y-38357142D01*
X56857142Y-38300000D01*
X56800000Y-38271428D01*
X56685714Y-38271428D01*
X56628571Y-38300000D01*
X56885714Y-38642857D02*
X56828571Y-38671428D01*
X56685714Y-38671428D01*
X56628571Y-38642857D01*
X56600000Y-38585714D01*
X56600000Y-38528571D01*
X56628571Y-38471428D01*
X56685714Y-38442857D01*
X56828571Y-38442857D01*
X56885714Y-38414285D01*
X57142857Y-38642857D02*
X57200000Y-38671428D01*
X57314285Y-38671428D01*
X57371428Y-38642857D01*
X57400000Y-38585714D01*
X57400000Y-38557142D01*
X57371428Y-38500000D01*
X57314285Y-38471428D01*
X57228571Y-38471428D01*
X57171428Y-38442857D01*
X57142857Y-38385714D01*
X57142857Y-38357142D01*
X57171428Y-38300000D01*
X57228571Y-38271428D01*
X57314285Y-38271428D01*
X57371428Y-38300000D01*
X57571428Y-38271428D02*
X57800000Y-38271428D01*
X57657142Y-38071428D02*
X57657142Y-38585714D01*
X57685714Y-38642857D01*
X57742857Y-38671428D01*
X57800000Y-38671428D01*
X58314285Y-38671428D02*
X57971428Y-38671428D01*
X58142857Y-38671428D02*
X58142857Y-38071428D01*
X58085714Y-38157142D01*
X58028571Y-38214285D01*
X57971428Y-38242857D01*
%TO.C,C7*%
X80989285Y-40900000D02*
X81017857Y-40928571D01*
X81046428Y-41014285D01*
X81046428Y-41071428D01*
X81017857Y-41157142D01*
X80960714Y-41214285D01*
X80903571Y-41242857D01*
X80789285Y-41271428D01*
X80703571Y-41271428D01*
X80589285Y-41242857D01*
X80532142Y-41214285D01*
X80475000Y-41157142D01*
X80446428Y-41071428D01*
X80446428Y-41014285D01*
X80475000Y-40928571D01*
X80503571Y-40900000D01*
X80446428Y-40700000D02*
X80446428Y-40300000D01*
X81046428Y-40557142D01*
%TO.C,D5*%
X129878571Y-60357142D02*
X130478571Y-60357142D01*
X130478571Y-60500000D01*
X130450000Y-60585714D01*
X130392857Y-60642857D01*
X130335714Y-60671428D01*
X130221428Y-60700000D01*
X130135714Y-60700000D01*
X130021428Y-60671428D01*
X129964285Y-60642857D01*
X129907142Y-60585714D01*
X129878571Y-60500000D01*
X129878571Y-60357142D01*
X130478571Y-61242857D02*
X130478571Y-60957142D01*
X130192857Y-60928571D01*
X130221428Y-60957142D01*
X130250000Y-61014285D01*
X130250000Y-61157142D01*
X130221428Y-61214285D01*
X130192857Y-61242857D01*
X130135714Y-61271428D01*
X129992857Y-61271428D01*
X129935714Y-61242857D01*
X129907142Y-61214285D01*
X129878571Y-61157142D01*
X129878571Y-61014285D01*
X129907142Y-60957142D01*
X129935714Y-60928571D01*
%TO.C,C21*%
X81414285Y-38860714D02*
X81442857Y-38889285D01*
X81471428Y-38975000D01*
X81471428Y-39032142D01*
X81442857Y-39117857D01*
X81385714Y-39175000D01*
X81328571Y-39203571D01*
X81214285Y-39232142D01*
X81128571Y-39232142D01*
X81014285Y-39203571D01*
X80957142Y-39175000D01*
X80900000Y-39117857D01*
X80871428Y-39032142D01*
X80871428Y-38975000D01*
X80900000Y-38889285D01*
X80928571Y-38860714D01*
X80928571Y-38632142D02*
X80900000Y-38603571D01*
X80871428Y-38546428D01*
X80871428Y-38403571D01*
X80900000Y-38346428D01*
X80928571Y-38317857D01*
X80985714Y-38289285D01*
X81042857Y-38289285D01*
X81128571Y-38317857D01*
X81471428Y-38660714D01*
X81471428Y-38289285D01*
X81471428Y-37717857D02*
X81471428Y-38060714D01*
X81471428Y-37889285D02*
X80871428Y-37889285D01*
X80957142Y-37946428D01*
X81014285Y-38003571D01*
X81042857Y-38060714D01*
%TO.C,C4*%
X82095714Y-34600000D02*
X82067142Y-34571428D01*
X82038571Y-34485714D01*
X82038571Y-34428571D01*
X82067142Y-34342857D01*
X82124285Y-34285714D01*
X82181428Y-34257142D01*
X82295714Y-34228571D01*
X82381428Y-34228571D01*
X82495714Y-34257142D01*
X82552857Y-34285714D01*
X82610000Y-34342857D01*
X82638571Y-34428571D01*
X82638571Y-34485714D01*
X82610000Y-34571428D01*
X82581428Y-34600000D01*
X82438571Y-35114285D02*
X82038571Y-35114285D01*
X82667142Y-34971428D02*
X82238571Y-34828571D01*
X82238571Y-35200000D01*
%TO.C,C3*%
X79849285Y-35815000D02*
X79877857Y-35843571D01*
X79906428Y-35929285D01*
X79906428Y-35986428D01*
X79877857Y-36072142D01*
X79820714Y-36129285D01*
X79763571Y-36157857D01*
X79649285Y-36186428D01*
X79563571Y-36186428D01*
X79449285Y-36157857D01*
X79392142Y-36129285D01*
X79335000Y-36072142D01*
X79306428Y-35986428D01*
X79306428Y-35929285D01*
X79335000Y-35843571D01*
X79363571Y-35815000D01*
X79306428Y-35615000D02*
X79306428Y-35243571D01*
X79535000Y-35443571D01*
X79535000Y-35357857D01*
X79563571Y-35300714D01*
X79592142Y-35272142D01*
X79649285Y-35243571D01*
X79792142Y-35243571D01*
X79849285Y-35272142D01*
X79877857Y-35300714D01*
X79906428Y-35357857D01*
X79906428Y-35529285D01*
X79877857Y-35586428D01*
X79849285Y-35615000D01*
%TO.C,C40*%
X114725714Y-63461785D02*
X114697142Y-63433214D01*
X114668571Y-63347500D01*
X114668571Y-63290357D01*
X114697142Y-63204642D01*
X114754285Y-63147500D01*
X114811428Y-63118928D01*
X114925714Y-63090357D01*
X115011428Y-63090357D01*
X115125714Y-63118928D01*
X115182857Y-63147500D01*
X115240000Y-63204642D01*
X115268571Y-63290357D01*
X115268571Y-63347500D01*
X115240000Y-63433214D01*
X115211428Y-63461785D01*
X115068571Y-63976071D02*
X114668571Y-63976071D01*
X115297142Y-63833214D02*
X114868571Y-63690357D01*
X114868571Y-64061785D01*
X115268571Y-64404642D02*
X115268571Y-64461785D01*
X115240000Y-64518928D01*
X115211428Y-64547500D01*
X115154285Y-64576071D01*
X115040000Y-64604642D01*
X114897142Y-64604642D01*
X114782857Y-64576071D01*
X114725714Y-64547500D01*
X114697142Y-64518928D01*
X114668571Y-64461785D01*
X114668571Y-64404642D01*
X114697142Y-64347500D01*
X114725714Y-64318928D01*
X114782857Y-64290357D01*
X114897142Y-64261785D01*
X115040000Y-64261785D01*
X115154285Y-64290357D01*
X115211428Y-64318928D01*
X115240000Y-64347500D01*
X115268571Y-64404642D01*
%TO.C,C20*%
X123394285Y-56665714D02*
X123422857Y-56694285D01*
X123451428Y-56780000D01*
X123451428Y-56837142D01*
X123422857Y-56922857D01*
X123365714Y-56980000D01*
X123308571Y-57008571D01*
X123194285Y-57037142D01*
X123108571Y-57037142D01*
X122994285Y-57008571D01*
X122937142Y-56980000D01*
X122880000Y-56922857D01*
X122851428Y-56837142D01*
X122851428Y-56780000D01*
X122880000Y-56694285D01*
X122908571Y-56665714D01*
X122908571Y-56437142D02*
X122880000Y-56408571D01*
X122851428Y-56351428D01*
X122851428Y-56208571D01*
X122880000Y-56151428D01*
X122908571Y-56122857D01*
X122965714Y-56094285D01*
X123022857Y-56094285D01*
X123108571Y-56122857D01*
X123451428Y-56465714D01*
X123451428Y-56094285D01*
X122851428Y-55722857D02*
X122851428Y-55665714D01*
X122880000Y-55608571D01*
X122908571Y-55580000D01*
X122965714Y-55551428D01*
X123080000Y-55522857D01*
X123222857Y-55522857D01*
X123337142Y-55551428D01*
X123394285Y-55580000D01*
X123422857Y-55608571D01*
X123451428Y-55665714D01*
X123451428Y-55722857D01*
X123422857Y-55780000D01*
X123394285Y-55808571D01*
X123337142Y-55837142D01*
X123222857Y-55865714D01*
X123080000Y-55865714D01*
X122965714Y-55837142D01*
X122908571Y-55808571D01*
X122880000Y-55780000D01*
X122851428Y-55722857D01*
%TO.C,C19*%
X99954285Y-39285714D02*
X99982857Y-39314285D01*
X100011428Y-39400000D01*
X100011428Y-39457142D01*
X99982857Y-39542857D01*
X99925714Y-39600000D01*
X99868571Y-39628571D01*
X99754285Y-39657142D01*
X99668571Y-39657142D01*
X99554285Y-39628571D01*
X99497142Y-39600000D01*
X99440000Y-39542857D01*
X99411428Y-39457142D01*
X99411428Y-39400000D01*
X99440000Y-39314285D01*
X99468571Y-39285714D01*
X100011428Y-38714285D02*
X100011428Y-39057142D01*
X100011428Y-38885714D02*
X99411428Y-38885714D01*
X99497142Y-38942857D01*
X99554285Y-39000000D01*
X99582857Y-39057142D01*
X100011428Y-38428571D02*
X100011428Y-38314285D01*
X99982857Y-38257142D01*
X99954285Y-38228571D01*
X99868571Y-38171428D01*
X99754285Y-38142857D01*
X99525714Y-38142857D01*
X99468571Y-38171428D01*
X99440000Y-38200000D01*
X99411428Y-38257142D01*
X99411428Y-38371428D01*
X99440000Y-38428571D01*
X99468571Y-38457142D01*
X99525714Y-38485714D01*
X99668571Y-38485714D01*
X99725714Y-38457142D01*
X99754285Y-38428571D01*
X99782857Y-38371428D01*
X99782857Y-38257142D01*
X99754285Y-38200000D01*
X99725714Y-38171428D01*
X99668571Y-38142857D01*
%TO.C,C39*%
X96994285Y-45405714D02*
X97022857Y-45434285D01*
X97051428Y-45520000D01*
X97051428Y-45577142D01*
X97022857Y-45662857D01*
X96965714Y-45720000D01*
X96908571Y-45748571D01*
X96794285Y-45777142D01*
X96708571Y-45777142D01*
X96594285Y-45748571D01*
X96537142Y-45720000D01*
X96480000Y-45662857D01*
X96451428Y-45577142D01*
X96451428Y-45520000D01*
X96480000Y-45434285D01*
X96508571Y-45405714D01*
X96451428Y-45205714D02*
X96451428Y-44834285D01*
X96680000Y-45034285D01*
X96680000Y-44948571D01*
X96708571Y-44891428D01*
X96737142Y-44862857D01*
X96794285Y-44834285D01*
X96937142Y-44834285D01*
X96994285Y-44862857D01*
X97022857Y-44891428D01*
X97051428Y-44948571D01*
X97051428Y-45120000D01*
X97022857Y-45177142D01*
X96994285Y-45205714D01*
X97051428Y-44548571D02*
X97051428Y-44434285D01*
X97022857Y-44377142D01*
X96994285Y-44348571D01*
X96908571Y-44291428D01*
X96794285Y-44262857D01*
X96565714Y-44262857D01*
X96508571Y-44291428D01*
X96480000Y-44320000D01*
X96451428Y-44377142D01*
X96451428Y-44491428D01*
X96480000Y-44548571D01*
X96508571Y-44577142D01*
X96565714Y-44605714D01*
X96708571Y-44605714D01*
X96765714Y-44577142D01*
X96794285Y-44548571D01*
X96822857Y-44491428D01*
X96822857Y-44377142D01*
X96794285Y-44320000D01*
X96765714Y-44291428D01*
X96708571Y-44262857D01*
%TO.C,RAdp1*%
X56100000Y-41571428D02*
X55900000Y-41285714D01*
X55757142Y-41571428D02*
X55757142Y-40971428D01*
X55985714Y-40971428D01*
X56042857Y-41000000D01*
X56071428Y-41028571D01*
X56100000Y-41085714D01*
X56100000Y-41171428D01*
X56071428Y-41228571D01*
X56042857Y-41257142D01*
X55985714Y-41285714D01*
X55757142Y-41285714D01*
X56328571Y-41400000D02*
X56614285Y-41400000D01*
X56271428Y-41571428D02*
X56471428Y-40971428D01*
X56671428Y-41571428D01*
X57128571Y-41571428D02*
X57128571Y-40971428D01*
X57128571Y-41542857D02*
X57071428Y-41571428D01*
X56957142Y-41571428D01*
X56900000Y-41542857D01*
X56871428Y-41514285D01*
X56842857Y-41457142D01*
X56842857Y-41285714D01*
X56871428Y-41228571D01*
X56900000Y-41200000D01*
X56957142Y-41171428D01*
X57071428Y-41171428D01*
X57128571Y-41200000D01*
X57414285Y-41171428D02*
X57414285Y-41771428D01*
X57414285Y-41200000D02*
X57471428Y-41171428D01*
X57585714Y-41171428D01*
X57642857Y-41200000D01*
X57671428Y-41228571D01*
X57700000Y-41285714D01*
X57700000Y-41457142D01*
X57671428Y-41514285D01*
X57642857Y-41542857D01*
X57585714Y-41571428D01*
X57471428Y-41571428D01*
X57414285Y-41542857D01*
X58271428Y-41571428D02*
X57928571Y-41571428D01*
X58100000Y-41571428D02*
X58100000Y-40971428D01*
X58042857Y-41057142D01*
X57985714Y-41114285D01*
X57928571Y-41142857D01*
%TO.C,PowerLED1*%
X62171428Y-78635714D02*
X61571428Y-78635714D01*
X61571428Y-78407142D01*
X61600000Y-78350000D01*
X61628571Y-78321428D01*
X61685714Y-78292857D01*
X61771428Y-78292857D01*
X61828571Y-78321428D01*
X61857142Y-78350000D01*
X61885714Y-78407142D01*
X61885714Y-78635714D01*
X62171428Y-77950000D02*
X62142857Y-78007142D01*
X62114285Y-78035714D01*
X62057142Y-78064285D01*
X61885714Y-78064285D01*
X61828571Y-78035714D01*
X61800000Y-78007142D01*
X61771428Y-77950000D01*
X61771428Y-77864285D01*
X61800000Y-77807142D01*
X61828571Y-77778571D01*
X61885714Y-77750000D01*
X62057142Y-77750000D01*
X62114285Y-77778571D01*
X62142857Y-77807142D01*
X62171428Y-77864285D01*
X62171428Y-77950000D01*
X61771428Y-77550000D02*
X62171428Y-77435714D01*
X61885714Y-77321428D01*
X62171428Y-77207142D01*
X61771428Y-77092857D01*
X62142857Y-76635714D02*
X62171428Y-76692857D01*
X62171428Y-76807142D01*
X62142857Y-76864285D01*
X62085714Y-76892857D01*
X61857142Y-76892857D01*
X61800000Y-76864285D01*
X61771428Y-76807142D01*
X61771428Y-76692857D01*
X61800000Y-76635714D01*
X61857142Y-76607142D01*
X61914285Y-76607142D01*
X61971428Y-76892857D01*
X62171428Y-76350000D02*
X61771428Y-76350000D01*
X61885714Y-76350000D02*
X61828571Y-76321428D01*
X61800000Y-76292857D01*
X61771428Y-76235714D01*
X61771428Y-76178571D01*
X62171428Y-75692857D02*
X62171428Y-75978571D01*
X61571428Y-75978571D01*
X61857142Y-75492857D02*
X61857142Y-75292857D01*
X62171428Y-75207142D02*
X62171428Y-75492857D01*
X61571428Y-75492857D01*
X61571428Y-75207142D01*
X62171428Y-74950000D02*
X61571428Y-74950000D01*
X61571428Y-74807142D01*
X61600000Y-74721428D01*
X61657142Y-74664285D01*
X61714285Y-74635714D01*
X61828571Y-74607142D01*
X61914285Y-74607142D01*
X62028571Y-74635714D01*
X62085714Y-74664285D01*
X62142857Y-74721428D01*
X62171428Y-74807142D01*
X62171428Y-74950000D01*
X62171428Y-74035714D02*
X62171428Y-74378571D01*
X62171428Y-74207142D02*
X61571428Y-74207142D01*
X61657142Y-74264285D01*
X61714285Y-74321428D01*
X61742857Y-74378571D01*
%TO.C,R10*%
X81491428Y-34435714D02*
X81205714Y-34635714D01*
X81491428Y-34778571D02*
X80891428Y-34778571D01*
X80891428Y-34550000D01*
X80920000Y-34492857D01*
X80948571Y-34464285D01*
X81005714Y-34435714D01*
X81091428Y-34435714D01*
X81148571Y-34464285D01*
X81177142Y-34492857D01*
X81205714Y-34550000D01*
X81205714Y-34778571D01*
X81491428Y-33864285D02*
X81491428Y-34207142D01*
X81491428Y-34035714D02*
X80891428Y-34035714D01*
X80977142Y-34092857D01*
X81034285Y-34150000D01*
X81062857Y-34207142D01*
X80891428Y-33492857D02*
X80891428Y-33435714D01*
X80920000Y-33378571D01*
X80948571Y-33350000D01*
X81005714Y-33321428D01*
X81120000Y-33292857D01*
X81262857Y-33292857D01*
X81377142Y-33321428D01*
X81434285Y-33350000D01*
X81462857Y-33378571D01*
X81491428Y-33435714D01*
X81491428Y-33492857D01*
X81462857Y-33550000D01*
X81434285Y-33578571D01*
X81377142Y-33607142D01*
X81262857Y-33635714D01*
X81120000Y-33635714D01*
X81005714Y-33607142D01*
X80948571Y-33578571D01*
X80920000Y-33550000D01*
X80891428Y-33492857D01*
D10*
%TO.C,R17*%
X59972380Y-46042857D02*
X59496190Y-46376190D01*
X59972380Y-46614285D02*
X58972380Y-46614285D01*
X58972380Y-46233333D01*
X59020000Y-46138095D01*
X59067619Y-46090476D01*
X59162857Y-46042857D01*
X59305714Y-46042857D01*
X59400952Y-46090476D01*
X59448571Y-46138095D01*
X59496190Y-46233333D01*
X59496190Y-46614285D01*
X59972380Y-45090476D02*
X59972380Y-45661904D01*
X59972380Y-45376190D02*
X58972380Y-45376190D01*
X59115238Y-45471428D01*
X59210476Y-45566666D01*
X59258095Y-45661904D01*
X58972380Y-44757142D02*
X58972380Y-44090476D01*
X59972380Y-44519047D01*
D11*
%TO.C,C1*%
X78314285Y-29670000D02*
X78342857Y-29698571D01*
X78371428Y-29784285D01*
X78371428Y-29841428D01*
X78342857Y-29927142D01*
X78285714Y-29984285D01*
X78228571Y-30012857D01*
X78114285Y-30041428D01*
X78028571Y-30041428D01*
X77914285Y-30012857D01*
X77857142Y-29984285D01*
X77800000Y-29927142D01*
X77771428Y-29841428D01*
X77771428Y-29784285D01*
X77800000Y-29698571D01*
X77828571Y-29670000D01*
X78371428Y-29098571D02*
X78371428Y-29441428D01*
X78371428Y-29270000D02*
X77771428Y-29270000D01*
X77857142Y-29327142D01*
X77914285Y-29384285D01*
X77942857Y-29441428D01*
%TO.C,D6*%
X106857142Y-30111428D02*
X106857142Y-29511428D01*
X107000000Y-29511428D01*
X107085714Y-29540000D01*
X107142857Y-29597142D01*
X107171428Y-29654285D01*
X107200000Y-29768571D01*
X107200000Y-29854285D01*
X107171428Y-29968571D01*
X107142857Y-30025714D01*
X107085714Y-30082857D01*
X107000000Y-30111428D01*
X106857142Y-30111428D01*
X107714285Y-29511428D02*
X107600000Y-29511428D01*
X107542857Y-29540000D01*
X107514285Y-29568571D01*
X107457142Y-29654285D01*
X107428571Y-29768571D01*
X107428571Y-29997142D01*
X107457142Y-30054285D01*
X107485714Y-30082857D01*
X107542857Y-30111428D01*
X107657142Y-30111428D01*
X107714285Y-30082857D01*
X107742857Y-30054285D01*
X107771428Y-29997142D01*
X107771428Y-29854285D01*
X107742857Y-29797142D01*
X107714285Y-29768571D01*
X107657142Y-29740000D01*
X107542857Y-29740000D01*
X107485714Y-29768571D01*
X107457142Y-29797142D01*
X107428571Y-29854285D01*
%TO.C,R36*%
X63171428Y-75335714D02*
X62885714Y-75535714D01*
X63171428Y-75678571D02*
X62571428Y-75678571D01*
X62571428Y-75450000D01*
X62600000Y-75392857D01*
X62628571Y-75364285D01*
X62685714Y-75335714D01*
X62771428Y-75335714D01*
X62828571Y-75364285D01*
X62857142Y-75392857D01*
X62885714Y-75450000D01*
X62885714Y-75678571D01*
X62571428Y-75135714D02*
X62571428Y-74764285D01*
X62800000Y-74964285D01*
X62800000Y-74878571D01*
X62828571Y-74821428D01*
X62857142Y-74792857D01*
X62914285Y-74764285D01*
X63057142Y-74764285D01*
X63114285Y-74792857D01*
X63142857Y-74821428D01*
X63171428Y-74878571D01*
X63171428Y-75050000D01*
X63142857Y-75107142D01*
X63114285Y-75135714D01*
X62571428Y-74250000D02*
X62571428Y-74364285D01*
X62600000Y-74421428D01*
X62628571Y-74450000D01*
X62714285Y-74507142D01*
X62828571Y-74535714D01*
X63057142Y-74535714D01*
X63114285Y-74507142D01*
X63142857Y-74478571D01*
X63171428Y-74421428D01*
X63171428Y-74307142D01*
X63142857Y-74250000D01*
X63114285Y-74221428D01*
X63057142Y-74192857D01*
X62914285Y-74192857D01*
X62857142Y-74221428D01*
X62828571Y-74250000D01*
X62800000Y-74307142D01*
X62800000Y-74421428D01*
X62828571Y-74478571D01*
X62857142Y-74507142D01*
X62914285Y-74535714D01*
%TO.C,C36*%
X102654285Y-35854285D02*
X102625714Y-35882857D01*
X102540000Y-35911428D01*
X102482857Y-35911428D01*
X102397142Y-35882857D01*
X102340000Y-35825714D01*
X102311428Y-35768571D01*
X102282857Y-35654285D01*
X102282857Y-35568571D01*
X102311428Y-35454285D01*
X102340000Y-35397142D01*
X102397142Y-35340000D01*
X102482857Y-35311428D01*
X102540000Y-35311428D01*
X102625714Y-35340000D01*
X102654285Y-35368571D01*
X102854285Y-35311428D02*
X103225714Y-35311428D01*
X103025714Y-35540000D01*
X103111428Y-35540000D01*
X103168571Y-35568571D01*
X103197142Y-35597142D01*
X103225714Y-35654285D01*
X103225714Y-35797142D01*
X103197142Y-35854285D01*
X103168571Y-35882857D01*
X103111428Y-35911428D01*
X102940000Y-35911428D01*
X102882857Y-35882857D01*
X102854285Y-35854285D01*
X103740000Y-35311428D02*
X103625714Y-35311428D01*
X103568571Y-35340000D01*
X103540000Y-35368571D01*
X103482857Y-35454285D01*
X103454285Y-35568571D01*
X103454285Y-35797142D01*
X103482857Y-35854285D01*
X103511428Y-35882857D01*
X103568571Y-35911428D01*
X103682857Y-35911428D01*
X103740000Y-35882857D01*
X103768571Y-35854285D01*
X103797142Y-35797142D01*
X103797142Y-35654285D01*
X103768571Y-35597142D01*
X103740000Y-35568571D01*
X103682857Y-35540000D01*
X103568571Y-35540000D01*
X103511428Y-35568571D01*
X103482857Y-35597142D01*
X103454285Y-35654285D01*
%TO.C,L1*%
X61400000Y-44446428D02*
X61114285Y-44446428D01*
X61114285Y-43846428D01*
X61914285Y-44446428D02*
X61571428Y-44446428D01*
X61742857Y-44446428D02*
X61742857Y-43846428D01*
X61685714Y-43932142D01*
X61628571Y-43989285D01*
X61571428Y-44017857D01*
%TO.C,Q5*%
X77996428Y-43617857D02*
X78025000Y-43560714D01*
X78082142Y-43503571D01*
X78167857Y-43417857D01*
X78196428Y-43360714D01*
X78196428Y-43303571D01*
X78053571Y-43332142D02*
X78082142Y-43275000D01*
X78139285Y-43217857D01*
X78253571Y-43189285D01*
X78453571Y-43189285D01*
X78567857Y-43217857D01*
X78625000Y-43275000D01*
X78653571Y-43332142D01*
X78653571Y-43446428D01*
X78625000Y-43503571D01*
X78567857Y-43560714D01*
X78453571Y-43589285D01*
X78253571Y-43589285D01*
X78139285Y-43560714D01*
X78082142Y-43503571D01*
X78053571Y-43446428D01*
X78053571Y-43332142D01*
X78653571Y-44132142D02*
X78653571Y-43846428D01*
X78367857Y-43817857D01*
X78396428Y-43846428D01*
X78425000Y-43903571D01*
X78425000Y-44046428D01*
X78396428Y-44103571D01*
X78367857Y-44132142D01*
X78310714Y-44160714D01*
X78167857Y-44160714D01*
X78110714Y-44132142D01*
X78082142Y-44103571D01*
X78053571Y-44046428D01*
X78053571Y-43903571D01*
X78082142Y-43846428D01*
X78110714Y-43817857D01*
%TO.C,R16*%
X79961428Y-29665714D02*
X79675714Y-29865714D01*
X79961428Y-30008571D02*
X79361428Y-30008571D01*
X79361428Y-29780000D01*
X79390000Y-29722857D01*
X79418571Y-29694285D01*
X79475714Y-29665714D01*
X79561428Y-29665714D01*
X79618571Y-29694285D01*
X79647142Y-29722857D01*
X79675714Y-29780000D01*
X79675714Y-30008571D01*
X79961428Y-29094285D02*
X79961428Y-29437142D01*
X79961428Y-29265714D02*
X79361428Y-29265714D01*
X79447142Y-29322857D01*
X79504285Y-29380000D01*
X79532857Y-29437142D01*
X79361428Y-28580000D02*
X79361428Y-28694285D01*
X79390000Y-28751428D01*
X79418571Y-28780000D01*
X79504285Y-28837142D01*
X79618571Y-28865714D01*
X79847142Y-28865714D01*
X79904285Y-28837142D01*
X79932857Y-28808571D01*
X79961428Y-28751428D01*
X79961428Y-28637142D01*
X79932857Y-28580000D01*
X79904285Y-28551428D01*
X79847142Y-28522857D01*
X79704285Y-28522857D01*
X79647142Y-28551428D01*
X79618571Y-28580000D01*
X79590000Y-28637142D01*
X79590000Y-28751428D01*
X79618571Y-28808571D01*
X79647142Y-28837142D01*
X79704285Y-28865714D01*
%TO.C,Q7*%
X116738571Y-85412142D02*
X116710000Y-85469285D01*
X116652857Y-85526428D01*
X116567142Y-85612142D01*
X116538571Y-85669285D01*
X116538571Y-85726428D01*
X116681428Y-85697857D02*
X116652857Y-85755000D01*
X116595714Y-85812142D01*
X116481428Y-85840714D01*
X116281428Y-85840714D01*
X116167142Y-85812142D01*
X116110000Y-85755000D01*
X116081428Y-85697857D01*
X116081428Y-85583571D01*
X116110000Y-85526428D01*
X116167142Y-85469285D01*
X116281428Y-85440714D01*
X116481428Y-85440714D01*
X116595714Y-85469285D01*
X116652857Y-85526428D01*
X116681428Y-85583571D01*
X116681428Y-85697857D01*
X116081428Y-85240714D02*
X116081428Y-84840714D01*
X116681428Y-85097857D01*
%TO.C,C38*%
X113735714Y-63464285D02*
X113707142Y-63435714D01*
X113678571Y-63350000D01*
X113678571Y-63292857D01*
X113707142Y-63207142D01*
X113764285Y-63150000D01*
X113821428Y-63121428D01*
X113935714Y-63092857D01*
X114021428Y-63092857D01*
X114135714Y-63121428D01*
X114192857Y-63150000D01*
X114250000Y-63207142D01*
X114278571Y-63292857D01*
X114278571Y-63350000D01*
X114250000Y-63435714D01*
X114221428Y-63464285D01*
X114278571Y-63664285D02*
X114278571Y-64035714D01*
X114050000Y-63835714D01*
X114050000Y-63921428D01*
X114021428Y-63978571D01*
X113992857Y-64007142D01*
X113935714Y-64035714D01*
X113792857Y-64035714D01*
X113735714Y-64007142D01*
X113707142Y-63978571D01*
X113678571Y-63921428D01*
X113678571Y-63750000D01*
X113707142Y-63692857D01*
X113735714Y-63664285D01*
X114021428Y-64378571D02*
X114050000Y-64321428D01*
X114078571Y-64292857D01*
X114135714Y-64264285D01*
X114164285Y-64264285D01*
X114221428Y-64292857D01*
X114250000Y-64321428D01*
X114278571Y-64378571D01*
X114278571Y-64492857D01*
X114250000Y-64550000D01*
X114221428Y-64578571D01*
X114164285Y-64607142D01*
X114135714Y-64607142D01*
X114078571Y-64578571D01*
X114050000Y-64550000D01*
X114021428Y-64492857D01*
X114021428Y-64378571D01*
X113992857Y-64321428D01*
X113964285Y-64292857D01*
X113907142Y-64264285D01*
X113792857Y-64264285D01*
X113735714Y-64292857D01*
X113707142Y-64321428D01*
X113678571Y-64378571D01*
X113678571Y-64492857D01*
X113707142Y-64550000D01*
X113735714Y-64578571D01*
X113792857Y-64607142D01*
X113907142Y-64607142D01*
X113964285Y-64578571D01*
X113992857Y-64550000D01*
X114021428Y-64492857D01*
%TO.C,D1*%
X70937142Y-35351428D02*
X70937142Y-34751428D01*
X71080000Y-34751428D01*
X71165714Y-34780000D01*
X71222857Y-34837142D01*
X71251428Y-34894285D01*
X71280000Y-35008571D01*
X71280000Y-35094285D01*
X71251428Y-35208571D01*
X71222857Y-35265714D01*
X71165714Y-35322857D01*
X71080000Y-35351428D01*
X70937142Y-35351428D01*
X71851428Y-35351428D02*
X71508571Y-35351428D01*
X71680000Y-35351428D02*
X71680000Y-34751428D01*
X71622857Y-34837142D01*
X71565714Y-34894285D01*
X71508571Y-34922857D01*
%TO.C,U1*%
X93518571Y-61102857D02*
X93032857Y-61102857D01*
X92975714Y-61131428D01*
X92947142Y-61160000D01*
X92918571Y-61217142D01*
X92918571Y-61331428D01*
X92947142Y-61388571D01*
X92975714Y-61417142D01*
X93032857Y-61445714D01*
X93518571Y-61445714D01*
X92918571Y-62045714D02*
X92918571Y-61702857D01*
X92918571Y-61874285D02*
X93518571Y-61874285D01*
X93432857Y-61817142D01*
X93375714Y-61760000D01*
X93347142Y-61702857D01*
%TO.C,RPre1*%
X56257142Y-40071428D02*
X56057142Y-39785714D01*
X55914285Y-40071428D02*
X55914285Y-39471428D01*
X56142857Y-39471428D01*
X56200000Y-39500000D01*
X56228571Y-39528571D01*
X56257142Y-39585714D01*
X56257142Y-39671428D01*
X56228571Y-39728571D01*
X56200000Y-39757142D01*
X56142857Y-39785714D01*
X55914285Y-39785714D01*
X56514285Y-40071428D02*
X56514285Y-39471428D01*
X56742857Y-39471428D01*
X56800000Y-39500000D01*
X56828571Y-39528571D01*
X56857142Y-39585714D01*
X56857142Y-39671428D01*
X56828571Y-39728571D01*
X56800000Y-39757142D01*
X56742857Y-39785714D01*
X56514285Y-39785714D01*
X57114285Y-40071428D02*
X57114285Y-39671428D01*
X57114285Y-39785714D02*
X57142857Y-39728571D01*
X57171428Y-39700000D01*
X57228571Y-39671428D01*
X57285714Y-39671428D01*
X57714285Y-40042857D02*
X57657142Y-40071428D01*
X57542857Y-40071428D01*
X57485714Y-40042857D01*
X57457142Y-39985714D01*
X57457142Y-39757142D01*
X57485714Y-39700000D01*
X57542857Y-39671428D01*
X57657142Y-39671428D01*
X57714285Y-39700000D01*
X57742857Y-39757142D01*
X57742857Y-39814285D01*
X57457142Y-39871428D01*
X58314285Y-40071428D02*
X57971428Y-40071428D01*
X58142857Y-40071428D02*
X58142857Y-39471428D01*
X58085714Y-39557142D01*
X58028571Y-39614285D01*
X57971428Y-39642857D01*
%TO.C,R9*%
X79338571Y-36660000D02*
X79624285Y-36460000D01*
X79338571Y-36317142D02*
X79938571Y-36317142D01*
X79938571Y-36545714D01*
X79910000Y-36602857D01*
X79881428Y-36631428D01*
X79824285Y-36660000D01*
X79738571Y-36660000D01*
X79681428Y-36631428D01*
X79652857Y-36602857D01*
X79624285Y-36545714D01*
X79624285Y-36317142D01*
X79338571Y-36945714D02*
X79338571Y-37060000D01*
X79367142Y-37117142D01*
X79395714Y-37145714D01*
X79481428Y-37202857D01*
X79595714Y-37231428D01*
X79824285Y-37231428D01*
X79881428Y-37202857D01*
X79910000Y-37174285D01*
X79938571Y-37117142D01*
X79938571Y-37002857D01*
X79910000Y-36945714D01*
X79881428Y-36917142D01*
X79824285Y-36888571D01*
X79681428Y-36888571D01*
X79624285Y-36917142D01*
X79595714Y-36945714D01*
X79567142Y-37002857D01*
X79567142Y-37117142D01*
X79595714Y-37174285D01*
X79624285Y-37202857D01*
X79681428Y-37231428D01*
%TO.C,L4*%
X116430000Y-59508571D02*
X116715714Y-59508571D01*
X116715714Y-60108571D01*
X115972857Y-59908571D02*
X115972857Y-59508571D01*
X116115714Y-60137142D02*
X116258571Y-59708571D01*
X115887142Y-59708571D01*
D13*
%TO.C,R28*%
X71972936Y-81785000D02*
X72427064Y-81785000D01*
X71972936Y-80315000D02*
X72427064Y-80315000D01*
%TO.C,R29*%
X62715000Y-70522936D02*
X62715000Y-70977064D01*
X64185000Y-70522936D02*
X64185000Y-70977064D01*
%TO.C,R22*%
X61727500Y-80737258D02*
X61727500Y-80262742D01*
X62772500Y-80737258D02*
X62772500Y-80262742D01*
%TO.C,C37*%
X128459420Y-51010000D02*
X128740580Y-51010000D01*
X128459420Y-49990000D02*
X128740580Y-49990000D01*
%TO.C,L3*%
X85200000Y-41150000D02*
X85200000Y-28550000D01*
X94800000Y-28550000D02*
X97800000Y-28550000D01*
X97800000Y-41150000D02*
X94800000Y-41150000D01*
X88200000Y-41150000D02*
X85200000Y-41150000D01*
X97800000Y-28550000D02*
X97800000Y-41150000D01*
X85200000Y-28550000D02*
X88200000Y-28550000D01*
%TO.C,PackLED1*%
X68150000Y-81785000D02*
X70435000Y-81785000D01*
X70435000Y-80315000D02*
X68150000Y-80315000D01*
X70435000Y-81785000D02*
X70435000Y-80315000D01*
%TO.C,CTTC1*%
X75759420Y-30390000D02*
X76040580Y-30390000D01*
X75759420Y-31410000D02*
X76040580Y-31410000D01*
%TO.C,IC1*%
X74050000Y-37920000D02*
X74050000Y-37445000D01*
X74050000Y-33700000D02*
X74050000Y-34175000D01*
X74525000Y-37920000D02*
X74050000Y-37920000D01*
X74525000Y-33700000D02*
X74050000Y-33700000D01*
X78270000Y-33700000D02*
X78270000Y-34175000D01*
X77795000Y-33700000D02*
X78270000Y-33700000D01*
X77795000Y-37920000D02*
X78270000Y-37920000D01*
%TO.C,C44*%
X117709420Y-69510000D02*
X117990580Y-69510000D01*
X117709420Y-68490000D02*
X117990580Y-68490000D01*
%TO.C,J6*%
X83700000Y-82550000D02*
X92000000Y-82550000D01*
X92000000Y-82550000D02*
X92000000Y-69700000D01*
X89450000Y-66850000D02*
X86300000Y-66850000D01*
X92000000Y-69700000D02*
X89450000Y-66850000D01*
X83700000Y-69700000D02*
X83700000Y-82550000D01*
X86300000Y-66850000D02*
X83700000Y-69700000D01*
%TO.C,C5*%
X68240580Y-37510000D02*
X67959420Y-37510000D01*
X68240580Y-36490000D02*
X67959420Y-36490000D01*
%TO.C,C43*%
X128661252Y-51565000D02*
X128138748Y-51565000D01*
X128661252Y-53035000D02*
X128138748Y-53035000D01*
%TO.C,Q4*%
X72690000Y-50960000D02*
X72690000Y-52910000D01*
X77810000Y-50960000D02*
X77810000Y-52910000D01*
X77810000Y-50960000D02*
X77810000Y-47510000D01*
X72690000Y-50960000D02*
X72690000Y-49010000D01*
%TO.C,R2*%
X70777500Y-32662742D02*
X70777500Y-33137258D01*
X71822500Y-32662742D02*
X71822500Y-33137258D01*
%TO.C,Q3*%
X78520000Y-55140000D02*
X80330000Y-55140000D01*
X88920000Y-56640000D02*
X88920000Y-55140000D01*
X78520000Y-56640000D02*
X78520000Y-55140000D01*
X87110000Y-55140000D02*
X87110000Y-50015000D01*
X88920000Y-55140000D02*
X87110000Y-55140000D01*
X80330000Y-55140000D02*
X80330000Y-54040000D01*
%TO.C,C33*%
X81660000Y-37940580D02*
X81660000Y-37659420D01*
X80640000Y-37940580D02*
X80640000Y-37659420D01*
%TO.C,RFast1*%
X60167258Y-37787500D02*
X59692742Y-37787500D01*
X60167258Y-38832500D02*
X59692742Y-38832500D01*
%TO.C,C7*%
X79090000Y-40940580D02*
X79090000Y-40659420D01*
X80110000Y-40940580D02*
X80110000Y-40659420D01*
D14*
%TO.C,RAC1*%
X73660000Y-54970000D02*
X76060000Y-54970000D01*
X73660000Y-66170000D02*
X76060000Y-66170000D01*
D13*
%TO.C,C6*%
X70909420Y-39415000D02*
X71190580Y-39415000D01*
X70909420Y-40435000D02*
X71190580Y-40435000D01*
%TO.C,J5*%
X59210000Y-66515000D02*
X59210000Y-69615000D01*
X49390000Y-66515000D02*
X59210000Y-66515000D01*
X49150000Y-76575000D02*
X52000000Y-76575000D01*
X49150000Y-73725000D02*
X49150000Y-76575000D01*
X59210000Y-76335000D02*
X59210000Y-73235000D01*
X60610000Y-73235000D02*
X60610000Y-71425000D01*
X49390000Y-76335000D02*
X59210000Y-76335000D01*
X49390000Y-71425000D02*
X49390000Y-76335000D01*
X60610000Y-69615000D02*
X60610000Y-71425000D01*
X49390000Y-71425000D02*
X49390000Y-66515000D01*
X59210000Y-73235000D02*
X60610000Y-73235000D01*
X59210000Y-69615000D02*
X60610000Y-69615000D01*
%TO.C,C41*%
X88490000Y-41840000D02*
X88490000Y-46360000D01*
X96550000Y-41840000D02*
X88490000Y-41840000D01*
X88490000Y-46360000D02*
X96550000Y-46360000D01*
%TO.C,C42*%
X98415000Y-37238748D02*
X98415000Y-37761252D01*
X99885000Y-37238748D02*
X99885000Y-37761252D01*
%TO.C,J4*%
X100790000Y-72700000D02*
X100790000Y-71300000D01*
X111950000Y-82760000D02*
X111950000Y-79910000D01*
X93490000Y-72700000D02*
X100790000Y-72700000D01*
X109100000Y-82760000D02*
X111950000Y-82760000D01*
X111710000Y-72700000D02*
X104410000Y-72700000D01*
X104410000Y-71300000D02*
X102600000Y-71300000D01*
X93490000Y-82520000D02*
X93490000Y-72700000D01*
X100790000Y-71300000D02*
X102600000Y-71300000D01*
X111710000Y-82520000D02*
X111710000Y-72700000D01*
X102600000Y-82520000D02*
X111710000Y-82520000D01*
X102600000Y-82520000D02*
X93490000Y-82520000D01*
X104410000Y-72700000D02*
X104410000Y-71300000D01*
%TO.C,TP23*%
X69340000Y-77500000D02*
G75*
G03*
X69340000Y-77500000I-700000J0D01*
G01*
%TO.C,D5*%
X134600000Y-66110000D02*
X135010000Y-66110000D01*
X130790000Y-60490000D02*
X130790000Y-66110000D01*
X130790000Y-66110000D02*
X131200000Y-66110000D01*
X134750000Y-60490000D02*
X135010000Y-60490000D01*
X130790000Y-60490000D02*
X131050000Y-60490000D01*
X135010000Y-66110000D02*
X135010000Y-60490000D01*
X134600000Y-66110000D02*
X134600000Y-66900000D01*
%TO.C,C21*%
X80690000Y-40940580D02*
X80690000Y-40659420D01*
X81710000Y-40940580D02*
X81710000Y-40659420D01*
%TO.C,C4*%
X81660000Y-34509420D02*
X81660000Y-34790580D01*
X80640000Y-34509420D02*
X80640000Y-34790580D01*
%TO.C,C3*%
X80160000Y-37659420D02*
X80160000Y-37940580D01*
X79140000Y-37659420D02*
X79140000Y-37940580D01*
%TO.C,RSR1*%
X66062742Y-39477500D02*
X66537258Y-39477500D01*
X66062742Y-40522500D02*
X66537258Y-40522500D01*
%TO.C,Q10*%
X115450000Y-68440000D02*
X113550000Y-68440000D01*
X114050000Y-70760000D02*
X115450000Y-70760000D01*
%TO.C,R5*%
X63157258Y-37947500D02*
X62682742Y-37947500D01*
X63157258Y-38992500D02*
X62682742Y-38992500D01*
%TO.C,C10*%
X69060000Y-39390580D02*
X69060000Y-39109420D01*
X68040000Y-39390580D02*
X68040000Y-39109420D01*
%TO.C,C48*%
X117709420Y-71010000D02*
X117990580Y-71010000D01*
X117709420Y-69990000D02*
X117990580Y-69990000D01*
%TO.C,C40*%
X114360000Y-59390000D02*
X109840000Y-59390000D01*
X114360000Y-67450000D02*
X114360000Y-59390000D01*
X109840000Y-59390000D02*
X109840000Y-67450000D01*
%TO.C,J2*%
X124575000Y-44580000D02*
X123245000Y-44580000D01*
X125845000Y-44580000D02*
X128445000Y-44580000D01*
X123245000Y-44580000D02*
X123245000Y-43250000D01*
X125845000Y-41920000D02*
X128445000Y-41920000D01*
X125845000Y-44580000D02*
X125845000Y-41920000D01*
X128445000Y-44580000D02*
X128445000Y-41920000D01*
%TO.C,R32*%
X83162742Y-36622500D02*
X83637258Y-36622500D01*
X83162742Y-35577500D02*
X83637258Y-35577500D01*
%TO.C,C20*%
X128615748Y-58910000D02*
X125784252Y-58910000D01*
X128615748Y-53690000D02*
X125784252Y-53690000D01*
%TO.C,C11*%
X66440580Y-37990000D02*
X66159420Y-37990000D01*
X66440580Y-39010000D02*
X66159420Y-39010000D01*
%TO.C,R37*%
X69867500Y-77862742D02*
X69867500Y-78337258D01*
X70912500Y-77862742D02*
X70912500Y-78337258D01*
%TO.C,Q9*%
X85940000Y-42600000D02*
X85940000Y-44000000D01*
X88260000Y-44000000D02*
X88260000Y-42100000D01*
%TO.C,J10*%
X113590000Y-77275000D02*
X119140000Y-77275000D01*
X125440000Y-81725000D02*
X123640000Y-81725000D01*
X125440000Y-82475000D02*
X125440000Y-81725000D01*
X112830000Y-82485000D02*
X125450000Y-82485000D01*
X123640000Y-82475000D02*
X125440000Y-82475000D01*
X125450000Y-82485000D02*
X125450000Y-76515000D01*
X116140000Y-81725000D02*
X116140000Y-82475000D01*
X122140000Y-82475000D02*
X122140000Y-81725000D01*
X112840000Y-82475000D02*
X114640000Y-82475000D01*
X119140000Y-77275000D02*
X123630000Y-77275000D01*
X124690000Y-80225000D02*
X124690000Y-78885000D01*
X112840000Y-80225000D02*
X113590000Y-80225000D01*
X116140000Y-82475000D02*
X122140000Y-82475000D01*
X125450000Y-76515000D02*
X112830000Y-76515000D01*
X123640000Y-81725000D02*
X123640000Y-82475000D01*
X113590000Y-80225000D02*
X113590000Y-77275000D01*
X122140000Y-81725000D02*
X116140000Y-81725000D01*
X114640000Y-81725000D02*
X112840000Y-81725000D01*
X114640000Y-82475000D02*
X114640000Y-81725000D01*
X112830000Y-76515000D02*
X112830000Y-82485000D01*
X112840000Y-81725000D02*
X112840000Y-82475000D01*
X124490000Y-82775000D02*
X125740000Y-82775000D01*
X125740000Y-82775000D02*
X125740000Y-81525000D01*
X125440000Y-80225000D02*
X124690000Y-80225000D01*
%TO.C,D9*%
X65985000Y-80835000D02*
X65985000Y-79365000D01*
X63700000Y-80835000D02*
X65985000Y-80835000D01*
X65985000Y-79365000D02*
X63700000Y-79365000D01*
%TO.C,C19*%
X100490000Y-37484252D02*
X100490000Y-40315748D01*
X105710000Y-37484252D02*
X105710000Y-40315748D01*
%TO.C,C14*%
X66140580Y-69440000D02*
X65859420Y-69440000D01*
X66140580Y-70460000D02*
X65859420Y-70460000D01*
%TO.C,C16*%
X59911252Y-81635000D02*
X59388748Y-81635000D01*
X59911252Y-80165000D02*
X59388748Y-80165000D01*
%TO.C,R3*%
X63157258Y-40472500D02*
X62682742Y-40472500D01*
X63157258Y-39427500D02*
X62682742Y-39427500D01*
%TO.C,C39*%
X105350000Y-42740000D02*
X97290000Y-42740000D01*
X97290000Y-47260000D02*
X105350000Y-47260000D01*
X97290000Y-42740000D02*
X97290000Y-47260000D01*
%TO.C,RAdp1*%
X60167258Y-40777500D02*
X59692742Y-40777500D01*
X60167258Y-41822500D02*
X59692742Y-41822500D01*
%TO.C,PowerLED1*%
X61015000Y-69900000D02*
X61015000Y-72185000D01*
X62485000Y-72185000D02*
X62485000Y-69900000D01*
X61015000Y-72185000D02*
X62485000Y-72185000D01*
%TO.C,R10*%
X80627500Y-31887258D02*
X80627500Y-31412742D01*
X81672500Y-31887258D02*
X81672500Y-31412742D01*
%TO.C,C12*%
X72561252Y-72735000D02*
X72038748Y-72735000D01*
X72561252Y-71265000D02*
X72038748Y-71265000D01*
%TO.C,R17*%
X56790000Y-44672936D02*
X56790000Y-46127064D01*
X58610000Y-44672936D02*
X58610000Y-46127064D01*
%TO.C,R15*%
X83637258Y-39622500D02*
X83162742Y-39622500D01*
X83637258Y-38577500D02*
X83162742Y-38577500D01*
%TO.C,D7*%
X71135000Y-76615000D02*
X71135000Y-78900000D01*
X72605000Y-78900000D02*
X72605000Y-76615000D01*
X72605000Y-76615000D02*
X71135000Y-76615000D01*
%TO.C,C9*%
X72761252Y-68735000D02*
X72238748Y-68735000D01*
X72761252Y-67265000D02*
X72238748Y-67265000D01*
%TO.C,R7*%
X63157258Y-36477500D02*
X62682742Y-36477500D01*
X63157258Y-37522500D02*
X62682742Y-37522500D01*
%TO.C,C8*%
X80565000Y-45261252D02*
X80565000Y-44738748D01*
X82035000Y-45261252D02*
X82035000Y-44738748D01*
%TO.C,R1*%
X68812742Y-33077500D02*
X69287258Y-33077500D01*
X68812742Y-34122500D02*
X69287258Y-34122500D01*
%TO.C,U6*%
X111450000Y-44910000D02*
X110350000Y-44910000D01*
X111450000Y-35890000D02*
X106325000Y-35890000D01*
X111450000Y-45600000D02*
X111450000Y-44910000D01*
X112950000Y-45600000D02*
X111450000Y-45600000D01*
X111450000Y-35200000D02*
X111450000Y-35890000D01*
X112950000Y-35200000D02*
X111450000Y-35200000D01*
%TO.C,C49*%
X83540580Y-41510000D02*
X83259420Y-41510000D01*
X83540580Y-40490000D02*
X83259420Y-40490000D01*
%TO.C,R20*%
X59827064Y-76940000D02*
X56772936Y-76940000D01*
X59827064Y-79660000D02*
X56772936Y-79660000D01*
%TO.C,C45*%
X99910000Y-41240580D02*
X99910000Y-40959420D01*
X98890000Y-41240580D02*
X98890000Y-40959420D01*
%TO.C,R14*%
X66237258Y-68972500D02*
X65762742Y-68972500D01*
X66237258Y-67927500D02*
X65762742Y-67927500D01*
%TO.C,J3*%
X124575000Y-40930000D02*
X123245000Y-40930000D01*
X125845000Y-38270000D02*
X128445000Y-38270000D01*
X125845000Y-40930000D02*
X128445000Y-40930000D01*
X128445000Y-40930000D02*
X128445000Y-38270000D01*
X125845000Y-40930000D02*
X125845000Y-38270000D01*
X123245000Y-40930000D02*
X123245000Y-39600000D01*
%TO.C,C1*%
X78660000Y-31790580D02*
X78660000Y-31509420D01*
X77640000Y-31790580D02*
X77640000Y-31509420D01*
%TO.C,D6*%
X111310000Y-30800000D02*
X112100000Y-30800000D01*
X105690000Y-34610000D02*
X111310000Y-34610000D01*
X105690000Y-30650000D02*
X105690000Y-30390000D01*
X111310000Y-34610000D02*
X111310000Y-34200000D01*
X111310000Y-30800000D02*
X111310000Y-30390000D01*
X105690000Y-34610000D02*
X105690000Y-34350000D01*
X111310000Y-30390000D02*
X105690000Y-30390000D01*
%TO.C,R36*%
X63572500Y-77787258D02*
X63572500Y-77312742D01*
X62527500Y-77787258D02*
X62527500Y-77312742D01*
%TO.C,U7*%
X119800000Y-66225000D02*
X119800000Y-64725000D01*
X120490000Y-64725000D02*
X120490000Y-63625000D01*
X129510000Y-64725000D02*
X129510000Y-59600000D01*
X130200000Y-66225000D02*
X130200000Y-64725000D01*
X130200000Y-64725000D02*
X129510000Y-64725000D01*
X119800000Y-64725000D02*
X120490000Y-64725000D01*
%TO.C,U8*%
X114300000Y-74260000D02*
X113500000Y-74260000D01*
X114300000Y-71140000D02*
X115100000Y-71140000D01*
X114300000Y-74260000D02*
X115100000Y-74260000D01*
X114300000Y-71140000D02*
X112500000Y-71140000D01*
%TO.C,C36*%
X102959420Y-34910000D02*
X103240580Y-34910000D01*
X102959420Y-33890000D02*
X103240580Y-33890000D01*
%TO.C,TP24*%
X67950000Y-79050000D02*
G75*
G03*
X67950000Y-79050000I-700000J0D01*
G01*
D15*
%TO.C,L1*%
X61170000Y-45075000D02*
G75*
G03*
X61170000Y-45075000I-200000J0D01*
G01*
D14*
X62870000Y-49205000D02*
X71770000Y-49205000D01*
X71770000Y-40945000D02*
X62870000Y-40945000D01*
D13*
%TO.C,J7*%
X74450000Y-66850000D02*
X74450000Y-79700000D01*
X82750000Y-66850000D02*
X74450000Y-66850000D01*
X80150000Y-82550000D02*
X82750000Y-79700000D01*
X82750000Y-79700000D02*
X82750000Y-66850000D01*
X77000000Y-82550000D02*
X80150000Y-82550000D01*
X74450000Y-79700000D02*
X77000000Y-82550000D01*
%TO.C,R18*%
X68762742Y-70472500D02*
X69237258Y-70472500D01*
X68762742Y-69427500D02*
X69237258Y-69427500D01*
%TO.C,Q8*%
X100700000Y-48550000D02*
X100700000Y-50360000D01*
X100700000Y-50360000D02*
X101800000Y-50360000D01*
X99200000Y-48550000D02*
X100700000Y-48550000D01*
X100700000Y-58950000D02*
X100700000Y-57140000D01*
X100700000Y-57140000D02*
X105825000Y-57140000D01*
X99200000Y-58950000D02*
X100700000Y-58950000D01*
%TO.C,Q5*%
X72670000Y-43560000D02*
X72670000Y-41610000D01*
X72670000Y-43560000D02*
X72670000Y-45510000D01*
X77790000Y-43560000D02*
X77790000Y-45510000D01*
X77790000Y-43560000D02*
X77790000Y-40110000D01*
%TO.C,R16*%
X80172500Y-31412742D02*
X80172500Y-31887258D01*
X79127500Y-31412742D02*
X79127500Y-31887258D01*
%TO.C,C13*%
X72561252Y-69265000D02*
X72038748Y-69265000D01*
X72561252Y-70735000D02*
X72038748Y-70735000D01*
%TO.C,Q2*%
X60775000Y-56325000D02*
X60775000Y-54825000D01*
X71175000Y-56325000D02*
X71175000Y-54825000D01*
X71175000Y-54825000D02*
X69365000Y-54825000D01*
X62585000Y-54825000D02*
X62585000Y-53725000D01*
X69365000Y-54825000D02*
X69365000Y-49700000D01*
X60775000Y-54825000D02*
X62585000Y-54825000D01*
%TO.C,Q7*%
X102600000Y-70300000D02*
X104100000Y-70300000D01*
X104100000Y-70300000D02*
X104100000Y-68490000D01*
X104100000Y-59900000D02*
X104100000Y-61710000D01*
X104100000Y-68490000D02*
X109225000Y-68490000D01*
X104100000Y-61710000D02*
X105200000Y-61710000D01*
X102600000Y-59900000D02*
X104100000Y-59900000D01*
%TO.C,C15*%
X83259420Y-37090000D02*
X83540580Y-37090000D01*
X83259420Y-38110000D02*
X83540580Y-38110000D01*
%TO.C,Q1*%
X58015000Y-54825000D02*
X58015000Y-49700000D01*
X59825000Y-54825000D02*
X58015000Y-54825000D01*
X51235000Y-54825000D02*
X51235000Y-53725000D01*
X49425000Y-54825000D02*
X51235000Y-54825000D01*
X59825000Y-56325000D02*
X59825000Y-54825000D01*
X49425000Y-56325000D02*
X49425000Y-54825000D01*
%TO.C,C38*%
X119160000Y-59390000D02*
X114640000Y-59390000D01*
X114640000Y-59390000D02*
X114640000Y-67450000D01*
X119160000Y-67450000D02*
X119160000Y-59390000D01*
%TO.C,D1*%
X69720000Y-38210000D02*
X70650000Y-38210000D01*
X72880000Y-38210000D02*
X72880000Y-36050000D01*
X69720000Y-38210000D02*
X69720000Y-36750000D01*
X72880000Y-38210000D02*
X71950000Y-38210000D01*
%TO.C,U9*%
X82440000Y-43800000D02*
X82440000Y-43000000D01*
X85560000Y-43800000D02*
X85560000Y-42000000D01*
X82440000Y-43800000D02*
X82440000Y-44600000D01*
X85560000Y-43800000D02*
X85560000Y-44600000D01*
%TO.C,U1*%
X92660000Y-61500000D02*
X92660000Y-62300000D01*
X89540000Y-61500000D02*
X89540000Y-62300000D01*
X92660000Y-61500000D02*
X92660000Y-59700000D01*
X89540000Y-61500000D02*
X89540000Y-60700000D01*
%TO.C,RPre1*%
X60167258Y-40322500D02*
X59692742Y-40322500D01*
X60167258Y-39277500D02*
X59692742Y-39277500D01*
%TO.C,R9*%
X79127500Y-34412742D02*
X79127500Y-34887258D01*
X80172500Y-34412742D02*
X80172500Y-34887258D01*
%TO.C,L4*%
X122800000Y-56000000D02*
X122800000Y-59000000D01*
X122800000Y-46400000D02*
X122800000Y-49400000D01*
X110200000Y-59000000D02*
X110200000Y-56000000D01*
X122800000Y-59000000D02*
X110200000Y-59000000D01*
X110200000Y-49400000D02*
X110200000Y-46400000D01*
X110200000Y-46400000D02*
X122800000Y-46400000D01*
%TO.C,Cff1*%
X73270000Y-32759420D02*
X73270000Y-33040580D01*
X72250000Y-32759420D02*
X72250000Y-33040580D01*
%TD*%
%LPC*%
D16*
%TO.C,R28*%
X73112500Y-81050000D03*
X71287500Y-81050000D03*
%TD*%
D17*
%TO.C,R29*%
X63450000Y-71662500D03*
X63450000Y-69837500D03*
%TD*%
D18*
%TO.C,R22*%
X62250000Y-79675000D03*
X62250000Y-81325000D03*
%TD*%
D19*
%TO.C,C37*%
X127825000Y-50500000D03*
X129375000Y-50500000D03*
%TD*%
D20*
%TO.C,L3*%
X91500000Y-39800000D03*
X91500000Y-29900000D03*
%TD*%
D21*
%TO.C,PackLED1*%
X68162500Y-81050000D03*
X69737500Y-81050000D03*
%TD*%
D19*
%TO.C,CTTC1*%
X76675000Y-30900000D03*
X75125000Y-30900000D03*
%TD*%
D22*
%TO.C,IC1*%
X76160000Y-35810000D03*
D23*
X77410000Y-37797500D03*
X76910000Y-37797500D03*
X76410000Y-37797500D03*
X75910000Y-37797500D03*
X75410000Y-37797500D03*
X74910000Y-37797500D03*
D24*
X74172500Y-37060000D03*
X74172500Y-36560000D03*
X74172500Y-36060000D03*
X74172500Y-35560000D03*
X74172500Y-35060000D03*
X74172500Y-34560000D03*
D23*
X74910000Y-33822500D03*
X75410000Y-33822500D03*
X75910000Y-33822500D03*
X76410000Y-33822500D03*
X76910000Y-33822500D03*
X77410000Y-33822500D03*
D24*
X78147500Y-34560000D03*
X78147500Y-35060000D03*
X78147500Y-35560000D03*
X78147500Y-36060000D03*
X78147500Y-36560000D03*
X78147500Y-37060000D03*
%TD*%
D19*
%TO.C,C44*%
X118625000Y-69000000D03*
X117075000Y-69000000D03*
%TD*%
D25*
%TO.C,J6*%
X87850000Y-71100000D03*
D26*
X87850000Y-78300000D03*
%TD*%
D27*
%TO.C,C5*%
X68875000Y-37000000D03*
X67325000Y-37000000D03*
%TD*%
D28*
%TO.C,C43*%
X127450000Y-52300000D03*
X129350000Y-52300000D03*
%TD*%
D29*
%TO.C,Q4*%
X75250000Y-50960000D03*
D30*
X77155000Y-53610000D03*
X75885000Y-53610000D03*
X74615000Y-53610000D03*
X73345000Y-53610000D03*
X73345000Y-48310000D03*
X74615000Y-48310000D03*
X75885000Y-48310000D03*
X77155000Y-48310000D03*
%TD*%
D31*
%TO.C,R2*%
X71300000Y-33725000D03*
X71300000Y-32075000D03*
%TD*%
D32*
%TO.C,Q3*%
X86260000Y-52315000D03*
D33*
X83720000Y-61465000D03*
D32*
X83720000Y-52315000D03*
X81180000Y-52315000D03*
%TD*%
D34*
%TO.C,C33*%
X81150000Y-37025000D03*
X81150000Y-38575000D03*
%TD*%
D35*
%TO.C,RFast1*%
X59105000Y-38310000D03*
X60755000Y-38310000D03*
%TD*%
D34*
%TO.C,C7*%
X79600000Y-40025000D03*
X79600000Y-41575000D03*
%TD*%
D36*
%TO.C,RAC1*%
X72620000Y-60570000D03*
X77100000Y-60570000D03*
%TD*%
D19*
%TO.C,C6*%
X70275000Y-39925000D03*
X71825000Y-39925000D03*
%TD*%
D37*
%TO.C,J5*%
X51750000Y-73525000D03*
D38*
X51750000Y-69325000D03*
X57250000Y-73525000D03*
X57250000Y-69325000D03*
%TD*%
D39*
%TO.C,C41*%
X96012500Y-44100000D03*
X89787500Y-44100000D03*
%TD*%
D40*
%TO.C,C42*%
X99150000Y-38450000D03*
X99150000Y-36550000D03*
%TD*%
D41*
%TO.C,J4*%
X108900000Y-80160000D03*
D42*
X104700000Y-80160000D03*
X100500000Y-80160000D03*
X96300000Y-80160000D03*
X108900000Y-74660000D03*
X104700000Y-74660000D03*
X100500000Y-74660000D03*
X96300000Y-74660000D03*
%TD*%
D43*
%TO.C,TP23*%
X68640000Y-77500000D03*
%TD*%
D44*
%TO.C,D5*%
X132900000Y-62100000D03*
D45*
X131930000Y-66450000D03*
X133870000Y-66450000D03*
%TD*%
D34*
%TO.C,C21*%
X81200000Y-40025000D03*
X81200000Y-41575000D03*
%TD*%
D46*
%TO.C,C4*%
X81150000Y-35425000D03*
X81150000Y-33875000D03*
%TD*%
%TO.C,C3*%
X79650000Y-38575000D03*
X79650000Y-37025000D03*
%TD*%
D47*
%TO.C,RSR1*%
X65475000Y-40000000D03*
X67125000Y-40000000D03*
%TD*%
D48*
%TO.C,H3*%
X52000000Y-79850000D03*
%TD*%
D49*
%TO.C,Q10*%
X115700000Y-68950000D03*
X115700000Y-69600000D03*
X115700000Y-70250000D03*
X113800000Y-70250000D03*
X113800000Y-69600000D03*
X113800000Y-68950000D03*
%TD*%
D35*
%TO.C,R5*%
X63745000Y-38470000D03*
X62095000Y-38470000D03*
%TD*%
D34*
%TO.C,C10*%
X68550000Y-40025000D03*
X68550000Y-38475000D03*
%TD*%
D48*
%TO.C,H4*%
X132075000Y-43800000D03*
%TD*%
D19*
%TO.C,C48*%
X118625000Y-70500000D03*
X117075000Y-70500000D03*
%TD*%
D50*
%TO.C,C40*%
X112100000Y-66912500D03*
X112100000Y-60687500D03*
%TD*%
D51*
%TO.C,J2*%
X124575000Y-43250000D03*
D52*
X127115000Y-43250000D03*
%TD*%
D47*
%TO.C,R32*%
X82575000Y-36100000D03*
X84225000Y-36100000D03*
%TD*%
D53*
%TO.C,C20*%
X124650000Y-56300000D03*
X129750000Y-56300000D03*
%TD*%
D27*
%TO.C,C11*%
X67075000Y-38500000D03*
X65525000Y-38500000D03*
%TD*%
D31*
%TO.C,R37*%
X70390000Y-77275000D03*
X70390000Y-78925000D03*
%TD*%
D54*
%TO.C,Q9*%
X87750000Y-44250000D03*
X87100000Y-44250000D03*
X86450000Y-44250000D03*
X86450000Y-42350000D03*
X87100000Y-42350000D03*
X87750000Y-42350000D03*
%TD*%
D55*
%TO.C,J10*%
X124490000Y-78025000D03*
D56*
X122890000Y-80025000D03*
D57*
X120390000Y-80025000D03*
X117890000Y-80025000D03*
X115390000Y-80025000D03*
%TD*%
D21*
%TO.C,D9*%
X63712500Y-80100000D03*
X65287500Y-80100000D03*
%TD*%
D58*
%TO.C,C19*%
X103100000Y-41450000D03*
X103100000Y-36350000D03*
%TD*%
D48*
%TO.C,H2*%
X132000000Y-79800000D03*
%TD*%
D27*
%TO.C,C14*%
X66775000Y-69950000D03*
X65225000Y-69950000D03*
%TD*%
D28*
%TO.C,C16*%
X60600000Y-80900000D03*
X58700000Y-80900000D03*
%TD*%
D35*
%TO.C,R3*%
X63745000Y-39950000D03*
X62095000Y-39950000D03*
%TD*%
D39*
%TO.C,C39*%
X104812500Y-45000000D03*
X98587500Y-45000000D03*
%TD*%
D35*
%TO.C,RAdp1*%
X59105000Y-41300000D03*
X60755000Y-41300000D03*
%TD*%
D59*
%TO.C,PowerLED1*%
X61750000Y-69912500D03*
X61750000Y-71487500D03*
%TD*%
D18*
%TO.C,R10*%
X81150000Y-30825000D03*
X81150000Y-32475000D03*
%TD*%
D28*
%TO.C,C12*%
X73250000Y-72000000D03*
X71350000Y-72000000D03*
%TD*%
D60*
%TO.C,R17*%
X57700000Y-46862500D03*
X57700000Y-43937500D03*
%TD*%
D35*
%TO.C,R15*%
X84225000Y-39100000D03*
X82575000Y-39100000D03*
%TD*%
D61*
%TO.C,D7*%
X71870000Y-77312500D03*
X71870000Y-78887500D03*
%TD*%
D62*
%TO.C,C9*%
X71462500Y-68000000D03*
X73537500Y-68000000D03*
%TD*%
D35*
%TO.C,R7*%
X63745000Y-37000000D03*
X62095000Y-37000000D03*
%TD*%
D63*
%TO.C,C8*%
X81300000Y-43962500D03*
X81300000Y-46037500D03*
%TD*%
D47*
%TO.C,R1*%
X68225000Y-33600000D03*
X69875000Y-33600000D03*
%TD*%
D64*
%TO.C,U6*%
X108625000Y-36590000D03*
X108625000Y-37860000D03*
X108625000Y-39130000D03*
X108625000Y-40400000D03*
D65*
X117775000Y-40400000D03*
D64*
X108625000Y-41670000D03*
X108625000Y-42940000D03*
X108625000Y-44210000D03*
%TD*%
D27*
%TO.C,C49*%
X84175000Y-41000000D03*
X82625000Y-41000000D03*
%TD*%
D66*
%TO.C,R20*%
X55987500Y-78300000D03*
X60612500Y-78300000D03*
%TD*%
D34*
%TO.C,C45*%
X99400000Y-41875000D03*
X99400000Y-40325000D03*
%TD*%
D35*
%TO.C,R14*%
X66825000Y-68450000D03*
X65175000Y-68450000D03*
%TD*%
D51*
%TO.C,J3*%
X124575000Y-39600000D03*
D52*
X127115000Y-39600000D03*
%TD*%
D34*
%TO.C,C1*%
X78150000Y-30875000D03*
X78150000Y-32425000D03*
%TD*%
D67*
%TO.C,D6*%
X107300000Y-32500000D03*
D68*
X111650000Y-33470000D03*
X111650000Y-31530000D03*
%TD*%
D18*
%TO.C,R36*%
X63050000Y-76725000D03*
X63050000Y-78375000D03*
%TD*%
D69*
%TO.C,U7*%
X128810000Y-61900000D03*
X127540000Y-61900000D03*
X126270000Y-61900000D03*
X125000000Y-61900000D03*
D33*
X125000000Y-71050000D03*
D69*
X123730000Y-61900000D03*
X122460000Y-61900000D03*
X121190000Y-61900000D03*
%TD*%
D70*
%TO.C,U8*%
X115437500Y-71750000D03*
X115437500Y-72700000D03*
X115437500Y-73650000D03*
X113162500Y-73650000D03*
X113162500Y-72700000D03*
X113162500Y-71750000D03*
%TD*%
D48*
%TO.C,H1*%
X52075000Y-43850000D03*
%TD*%
D19*
%TO.C,C36*%
X103875000Y-34400000D03*
X102325000Y-34400000D03*
%TD*%
D43*
%TO.C,TP24*%
X67250000Y-79050000D03*
%TD*%
D71*
%TO.C,L1*%
X71065000Y-45075000D03*
X63575000Y-45075000D03*
%TD*%
D72*
%TO.C,J7*%
X78600000Y-78300000D03*
D26*
X78600000Y-71100000D03*
%TD*%
D47*
%TO.C,R18*%
X68175000Y-69950000D03*
X69825000Y-69950000D03*
%TD*%
D73*
%TO.C,Q8*%
X103525000Y-56290000D03*
D65*
X94375000Y-53750000D03*
D73*
X103525000Y-53750000D03*
X103525000Y-51210000D03*
%TD*%
D29*
%TO.C,Q5*%
X75230000Y-43560000D03*
D30*
X77135000Y-46210000D03*
X75865000Y-46210000D03*
X74595000Y-46210000D03*
X73325000Y-46210000D03*
X73325000Y-40910000D03*
X74595000Y-40910000D03*
X75865000Y-40910000D03*
X77135000Y-40910000D03*
%TD*%
D31*
%TO.C,R16*%
X79650000Y-32475000D03*
X79650000Y-30825000D03*
%TD*%
D28*
%TO.C,C13*%
X73250000Y-70000000D03*
X71350000Y-70000000D03*
%TD*%
D32*
%TO.C,Q2*%
X68515000Y-52000000D03*
D33*
X65975000Y-61150000D03*
D32*
X65975000Y-52000000D03*
X63435000Y-52000000D03*
%TD*%
D73*
%TO.C,Q7*%
X106925000Y-62560000D03*
X106925000Y-65100000D03*
D65*
X97775000Y-65100000D03*
D73*
X106925000Y-67640000D03*
%TD*%
D19*
%TO.C,C15*%
X82625000Y-37600000D03*
X84175000Y-37600000D03*
%TD*%
D32*
%TO.C,Q1*%
X57165000Y-52000000D03*
D33*
X54625000Y-61150000D03*
D32*
X54625000Y-52000000D03*
X52085000Y-52000000D03*
%TD*%
D50*
%TO.C,C38*%
X116900000Y-66912500D03*
X116900000Y-60687500D03*
%TD*%
D74*
%TO.C,D1*%
X72250000Y-36450000D03*
X71300000Y-38450000D03*
X70350000Y-36450000D03*
%TD*%
D75*
%TO.C,U9*%
X84950000Y-44937500D03*
X84000000Y-44937500D03*
X83050000Y-44937500D03*
X83050000Y-42662500D03*
X84000000Y-42662500D03*
X84950000Y-42662500D03*
%TD*%
%TO.C,U1*%
X92050000Y-62637500D03*
X91100000Y-62637500D03*
X90150000Y-62637500D03*
X90150000Y-60362500D03*
X91100000Y-60362500D03*
X92050000Y-60362500D03*
%TD*%
D35*
%TO.C,RPre1*%
X59105000Y-39800000D03*
X60755000Y-39800000D03*
%TD*%
D31*
%TO.C,R9*%
X79650000Y-35475000D03*
X79650000Y-33825000D03*
%TD*%
D76*
%TO.C,L4*%
X111550000Y-52700000D03*
X121450000Y-52700000D03*
%TD*%
D46*
%TO.C,Cff1*%
X72760000Y-32125000D03*
X72760000Y-33675000D03*
%TD*%
D77*
%TO.C,J1*%
X83200000Y-31500000D03*
D78*
X83200000Y-34000000D03*
%TD*%
D79*
%TO.C,J8*%
X71745000Y-73885000D03*
X70895000Y-73885000D03*
X70045000Y-73885000D03*
X69195000Y-73885000D03*
X68345000Y-73885000D03*
X67495000Y-73885000D03*
X66645000Y-73885000D03*
X65795000Y-73885000D03*
X65795000Y-75235000D03*
X66645000Y-75235000D03*
X67495000Y-75235000D03*
X68345000Y-75235000D03*
X69195000Y-75235000D03*
X70045000Y-75235000D03*
X70895000Y-75235000D03*
X71745000Y-75235000D03*
D80*
X73095000Y-74865000D03*
X64445000Y-74865000D03*
D81*
X73095000Y-78245000D03*
X64445000Y-78245000D03*
%TD*%
D82*
X72300000Y-80700000D03*
D83*
X58500000Y-82500000D03*
X74649500Y-39700000D03*
X117100000Y-44300000D03*
X134700000Y-67300000D03*
X49500000Y-72500000D03*
D82*
X80324980Y-48372129D03*
D83*
X120200000Y-71600000D03*
X117500000Y-78000000D03*
D82*
X70749501Y-68978269D03*
D83*
X121600000Y-35300000D03*
X127200000Y-70100000D03*
X126200000Y-74600000D03*
X126000000Y-82500000D03*
X122200000Y-74600000D03*
X120100000Y-36300000D03*
X118600000Y-35300000D03*
X61500000Y-82500000D03*
X120200000Y-74600000D03*
X75340000Y-34990000D03*
D82*
X57900000Y-80900000D03*
D83*
X121600000Y-39300000D03*
X49500000Y-46500000D03*
X134700000Y-70800000D03*
D82*
X83437701Y-41762299D03*
X59000000Y-51100000D03*
D83*
X117100000Y-36300000D03*
X76150000Y-34990000D03*
D82*
X78728000Y-46450000D03*
D83*
X122200000Y-71600000D03*
X118600000Y-45300000D03*
X118600000Y-41300000D03*
X125200000Y-67100000D03*
D82*
X58550000Y-40400000D03*
D83*
X75325000Y-36625000D03*
X116000000Y-82500000D03*
X88000000Y-29500000D03*
X76970000Y-36620000D03*
X49500000Y-70000000D03*
X126200000Y-68600000D03*
X114100000Y-42300000D03*
X127200000Y-67100000D03*
X120100000Y-44300000D03*
X76970000Y-34990000D03*
D82*
X58700000Y-79850000D03*
D83*
X115600000Y-41300000D03*
X129500000Y-82500000D03*
X115600000Y-39300000D03*
X128200000Y-71600000D03*
X123000000Y-78000000D03*
X134700000Y-74300000D03*
X121200000Y-70100000D03*
X76980000Y-35810000D03*
X115600000Y-37300000D03*
X55500000Y-44800000D03*
D82*
X80072000Y-45784588D03*
D83*
X49500000Y-75000000D03*
X118600000Y-39300000D03*
X49500000Y-67500000D03*
X129200000Y-73100000D03*
X49500000Y-77500000D03*
X113000000Y-80000000D03*
X127000000Y-78000000D03*
X52450000Y-40280000D03*
X49500000Y-49000000D03*
X115600000Y-43300000D03*
D82*
X81850980Y-44954361D03*
D83*
X123200000Y-67100000D03*
D82*
X80076793Y-46419012D03*
D83*
X120500000Y-78000000D03*
X129200000Y-70100000D03*
X121200000Y-67100000D03*
X130200000Y-68600000D03*
X125200000Y-73100000D03*
D82*
X62677556Y-72369651D03*
D83*
X68090000Y-32170000D03*
X86725000Y-28125000D03*
X72050000Y-30850000D03*
X69690000Y-82510000D03*
X121600000Y-41300000D03*
X114100000Y-44300000D03*
X125200000Y-70100000D03*
D82*
X91350000Y-61300000D03*
D83*
X88010000Y-32500000D03*
X130200000Y-74600000D03*
X122200000Y-68600000D03*
D82*
X100500000Y-71000000D03*
D83*
X124200000Y-68600000D03*
X120100000Y-42300000D03*
X115600000Y-45300000D03*
X129200000Y-67100000D03*
X60490000Y-35490000D03*
X114500000Y-78000000D03*
X121600000Y-43300000D03*
D82*
X78728000Y-45800000D03*
D83*
X75850000Y-39700000D03*
X117100000Y-40300000D03*
D82*
X59500000Y-80900000D03*
X81600000Y-39300000D03*
X68950000Y-42599503D03*
D83*
X118600000Y-37300000D03*
X128200000Y-68600000D03*
X115600000Y-35300000D03*
D82*
X114200000Y-73200000D03*
D83*
X124200000Y-71600000D03*
X54910000Y-41200000D03*
X66690000Y-82510000D03*
X119000000Y-82500000D03*
X76160000Y-36620000D03*
X123200000Y-70100000D03*
X121600000Y-45300000D03*
X127200000Y-73100000D03*
D82*
X78810054Y-48371789D03*
D83*
X117100000Y-38300000D03*
X64250000Y-82550000D03*
X123200000Y-73100000D03*
D82*
X100000000Y-59000000D03*
D83*
X56330000Y-37810000D03*
X73090000Y-76770000D03*
X130200000Y-71600000D03*
D82*
X61010023Y-66500980D03*
D83*
X51500000Y-47500000D03*
D82*
X80100000Y-47050000D03*
D83*
X134700000Y-77800000D03*
X120100000Y-40300000D03*
X126200000Y-71600000D03*
X121600000Y-37300000D03*
X120200000Y-68600000D03*
D82*
X68000000Y-37600000D03*
X81500000Y-33200000D03*
D83*
X114100000Y-38300000D03*
X49500000Y-54000000D03*
X124200000Y-74600000D03*
D82*
X125806043Y-46623197D03*
D83*
X121200000Y-73100000D03*
X122500000Y-82500000D03*
X114100000Y-36300000D03*
X49500000Y-51500000D03*
D82*
X61716646Y-42347604D03*
X78728000Y-47100000D03*
D83*
X55500000Y-82500000D03*
X120100000Y-38300000D03*
X75350000Y-35810000D03*
D82*
X78101608Y-41853786D03*
D83*
X56500000Y-39500000D03*
D82*
X65750000Y-79400000D03*
D83*
X117100000Y-42300000D03*
X64285410Y-33689992D03*
D82*
X78728000Y-47750000D03*
D83*
X75925000Y-29825000D03*
X118600000Y-43300000D03*
X51000000Y-55750000D03*
D82*
X80100000Y-47700000D03*
D83*
X128200000Y-74600000D03*
X81400000Y-28750000D03*
D82*
X62740000Y-68290000D03*
D83*
X114100000Y-40300000D03*
X113000000Y-82500000D03*
X76160000Y-35810000D03*
D82*
X73900511Y-61807928D03*
X86690000Y-31870000D03*
X73839502Y-55550000D03*
X86210000Y-34530000D03*
X61700000Y-36000000D03*
X79700000Y-34800000D03*
X74600000Y-32357013D03*
X70310847Y-39245909D03*
X73541589Y-38134020D03*
X71711412Y-39211411D03*
X76411970Y-38607816D03*
D83*
X56500000Y-43900000D03*
D82*
X77777178Y-37777178D03*
D83*
X59050000Y-66449502D03*
X62300000Y-54154500D03*
X57550000Y-55250000D03*
X56500000Y-66449502D03*
D82*
X84200000Y-39900000D03*
X86275738Y-49705919D03*
X62050000Y-80400000D03*
D83*
X85689746Y-44195878D03*
X85675000Y-45025000D03*
X100700000Y-77000000D03*
X115000000Y-70449989D03*
X101600000Y-77000000D03*
D82*
X87309502Y-52800000D03*
X78515270Y-49309385D03*
X68950000Y-41800000D03*
X71400000Y-66400000D03*
X100800000Y-59000000D03*
X80468026Y-44959030D03*
D83*
X86489976Y-45012359D03*
X115900000Y-71100000D03*
X99800000Y-77000000D03*
X116800000Y-71700000D03*
D82*
X62650000Y-66500980D03*
X125650000Y-45600000D03*
X78400000Y-56000000D03*
D83*
X97600000Y-48800000D03*
X96700000Y-48800000D03*
X102760000Y-37860000D03*
X95800000Y-48800000D03*
X127750000Y-55100000D03*
X101750000Y-37850000D03*
X127750000Y-57050000D03*
X103810000Y-37860000D03*
X127740000Y-56100000D03*
D82*
X72500000Y-49500000D03*
X86640000Y-30520000D03*
X107900000Y-48000000D03*
X121100000Y-47200000D03*
X68900000Y-55600000D03*
X85200000Y-33550000D03*
D83*
X65600000Y-42850000D03*
X65600000Y-44850000D03*
X65600000Y-43850000D03*
D82*
X89900000Y-61300000D03*
X83406439Y-43790820D03*
X116448755Y-73362685D03*
X76710020Y-32648946D03*
X75900000Y-31621594D03*
X78650000Y-33950000D03*
X75850000Y-57650000D03*
X74324539Y-63550000D03*
X74309561Y-65101981D03*
X75848031Y-59575388D03*
X73290817Y-36400500D03*
X65000000Y-37200000D03*
X76945839Y-39456339D03*
X83250000Y-36600000D03*
X69200000Y-35659500D03*
X62900000Y-37800000D03*
X69050000Y-69400000D03*
X75132891Y-62417109D03*
X74649020Y-58950000D03*
X80400000Y-36200000D03*
X73764380Y-31258023D03*
X63000000Y-36000000D03*
X92100000Y-81900000D03*
X93596265Y-81910043D03*
X93600000Y-80500000D03*
X92300000Y-80500000D03*
X72563060Y-52348600D03*
X80400000Y-37200000D03*
X106900000Y-66800000D03*
X105600000Y-55400000D03*
X91350000Y-63550000D03*
M02*
