M48
; DRILL file {KiCad (6.0.1-0)} date Saturday, 06 August 2022 at 01:28:06
; FORMAT={-:-/ absolute / inch / decimal}
; #@! TF.CreationDate,2022-08-06T01:28:06+01:00
; #@! TF.GenerationSoftware,Kicad,Pcbnew,(6.0.1-0)
; #@! TF.FileFunction,Plated,1,4,PTH
FMAT,2
INCH
; #@! TA.AperFunction,Plated,PTH,ViaDrill
T1C0.0118
; #@! TA.AperFunction,Plated,PTH,ViaDrill
T2C0.0134
; #@! TA.AperFunction,Plated,PTH,ViaDrill
T3C0.0157
; #@! TA.AperFunction,Plated,PTH,ComponentDrill
T4C0.0157
; #@! TA.AperFunction,Plated,PTH,ComponentDrill
T5C0.0236
; #@! TA.AperFunction,Plated,PTH,ComponentDrill
T6C0.0374
; #@! TA.AperFunction,Plated,PTH,ComponentDrill
T7C0.0394
; #@! TA.AperFunction,Plated,PTH,ComponentDrill
T8C0.0551
; #@! TA.AperFunction,Plated,PTH,ComponentDrill
T9C0.1260
; #@! TA.AperFunction,Plated,PTH,ComponentDrill
T10C0.1772
%
G90
G05
T1
X2.2795Y-3.185
X2.3051Y-1.5906
X2.311Y-3.1437
X2.3228Y-2.0118
X2.3425Y-3.185
X2.402Y-2.6181
X2.4291Y-1.4173
X2.4298Y-1.6672
X2.4429Y-3.1654
X2.4665Y-2.6181
X2.4676Y-2.8492
X2.4701Y-2.6886
X2.4764Y-1.4882
X2.4803Y-1.4173
X2.5591Y-1.4646
X2.5886Y-3.126
X2.6772Y-1.4803
X2.7126Y-2.189
X2.7146Y-1.6457
X2.7146Y-1.6771
X2.7185Y-2.7323
X2.7244Y-1.4039
X2.7681Y-1.5451
X2.7854Y-2.7157
X2.811Y-2.6142
X2.8233Y-1.5438
X2.8465Y-3.1772
X2.8568Y-2.061
X2.8855Y-1.4331
X2.8953Y-1.5013
X2.9041Y-1.2306
X2.9071Y-2.187
X2.9095Y-2.4334
X2.9256Y-2.5631
X2.9262Y-2.502
X2.937Y-1.2739
X2.9389Y-2.3209
X2.958Y-2.4574
X2.9861Y-2.3455
X2.9862Y-2.2697
X2.9882Y-1.2449
X3.0083Y-1.52
X3.0201Y-1.2854
X3.0294Y-1.5534
X3.0621Y-1.4873
X3.0749Y-1.6478
X3.0866Y-2.2047
X3.0912Y-1.9413
X3.0965Y-1.3366
X3.0995Y-1.8031
X3.0995Y-1.8287
X3.0995Y-1.8543
X3.0995Y-1.8799
X3.1028Y-1.9044
X3.1378Y-1.3701
X3.1524Y-1.8025
X3.1526Y-1.8275
X3.1535Y-1.8524
X3.1535Y-1.878
X3.1624Y-1.9044
X3.1654Y-1.4252
X3.1654Y-1.4646
X3.168Y-1.77
X3.2087Y-1.3071
X3.2126Y-1.5472
X3.2225Y-1.7699
X3.2776Y-1.4409
X3.2837Y-1.724
X3.2849Y-1.6442
X3.315Y-1.5709
X3.3543Y-1.3209
X3.3941Y-1.3594
X3.3967Y-1.9569
X3.411Y-1.2016
X3.413Y-1.2547
X3.4374Y-2.0787
X3.5394Y-2.4134
X3.5965Y-2.4134
X3.5965Y-2.502
X3.626Y-3.2244
X3.6339Y-3.1693
X3.6849Y-3.2248
X3.685Y-3.1693
X3.937Y-2.3228
X3.9567Y-2.7953
X3.9685Y-2.3228
X4.1575Y-2.1811
X4.2087Y-2.6299
X4.248Y-1.8898
X4.4961Y-2.8819
X4.5846Y-2.8883
X4.7677Y-1.8583
X4.9469Y-1.7953
X4.953Y-1.8356
T2
X2.8543Y-1.9488
T3
X1.9488Y-1.8307
X1.9488Y-1.9291
X1.9488Y-2.0276
X1.9488Y-2.126
X1.9488Y-2.6575
X1.9488Y-2.7559
X1.9488Y-2.8543
X1.9488Y-2.9528
X1.9488Y-3.0512
X2.0079Y-2.1949
X2.0276Y-1.8701
X2.065Y-1.5858
X2.1618Y-1.622
X2.185Y-1.7638
X2.185Y-3.248
X2.2177Y-1.4886
X2.2244Y-1.5551
X2.2244Y-1.7283
X2.2244Y-2.6161
X2.2657Y-2.1752
X2.3031Y-3.248
X2.3248Y-2.6161
X2.3815Y-1.3972
X2.4213Y-3.248
X2.4528Y-2.1321
X2.5295Y-3.25
X2.5309Y-1.3264
X2.5827Y-1.687
X2.5827Y-1.7264
X2.5827Y-1.7657
X2.6256Y-3.2484
X2.6807Y-1.2665
X2.7437Y-3.2484
X2.8366Y-1.2146
X2.8776Y-3.0224
X2.939Y-1.563
X2.9656Y-1.4419
X2.9661Y-1.3776
X2.9665Y-1.4098
X2.9862Y-1.563
X2.9892Y-1.1742
X2.998Y-1.3776
X2.9984Y-1.4098
X2.9984Y-1.4417
X3.0303Y-1.3776
X3.0303Y-1.4417
X3.0307Y-1.4098
X3.2047Y-1.1319
X3.373Y-1.7726
X3.3736Y-1.74
X3.4051Y-1.7721
X3.4144Y-1.1073
X3.4646Y-1.1614
X3.465Y-1.2795
X3.7717Y-1.9213
X3.8071Y-1.9213
X3.8425Y-1.9213
X3.9291Y-3.0315
X3.9646Y-3.0315
X4.0Y-3.0315
X4.0059Y-1.4902
X4.0457Y-1.4906
X4.087Y-1.4906
X4.4488Y-3.1496
X4.4488Y-3.248
X4.4921Y-1.4291
X4.4921Y-1.5079
X4.4921Y-1.5866
X4.4921Y-1.6654
X4.4921Y-1.7441
X4.5079Y-3.0709
X4.5276Y-2.7736
X4.5512Y-1.3898
X4.5512Y-1.4685
X4.5512Y-1.5472
X4.5512Y-1.626
X4.5512Y-1.7047
X4.5512Y-1.7835
X4.563Y-2.7992
X4.5669Y-3.248
X4.5984Y-2.8228
X4.6102Y-1.4291
X4.6102Y-1.5079
X4.6102Y-1.5866
X4.6102Y-1.6654
X4.6102Y-1.7441
X4.626Y-3.0709
X4.6693Y-1.3898
X4.6693Y-1.4685
X4.6693Y-1.5472
X4.6693Y-1.626
X4.6693Y-1.7047
X4.6693Y-1.7835
X4.685Y-3.248
X4.7283Y-1.4291
X4.7283Y-1.5079
X4.7283Y-1.5866
X4.7283Y-1.6654
X4.7283Y-1.7441
X4.7323Y-2.7008
X4.7323Y-2.8189
X4.7323Y-2.937
X4.7441Y-3.0709
X4.7717Y-2.6417
X4.7717Y-2.7598
X4.7717Y-2.878
X4.7874Y-1.3898
X4.7874Y-1.4685
X4.7874Y-1.5472
X4.7874Y-1.626
X4.7874Y-1.7047
X4.7874Y-1.7835
X4.811Y-2.7008
X4.811Y-2.8189
X4.811Y-2.937
X4.8228Y-3.248
X4.8425Y-3.0709
X4.8504Y-2.6417
X4.8504Y-2.7598
X4.8504Y-2.878
X4.8898Y-2.7008
X4.8898Y-2.8189
X4.8898Y-2.937
X4.9291Y-2.6417
X4.9291Y-2.7598
X4.9291Y-2.878
X4.9606Y-3.248
X4.9685Y-2.7008
X4.9685Y-2.8189
X4.9685Y-2.937
X5.0Y-3.0709
X5.0079Y-2.6417
X5.0079Y-2.7598
X5.0079Y-2.878
X5.0291Y-2.2087
X5.0295Y-2.1693
X5.0295Y-2.2461
X5.0472Y-2.7008
X5.0472Y-2.8189
X5.0472Y-2.937
X5.0866Y-2.6417
X5.0866Y-2.7598
X5.0866Y-2.878
X5.0984Y-3.248
X5.126Y-2.7008
X5.126Y-2.8189
X5.126Y-2.937
X5.3031Y-2.6496
X5.3031Y-2.7874
X5.3031Y-2.9252
X5.3031Y-3.063
T4
X2.5904Y-2.9089
X2.5904Y-2.962
X2.6238Y-2.9089
X2.6238Y-2.962
X2.6573Y-2.9089
X2.6573Y-2.962
X2.6907Y-2.9089
X2.6907Y-2.962
X2.7242Y-2.9089
X2.7242Y-2.962
X2.7577Y-2.9089
X2.7577Y-2.962
X2.7911Y-2.9089
X2.7911Y-2.962
X2.8246Y-2.9089
X2.8246Y-2.962
T6
X4.5429Y-3.1506
X4.6413Y-3.1506
X4.7398Y-3.1506
X4.8382Y-3.1506
T7
X3.2756Y-1.2402
X3.2756Y-1.3386
X4.9045Y-1.5591
X4.9045Y-1.7028
X5.0045Y-1.5591
X5.0045Y-1.7028
T8
X2.0374Y-2.7293
X2.0374Y-2.8947
X2.2539Y-2.7293
X2.2539Y-2.8947
X3.7913Y-2.9394
X3.7913Y-3.1559
X3.9567Y-2.9394
X3.9567Y-3.1559
X4.122Y-2.9394
X4.122Y-3.1559
X4.2874Y-2.9394
X4.2874Y-3.1559
T9
X2.0472Y-3.1437
X2.0502Y-1.7264
X5.1969Y-3.1417
X5.1998Y-1.7244
T10
X3.0945Y-2.7992
X3.0945Y-3.0827
X3.4587Y-2.7992
X3.4587Y-3.0827
T5
G00X2.5372Y-2.977
M15
G01X2.5372Y-2.9179
M16
G05
G00X2.5372Y-3.0963
M15
G01X2.5372Y-3.0648
M16
G05
G00X2.8778Y-2.977
M15
G01X2.8778Y-2.9179
M16
G05
G00X2.8778Y-3.0963
M15
G01X2.8778Y-3.0648
M16
G05
T0
M30
