%TF.GenerationSoftware,KiCad,Pcbnew,(6.0.1-0)*%
%TF.CreationDate,2022-08-06T01:28:06+01:00*%
%TF.ProjectId,powerboard_sc21_as25,706f7765-7262-46f6-9172-645f73633231,rev?*%
%TF.SameCoordinates,Original*%
%TF.FileFunction,Soldermask,Top*%
%TF.FilePolarity,Negative*%
%FSLAX46Y46*%
G04 Gerber Fmt 4.6, Leading zero omitted, Abs format (unit mm)*
G04 Created by KiCad (PCBNEW (6.0.1-0)) date 2022-08-06 01:28:06*
%MOMM*%
%LPD*%
G01*
G04 APERTURE LIST*
G04 Aperture macros list*
%AMRoundRect*
0 Rectangle with rounded corners*
0 $1 Rounding radius*
0 $2 $3 $4 $5 $6 $7 $8 $9 X,Y pos of 4 corners*
0 Add a 4 corners polygon primitive as box body*
4,1,4,$2,$3,$4,$5,$6,$7,$8,$9,$2,$3,0*
0 Add four circle primitives for the rounded corners*
1,1,$1+$1,$2,$3*
1,1,$1+$1,$4,$5*
1,1,$1+$1,$6,$7*
1,1,$1+$1,$8,$9*
0 Add four rect primitives between the rounded corners*
20,1,$1+$1,$2,$3,$4,$5,0*
20,1,$1+$1,$4,$5,$6,$7,0*
20,1,$1+$1,$6,$7,$8,$9,0*
20,1,$1+$1,$8,$9,$2,$3,0*%
G04 Aperture macros list end*
%ADD10RoundRect,0.250000X-0.262500X-0.450000X0.262500X-0.450000X0.262500X0.450000X-0.262500X0.450000X0*%
%ADD11RoundRect,0.250000X-0.450000X0.262500X-0.450000X-0.262500X0.450000X-0.262500X0.450000X0.262500X0*%
%ADD12RoundRect,0.200000X0.275000X-0.200000X0.275000X0.200000X-0.275000X0.200000X-0.275000X-0.200000X0*%
%ADD13RoundRect,0.225000X-0.225000X-0.250000X0.225000X-0.250000X0.225000X0.250000X-0.225000X0.250000X0*%
%ADD14R,5.400000X2.900000*%
%ADD15RoundRect,0.218750X0.218750X0.256250X-0.218750X0.256250X-0.218750X-0.256250X0.218750X-0.256250X0*%
%ADD16R,2.450000X2.450000*%
%ADD17RoundRect,0.062500X0.062500X0.325000X-0.062500X0.325000X-0.062500X-0.325000X0.062500X-0.325000X0*%
%ADD18RoundRect,0.062500X0.325000X0.062500X-0.325000X0.062500X-0.325000X-0.062500X0.325000X-0.062500X0*%
%ADD19RoundRect,1.500000X-1.500000X1.500000X-1.500000X-1.500000X1.500000X-1.500000X1.500000X1.500000X0*%
%ADD20C,6.000000*%
%ADD21RoundRect,0.225000X0.225000X0.250000X-0.225000X0.250000X-0.225000X-0.250000X0.225000X-0.250000X0*%
%ADD22RoundRect,0.250000X0.250000X0.475000X-0.250000X0.475000X-0.250000X-0.475000X0.250000X-0.475000X0*%
%ADD23R,3.100000X2.410000*%
%ADD24RoundRect,0.150000X-0.150000X0.650000X-0.150000X-0.650000X0.150000X-0.650000X0.150000X0.650000X0*%
%ADD25RoundRect,0.200000X-0.275000X0.200000X-0.275000X-0.200000X0.275000X-0.200000X0.275000X0.200000X0*%
%ADD26R,1.100000X4.600000*%
%ADD27R,10.800000X9.400000*%
%ADD28RoundRect,0.225000X0.250000X-0.225000X0.250000X0.225000X-0.250000X0.225000X-0.250000X-0.225000X0*%
%ADD29RoundRect,0.200000X0.200000X0.275000X-0.200000X0.275000X-0.200000X-0.275000X0.200000X-0.275000X0*%
%ADD30R,1.440000X11.220000*%
%ADD31RoundRect,0.250001X1.399999X-1.099999X1.399999X1.099999X-1.399999X1.099999X-1.399999X-1.099999X0*%
%ADD32O,3.300000X2.700000*%
%ADD33RoundRect,0.250000X-0.787500X-1.025000X0.787500X-1.025000X0.787500X1.025000X-0.787500X1.025000X0*%
%ADD34RoundRect,0.250000X-0.475000X0.250000X-0.475000X-0.250000X0.475000X-0.250000X0.475000X0.250000X0*%
%ADD35RoundRect,0.250001X1.099999X1.399999X-1.099999X1.399999X-1.099999X-1.399999X1.099999X-1.399999X0*%
%ADD36O,2.700000X3.300000*%
%ADD37C,1.000000*%
%ADD38R,3.200000X4.900000*%
%ADD39R,0.950000X1.000000*%
%ADD40RoundRect,0.225000X-0.250000X0.225000X-0.250000X-0.225000X0.250000X-0.225000X0.250000X0.225000X0*%
%ADD41RoundRect,0.200000X-0.200000X-0.275000X0.200000X-0.275000X0.200000X0.275000X-0.200000X0.275000X0*%
%ADD42C,5.600000*%
%ADD43R,0.650000X0.400000*%
%ADD44RoundRect,0.250000X-1.025000X0.787500X-1.025000X-0.787500X1.025000X-0.787500X1.025000X0.787500X0*%
%ADD45R,1.700000X1.700000*%
%ADD46O,1.700000X1.700000*%
%ADD47RoundRect,0.250000X0.650000X2.450000X-0.650000X2.450000X-0.650000X-2.450000X0.650000X-2.450000X0*%
%ADD48R,0.400000X0.650000*%
%ADD49C,1.200000*%
%ADD50RoundRect,0.250000X0.600000X0.725000X-0.600000X0.725000X-0.600000X-0.725000X0.600000X-0.725000X0*%
%ADD51O,1.700000X1.950000*%
%ADD52RoundRect,0.250000X-2.450000X0.650000X-2.450000X-0.650000X2.450000X-0.650000X2.450000X0.650000X0*%
%ADD53RoundRect,0.218750X0.256250X-0.218750X0.256250X0.218750X-0.256250X0.218750X-0.256250X-0.218750X0*%
%ADD54RoundRect,0.250000X-0.625000X0.312500X-0.625000X-0.312500X0.625000X-0.312500X0.625000X0.312500X0*%
%ADD55RoundRect,0.218750X-0.256250X0.218750X-0.256250X-0.218750X0.256250X-0.218750X0.256250X0.218750X0*%
%ADD56RoundRect,0.250000X0.337500X0.475000X-0.337500X0.475000X-0.337500X-0.475000X0.337500X-0.475000X0*%
%ADD57RoundRect,0.250000X0.475000X-0.337500X0.475000X0.337500X-0.475000X0.337500X-0.475000X-0.337500X0*%
%ADD58R,4.600000X0.800000*%
%ADD59R,9.400000X10.800000*%
%ADD60RoundRect,0.250000X0.362500X1.075000X-0.362500X1.075000X-0.362500X-1.075000X0.362500X-1.075000X0*%
%ADD61R,4.900000X3.200000*%
%ADD62R,1.000000X0.950000*%
%ADD63R,0.800000X4.600000*%
%ADD64RoundRect,0.150000X-0.512500X-0.150000X0.512500X-0.150000X0.512500X0.150000X-0.512500X0.150000X0*%
%ADD65RoundRect,1.210000X0.000000X-1.335000X0.000000X1.335000X0.000000X1.335000X0.000000X-1.335000X0*%
%ADD66RoundRect,1.500000X1.500000X-1.500000X1.500000X1.500000X-1.500000X1.500000X-1.500000X-1.500000X0*%
%ADD67R,4.600000X1.100000*%
%ADD68R,0.800000X0.900000*%
%ADD69RoundRect,0.150000X-0.150000X0.512500X-0.150000X-0.512500X0.150000X-0.512500X0.150000X0.512500X0*%
%ADD70R,2.900000X5.400000*%
%ADD71RoundRect,0.250000X-0.750000X0.600000X-0.750000X-0.600000X0.750000X-0.600000X0.750000X0.600000X0*%
%ADD72O,2.000000X1.700000*%
%ADD73C,0.700000*%
%ADD74O,0.900000X2.400000*%
%ADD75O,0.900000X1.700000*%
%ADD76C,0.600000*%
%ADD77C,0.800000*%
G04 APERTURE END LIST*
D10*
%TO.C,R28*%
X73112500Y-81050000D03*
X71287500Y-81050000D03*
%TD*%
D11*
%TO.C,R29*%
X63450000Y-71662500D03*
X63450000Y-69837500D03*
%TD*%
D12*
%TO.C,R22*%
X62250000Y-79675000D03*
X62250000Y-81325000D03*
%TD*%
D13*
%TO.C,C37*%
X127825000Y-50500000D03*
X129375000Y-50500000D03*
%TD*%
D14*
%TO.C,L3*%
X91500000Y-39800000D03*
X91500000Y-29900000D03*
%TD*%
D15*
%TO.C,PackLED1*%
X68162500Y-81050000D03*
X69737500Y-81050000D03*
%TD*%
D13*
%TO.C,CTTC1*%
X76675000Y-30900000D03*
X75125000Y-30900000D03*
%TD*%
D16*
%TO.C,IC1*%
X76160000Y-35810000D03*
D17*
X77410000Y-37797500D03*
X76910000Y-37797500D03*
X76410000Y-37797500D03*
X75910000Y-37797500D03*
X75410000Y-37797500D03*
X74910000Y-37797500D03*
D18*
X74172500Y-37060000D03*
X74172500Y-36560000D03*
X74172500Y-36060000D03*
X74172500Y-35560000D03*
X74172500Y-35060000D03*
X74172500Y-34560000D03*
D17*
X74910000Y-33822500D03*
X75410000Y-33822500D03*
X75910000Y-33822500D03*
X76410000Y-33822500D03*
X76910000Y-33822500D03*
X77410000Y-33822500D03*
D18*
X78147500Y-34560000D03*
X78147500Y-35060000D03*
X78147500Y-35560000D03*
X78147500Y-36060000D03*
X78147500Y-36560000D03*
X78147500Y-37060000D03*
%TD*%
D13*
%TO.C,C44*%
X118625000Y-69000000D03*
X117075000Y-69000000D03*
%TD*%
D19*
%TO.C,J6*%
X87850000Y-71100000D03*
D20*
X87850000Y-78300000D03*
%TD*%
D21*
%TO.C,C5*%
X68875000Y-37000000D03*
X67325000Y-37000000D03*
%TD*%
D22*
%TO.C,C43*%
X127450000Y-52300000D03*
X129350000Y-52300000D03*
%TD*%
D23*
%TO.C,Q4*%
X75250000Y-50960000D03*
D24*
X77155000Y-53610000D03*
X75885000Y-53610000D03*
X74615000Y-53610000D03*
X73345000Y-53610000D03*
X73345000Y-48310000D03*
X74615000Y-48310000D03*
X75885000Y-48310000D03*
X77155000Y-48310000D03*
%TD*%
D25*
%TO.C,R2*%
X71300000Y-33725000D03*
X71300000Y-32075000D03*
%TD*%
D26*
%TO.C,Q3*%
X86260000Y-52315000D03*
D27*
X83720000Y-61465000D03*
D26*
X83720000Y-52315000D03*
X81180000Y-52315000D03*
%TD*%
D28*
%TO.C,C33*%
X81150000Y-37025000D03*
X81150000Y-38575000D03*
%TD*%
D29*
%TO.C,RFast1*%
X59105000Y-38310000D03*
X60755000Y-38310000D03*
%TD*%
D28*
%TO.C,C7*%
X79600000Y-40025000D03*
X79600000Y-41575000D03*
%TD*%
D30*
%TO.C,RAC1*%
X72620000Y-60570000D03*
X77100000Y-60570000D03*
%TD*%
D13*
%TO.C,C6*%
X70275000Y-39925000D03*
X71825000Y-39925000D03*
%TD*%
D31*
%TO.C,J5*%
X51750000Y-73525000D03*
D32*
X51750000Y-69325000D03*
X57250000Y-73525000D03*
X57250000Y-69325000D03*
%TD*%
D33*
%TO.C,C41*%
X96012500Y-44100000D03*
X89787500Y-44100000D03*
%TD*%
D34*
%TO.C,C42*%
X99150000Y-38450000D03*
X99150000Y-36550000D03*
%TD*%
D35*
%TO.C,J4*%
X108900000Y-80160000D03*
D36*
X104700000Y-80160000D03*
X100500000Y-80160000D03*
X96300000Y-80160000D03*
X108900000Y-74660000D03*
X104700000Y-74660000D03*
X100500000Y-74660000D03*
X96300000Y-74660000D03*
%TD*%
D37*
%TO.C,TP23*%
X68640000Y-77500000D03*
%TD*%
D38*
%TO.C,D5*%
X132900000Y-62100000D03*
D39*
X131930000Y-66450000D03*
X133870000Y-66450000D03*
%TD*%
D28*
%TO.C,C21*%
X81200000Y-40025000D03*
X81200000Y-41575000D03*
%TD*%
D40*
%TO.C,C4*%
X81150000Y-35425000D03*
X81150000Y-33875000D03*
%TD*%
%TO.C,C3*%
X79650000Y-38575000D03*
X79650000Y-37025000D03*
%TD*%
D41*
%TO.C,RSR1*%
X65475000Y-40000000D03*
X67125000Y-40000000D03*
%TD*%
D42*
%TO.C,H3*%
X52000000Y-79850000D03*
%TD*%
D43*
%TO.C,Q10*%
X115700000Y-68950000D03*
X115700000Y-69600000D03*
X115700000Y-70250000D03*
X113800000Y-70250000D03*
X113800000Y-69600000D03*
X113800000Y-68950000D03*
%TD*%
D29*
%TO.C,R5*%
X63745000Y-38470000D03*
X62095000Y-38470000D03*
%TD*%
D28*
%TO.C,C10*%
X68550000Y-40025000D03*
X68550000Y-38475000D03*
%TD*%
D42*
%TO.C,H4*%
X132075000Y-43800000D03*
%TD*%
D13*
%TO.C,C48*%
X118625000Y-70500000D03*
X117075000Y-70500000D03*
%TD*%
D44*
%TO.C,C40*%
X112100000Y-66912500D03*
X112100000Y-60687500D03*
%TD*%
D45*
%TO.C,J2*%
X124575000Y-43250000D03*
D46*
X127115000Y-43250000D03*
%TD*%
D41*
%TO.C,R32*%
X82575000Y-36100000D03*
X84225000Y-36100000D03*
%TD*%
D47*
%TO.C,C20*%
X124650000Y-56300000D03*
X129750000Y-56300000D03*
%TD*%
D21*
%TO.C,C11*%
X67075000Y-38500000D03*
X65525000Y-38500000D03*
%TD*%
D25*
%TO.C,R37*%
X70390000Y-77275000D03*
X70390000Y-78925000D03*
%TD*%
D48*
%TO.C,Q9*%
X87750000Y-44250000D03*
X87100000Y-44250000D03*
X86450000Y-44250000D03*
X86450000Y-42350000D03*
X87100000Y-42350000D03*
X87750000Y-42350000D03*
%TD*%
D49*
%TO.C,J10*%
X124490000Y-78025000D03*
D50*
X122890000Y-80025000D03*
D51*
X120390000Y-80025000D03*
X117890000Y-80025000D03*
X115390000Y-80025000D03*
%TD*%
D15*
%TO.C,D9*%
X63712500Y-80100000D03*
X65287500Y-80100000D03*
%TD*%
D52*
%TO.C,C19*%
X103100000Y-41450000D03*
X103100000Y-36350000D03*
%TD*%
D42*
%TO.C,H2*%
X132000000Y-79800000D03*
%TD*%
D21*
%TO.C,C14*%
X66775000Y-69950000D03*
X65225000Y-69950000D03*
%TD*%
D22*
%TO.C,C16*%
X60600000Y-80900000D03*
X58700000Y-80900000D03*
%TD*%
D29*
%TO.C,R3*%
X63745000Y-39950000D03*
X62095000Y-39950000D03*
%TD*%
D33*
%TO.C,C39*%
X104812500Y-45000000D03*
X98587500Y-45000000D03*
%TD*%
D29*
%TO.C,RAdp1*%
X59105000Y-41300000D03*
X60755000Y-41300000D03*
%TD*%
D53*
%TO.C,PowerLED1*%
X61750000Y-69912500D03*
X61750000Y-71487500D03*
%TD*%
D12*
%TO.C,R10*%
X81150000Y-30825000D03*
X81150000Y-32475000D03*
%TD*%
D22*
%TO.C,C12*%
X73250000Y-72000000D03*
X71350000Y-72000000D03*
%TD*%
D54*
%TO.C,R17*%
X57700000Y-46862500D03*
X57700000Y-43937500D03*
%TD*%
D29*
%TO.C,R15*%
X84225000Y-39100000D03*
X82575000Y-39100000D03*
%TD*%
D55*
%TO.C,D7*%
X71870000Y-77312500D03*
X71870000Y-78887500D03*
%TD*%
D56*
%TO.C,C9*%
X71462500Y-68000000D03*
X73537500Y-68000000D03*
%TD*%
D29*
%TO.C,R7*%
X63745000Y-37000000D03*
X62095000Y-37000000D03*
%TD*%
D57*
%TO.C,C8*%
X81300000Y-43962500D03*
X81300000Y-46037500D03*
%TD*%
D41*
%TO.C,R1*%
X68225000Y-33600000D03*
X69875000Y-33600000D03*
%TD*%
D58*
%TO.C,U6*%
X108625000Y-36590000D03*
X108625000Y-37860000D03*
X108625000Y-39130000D03*
X108625000Y-40400000D03*
D59*
X117775000Y-40400000D03*
D58*
X108625000Y-41670000D03*
X108625000Y-42940000D03*
X108625000Y-44210000D03*
%TD*%
D21*
%TO.C,C49*%
X84175000Y-41000000D03*
X82625000Y-41000000D03*
%TD*%
D60*
%TO.C,R20*%
X55987500Y-78300000D03*
X60612500Y-78300000D03*
%TD*%
D28*
%TO.C,C45*%
X99400000Y-41875000D03*
X99400000Y-40325000D03*
%TD*%
D29*
%TO.C,R14*%
X66825000Y-68450000D03*
X65175000Y-68450000D03*
%TD*%
D45*
%TO.C,J3*%
X124575000Y-39600000D03*
D46*
X127115000Y-39600000D03*
%TD*%
D28*
%TO.C,C1*%
X78150000Y-30875000D03*
X78150000Y-32425000D03*
%TD*%
D61*
%TO.C,D6*%
X107300000Y-32500000D03*
D62*
X111650000Y-33470000D03*
X111650000Y-31530000D03*
%TD*%
D12*
%TO.C,R36*%
X63050000Y-76725000D03*
X63050000Y-78375000D03*
%TD*%
D63*
%TO.C,U7*%
X128810000Y-61900000D03*
X127540000Y-61900000D03*
X126270000Y-61900000D03*
X125000000Y-61900000D03*
D27*
X125000000Y-71050000D03*
D63*
X123730000Y-61900000D03*
X122460000Y-61900000D03*
X121190000Y-61900000D03*
%TD*%
D64*
%TO.C,U8*%
X115437500Y-71750000D03*
X115437500Y-72700000D03*
X115437500Y-73650000D03*
X113162500Y-73650000D03*
X113162500Y-72700000D03*
X113162500Y-71750000D03*
%TD*%
D42*
%TO.C,H1*%
X52075000Y-43850000D03*
%TD*%
D13*
%TO.C,C36*%
X103875000Y-34400000D03*
X102325000Y-34400000D03*
%TD*%
D37*
%TO.C,TP24*%
X67250000Y-79050000D03*
%TD*%
D65*
%TO.C,L1*%
X71065000Y-45075000D03*
X63575000Y-45075000D03*
%TD*%
D66*
%TO.C,J7*%
X78600000Y-78300000D03*
D20*
X78600000Y-71100000D03*
%TD*%
D41*
%TO.C,R18*%
X68175000Y-69950000D03*
X69825000Y-69950000D03*
%TD*%
D67*
%TO.C,Q8*%
X103525000Y-56290000D03*
D59*
X94375000Y-53750000D03*
D67*
X103525000Y-53750000D03*
X103525000Y-51210000D03*
%TD*%
D23*
%TO.C,Q5*%
X75230000Y-43560000D03*
D24*
X77135000Y-46210000D03*
X75865000Y-46210000D03*
X74595000Y-46210000D03*
X73325000Y-46210000D03*
X73325000Y-40910000D03*
X74595000Y-40910000D03*
X75865000Y-40910000D03*
X77135000Y-40910000D03*
%TD*%
D25*
%TO.C,R16*%
X79650000Y-32475000D03*
X79650000Y-30825000D03*
%TD*%
D22*
%TO.C,C13*%
X73250000Y-70000000D03*
X71350000Y-70000000D03*
%TD*%
D26*
%TO.C,Q2*%
X68515000Y-52000000D03*
D27*
X65975000Y-61150000D03*
D26*
X65975000Y-52000000D03*
X63435000Y-52000000D03*
%TD*%
D67*
%TO.C,Q7*%
X106925000Y-62560000D03*
X106925000Y-65100000D03*
D59*
X97775000Y-65100000D03*
D67*
X106925000Y-67640000D03*
%TD*%
D13*
%TO.C,C15*%
X82625000Y-37600000D03*
X84175000Y-37600000D03*
%TD*%
D26*
%TO.C,Q1*%
X57165000Y-52000000D03*
D27*
X54625000Y-61150000D03*
D26*
X54625000Y-52000000D03*
X52085000Y-52000000D03*
%TD*%
D44*
%TO.C,C38*%
X116900000Y-66912500D03*
X116900000Y-60687500D03*
%TD*%
D68*
%TO.C,D1*%
X72250000Y-36450000D03*
X71300000Y-38450000D03*
X70350000Y-36450000D03*
%TD*%
D69*
%TO.C,U9*%
X84950000Y-44937500D03*
X84000000Y-44937500D03*
X83050000Y-44937500D03*
X83050000Y-42662500D03*
X84000000Y-42662500D03*
X84950000Y-42662500D03*
%TD*%
%TO.C,U1*%
X92050000Y-62637500D03*
X91100000Y-62637500D03*
X90150000Y-62637500D03*
X90150000Y-60362500D03*
X91100000Y-60362500D03*
X92050000Y-60362500D03*
%TD*%
D29*
%TO.C,RPre1*%
X59105000Y-39800000D03*
X60755000Y-39800000D03*
%TD*%
D25*
%TO.C,R9*%
X79650000Y-35475000D03*
X79650000Y-33825000D03*
%TD*%
D70*
%TO.C,L4*%
X111550000Y-52700000D03*
X121450000Y-52700000D03*
%TD*%
D40*
%TO.C,Cff1*%
X72760000Y-32125000D03*
X72760000Y-33675000D03*
%TD*%
D71*
%TO.C,J1*%
X83200000Y-31500000D03*
D72*
X83200000Y-34000000D03*
%TD*%
D73*
%TO.C,J8*%
X71745000Y-73885000D03*
X70895000Y-73885000D03*
X70045000Y-73885000D03*
X69195000Y-73885000D03*
X68345000Y-73885000D03*
X67495000Y-73885000D03*
X66645000Y-73885000D03*
X65795000Y-73885000D03*
X65795000Y-75235000D03*
X66645000Y-75235000D03*
X67495000Y-75235000D03*
X68345000Y-75235000D03*
X69195000Y-75235000D03*
X70045000Y-75235000D03*
X70895000Y-75235000D03*
X71745000Y-75235000D03*
D74*
X73095000Y-74865000D03*
X64445000Y-74865000D03*
D75*
X73095000Y-78245000D03*
X64445000Y-78245000D03*
%TD*%
D76*
X72300000Y-80700000D03*
D77*
X58500000Y-82500000D03*
X74649500Y-39700000D03*
X117100000Y-44300000D03*
X134700000Y-67300000D03*
X49500000Y-72500000D03*
D76*
X80324980Y-48372129D03*
D77*
X120200000Y-71600000D03*
X117500000Y-78000000D03*
D76*
X70749501Y-68978269D03*
D77*
X121600000Y-35300000D03*
X127200000Y-70100000D03*
X126200000Y-74600000D03*
X126000000Y-82500000D03*
X122200000Y-74600000D03*
X120100000Y-36300000D03*
X118600000Y-35300000D03*
X61500000Y-82500000D03*
X120200000Y-74600000D03*
X75340000Y-34990000D03*
D76*
X57900000Y-80900000D03*
D77*
X121600000Y-39300000D03*
X49500000Y-46500000D03*
X134700000Y-70800000D03*
D76*
X83437701Y-41762299D03*
X59000000Y-51100000D03*
D77*
X117100000Y-36300000D03*
X76150000Y-34990000D03*
D76*
X78728000Y-46450000D03*
D77*
X122200000Y-71600000D03*
X118600000Y-45300000D03*
X118600000Y-41300000D03*
X125200000Y-67100000D03*
D76*
X58550000Y-40400000D03*
D77*
X75325000Y-36625000D03*
X116000000Y-82500000D03*
X88000000Y-29500000D03*
X76970000Y-36620000D03*
X49500000Y-70000000D03*
X126200000Y-68600000D03*
X114100000Y-42300000D03*
X127200000Y-67100000D03*
X120100000Y-44300000D03*
X76970000Y-34990000D03*
D76*
X58700000Y-79850000D03*
D77*
X115600000Y-41300000D03*
X129500000Y-82500000D03*
X115600000Y-39300000D03*
X128200000Y-71600000D03*
X123000000Y-78000000D03*
X134700000Y-74300000D03*
X121200000Y-70100000D03*
X76980000Y-35810000D03*
X115600000Y-37300000D03*
X55500000Y-44800000D03*
D76*
X80072000Y-45784588D03*
D77*
X49500000Y-75000000D03*
X118600000Y-39300000D03*
X49500000Y-67500000D03*
X129200000Y-73100000D03*
X49500000Y-77500000D03*
X113000000Y-80000000D03*
X127000000Y-78000000D03*
X52450000Y-40280000D03*
X49500000Y-49000000D03*
X115600000Y-43300000D03*
D76*
X81850980Y-44954361D03*
D77*
X123200000Y-67100000D03*
D76*
X80076793Y-46419012D03*
D77*
X120500000Y-78000000D03*
X129200000Y-70100000D03*
X121200000Y-67100000D03*
X130200000Y-68600000D03*
X125200000Y-73100000D03*
D76*
X62677556Y-72369651D03*
D77*
X68090000Y-32170000D03*
X86725000Y-28125000D03*
X72050000Y-30850000D03*
X69690000Y-82510000D03*
X121600000Y-41300000D03*
X114100000Y-44300000D03*
X125200000Y-70100000D03*
D76*
X91350000Y-61300000D03*
D77*
X88010000Y-32500000D03*
X130200000Y-74600000D03*
X122200000Y-68600000D03*
D76*
X100500000Y-71000000D03*
D77*
X124200000Y-68600000D03*
X120100000Y-42300000D03*
X115600000Y-45300000D03*
X129200000Y-67100000D03*
X60490000Y-35490000D03*
X114500000Y-78000000D03*
X121600000Y-43300000D03*
D76*
X78728000Y-45800000D03*
D77*
X75850000Y-39700000D03*
X117100000Y-40300000D03*
D76*
X59500000Y-80900000D03*
X81600000Y-39300000D03*
X68950000Y-42599503D03*
D77*
X118600000Y-37300000D03*
X128200000Y-68600000D03*
X115600000Y-35300000D03*
D76*
X114200000Y-73200000D03*
D77*
X124200000Y-71600000D03*
X54910000Y-41200000D03*
X66690000Y-82510000D03*
X119000000Y-82500000D03*
X76160000Y-36620000D03*
X123200000Y-70100000D03*
X121600000Y-45300000D03*
X127200000Y-73100000D03*
D76*
X78810054Y-48371789D03*
D77*
X117100000Y-38300000D03*
X64250000Y-82550000D03*
X123200000Y-73100000D03*
D76*
X100000000Y-59000000D03*
D77*
X56330000Y-37810000D03*
X73090000Y-76770000D03*
X130200000Y-71600000D03*
D76*
X61010023Y-66500980D03*
D77*
X51500000Y-47500000D03*
D76*
X80100000Y-47050000D03*
D77*
X134700000Y-77800000D03*
X120100000Y-40300000D03*
X126200000Y-71600000D03*
X121600000Y-37300000D03*
X120200000Y-68600000D03*
D76*
X68000000Y-37600000D03*
X81500000Y-33200000D03*
D77*
X114100000Y-38300000D03*
X49500000Y-54000000D03*
X124200000Y-74600000D03*
D76*
X125806043Y-46623197D03*
D77*
X121200000Y-73100000D03*
X122500000Y-82500000D03*
X114100000Y-36300000D03*
X49500000Y-51500000D03*
D76*
X61716646Y-42347604D03*
X78728000Y-47100000D03*
D77*
X55500000Y-82500000D03*
X120100000Y-38300000D03*
X75350000Y-35810000D03*
D76*
X78101608Y-41853786D03*
D77*
X56500000Y-39500000D03*
D76*
X65750000Y-79400000D03*
D77*
X117100000Y-42300000D03*
X64285410Y-33689992D03*
D76*
X78728000Y-47750000D03*
D77*
X75925000Y-29825000D03*
X118600000Y-43300000D03*
X51000000Y-55750000D03*
D76*
X80100000Y-47700000D03*
D77*
X128200000Y-74600000D03*
X81400000Y-28750000D03*
D76*
X62740000Y-68290000D03*
D77*
X114100000Y-40300000D03*
X113000000Y-82500000D03*
X76160000Y-35810000D03*
D76*
X73900511Y-61807928D03*
X86690000Y-31870000D03*
X73839502Y-55550000D03*
X86210000Y-34530000D03*
X61700000Y-36000000D03*
X79700000Y-34800000D03*
X74600000Y-32357013D03*
X70310847Y-39245909D03*
X73541589Y-38134020D03*
X71711412Y-39211411D03*
X76411970Y-38607816D03*
D77*
X56500000Y-43900000D03*
D76*
X77777178Y-37777178D03*
D77*
X59050000Y-66449502D03*
X62300000Y-54154500D03*
X57550000Y-55250000D03*
X56500000Y-66449502D03*
D76*
X84200000Y-39900000D03*
X86275738Y-49705919D03*
X62050000Y-80400000D03*
D77*
X85689746Y-44195878D03*
X85675000Y-45025000D03*
X100700000Y-77000000D03*
X115000000Y-70449989D03*
X101600000Y-77000000D03*
D76*
X87309502Y-52800000D03*
X78515270Y-49309385D03*
X68950000Y-41800000D03*
X71400000Y-66400000D03*
X100800000Y-59000000D03*
X80468026Y-44959030D03*
D77*
X86489976Y-45012359D03*
X115900000Y-71100000D03*
X99800000Y-77000000D03*
X116800000Y-71700000D03*
D76*
X62650000Y-66500980D03*
X125650000Y-45600000D03*
X78400000Y-56000000D03*
D77*
X97600000Y-48800000D03*
X96700000Y-48800000D03*
X102760000Y-37860000D03*
X95800000Y-48800000D03*
X127750000Y-55100000D03*
X101750000Y-37850000D03*
X127750000Y-57050000D03*
X103810000Y-37860000D03*
X127740000Y-56100000D03*
D76*
X72500000Y-49500000D03*
X86640000Y-30520000D03*
X107900000Y-48000000D03*
X121100000Y-47200000D03*
X68900000Y-55600000D03*
X85200000Y-33550000D03*
D77*
X65600000Y-42850000D03*
X65600000Y-44850000D03*
X65600000Y-43850000D03*
D76*
X89900000Y-61300000D03*
X83406439Y-43790820D03*
X116448755Y-73362685D03*
X76710020Y-32648946D03*
X75900000Y-31621594D03*
X78650000Y-33950000D03*
X75850000Y-57650000D03*
X74324539Y-63550000D03*
X74309561Y-65101981D03*
X75848031Y-59575388D03*
X73290817Y-36400500D03*
X65000000Y-37200000D03*
X76945839Y-39456339D03*
X83250000Y-36600000D03*
X69200000Y-35659500D03*
X62900000Y-37800000D03*
X69050000Y-69400000D03*
X75132891Y-62417109D03*
X74649020Y-58950000D03*
X80400000Y-36200000D03*
X73764380Y-31258023D03*
X63000000Y-36000000D03*
X92100000Y-81900000D03*
X93596265Y-81910043D03*
X93600000Y-80500000D03*
X92300000Y-80500000D03*
X72563060Y-52348600D03*
X80400000Y-37200000D03*
X106900000Y-66800000D03*
X105600000Y-55400000D03*
X91350000Y-63550000D03*
M02*
