%TF.GenerationSoftware,KiCad,Pcbnew,(6.0.1-0)*%
%TF.CreationDate,2022-08-02T01:26:45+01:00*%
%TF.ProjectId,powerboard_sc21_as25,706f7765-7262-46f6-9172-645f73633231,rev?*%
%TF.SameCoordinates,Original*%
%TF.FileFunction,Paste,Bot*%
%TF.FilePolarity,Positive*%
%FSLAX46Y46*%
G04 Gerber Fmt 4.6, Leading zero omitted, Abs format (unit mm)*
G04 Created by KiCad (PCBNEW (6.0.1-0)) date 2022-08-02 01:26:45*
%MOMM*%
%LPD*%
G01*
G04 APERTURE LIST*
G04 Aperture macros list*
%AMRoundRect*
0 Rectangle with rounded corners*
0 $1 Rounding radius*
0 $2 $3 $4 $5 $6 $7 $8 $9 X,Y pos of 4 corners*
0 Add a 4 corners polygon primitive as box body*
4,1,4,$2,$3,$4,$5,$6,$7,$8,$9,$2,$3,0*
0 Add four circle primitives for the rounded corners*
1,1,$1+$1,$2,$3*
1,1,$1+$1,$4,$5*
1,1,$1+$1,$6,$7*
1,1,$1+$1,$8,$9*
0 Add four rect primitives between the rounded corners*
20,1,$1+$1,$2,$3,$4,$5,0*
20,1,$1+$1,$4,$5,$6,$7,0*
20,1,$1+$1,$6,$7,$8,$9,0*
20,1,$1+$1,$8,$9,$2,$3,0*%
G04 Aperture macros list end*
%ADD10C,0.010000*%
%ADD11RoundRect,0.150000X-0.150000X0.825000X-0.150000X-0.825000X0.150000X-0.825000X0.150000X0.825000X0*%
%ADD12RoundRect,0.225000X0.250000X-0.225000X0.250000X0.225000X-0.250000X0.225000X-0.250000X-0.225000X0*%
%ADD13RoundRect,0.200000X-0.200000X-0.275000X0.200000X-0.275000X0.200000X0.275000X-0.200000X0.275000X0*%
%ADD14RoundRect,0.225000X0.225000X0.250000X-0.225000X0.250000X-0.225000X-0.250000X0.225000X-0.250000X0*%
%ADD15RoundRect,0.225000X-0.225000X-0.250000X0.225000X-0.250000X0.225000X0.250000X-0.225000X0.250000X0*%
%ADD16RoundRect,0.200000X-0.275000X0.200000X-0.275000X-0.200000X0.275000X-0.200000X0.275000X0.200000X0*%
%ADD17RoundRect,0.225000X-0.250000X0.225000X-0.250000X-0.225000X0.250000X-0.225000X0.250000X0.225000X0*%
%ADD18RoundRect,0.200000X0.200000X0.275000X-0.200000X0.275000X-0.200000X-0.275000X0.200000X-0.275000X0*%
%ADD19R,1.000000X1.000000*%
%ADD20R,1.050000X2.200000*%
%ADD21RoundRect,0.200000X0.275000X-0.200000X0.275000X0.200000X-0.275000X0.200000X-0.275000X-0.200000X0*%
%ADD22RoundRect,0.150000X0.150000X-0.587500X0.150000X0.587500X-0.150000X0.587500X-0.150000X-0.587500X0*%
%ADD23R,0.400000X0.650000*%
%ADD24RoundRect,0.250000X-0.250000X-0.475000X0.250000X-0.475000X0.250000X0.475000X-0.250000X0.475000X0*%
%ADD25RoundRect,0.250000X-0.285000X0.285000X-0.285000X-0.285000X0.285000X-0.285000X0.285000X0.285000X0*%
%ADD26RoundRect,0.062500X-0.062500X0.337500X-0.062500X-0.337500X0.062500X-0.337500X0.062500X0.337500X0*%
%ADD27RoundRect,0.062500X-0.337500X0.062500X-0.337500X-0.062500X0.337500X-0.062500X0.337500X0.062500X0*%
%ADD28RoundRect,0.218750X-0.218750X-0.256250X0.218750X-0.256250X0.218750X0.256250X-0.218750X0.256250X0*%
%ADD29RoundRect,0.200000X-0.600000X0.200000X-0.600000X-0.200000X0.600000X-0.200000X0.600000X0.200000X0*%
%ADD30RoundRect,0.250001X-1.249999X0.799999X-1.249999X-0.799999X1.249999X-0.799999X1.249999X0.799999X0*%
%ADD31RoundRect,0.250000X0.250000X0.475000X-0.250000X0.475000X-0.250000X-0.475000X0.250000X-0.475000X0*%
%ADD32R,1.400000X1.200000*%
%ADD33R,1.400000X1.000000*%
%ADD34RoundRect,0.150000X-0.512500X-0.150000X0.512500X-0.150000X0.512500X0.150000X-0.512500X0.150000X0*%
%ADD35R,0.254000X0.900000*%
%ADD36R,0.900000X0.254000*%
%ADD37RoundRect,0.042000X0.258000X-0.943000X0.258000X0.943000X-0.258000X0.943000X-0.258000X-0.943000X0*%
G04 APERTURE END LIST*
D10*
%TO.C,IC2*%
X66990000Y-64093170D02*
X66990000Y-62843250D01*
X66990000Y-62843250D02*
X65739520Y-62843250D01*
X65739520Y-62843250D02*
X65739520Y-64093170D01*
X65739520Y-64093170D02*
X66990000Y-64093170D01*
G36*
X66990000Y-64093170D02*
G01*
X65739520Y-64093170D01*
X65739520Y-62843250D01*
X66990000Y-62843250D01*
X66990000Y-64093170D01*
G37*
X66990000Y-64093170D02*
X65739520Y-64093170D01*
X65739520Y-62843250D01*
X66990000Y-62843250D01*
X66990000Y-64093170D01*
X68740000Y-65844070D02*
X68740000Y-64593250D01*
X68740000Y-64593250D02*
X67490137Y-64593250D01*
X67490137Y-64593250D02*
X67490137Y-65844070D01*
X67490137Y-65844070D02*
X68740000Y-65844070D01*
G36*
X68740000Y-65844070D02*
G01*
X67490137Y-65844070D01*
X67490137Y-64593250D01*
X68740000Y-64593250D01*
X68740000Y-65844070D01*
G37*
X68740000Y-65844070D02*
X67490137Y-65844070D01*
X67490137Y-64593250D01*
X68740000Y-64593250D01*
X68740000Y-65844070D01*
X68740000Y-64092804D02*
X68740000Y-62843250D01*
X68740000Y-62843250D02*
X67490446Y-62843250D01*
X67490446Y-62843250D02*
X67490446Y-64092804D01*
X67490446Y-64092804D02*
X68740000Y-64092804D01*
G36*
X68740000Y-64092804D02*
G01*
X67490446Y-64092804D01*
X67490446Y-62843250D01*
X68740000Y-62843250D01*
X68740000Y-64092804D01*
G37*
X68740000Y-64092804D02*
X67490446Y-64092804D01*
X67490446Y-62843250D01*
X68740000Y-62843250D01*
X68740000Y-64092804D01*
X66990000Y-65845260D02*
X66990000Y-64593250D01*
X66990000Y-64593250D02*
X65737990Y-64593250D01*
X65737990Y-64593250D02*
X65737990Y-65845260D01*
X65737990Y-65845260D02*
X66990000Y-65845260D01*
G36*
X66990000Y-65845260D02*
G01*
X65737990Y-65845260D01*
X65737990Y-64593250D01*
X66990000Y-64593250D01*
X66990000Y-65845260D01*
G37*
X66990000Y-65845260D02*
X65737990Y-65845260D01*
X65737990Y-64593250D01*
X66990000Y-64593250D01*
X66990000Y-65845260D01*
%TO.C,U4*%
X61000000Y-46631976D02*
X61000000Y-45230000D01*
X61000000Y-45230000D02*
X59598024Y-45230000D01*
X59598024Y-45230000D02*
X59598024Y-46631976D01*
X59598024Y-46631976D02*
X61000000Y-46631976D01*
G36*
X61000000Y-46631976D02*
G01*
X59598024Y-46631976D01*
X59598024Y-45230000D01*
X61000000Y-45230000D01*
X61000000Y-46631976D01*
G37*
X61000000Y-46631976D02*
X59598024Y-46631976D01*
X59598024Y-45230000D01*
X61000000Y-45230000D01*
X61000000Y-46631976D01*
%TD*%
D11*
%TO.C,U2*%
X98460000Y-57730449D03*
X99730000Y-57730449D03*
X101000000Y-57730449D03*
X102270000Y-57730449D03*
X102270000Y-62680449D03*
X101000000Y-62680449D03*
X99730000Y-62680449D03*
X98460000Y-62680449D03*
%TD*%
D12*
%TO.C,C57*%
X62550000Y-41495000D03*
X62550000Y-39945000D03*
%TD*%
D13*
%TO.C,R40*%
X61925000Y-61650000D03*
X63575000Y-61650000D03*
%TD*%
D14*
%TO.C,C18*%
X124925000Y-48700000D03*
X123375000Y-48700000D03*
%TD*%
D15*
%TO.C,C52*%
X60375000Y-66030000D03*
X61925000Y-66030000D03*
%TD*%
%TO.C,C28*%
X101960000Y-66335449D03*
X103510000Y-66335449D03*
%TD*%
%TO.C,C24*%
X81325000Y-47950000D03*
X82875000Y-47950000D03*
%TD*%
D14*
%TO.C,C51*%
X61925000Y-63100000D03*
X60375000Y-63100000D03*
%TD*%
D16*
%TO.C,R38*%
X60900000Y-51805000D03*
X60900000Y-53455000D03*
%TD*%
D17*
%TO.C,C31*%
X58930000Y-78725000D03*
X58930000Y-80275000D03*
%TD*%
D18*
%TO.C,R21*%
X73825000Y-66200000D03*
X72175000Y-66200000D03*
%TD*%
%TO.C,R8*%
X124975000Y-47200000D03*
X123325000Y-47200000D03*
%TD*%
D19*
%TO.C,J9*%
X79400000Y-44700000D03*
D20*
X77925000Y-43200000D03*
D19*
X79400000Y-41700000D03*
D20*
X80875000Y-43200000D03*
%TD*%
D15*
%TO.C,C22*%
X81325000Y-46450000D03*
X82875000Y-46450000D03*
%TD*%
D21*
%TO.C,R13*%
X65850000Y-59625000D03*
X65850000Y-57975000D03*
%TD*%
D22*
%TO.C,D4*%
X101455000Y-69932949D03*
X99555000Y-69932949D03*
X100505000Y-68057949D03*
%TD*%
D23*
%TO.C,Q6*%
X67350000Y-57750000D03*
X68000000Y-57750000D03*
X68650000Y-57750000D03*
X68650000Y-59650000D03*
X68000000Y-59650000D03*
X67350000Y-59650000D03*
%TD*%
D21*
%TO.C,R43*%
X59610000Y-41555000D03*
X59610000Y-39905000D03*
%TD*%
D24*
%TO.C,C32*%
X60450000Y-78700000D03*
X62350000Y-78700000D03*
%TD*%
D17*
%TO.C,C58*%
X68200000Y-41425000D03*
X68200000Y-42975000D03*
%TD*%
D15*
%TO.C,C54*%
X59375000Y-50390000D03*
X60925000Y-50390000D03*
%TD*%
D16*
%TO.C,R30*%
X57460000Y-77185000D03*
X57460000Y-78835000D03*
%TD*%
D17*
%TO.C,C26*%
X100515000Y-64725000D03*
X100515000Y-66275000D03*
%TD*%
D13*
%TO.C,R26*%
X97479725Y-64844995D03*
X99129725Y-64844995D03*
%TD*%
D25*
%TO.C,U3*%
X79920000Y-53460000D03*
X81240000Y-50820000D03*
X79920000Y-52140000D03*
X81240000Y-52140000D03*
X82560000Y-52140000D03*
X83880000Y-53460000D03*
X81240000Y-54780000D03*
X79920000Y-50820000D03*
X83880000Y-54780000D03*
X83880000Y-50820000D03*
X79920000Y-54780000D03*
X81240000Y-53460000D03*
X82560000Y-54780000D03*
X82560000Y-50820000D03*
X83880000Y-52140000D03*
X82560000Y-53460000D03*
D26*
X79150000Y-49350000D03*
X79650000Y-49350000D03*
X80150000Y-49350000D03*
X80650000Y-49350000D03*
X81150000Y-49350000D03*
X81650000Y-49350000D03*
X82150000Y-49350000D03*
X82650000Y-49350000D03*
X83150000Y-49350000D03*
X83650000Y-49350000D03*
X84150000Y-49350000D03*
X84650000Y-49350000D03*
D27*
X85350000Y-50050000D03*
X85350000Y-50550000D03*
X85350000Y-51050000D03*
X85350000Y-51550000D03*
X85350000Y-52050000D03*
X85350000Y-52550000D03*
X85350000Y-53050000D03*
X85350000Y-53550000D03*
X85350000Y-54050000D03*
X85350000Y-54550000D03*
X85350000Y-55050000D03*
X85350000Y-55550000D03*
D26*
X84650000Y-56250000D03*
X84150000Y-56250000D03*
X83650000Y-56250000D03*
X83150000Y-56250000D03*
X82650000Y-56250000D03*
X82150000Y-56250000D03*
X81650000Y-56250000D03*
X81150000Y-56250000D03*
X80650000Y-56250000D03*
X80150000Y-56250000D03*
X79650000Y-56250000D03*
X79150000Y-56250000D03*
D27*
X78450000Y-55550000D03*
X78450000Y-55050000D03*
X78450000Y-54550000D03*
X78450000Y-54050000D03*
X78450000Y-53550000D03*
X78450000Y-53050000D03*
X78450000Y-52550000D03*
X78450000Y-52050000D03*
X78450000Y-51550000D03*
X78450000Y-51050000D03*
X78450000Y-50550000D03*
X78450000Y-50050000D03*
%TD*%
D14*
%TO.C,C27*%
X99074551Y-66335000D03*
X97524551Y-66335000D03*
%TD*%
D16*
%TO.C,R12*%
X70150000Y-57975000D03*
X70150000Y-59625000D03*
%TD*%
D28*
%TO.C,D3*%
X71612500Y-67700000D03*
X73187500Y-67700000D03*
%TD*%
D21*
%TO.C,R6*%
X129400000Y-48775000D03*
X129400000Y-47125000D03*
%TD*%
%TO.C,R24*%
X96900000Y-63425000D03*
X96900000Y-61775000D03*
%TD*%
D28*
%TO.C,D2*%
X71812500Y-64700000D03*
X73387500Y-64700000D03*
%TD*%
D15*
%TO.C,C17*%
X126375000Y-48700000D03*
X127925000Y-48700000D03*
%TD*%
D29*
%TO.C,J11*%
X130020000Y-64440000D03*
X130020000Y-65690000D03*
X130020000Y-66940000D03*
D30*
X132920000Y-69490000D03*
X132920000Y-61890000D03*
%TD*%
D31*
%TO.C,C25*%
X101009551Y-54000000D03*
X99109551Y-54000000D03*
%TD*%
D18*
%TO.C,R11*%
X124975000Y-45700000D03*
X123325000Y-45700000D03*
%TD*%
D32*
%TO.C,D8*%
X62740000Y-71380000D03*
D33*
X62740000Y-69660000D03*
X64940000Y-69660000D03*
X64940000Y-71560000D03*
%TD*%
D14*
%TO.C,C50*%
X61925000Y-64570000D03*
X60375000Y-64570000D03*
%TD*%
D16*
%TO.C,R31*%
X57460000Y-80155000D03*
X57460000Y-81805000D03*
%TD*%
D34*
%TO.C,U11*%
X64262500Y-41450000D03*
X64262500Y-40500000D03*
X64262500Y-39550000D03*
X66537500Y-39550000D03*
X66537500Y-41450000D03*
%TD*%
D16*
%TO.C,R35*%
X69990000Y-70495000D03*
X69990000Y-72145000D03*
%TD*%
D35*
%TO.C,IC2*%
X68740000Y-66933250D03*
X68240000Y-66933250D03*
X67740000Y-66933250D03*
X67240000Y-66933250D03*
X66740000Y-66933250D03*
X66240000Y-66933250D03*
X65740000Y-66933250D03*
D36*
X64650000Y-65843250D03*
X64650000Y-65343250D03*
X64650000Y-64843250D03*
X64650000Y-64343250D03*
X64650000Y-63843250D03*
X64650000Y-63343250D03*
X64650000Y-62843250D03*
D35*
X65740000Y-61753250D03*
X66240000Y-61753250D03*
X66740000Y-61753250D03*
X67240000Y-61753250D03*
X67740000Y-61753250D03*
X68240000Y-61753250D03*
X68740000Y-61753250D03*
D36*
X69830000Y-62843250D03*
X69830000Y-63343250D03*
X69830000Y-63843250D03*
X69830000Y-64343250D03*
X69830000Y-64843250D03*
X69830000Y-65343250D03*
X69830000Y-65843250D03*
%TD*%
D16*
%TO.C,R39*%
X59400000Y-51805000D03*
X59400000Y-53455000D03*
%TD*%
D14*
%TO.C,C23*%
X100934551Y-55750000D03*
X99384551Y-55750000D03*
%TD*%
D18*
%TO.C,R19*%
X73425000Y-63200000D03*
X71775000Y-63200000D03*
%TD*%
D15*
%TO.C,C2*%
X126375000Y-47200000D03*
X127925000Y-47200000D03*
%TD*%
D37*
%TO.C,U4*%
X62205000Y-48400000D03*
X60935000Y-48400000D03*
X59665000Y-48400000D03*
X58395000Y-48400000D03*
X58395000Y-43460000D03*
X59665000Y-43460000D03*
X60935000Y-43460000D03*
X62205000Y-43460000D03*
%TD*%
D13*
%TO.C,R4*%
X126325000Y-45700000D03*
X127975000Y-45700000D03*
%TD*%
D15*
%TO.C,C53*%
X60375000Y-67500000D03*
X61925000Y-67500000D03*
%TD*%
D16*
%TO.C,R42*%
X61070000Y-39905000D03*
X61070000Y-41555000D03*
%TD*%
D13*
%TO.C,R27*%
X101910000Y-64850449D03*
X103560000Y-64850449D03*
%TD*%
M02*
