%TF.GenerationSoftware,KiCad,Pcbnew,(7.0.0)*%
%TF.CreationDate,2023-09-07T01:40:49+01:00*%
%TF.ProjectId,PDU,5044552e-6b69-4636-9164-5f7063625858,rev?*%
%TF.SameCoordinates,Original*%
%TF.FileFunction,Legend,Top*%
%TF.FilePolarity,Positive*%
%FSLAX46Y46*%
G04 Gerber Fmt 4.6, Leading zero omitted, Abs format (unit mm)*
G04 Created by KiCad (PCBNEW (7.0.0)) date 2023-09-07 01:40:49*
%MOMM*%
%LPD*%
G01*
G04 APERTURE LIST*
G04 Aperture macros list*
%AMRoundRect*
0 Rectangle with rounded corners*
0 $1 Rounding radius*
0 $2 $3 $4 $5 $6 $7 $8 $9 X,Y pos of 4 corners*
0 Add a 4 corners polygon primitive as box body*
4,1,4,$2,$3,$4,$5,$6,$7,$8,$9,$2,$3,0*
0 Add four circle primitives for the rounded corners*
1,1,$1+$1,$2,$3*
1,1,$1+$1,$4,$5*
1,1,$1+$1,$6,$7*
1,1,$1+$1,$8,$9*
0 Add four rect primitives between the rounded corners*
20,1,$1+$1,$2,$3,$4,$5,0*
20,1,$1+$1,$4,$5,$6,$7,0*
20,1,$1+$1,$6,$7,$8,$9,0*
20,1,$1+$1,$8,$9,$2,$3,0*%
%AMFreePoly0*
4,1,19,0.500000,-0.750000,0.000000,-0.750000,0.000000,-0.744911,-0.071157,-0.744911,-0.207708,-0.704816,-0.327430,-0.627875,-0.420627,-0.520320,-0.479746,-0.390866,-0.500000,-0.250000,-0.500000,0.250000,-0.479746,0.390866,-0.420627,0.520320,-0.327430,0.627875,-0.207708,0.704816,-0.071157,0.744911,0.000000,0.744911,0.000000,0.750000,0.500000,0.750000,0.500000,-0.750000,0.500000,-0.750000,
$1*%
%AMFreePoly1*
4,1,19,0.000000,0.744911,0.071157,0.744911,0.207708,0.704816,0.327430,0.627875,0.420627,0.520320,0.479746,0.390866,0.500000,0.250000,0.500000,-0.250000,0.479746,-0.390866,0.420627,-0.520320,0.327430,-0.627875,0.207708,-0.704816,0.071157,-0.744911,0.000000,-0.744911,0.000000,-0.750000,-0.500000,-0.750000,-0.500000,0.750000,0.000000,0.750000,0.000000,0.744911,0.000000,0.744911,
$1*%
G04 Aperture macros list end*
%ADD10C,0.150000*%
%ADD11C,0.120000*%
%ADD12C,0.100000*%
%ADD13C,0.200000*%
%ADD14C,0.127000*%
%ADD15C,0.010000*%
%ADD16RoundRect,0.135000X0.185000X-0.135000X0.185000X0.135000X-0.185000X0.135000X-0.185000X-0.135000X0*%
%ADD17RoundRect,0.140000X-0.140000X-0.170000X0.140000X-0.170000X0.140000X0.170000X-0.140000X0.170000X0*%
%ADD18RoundRect,0.225000X0.225000X0.250000X-0.225000X0.250000X-0.225000X-0.250000X0.225000X-0.250000X0*%
%ADD19RoundRect,0.225000X-0.250000X0.225000X-0.250000X-0.225000X0.250000X-0.225000X0.250000X0.225000X0*%
%ADD20R,0.550000X0.300000*%
%ADD21R,0.300000X0.450000*%
%ADD22R,0.300000X0.725000*%
%ADD23R,0.725000X0.300000*%
%ADD24R,1.575000X1.050000*%
%ADD25R,1.150000X1.050000*%
%ADD26R,2.175000X1.200000*%
%ADD27R,0.580000X0.380000*%
%ADD28R,0.650000X0.455000*%
%ADD29R,2.350000X0.275000*%
%ADD30R,0.405000X0.990000*%
%ADD31R,0.405000X0.510000*%
%ADD32R,2.235000X1.725000*%
%ADD33R,0.077000X0.250000*%
%ADD34RoundRect,0.135000X-0.135000X-0.185000X0.135000X-0.185000X0.135000X0.185000X-0.135000X0.185000X0*%
%ADD35R,0.700000X1.000000*%
%ADD36R,0.700000X0.600000*%
%ADD37RoundRect,0.135000X-0.185000X0.135000X-0.185000X-0.135000X0.185000X-0.135000X0.185000X0.135000X0*%
%ADD38RoundRect,0.135000X0.135000X0.185000X-0.135000X0.185000X-0.135000X-0.185000X0.135000X-0.185000X0*%
%ADD39RoundRect,0.150000X-0.512500X-0.150000X0.512500X-0.150000X0.512500X0.150000X-0.512500X0.150000X0*%
%ADD40R,0.600000X0.400000*%
%ADD41R,0.550000X0.400000*%
%ADD42R,2.030000X2.650000*%
%ADD43C,0.600000*%
%ADD44R,0.600000X1.160000*%
%ADD45R,0.300000X1.160000*%
%ADD46O,0.900000X2.000000*%
%ADD47O,0.900000X1.700000*%
%ADD48C,1.000000*%
%ADD49RoundRect,0.150000X-0.150000X0.825000X-0.150000X-0.825000X0.150000X-0.825000X0.150000X0.825000X0*%
%ADD50RoundRect,0.250000X0.850000X0.600000X-0.850000X0.600000X-0.850000X-0.600000X0.850000X-0.600000X0*%
%ADD51O,2.200000X1.700000*%
%ADD52R,3.716000X3.716000*%
%ADD53C,3.716000*%
%ADD54O,1.200000X2.400000*%
%ADD55R,1.700000X1.700000*%
%ADD56O,1.700000X1.700000*%
%ADD57RoundRect,0.147500X0.147500X0.172500X-0.147500X0.172500X-0.147500X-0.172500X0.147500X-0.172500X0*%
%ADD58RoundRect,0.140000X0.170000X-0.140000X0.170000X0.140000X-0.170000X0.140000X-0.170000X-0.140000X0*%
%ADD59RoundRect,0.147500X-0.172500X0.147500X-0.172500X-0.147500X0.172500X-0.147500X0.172500X0.147500X0*%
%ADD60RoundRect,0.140000X0.140000X0.170000X-0.140000X0.170000X-0.140000X-0.170000X0.140000X-0.170000X0*%
%ADD61RoundRect,0.140000X-0.170000X0.140000X-0.170000X-0.140000X0.170000X-0.140000X0.170000X0.140000X0*%
%ADD62C,5.600000*%
%ADD63RoundRect,0.225000X-0.225000X-0.250000X0.225000X-0.250000X0.225000X0.250000X-0.225000X0.250000X0*%
%ADD64RoundRect,0.200000X-0.200000X-0.275000X0.200000X-0.275000X0.200000X0.275000X-0.200000X0.275000X0*%
%ADD65RoundRect,0.218750X0.381250X-0.218750X0.381250X0.218750X-0.381250X0.218750X-0.381250X-0.218750X0*%
%ADD66RoundRect,0.200000X0.275000X-0.200000X0.275000X0.200000X-0.275000X0.200000X-0.275000X-0.200000X0*%
%ADD67FreePoly0,90.000000*%
%ADD68FreePoly1,90.000000*%
%ADD69RoundRect,0.147500X0.172500X-0.147500X0.172500X0.147500X-0.172500X0.147500X-0.172500X-0.147500X0*%
%ADD70RoundRect,0.006600X0.398400X0.103400X-0.398400X0.103400X-0.398400X-0.103400X0.398400X-0.103400X0*%
%ADD71RoundRect,0.022000X0.088000X0.383000X-0.088000X0.383000X-0.088000X-0.383000X0.088000X-0.383000X0*%
%ADD72R,4.000000X4.000000*%
%ADD73FreePoly0,270.000000*%
%ADD74FreePoly1,270.000000*%
%ADD75RoundRect,0.147500X-0.147500X-0.172500X0.147500X-0.172500X0.147500X0.172500X-0.147500X0.172500X0*%
%ADD76R,0.900000X0.800000*%
%ADD77RoundRect,0.150000X0.512500X0.150000X-0.512500X0.150000X-0.512500X-0.150000X0.512500X-0.150000X0*%
%ADD78RoundRect,0.250001X1.099999X1.599999X-1.099999X1.599999X-1.099999X-1.599999X1.099999X-1.599999X0*%
%ADD79O,2.700000X3.700000*%
%ADD80RoundRect,0.250000X1.750000X1.000000X-1.750000X1.000000X-1.750000X-1.000000X1.750000X-1.000000X0*%
%ADD81R,0.400000X0.450000*%
%ADD82R,0.500000X0.450000*%
%ADD83RoundRect,0.250000X-0.650000X0.325000X-0.650000X-0.325000X0.650000X-0.325000X0.650000X0.325000X0*%
%ADD84RoundRect,0.150000X0.150000X-0.587500X0.150000X0.587500X-0.150000X0.587500X-0.150000X-0.587500X0*%
%ADD85RoundRect,0.042000X0.258000X-0.943000X0.258000X0.943000X-0.258000X0.943000X-0.258000X-0.943000X0*%
%ADD86R,2.150000X2.150000*%
%ADD87R,3.350000X4.700000*%
G04 APERTURE END LIST*
D10*
X67576666Y-32537666D02*
X67576666Y-31837666D01*
X67576666Y-31837666D02*
X67743333Y-31837666D01*
X67743333Y-31837666D02*
X67843333Y-31871000D01*
X67843333Y-31871000D02*
X67910000Y-31937666D01*
X67910000Y-31937666D02*
X67943333Y-32004333D01*
X67943333Y-32004333D02*
X67976666Y-32137666D01*
X67976666Y-32137666D02*
X67976666Y-32237666D01*
X67976666Y-32237666D02*
X67943333Y-32371000D01*
X67943333Y-32371000D02*
X67910000Y-32437666D01*
X67910000Y-32437666D02*
X67843333Y-32504333D01*
X67843333Y-32504333D02*
X67743333Y-32537666D01*
X67743333Y-32537666D02*
X67576666Y-32537666D01*
X68276666Y-32271000D02*
X68810000Y-32271000D01*
X68543333Y-32537666D02*
X68543333Y-32004333D01*
X76376666Y-53057666D02*
X76143333Y-52724333D01*
X75976666Y-53057666D02*
X75976666Y-52357666D01*
X75976666Y-52357666D02*
X76243333Y-52357666D01*
X76243333Y-52357666D02*
X76310000Y-52391000D01*
X76310000Y-52391000D02*
X76343333Y-52424333D01*
X76343333Y-52424333D02*
X76376666Y-52491000D01*
X76376666Y-52491000D02*
X76376666Y-52591000D01*
X76376666Y-52591000D02*
X76343333Y-52657666D01*
X76343333Y-52657666D02*
X76310000Y-52691000D01*
X76310000Y-52691000D02*
X76243333Y-52724333D01*
X76243333Y-52724333D02*
X75976666Y-52724333D01*
X76610000Y-52357666D02*
X77076666Y-53057666D01*
X77076666Y-52357666D02*
X76610000Y-53057666D01*
X109666666Y-61047666D02*
X109433333Y-60714333D01*
X109266666Y-61047666D02*
X109266666Y-60347666D01*
X109266666Y-60347666D02*
X109533333Y-60347666D01*
X109533333Y-60347666D02*
X109600000Y-60381000D01*
X109600000Y-60381000D02*
X109633333Y-60414333D01*
X109633333Y-60414333D02*
X109666666Y-60481000D01*
X109666666Y-60481000D02*
X109666666Y-60581000D01*
X109666666Y-60581000D02*
X109633333Y-60647666D01*
X109633333Y-60647666D02*
X109600000Y-60681000D01*
X109600000Y-60681000D02*
X109533333Y-60714333D01*
X109533333Y-60714333D02*
X109266666Y-60714333D01*
X110200000Y-60681000D02*
X110300000Y-60714333D01*
X110300000Y-60714333D02*
X110333333Y-60747666D01*
X110333333Y-60747666D02*
X110366666Y-60814333D01*
X110366666Y-60814333D02*
X110366666Y-60914333D01*
X110366666Y-60914333D02*
X110333333Y-60981000D01*
X110333333Y-60981000D02*
X110300000Y-61014333D01*
X110300000Y-61014333D02*
X110233333Y-61047666D01*
X110233333Y-61047666D02*
X109966666Y-61047666D01*
X109966666Y-61047666D02*
X109966666Y-60347666D01*
X109966666Y-60347666D02*
X110200000Y-60347666D01*
X110200000Y-60347666D02*
X110266666Y-60381000D01*
X110266666Y-60381000D02*
X110300000Y-60414333D01*
X110300000Y-60414333D02*
X110333333Y-60481000D01*
X110333333Y-60481000D02*
X110333333Y-60547666D01*
X110333333Y-60547666D02*
X110300000Y-60614333D01*
X110300000Y-60614333D02*
X110266666Y-60647666D01*
X110266666Y-60647666D02*
X110200000Y-60681000D01*
X110200000Y-60681000D02*
X109966666Y-60681000D01*
X110666666Y-60347666D02*
X110666666Y-60914333D01*
X110666666Y-60914333D02*
X110700000Y-60981000D01*
X110700000Y-60981000D02*
X110733333Y-61014333D01*
X110733333Y-61014333D02*
X110800000Y-61047666D01*
X110800000Y-61047666D02*
X110933333Y-61047666D01*
X110933333Y-61047666D02*
X111000000Y-61014333D01*
X111000000Y-61014333D02*
X111033333Y-60981000D01*
X111033333Y-60981000D02*
X111066666Y-60914333D01*
X111066666Y-60914333D02*
X111066666Y-60347666D01*
X111366666Y-61014333D02*
X111466666Y-61047666D01*
X111466666Y-61047666D02*
X111633333Y-61047666D01*
X111633333Y-61047666D02*
X111699999Y-61014333D01*
X111699999Y-61014333D02*
X111733333Y-60981000D01*
X111733333Y-60981000D02*
X111766666Y-60914333D01*
X111766666Y-60914333D02*
X111766666Y-60847666D01*
X111766666Y-60847666D02*
X111733333Y-60781000D01*
X111733333Y-60781000D02*
X111699999Y-60747666D01*
X111699999Y-60747666D02*
X111633333Y-60714333D01*
X111633333Y-60714333D02*
X111499999Y-60681000D01*
X111499999Y-60681000D02*
X111433333Y-60647666D01*
X111433333Y-60647666D02*
X111399999Y-60614333D01*
X111399999Y-60614333D02*
X111366666Y-60547666D01*
X111366666Y-60547666D02*
X111366666Y-60481000D01*
X111366666Y-60481000D02*
X111399999Y-60414333D01*
X111399999Y-60414333D02*
X111433333Y-60381000D01*
X111433333Y-60381000D02*
X111499999Y-60347666D01*
X111499999Y-60347666D02*
X111666666Y-60347666D01*
X111666666Y-60347666D02*
X111766666Y-60381000D01*
X121910000Y-39593666D02*
X121576666Y-39593666D01*
X121576666Y-39593666D02*
X121576666Y-38893666D01*
X122276667Y-38893666D02*
X122410000Y-38893666D01*
X122410000Y-38893666D02*
X122476667Y-38927000D01*
X122476667Y-38927000D02*
X122543333Y-38993666D01*
X122543333Y-38993666D02*
X122576667Y-39127000D01*
X122576667Y-39127000D02*
X122576667Y-39360333D01*
X122576667Y-39360333D02*
X122543333Y-39493666D01*
X122543333Y-39493666D02*
X122476667Y-39560333D01*
X122476667Y-39560333D02*
X122410000Y-39593666D01*
X122410000Y-39593666D02*
X122276667Y-39593666D01*
X122276667Y-39593666D02*
X122210000Y-39560333D01*
X122210000Y-39560333D02*
X122143333Y-39493666D01*
X122143333Y-39493666D02*
X122110000Y-39360333D01*
X122110000Y-39360333D02*
X122110000Y-39127000D01*
X122110000Y-39127000D02*
X122143333Y-38993666D01*
X122143333Y-38993666D02*
X122210000Y-38927000D01*
X122210000Y-38927000D02*
X122276667Y-38893666D01*
X123243333Y-38927000D02*
X123176666Y-38893666D01*
X123176666Y-38893666D02*
X123076666Y-38893666D01*
X123076666Y-38893666D02*
X122976666Y-38927000D01*
X122976666Y-38927000D02*
X122910000Y-38993666D01*
X122910000Y-38993666D02*
X122876666Y-39060333D01*
X122876666Y-39060333D02*
X122843333Y-39193666D01*
X122843333Y-39193666D02*
X122843333Y-39293666D01*
X122843333Y-39293666D02*
X122876666Y-39427000D01*
X122876666Y-39427000D02*
X122910000Y-39493666D01*
X122910000Y-39493666D02*
X122976666Y-39560333D01*
X122976666Y-39560333D02*
X123076666Y-39593666D01*
X123076666Y-39593666D02*
X123143333Y-39593666D01*
X123143333Y-39593666D02*
X123243333Y-39560333D01*
X123243333Y-39560333D02*
X123276666Y-39527000D01*
X123276666Y-39527000D02*
X123276666Y-39293666D01*
X123276666Y-39293666D02*
X123143333Y-39293666D01*
X123576666Y-39593666D02*
X123576666Y-38893666D01*
X124309999Y-39527000D02*
X124276666Y-39560333D01*
X124276666Y-39560333D02*
X124176666Y-39593666D01*
X124176666Y-39593666D02*
X124109999Y-39593666D01*
X124109999Y-39593666D02*
X124009999Y-39560333D01*
X124009999Y-39560333D02*
X123943333Y-39493666D01*
X123943333Y-39493666D02*
X123909999Y-39427000D01*
X123909999Y-39427000D02*
X123876666Y-39293666D01*
X123876666Y-39293666D02*
X123876666Y-39193666D01*
X123876666Y-39193666D02*
X123909999Y-39060333D01*
X123909999Y-39060333D02*
X123943333Y-38993666D01*
X123943333Y-38993666D02*
X124009999Y-38927000D01*
X124009999Y-38927000D02*
X124109999Y-38893666D01*
X124109999Y-38893666D02*
X124176666Y-38893666D01*
X124176666Y-38893666D02*
X124276666Y-38927000D01*
X124276666Y-38927000D02*
X124309999Y-38960333D01*
X124206000Y-40727666D02*
X123872666Y-40727666D01*
X123872666Y-40727666D02*
X123872666Y-40027666D01*
X124439333Y-40361000D02*
X124672667Y-40361000D01*
X124772667Y-40727666D02*
X124439333Y-40727666D01*
X124439333Y-40727666D02*
X124439333Y-40027666D01*
X124439333Y-40027666D02*
X124772667Y-40027666D01*
X125072666Y-40727666D02*
X125072666Y-40027666D01*
X125072666Y-40027666D02*
X125239333Y-40027666D01*
X125239333Y-40027666D02*
X125339333Y-40061000D01*
X125339333Y-40061000D02*
X125406000Y-40127666D01*
X125406000Y-40127666D02*
X125439333Y-40194333D01*
X125439333Y-40194333D02*
X125472666Y-40327666D01*
X125472666Y-40327666D02*
X125472666Y-40427666D01*
X125472666Y-40427666D02*
X125439333Y-40561000D01*
X125439333Y-40561000D02*
X125406000Y-40627666D01*
X125406000Y-40627666D02*
X125339333Y-40694333D01*
X125339333Y-40694333D02*
X125239333Y-40727666D01*
X125239333Y-40727666D02*
X125072666Y-40727666D01*
X103966666Y-33647666D02*
X103966666Y-32947666D01*
X104266666Y-33614333D02*
X104366666Y-33647666D01*
X104366666Y-33647666D02*
X104533333Y-33647666D01*
X104533333Y-33647666D02*
X104599999Y-33614333D01*
X104599999Y-33614333D02*
X104633333Y-33581000D01*
X104633333Y-33581000D02*
X104666666Y-33514333D01*
X104666666Y-33514333D02*
X104666666Y-33447666D01*
X104666666Y-33447666D02*
X104633333Y-33381000D01*
X104633333Y-33381000D02*
X104599999Y-33347666D01*
X104599999Y-33347666D02*
X104533333Y-33314333D01*
X104533333Y-33314333D02*
X104399999Y-33281000D01*
X104399999Y-33281000D02*
X104333333Y-33247666D01*
X104333333Y-33247666D02*
X104299999Y-33214333D01*
X104299999Y-33214333D02*
X104266666Y-33147666D01*
X104266666Y-33147666D02*
X104266666Y-33081000D01*
X104266666Y-33081000D02*
X104299999Y-33014333D01*
X104299999Y-33014333D02*
X104333333Y-32981000D01*
X104333333Y-32981000D02*
X104399999Y-32947666D01*
X104399999Y-32947666D02*
X104566666Y-32947666D01*
X104566666Y-32947666D02*
X104666666Y-32981000D01*
X105100000Y-32947666D02*
X105233333Y-32947666D01*
X105233333Y-32947666D02*
X105300000Y-32981000D01*
X105300000Y-32981000D02*
X105366666Y-33047666D01*
X105366666Y-33047666D02*
X105400000Y-33181000D01*
X105400000Y-33181000D02*
X105400000Y-33414333D01*
X105400000Y-33414333D02*
X105366666Y-33547666D01*
X105366666Y-33547666D02*
X105300000Y-33614333D01*
X105300000Y-33614333D02*
X105233333Y-33647666D01*
X105233333Y-33647666D02*
X105100000Y-33647666D01*
X105100000Y-33647666D02*
X105033333Y-33614333D01*
X105033333Y-33614333D02*
X104966666Y-33547666D01*
X104966666Y-33547666D02*
X104933333Y-33414333D01*
X104933333Y-33414333D02*
X104933333Y-33181000D01*
X104933333Y-33181000D02*
X104966666Y-33047666D01*
X104966666Y-33047666D02*
X105033333Y-32981000D01*
X105033333Y-32981000D02*
X105100000Y-32947666D01*
X106033333Y-33647666D02*
X105699999Y-33647666D01*
X105699999Y-33647666D02*
X105699999Y-32947666D01*
X121570000Y-36627666D02*
X122003333Y-36627666D01*
X122003333Y-36627666D02*
X121770000Y-36894333D01*
X121770000Y-36894333D02*
X121870000Y-36894333D01*
X121870000Y-36894333D02*
X121936666Y-36927666D01*
X121936666Y-36927666D02*
X121970000Y-36961000D01*
X121970000Y-36961000D02*
X122003333Y-37027666D01*
X122003333Y-37027666D02*
X122003333Y-37194333D01*
X122003333Y-37194333D02*
X121970000Y-37261000D01*
X121970000Y-37261000D02*
X121936666Y-37294333D01*
X121936666Y-37294333D02*
X121870000Y-37327666D01*
X121870000Y-37327666D02*
X121670000Y-37327666D01*
X121670000Y-37327666D02*
X121603333Y-37294333D01*
X121603333Y-37294333D02*
X121570000Y-37261000D01*
X122203333Y-36627666D02*
X122436667Y-37327666D01*
X122436667Y-37327666D02*
X122670000Y-36627666D01*
X122836667Y-36627666D02*
X123270000Y-36627666D01*
X123270000Y-36627666D02*
X123036667Y-36894333D01*
X123036667Y-36894333D02*
X123136667Y-36894333D01*
X123136667Y-36894333D02*
X123203333Y-36927666D01*
X123203333Y-36927666D02*
X123236667Y-36961000D01*
X123236667Y-36961000D02*
X123270000Y-37027666D01*
X123270000Y-37027666D02*
X123270000Y-37194333D01*
X123270000Y-37194333D02*
X123236667Y-37261000D01*
X123236667Y-37261000D02*
X123203333Y-37294333D01*
X123203333Y-37294333D02*
X123136667Y-37327666D01*
X123136667Y-37327666D02*
X122936667Y-37327666D01*
X122936667Y-37327666D02*
X122870000Y-37294333D01*
X122870000Y-37294333D02*
X122836667Y-37261000D01*
X124323334Y-37327666D02*
X123990000Y-37327666D01*
X123990000Y-37327666D02*
X123990000Y-36627666D01*
X124556667Y-36961000D02*
X124790001Y-36961000D01*
X124890001Y-37327666D02*
X124556667Y-37327666D01*
X124556667Y-37327666D02*
X124556667Y-36627666D01*
X124556667Y-36627666D02*
X124890001Y-36627666D01*
X125190000Y-37327666D02*
X125190000Y-36627666D01*
X125190000Y-36627666D02*
X125356667Y-36627666D01*
X125356667Y-36627666D02*
X125456667Y-36661000D01*
X125456667Y-36661000D02*
X125523334Y-36727666D01*
X125523334Y-36727666D02*
X125556667Y-36794333D01*
X125556667Y-36794333D02*
X125590000Y-36927666D01*
X125590000Y-36927666D02*
X125590000Y-37027666D01*
X125590000Y-37027666D02*
X125556667Y-37161000D01*
X125556667Y-37161000D02*
X125523334Y-37227666D01*
X125523334Y-37227666D02*
X125456667Y-37294333D01*
X125456667Y-37294333D02*
X125356667Y-37327666D01*
X125356667Y-37327666D02*
X125190000Y-37327666D01*
X79410000Y-47491000D02*
X79510000Y-47524333D01*
X79510000Y-47524333D02*
X79543333Y-47557666D01*
X79543333Y-47557666D02*
X79576666Y-47624333D01*
X79576666Y-47624333D02*
X79576666Y-47724333D01*
X79576666Y-47724333D02*
X79543333Y-47791000D01*
X79543333Y-47791000D02*
X79510000Y-47824333D01*
X79510000Y-47824333D02*
X79443333Y-47857666D01*
X79443333Y-47857666D02*
X79176666Y-47857666D01*
X79176666Y-47857666D02*
X79176666Y-47157666D01*
X79176666Y-47157666D02*
X79410000Y-47157666D01*
X79410000Y-47157666D02*
X79476666Y-47191000D01*
X79476666Y-47191000D02*
X79510000Y-47224333D01*
X79510000Y-47224333D02*
X79543333Y-47291000D01*
X79543333Y-47291000D02*
X79543333Y-47357666D01*
X79543333Y-47357666D02*
X79510000Y-47424333D01*
X79510000Y-47424333D02*
X79476666Y-47457666D01*
X79476666Y-47457666D02*
X79410000Y-47491000D01*
X79410000Y-47491000D02*
X79176666Y-47491000D01*
X80010000Y-47157666D02*
X80143333Y-47157666D01*
X80143333Y-47157666D02*
X80210000Y-47191000D01*
X80210000Y-47191000D02*
X80276666Y-47257666D01*
X80276666Y-47257666D02*
X80310000Y-47391000D01*
X80310000Y-47391000D02*
X80310000Y-47624333D01*
X80310000Y-47624333D02*
X80276666Y-47757666D01*
X80276666Y-47757666D02*
X80210000Y-47824333D01*
X80210000Y-47824333D02*
X80143333Y-47857666D01*
X80143333Y-47857666D02*
X80010000Y-47857666D01*
X80010000Y-47857666D02*
X79943333Y-47824333D01*
X79943333Y-47824333D02*
X79876666Y-47757666D01*
X79876666Y-47757666D02*
X79843333Y-47624333D01*
X79843333Y-47624333D02*
X79843333Y-47391000D01*
X79843333Y-47391000D02*
X79876666Y-47257666D01*
X79876666Y-47257666D02*
X79943333Y-47191000D01*
X79943333Y-47191000D02*
X80010000Y-47157666D01*
X80743333Y-47157666D02*
X80876666Y-47157666D01*
X80876666Y-47157666D02*
X80943333Y-47191000D01*
X80943333Y-47191000D02*
X81009999Y-47257666D01*
X81009999Y-47257666D02*
X81043333Y-47391000D01*
X81043333Y-47391000D02*
X81043333Y-47624333D01*
X81043333Y-47624333D02*
X81009999Y-47757666D01*
X81009999Y-47757666D02*
X80943333Y-47824333D01*
X80943333Y-47824333D02*
X80876666Y-47857666D01*
X80876666Y-47857666D02*
X80743333Y-47857666D01*
X80743333Y-47857666D02*
X80676666Y-47824333D01*
X80676666Y-47824333D02*
X80609999Y-47757666D01*
X80609999Y-47757666D02*
X80576666Y-47624333D01*
X80576666Y-47624333D02*
X80576666Y-47391000D01*
X80576666Y-47391000D02*
X80609999Y-47257666D01*
X80609999Y-47257666D02*
X80676666Y-47191000D01*
X80676666Y-47191000D02*
X80743333Y-47157666D01*
X81243332Y-47157666D02*
X81643332Y-47157666D01*
X81443332Y-47857666D02*
X81443332Y-47157666D01*
X74226666Y-52347666D02*
X74626666Y-52347666D01*
X74426666Y-53047666D02*
X74426666Y-52347666D01*
X74793333Y-52347666D02*
X75259999Y-53047666D01*
X75259999Y-52347666D02*
X74793333Y-53047666D01*
X84116666Y-35603666D02*
X84350000Y-36303666D01*
X84350000Y-36303666D02*
X84583333Y-35603666D01*
X85050000Y-35937000D02*
X85150000Y-35970333D01*
X85150000Y-35970333D02*
X85183333Y-36003666D01*
X85183333Y-36003666D02*
X85216666Y-36070333D01*
X85216666Y-36070333D02*
X85216666Y-36170333D01*
X85216666Y-36170333D02*
X85183333Y-36237000D01*
X85183333Y-36237000D02*
X85150000Y-36270333D01*
X85150000Y-36270333D02*
X85083333Y-36303666D01*
X85083333Y-36303666D02*
X84816666Y-36303666D01*
X84816666Y-36303666D02*
X84816666Y-35603666D01*
X84816666Y-35603666D02*
X85050000Y-35603666D01*
X85050000Y-35603666D02*
X85116666Y-35637000D01*
X85116666Y-35637000D02*
X85150000Y-35670333D01*
X85150000Y-35670333D02*
X85183333Y-35737000D01*
X85183333Y-35737000D02*
X85183333Y-35803666D01*
X85183333Y-35803666D02*
X85150000Y-35870333D01*
X85150000Y-35870333D02*
X85116666Y-35903666D01*
X85116666Y-35903666D02*
X85050000Y-35937000D01*
X85050000Y-35937000D02*
X84816666Y-35937000D01*
X85516666Y-35603666D02*
X85516666Y-36170333D01*
X85516666Y-36170333D02*
X85550000Y-36237000D01*
X85550000Y-36237000D02*
X85583333Y-36270333D01*
X85583333Y-36270333D02*
X85650000Y-36303666D01*
X85650000Y-36303666D02*
X85783333Y-36303666D01*
X85783333Y-36303666D02*
X85850000Y-36270333D01*
X85850000Y-36270333D02*
X85883333Y-36237000D01*
X85883333Y-36237000D02*
X85916666Y-36170333D01*
X85916666Y-36170333D02*
X85916666Y-35603666D01*
X86216666Y-36270333D02*
X86316666Y-36303666D01*
X86316666Y-36303666D02*
X86483333Y-36303666D01*
X86483333Y-36303666D02*
X86549999Y-36270333D01*
X86549999Y-36270333D02*
X86583333Y-36237000D01*
X86583333Y-36237000D02*
X86616666Y-36170333D01*
X86616666Y-36170333D02*
X86616666Y-36103666D01*
X86616666Y-36103666D02*
X86583333Y-36037000D01*
X86583333Y-36037000D02*
X86549999Y-36003666D01*
X86549999Y-36003666D02*
X86483333Y-35970333D01*
X86483333Y-35970333D02*
X86349999Y-35937000D01*
X86349999Y-35937000D02*
X86283333Y-35903666D01*
X86283333Y-35903666D02*
X86249999Y-35870333D01*
X86249999Y-35870333D02*
X86216666Y-35803666D01*
X86216666Y-35803666D02*
X86216666Y-35737000D01*
X86216666Y-35737000D02*
X86249999Y-35670333D01*
X86249999Y-35670333D02*
X86283333Y-35637000D01*
X86283333Y-35637000D02*
X86349999Y-35603666D01*
X86349999Y-35603666D02*
X86516666Y-35603666D01*
X86516666Y-35603666D02*
X86616666Y-35637000D01*
X84550000Y-37437666D02*
X84216666Y-37437666D01*
X84216666Y-37437666D02*
X84216666Y-36737666D01*
X84783333Y-37071000D02*
X85016667Y-37071000D01*
X85116667Y-37437666D02*
X84783333Y-37437666D01*
X84783333Y-37437666D02*
X84783333Y-36737666D01*
X84783333Y-36737666D02*
X85116667Y-36737666D01*
X85416666Y-37437666D02*
X85416666Y-36737666D01*
X85416666Y-36737666D02*
X85583333Y-36737666D01*
X85583333Y-36737666D02*
X85683333Y-36771000D01*
X85683333Y-36771000D02*
X85750000Y-36837666D01*
X85750000Y-36837666D02*
X85783333Y-36904333D01*
X85783333Y-36904333D02*
X85816666Y-37037666D01*
X85816666Y-37037666D02*
X85816666Y-37137666D01*
X85816666Y-37137666D02*
X85783333Y-37271000D01*
X85783333Y-37271000D02*
X85750000Y-37337666D01*
X85750000Y-37337666D02*
X85683333Y-37404333D01*
X85683333Y-37404333D02*
X85583333Y-37437666D01*
X85583333Y-37437666D02*
X85416666Y-37437666D01*
X76116666Y-47987666D02*
X76516666Y-47987666D01*
X76316666Y-48687666D02*
X76316666Y-47987666D01*
X76683333Y-47987666D02*
X77149999Y-48687666D01*
X77149999Y-47987666D02*
X76683333Y-48687666D01*
X77416666Y-48687666D02*
X77416666Y-47987666D01*
X77416666Y-47987666D02*
X77583333Y-47987666D01*
X77583333Y-47987666D02*
X77683333Y-48021000D01*
X77683333Y-48021000D02*
X77750000Y-48087666D01*
X77750000Y-48087666D02*
X77783333Y-48154333D01*
X77783333Y-48154333D02*
X77816666Y-48287666D01*
X77816666Y-48287666D02*
X77816666Y-48387666D01*
X77816666Y-48387666D02*
X77783333Y-48521000D01*
X77783333Y-48521000D02*
X77750000Y-48587666D01*
X77750000Y-48587666D02*
X77683333Y-48654333D01*
X77683333Y-48654333D02*
X77583333Y-48687666D01*
X77583333Y-48687666D02*
X77416666Y-48687666D01*
X84380000Y-53281000D02*
X84480000Y-53314333D01*
X84480000Y-53314333D02*
X84513333Y-53347666D01*
X84513333Y-53347666D02*
X84546666Y-53414333D01*
X84546666Y-53414333D02*
X84546666Y-53514333D01*
X84546666Y-53514333D02*
X84513333Y-53581000D01*
X84513333Y-53581000D02*
X84480000Y-53614333D01*
X84480000Y-53614333D02*
X84413333Y-53647666D01*
X84413333Y-53647666D02*
X84146666Y-53647666D01*
X84146666Y-53647666D02*
X84146666Y-52947666D01*
X84146666Y-52947666D02*
X84380000Y-52947666D01*
X84380000Y-52947666D02*
X84446666Y-52981000D01*
X84446666Y-52981000D02*
X84480000Y-53014333D01*
X84480000Y-53014333D02*
X84513333Y-53081000D01*
X84513333Y-53081000D02*
X84513333Y-53147666D01*
X84513333Y-53147666D02*
X84480000Y-53214333D01*
X84480000Y-53214333D02*
X84446666Y-53247666D01*
X84446666Y-53247666D02*
X84380000Y-53281000D01*
X84380000Y-53281000D02*
X84146666Y-53281000D01*
X85080000Y-53281000D02*
X85180000Y-53314333D01*
X85180000Y-53314333D02*
X85213333Y-53347666D01*
X85213333Y-53347666D02*
X85246666Y-53414333D01*
X85246666Y-53414333D02*
X85246666Y-53514333D01*
X85246666Y-53514333D02*
X85213333Y-53581000D01*
X85213333Y-53581000D02*
X85180000Y-53614333D01*
X85180000Y-53614333D02*
X85113333Y-53647666D01*
X85113333Y-53647666D02*
X84846666Y-53647666D01*
X84846666Y-53647666D02*
X84846666Y-52947666D01*
X84846666Y-52947666D02*
X85080000Y-52947666D01*
X85080000Y-52947666D02*
X85146666Y-52981000D01*
X85146666Y-52981000D02*
X85180000Y-53014333D01*
X85180000Y-53014333D02*
X85213333Y-53081000D01*
X85213333Y-53081000D02*
X85213333Y-53147666D01*
X85213333Y-53147666D02*
X85180000Y-53214333D01*
X85180000Y-53214333D02*
X85146666Y-53247666D01*
X85146666Y-53247666D02*
X85080000Y-53281000D01*
X85080000Y-53281000D02*
X84846666Y-53281000D01*
X85680000Y-52947666D02*
X85813333Y-52947666D01*
X85813333Y-52947666D02*
X85880000Y-52981000D01*
X85880000Y-52981000D02*
X85946666Y-53047666D01*
X85946666Y-53047666D02*
X85980000Y-53181000D01*
X85980000Y-53181000D02*
X85980000Y-53414333D01*
X85980000Y-53414333D02*
X85946666Y-53547666D01*
X85946666Y-53547666D02*
X85880000Y-53614333D01*
X85880000Y-53614333D02*
X85813333Y-53647666D01*
X85813333Y-53647666D02*
X85680000Y-53647666D01*
X85680000Y-53647666D02*
X85613333Y-53614333D01*
X85613333Y-53614333D02*
X85546666Y-53547666D01*
X85546666Y-53547666D02*
X85513333Y-53414333D01*
X85513333Y-53414333D02*
X85513333Y-53181000D01*
X85513333Y-53181000D02*
X85546666Y-53047666D01*
X85546666Y-53047666D02*
X85613333Y-52981000D01*
X85613333Y-52981000D02*
X85680000Y-52947666D01*
X86279999Y-52947666D02*
X86279999Y-53514333D01*
X86279999Y-53514333D02*
X86313333Y-53581000D01*
X86313333Y-53581000D02*
X86346666Y-53614333D01*
X86346666Y-53614333D02*
X86413333Y-53647666D01*
X86413333Y-53647666D02*
X86546666Y-53647666D01*
X86546666Y-53647666D02*
X86613333Y-53614333D01*
X86613333Y-53614333D02*
X86646666Y-53581000D01*
X86646666Y-53581000D02*
X86679999Y-53514333D01*
X86679999Y-53514333D02*
X86679999Y-52947666D01*
X86913332Y-52947666D02*
X87313332Y-52947666D01*
X87113332Y-53647666D02*
X87113332Y-52947666D01*
X72756666Y-23467666D02*
X72756666Y-24034333D01*
X72756666Y-24034333D02*
X72790000Y-24101000D01*
X72790000Y-24101000D02*
X72823333Y-24134333D01*
X72823333Y-24134333D02*
X72890000Y-24167666D01*
X72890000Y-24167666D02*
X73023333Y-24167666D01*
X73023333Y-24167666D02*
X73090000Y-24134333D01*
X73090000Y-24134333D02*
X73123333Y-24101000D01*
X73123333Y-24101000D02*
X73156666Y-24034333D01*
X73156666Y-24034333D02*
X73156666Y-23467666D01*
X73456666Y-24134333D02*
X73556666Y-24167666D01*
X73556666Y-24167666D02*
X73723333Y-24167666D01*
X73723333Y-24167666D02*
X73789999Y-24134333D01*
X73789999Y-24134333D02*
X73823333Y-24101000D01*
X73823333Y-24101000D02*
X73856666Y-24034333D01*
X73856666Y-24034333D02*
X73856666Y-23967666D01*
X73856666Y-23967666D02*
X73823333Y-23901000D01*
X73823333Y-23901000D02*
X73789999Y-23867666D01*
X73789999Y-23867666D02*
X73723333Y-23834333D01*
X73723333Y-23834333D02*
X73589999Y-23801000D01*
X73589999Y-23801000D02*
X73523333Y-23767666D01*
X73523333Y-23767666D02*
X73489999Y-23734333D01*
X73489999Y-23734333D02*
X73456666Y-23667666D01*
X73456666Y-23667666D02*
X73456666Y-23601000D01*
X73456666Y-23601000D02*
X73489999Y-23534333D01*
X73489999Y-23534333D02*
X73523333Y-23501000D01*
X73523333Y-23501000D02*
X73589999Y-23467666D01*
X73589999Y-23467666D02*
X73756666Y-23467666D01*
X73756666Y-23467666D02*
X73856666Y-23501000D01*
X74390000Y-23801000D02*
X74490000Y-23834333D01*
X74490000Y-23834333D02*
X74523333Y-23867666D01*
X74523333Y-23867666D02*
X74556666Y-23934333D01*
X74556666Y-23934333D02*
X74556666Y-24034333D01*
X74556666Y-24034333D02*
X74523333Y-24101000D01*
X74523333Y-24101000D02*
X74490000Y-24134333D01*
X74490000Y-24134333D02*
X74423333Y-24167666D01*
X74423333Y-24167666D02*
X74156666Y-24167666D01*
X74156666Y-24167666D02*
X74156666Y-23467666D01*
X74156666Y-23467666D02*
X74390000Y-23467666D01*
X74390000Y-23467666D02*
X74456666Y-23501000D01*
X74456666Y-23501000D02*
X74490000Y-23534333D01*
X74490000Y-23534333D02*
X74523333Y-23601000D01*
X74523333Y-23601000D02*
X74523333Y-23667666D01*
X74523333Y-23667666D02*
X74490000Y-23734333D01*
X74490000Y-23734333D02*
X74456666Y-23767666D01*
X74456666Y-23767666D02*
X74390000Y-23801000D01*
X74390000Y-23801000D02*
X74156666Y-23801000D01*
X123206666Y-41873666D02*
X123206666Y-41173666D01*
X123206666Y-41173666D02*
X123373333Y-41173666D01*
X123373333Y-41173666D02*
X123473333Y-41207000D01*
X123473333Y-41207000D02*
X123540000Y-41273666D01*
X123540000Y-41273666D02*
X123573333Y-41340333D01*
X123573333Y-41340333D02*
X123606666Y-41473666D01*
X123606666Y-41473666D02*
X123606666Y-41573666D01*
X123606666Y-41573666D02*
X123573333Y-41707000D01*
X123573333Y-41707000D02*
X123540000Y-41773666D01*
X123540000Y-41773666D02*
X123473333Y-41840333D01*
X123473333Y-41840333D02*
X123373333Y-41873666D01*
X123373333Y-41873666D02*
X123206666Y-41873666D01*
X123906666Y-41507000D02*
X124140000Y-41507000D01*
X124240000Y-41873666D02*
X123906666Y-41873666D01*
X123906666Y-41873666D02*
X123906666Y-41173666D01*
X123906666Y-41173666D02*
X124240000Y-41173666D01*
X124539999Y-41873666D02*
X124539999Y-41173666D01*
X124539999Y-41173666D02*
X124806666Y-41173666D01*
X124806666Y-41173666D02*
X124873333Y-41207000D01*
X124873333Y-41207000D02*
X124906666Y-41240333D01*
X124906666Y-41240333D02*
X124939999Y-41307000D01*
X124939999Y-41307000D02*
X124939999Y-41407000D01*
X124939999Y-41407000D02*
X124906666Y-41473666D01*
X124906666Y-41473666D02*
X124873333Y-41507000D01*
X124873333Y-41507000D02*
X124806666Y-41540333D01*
X124806666Y-41540333D02*
X124539999Y-41540333D01*
X124380000Y-43007666D02*
X124046666Y-43007666D01*
X124046666Y-43007666D02*
X124046666Y-42307666D01*
X124613333Y-42641000D02*
X124846667Y-42641000D01*
X124946667Y-43007666D02*
X124613333Y-43007666D01*
X124613333Y-43007666D02*
X124613333Y-42307666D01*
X124613333Y-42307666D02*
X124946667Y-42307666D01*
X125246666Y-43007666D02*
X125246666Y-42307666D01*
X125246666Y-42307666D02*
X125413333Y-42307666D01*
X125413333Y-42307666D02*
X125513333Y-42341000D01*
X125513333Y-42341000D02*
X125580000Y-42407666D01*
X125580000Y-42407666D02*
X125613333Y-42474333D01*
X125613333Y-42474333D02*
X125646666Y-42607666D01*
X125646666Y-42607666D02*
X125646666Y-42707666D01*
X125646666Y-42707666D02*
X125613333Y-42841000D01*
X125613333Y-42841000D02*
X125580000Y-42907666D01*
X125580000Y-42907666D02*
X125513333Y-42974333D01*
X125513333Y-42974333D02*
X125413333Y-43007666D01*
X125413333Y-43007666D02*
X125246666Y-43007666D01*
X91620000Y-59321000D02*
X91720000Y-59354333D01*
X91720000Y-59354333D02*
X91753333Y-59387666D01*
X91753333Y-59387666D02*
X91786666Y-59454333D01*
X91786666Y-59454333D02*
X91786666Y-59554333D01*
X91786666Y-59554333D02*
X91753333Y-59621000D01*
X91753333Y-59621000D02*
X91720000Y-59654333D01*
X91720000Y-59654333D02*
X91653333Y-59687666D01*
X91653333Y-59687666D02*
X91386666Y-59687666D01*
X91386666Y-59687666D02*
X91386666Y-58987666D01*
X91386666Y-58987666D02*
X91620000Y-58987666D01*
X91620000Y-58987666D02*
X91686666Y-59021000D01*
X91686666Y-59021000D02*
X91720000Y-59054333D01*
X91720000Y-59054333D02*
X91753333Y-59121000D01*
X91753333Y-59121000D02*
X91753333Y-59187666D01*
X91753333Y-59187666D02*
X91720000Y-59254333D01*
X91720000Y-59254333D02*
X91686666Y-59287666D01*
X91686666Y-59287666D02*
X91620000Y-59321000D01*
X91620000Y-59321000D02*
X91386666Y-59321000D01*
X92320000Y-59321000D02*
X92420000Y-59354333D01*
X92420000Y-59354333D02*
X92453333Y-59387666D01*
X92453333Y-59387666D02*
X92486666Y-59454333D01*
X92486666Y-59454333D02*
X92486666Y-59554333D01*
X92486666Y-59554333D02*
X92453333Y-59621000D01*
X92453333Y-59621000D02*
X92420000Y-59654333D01*
X92420000Y-59654333D02*
X92353333Y-59687666D01*
X92353333Y-59687666D02*
X92086666Y-59687666D01*
X92086666Y-59687666D02*
X92086666Y-58987666D01*
X92086666Y-58987666D02*
X92320000Y-58987666D01*
X92320000Y-58987666D02*
X92386666Y-59021000D01*
X92386666Y-59021000D02*
X92420000Y-59054333D01*
X92420000Y-59054333D02*
X92453333Y-59121000D01*
X92453333Y-59121000D02*
X92453333Y-59187666D01*
X92453333Y-59187666D02*
X92420000Y-59254333D01*
X92420000Y-59254333D02*
X92386666Y-59287666D01*
X92386666Y-59287666D02*
X92320000Y-59321000D01*
X92320000Y-59321000D02*
X92086666Y-59321000D01*
X92786666Y-59687666D02*
X92786666Y-58987666D01*
X93119999Y-59687666D02*
X93119999Y-58987666D01*
X93119999Y-58987666D02*
X93519999Y-59687666D01*
X93519999Y-59687666D02*
X93519999Y-58987666D01*
X75136666Y-54051000D02*
X75103333Y-54084333D01*
X75103333Y-54084333D02*
X75003333Y-54117666D01*
X75003333Y-54117666D02*
X74936666Y-54117666D01*
X74936666Y-54117666D02*
X74836666Y-54084333D01*
X74836666Y-54084333D02*
X74770000Y-54017666D01*
X74770000Y-54017666D02*
X74736666Y-53951000D01*
X74736666Y-53951000D02*
X74703333Y-53817666D01*
X74703333Y-53817666D02*
X74703333Y-53717666D01*
X74703333Y-53717666D02*
X74736666Y-53584333D01*
X74736666Y-53584333D02*
X74770000Y-53517666D01*
X74770000Y-53517666D02*
X74836666Y-53451000D01*
X74836666Y-53451000D02*
X74936666Y-53417666D01*
X74936666Y-53417666D02*
X75003333Y-53417666D01*
X75003333Y-53417666D02*
X75103333Y-53451000D01*
X75103333Y-53451000D02*
X75136666Y-53484333D01*
X75403333Y-53917666D02*
X75736666Y-53917666D01*
X75336666Y-54117666D02*
X75570000Y-53417666D01*
X75570000Y-53417666D02*
X75803333Y-54117666D01*
X76036666Y-54117666D02*
X76036666Y-53417666D01*
X76036666Y-53417666D02*
X76436666Y-54117666D01*
X76436666Y-54117666D02*
X76436666Y-53417666D01*
X73417666Y-51026666D02*
X73417666Y-50693333D01*
X73617666Y-51093333D02*
X72917666Y-50860000D01*
X72917666Y-50860000D02*
X73617666Y-50626666D01*
X73617666Y-49993333D02*
X73284333Y-50226666D01*
X73617666Y-50393333D02*
X72917666Y-50393333D01*
X72917666Y-50393333D02*
X72917666Y-50126666D01*
X72917666Y-50126666D02*
X72951000Y-50060000D01*
X72951000Y-50060000D02*
X72984333Y-50026666D01*
X72984333Y-50026666D02*
X73051000Y-49993333D01*
X73051000Y-49993333D02*
X73151000Y-49993333D01*
X73151000Y-49993333D02*
X73217666Y-50026666D01*
X73217666Y-50026666D02*
X73251000Y-50060000D01*
X73251000Y-50060000D02*
X73284333Y-50126666D01*
X73284333Y-50126666D02*
X73284333Y-50393333D01*
X73617666Y-49693333D02*
X72917666Y-49693333D01*
X72917666Y-49693333D02*
X73417666Y-49460000D01*
X73417666Y-49460000D02*
X72917666Y-49226666D01*
X72917666Y-49226666D02*
X73617666Y-49226666D01*
X73617666Y-48893333D02*
X72917666Y-48893333D01*
X73617666Y-48560000D02*
X72917666Y-48560000D01*
X72917666Y-48560000D02*
X73617666Y-48160000D01*
X73617666Y-48160000D02*
X72917666Y-48160000D01*
X72951000Y-47460000D02*
X72917666Y-47526667D01*
X72917666Y-47526667D02*
X72917666Y-47626667D01*
X72917666Y-47626667D02*
X72951000Y-47726667D01*
X72951000Y-47726667D02*
X73017666Y-47793334D01*
X73017666Y-47793334D02*
X73084333Y-47826667D01*
X73084333Y-47826667D02*
X73217666Y-47860000D01*
X73217666Y-47860000D02*
X73317666Y-47860000D01*
X73317666Y-47860000D02*
X73451000Y-47826667D01*
X73451000Y-47826667D02*
X73517666Y-47793334D01*
X73517666Y-47793334D02*
X73584333Y-47726667D01*
X73584333Y-47726667D02*
X73617666Y-47626667D01*
X73617666Y-47626667D02*
X73617666Y-47560000D01*
X73617666Y-47560000D02*
X73584333Y-47460000D01*
X73584333Y-47460000D02*
X73551000Y-47426667D01*
X73551000Y-47426667D02*
X73317666Y-47426667D01*
X73317666Y-47426667D02*
X73317666Y-47560000D01*
X73820000Y-66361000D02*
X73586666Y-66361000D01*
X73586666Y-66727666D02*
X73586666Y-66027666D01*
X73586666Y-66027666D02*
X73920000Y-66027666D01*
X74153333Y-66527666D02*
X74486666Y-66527666D01*
X74086666Y-66727666D02*
X74320000Y-66027666D01*
X74320000Y-66027666D02*
X74553333Y-66727666D01*
X74786666Y-66727666D02*
X74786666Y-66027666D01*
X74786666Y-66027666D02*
X75186666Y-66727666D01*
X75186666Y-66727666D02*
X75186666Y-66027666D01*
X76496666Y-47567666D02*
X76263333Y-47234333D01*
X76096666Y-47567666D02*
X76096666Y-46867666D01*
X76096666Y-46867666D02*
X76363333Y-46867666D01*
X76363333Y-46867666D02*
X76430000Y-46901000D01*
X76430000Y-46901000D02*
X76463333Y-46934333D01*
X76463333Y-46934333D02*
X76496666Y-47001000D01*
X76496666Y-47001000D02*
X76496666Y-47101000D01*
X76496666Y-47101000D02*
X76463333Y-47167666D01*
X76463333Y-47167666D02*
X76430000Y-47201000D01*
X76430000Y-47201000D02*
X76363333Y-47234333D01*
X76363333Y-47234333D02*
X76096666Y-47234333D01*
X76730000Y-46867666D02*
X77196666Y-47567666D01*
X77196666Y-46867666D02*
X76730000Y-47567666D01*
X77463333Y-47567666D02*
X77463333Y-46867666D01*
X77463333Y-46867666D02*
X77630000Y-46867666D01*
X77630000Y-46867666D02*
X77730000Y-46901000D01*
X77730000Y-46901000D02*
X77796667Y-46967666D01*
X77796667Y-46967666D02*
X77830000Y-47034333D01*
X77830000Y-47034333D02*
X77863333Y-47167666D01*
X77863333Y-47167666D02*
X77863333Y-47267666D01*
X77863333Y-47267666D02*
X77830000Y-47401000D01*
X77830000Y-47401000D02*
X77796667Y-47467666D01*
X77796667Y-47467666D02*
X77730000Y-47534333D01*
X77730000Y-47534333D02*
X77630000Y-47567666D01*
X77630000Y-47567666D02*
X77463333Y-47567666D01*
X72913666Y-58090000D02*
X72913666Y-58423333D01*
X72913666Y-58423333D02*
X72213666Y-58423333D01*
X72213666Y-57723333D02*
X72213666Y-57589999D01*
X72213666Y-57589999D02*
X72247000Y-57523333D01*
X72247000Y-57523333D02*
X72313666Y-57456666D01*
X72313666Y-57456666D02*
X72447000Y-57423333D01*
X72447000Y-57423333D02*
X72680333Y-57423333D01*
X72680333Y-57423333D02*
X72813666Y-57456666D01*
X72813666Y-57456666D02*
X72880333Y-57523333D01*
X72880333Y-57523333D02*
X72913666Y-57589999D01*
X72913666Y-57589999D02*
X72913666Y-57723333D01*
X72913666Y-57723333D02*
X72880333Y-57789999D01*
X72880333Y-57789999D02*
X72813666Y-57856666D01*
X72813666Y-57856666D02*
X72680333Y-57889999D01*
X72680333Y-57889999D02*
X72447000Y-57889999D01*
X72447000Y-57889999D02*
X72313666Y-57856666D01*
X72313666Y-57856666D02*
X72247000Y-57789999D01*
X72247000Y-57789999D02*
X72213666Y-57723333D01*
X72247000Y-56756666D02*
X72213666Y-56823333D01*
X72213666Y-56823333D02*
X72213666Y-56923333D01*
X72213666Y-56923333D02*
X72247000Y-57023333D01*
X72247000Y-57023333D02*
X72313666Y-57090000D01*
X72313666Y-57090000D02*
X72380333Y-57123333D01*
X72380333Y-57123333D02*
X72513666Y-57156666D01*
X72513666Y-57156666D02*
X72613666Y-57156666D01*
X72613666Y-57156666D02*
X72747000Y-57123333D01*
X72747000Y-57123333D02*
X72813666Y-57090000D01*
X72813666Y-57090000D02*
X72880333Y-57023333D01*
X72880333Y-57023333D02*
X72913666Y-56923333D01*
X72913666Y-56923333D02*
X72913666Y-56856666D01*
X72913666Y-56856666D02*
X72880333Y-56756666D01*
X72880333Y-56756666D02*
X72847000Y-56723333D01*
X72847000Y-56723333D02*
X72613666Y-56723333D01*
X72613666Y-56723333D02*
X72613666Y-56856666D01*
X72913666Y-56423333D02*
X72213666Y-56423333D01*
X72847000Y-55690000D02*
X72880333Y-55723333D01*
X72880333Y-55723333D02*
X72913666Y-55823333D01*
X72913666Y-55823333D02*
X72913666Y-55890000D01*
X72913666Y-55890000D02*
X72880333Y-55990000D01*
X72880333Y-55990000D02*
X72813666Y-56056667D01*
X72813666Y-56056667D02*
X72747000Y-56090000D01*
X72747000Y-56090000D02*
X72613666Y-56123333D01*
X72613666Y-56123333D02*
X72513666Y-56123333D01*
X72513666Y-56123333D02*
X72380333Y-56090000D01*
X72380333Y-56090000D02*
X72313666Y-56056667D01*
X72313666Y-56056667D02*
X72247000Y-55990000D01*
X72247000Y-55990000D02*
X72213666Y-55890000D01*
X72213666Y-55890000D02*
X72213666Y-55823333D01*
X72213666Y-55823333D02*
X72247000Y-55723333D01*
X72247000Y-55723333D02*
X72280333Y-55690000D01*
X74014333Y-58456666D02*
X74047666Y-58356666D01*
X74047666Y-58356666D02*
X74047666Y-58190000D01*
X74047666Y-58190000D02*
X74014333Y-58123333D01*
X74014333Y-58123333D02*
X73981000Y-58090000D01*
X73981000Y-58090000D02*
X73914333Y-58056666D01*
X73914333Y-58056666D02*
X73847666Y-58056666D01*
X73847666Y-58056666D02*
X73781000Y-58090000D01*
X73781000Y-58090000D02*
X73747666Y-58123333D01*
X73747666Y-58123333D02*
X73714333Y-58190000D01*
X73714333Y-58190000D02*
X73681000Y-58323333D01*
X73681000Y-58323333D02*
X73647666Y-58390000D01*
X73647666Y-58390000D02*
X73614333Y-58423333D01*
X73614333Y-58423333D02*
X73547666Y-58456666D01*
X73547666Y-58456666D02*
X73481000Y-58456666D01*
X73481000Y-58456666D02*
X73414333Y-58423333D01*
X73414333Y-58423333D02*
X73381000Y-58390000D01*
X73381000Y-58390000D02*
X73347666Y-58323333D01*
X73347666Y-58323333D02*
X73347666Y-58156666D01*
X73347666Y-58156666D02*
X73381000Y-58056666D01*
X73347666Y-57823333D02*
X74047666Y-57656666D01*
X74047666Y-57656666D02*
X73547666Y-57523333D01*
X73547666Y-57523333D02*
X74047666Y-57389999D01*
X74047666Y-57389999D02*
X73347666Y-57223333D01*
X74047666Y-56956666D02*
X73347666Y-56956666D01*
X73347666Y-56723333D02*
X73347666Y-56323333D01*
X74047666Y-56523333D02*
X73347666Y-56523333D01*
X73981000Y-55690000D02*
X74014333Y-55723333D01*
X74014333Y-55723333D02*
X74047666Y-55823333D01*
X74047666Y-55823333D02*
X74047666Y-55890000D01*
X74047666Y-55890000D02*
X74014333Y-55990000D01*
X74014333Y-55990000D02*
X73947666Y-56056667D01*
X73947666Y-56056667D02*
X73881000Y-56090000D01*
X73881000Y-56090000D02*
X73747666Y-56123333D01*
X73747666Y-56123333D02*
X73647666Y-56123333D01*
X73647666Y-56123333D02*
X73514333Y-56090000D01*
X73514333Y-56090000D02*
X73447666Y-56056667D01*
X73447666Y-56056667D02*
X73381000Y-55990000D01*
X73381000Y-55990000D02*
X73347666Y-55890000D01*
X73347666Y-55890000D02*
X73347666Y-55823333D01*
X73347666Y-55823333D02*
X73381000Y-55723333D01*
X73381000Y-55723333D02*
X73414333Y-55690000D01*
X74047666Y-55390000D02*
X73347666Y-55390000D01*
X73681000Y-55390000D02*
X73681000Y-54990000D01*
X74047666Y-54990000D02*
X73347666Y-54990000D01*
X72933666Y-63803333D02*
X72233666Y-63803333D01*
X72233666Y-63803333D02*
X72233666Y-63636666D01*
X72233666Y-63636666D02*
X72267000Y-63536666D01*
X72267000Y-63536666D02*
X72333666Y-63470000D01*
X72333666Y-63470000D02*
X72400333Y-63436666D01*
X72400333Y-63436666D02*
X72533666Y-63403333D01*
X72533666Y-63403333D02*
X72633666Y-63403333D01*
X72633666Y-63403333D02*
X72767000Y-63436666D01*
X72767000Y-63436666D02*
X72833666Y-63470000D01*
X72833666Y-63470000D02*
X72900333Y-63536666D01*
X72900333Y-63536666D02*
X72933666Y-63636666D01*
X72933666Y-63636666D02*
X72933666Y-63803333D01*
X72567000Y-63103333D02*
X72567000Y-62870000D01*
X72933666Y-62770000D02*
X72933666Y-63103333D01*
X72933666Y-63103333D02*
X72233666Y-63103333D01*
X72233666Y-63103333D02*
X72233666Y-62770000D01*
X72933666Y-62470000D02*
X72233666Y-62470000D01*
X72233666Y-62470000D02*
X72233666Y-62203333D01*
X72233666Y-62203333D02*
X72267000Y-62136667D01*
X72267000Y-62136667D02*
X72300333Y-62103333D01*
X72300333Y-62103333D02*
X72367000Y-62070000D01*
X72367000Y-62070000D02*
X72467000Y-62070000D01*
X72467000Y-62070000D02*
X72533666Y-62103333D01*
X72533666Y-62103333D02*
X72567000Y-62136667D01*
X72567000Y-62136667D02*
X72600333Y-62203333D01*
X72600333Y-62203333D02*
X72600333Y-62470000D01*
X74034333Y-63836666D02*
X74067666Y-63736666D01*
X74067666Y-63736666D02*
X74067666Y-63570000D01*
X74067666Y-63570000D02*
X74034333Y-63503333D01*
X74034333Y-63503333D02*
X74001000Y-63470000D01*
X74001000Y-63470000D02*
X73934333Y-63436666D01*
X73934333Y-63436666D02*
X73867666Y-63436666D01*
X73867666Y-63436666D02*
X73801000Y-63470000D01*
X73801000Y-63470000D02*
X73767666Y-63503333D01*
X73767666Y-63503333D02*
X73734333Y-63570000D01*
X73734333Y-63570000D02*
X73701000Y-63703333D01*
X73701000Y-63703333D02*
X73667666Y-63770000D01*
X73667666Y-63770000D02*
X73634333Y-63803333D01*
X73634333Y-63803333D02*
X73567666Y-63836666D01*
X73567666Y-63836666D02*
X73501000Y-63836666D01*
X73501000Y-63836666D02*
X73434333Y-63803333D01*
X73434333Y-63803333D02*
X73401000Y-63770000D01*
X73401000Y-63770000D02*
X73367666Y-63703333D01*
X73367666Y-63703333D02*
X73367666Y-63536666D01*
X73367666Y-63536666D02*
X73401000Y-63436666D01*
X73367666Y-63203333D02*
X74067666Y-63036666D01*
X74067666Y-63036666D02*
X73567666Y-62903333D01*
X73567666Y-62903333D02*
X74067666Y-62769999D01*
X74067666Y-62769999D02*
X73367666Y-62603333D01*
X74067666Y-62336666D02*
X73367666Y-62336666D01*
X73367666Y-62103333D02*
X73367666Y-61703333D01*
X74067666Y-61903333D02*
X73367666Y-61903333D01*
X74001000Y-61070000D02*
X74034333Y-61103333D01*
X74034333Y-61103333D02*
X74067666Y-61203333D01*
X74067666Y-61203333D02*
X74067666Y-61270000D01*
X74067666Y-61270000D02*
X74034333Y-61370000D01*
X74034333Y-61370000D02*
X73967666Y-61436667D01*
X73967666Y-61436667D02*
X73901000Y-61470000D01*
X73901000Y-61470000D02*
X73767666Y-61503333D01*
X73767666Y-61503333D02*
X73667666Y-61503333D01*
X73667666Y-61503333D02*
X73534333Y-61470000D01*
X73534333Y-61470000D02*
X73467666Y-61436667D01*
X73467666Y-61436667D02*
X73401000Y-61370000D01*
X73401000Y-61370000D02*
X73367666Y-61270000D01*
X73367666Y-61270000D02*
X73367666Y-61203333D01*
X73367666Y-61203333D02*
X73401000Y-61103333D01*
X73401000Y-61103333D02*
X73434333Y-61070000D01*
X74067666Y-60770000D02*
X73367666Y-60770000D01*
X73701000Y-60770000D02*
X73701000Y-60370000D01*
X74067666Y-60370000D02*
X73367666Y-60370000D01*
X83906666Y-41401000D02*
X84140000Y-41401000D01*
X84240000Y-41767666D02*
X83906666Y-41767666D01*
X83906666Y-41767666D02*
X83906666Y-41067666D01*
X83906666Y-41067666D02*
X84240000Y-41067666D01*
X84539999Y-41767666D02*
X84539999Y-41067666D01*
X84539999Y-41067666D02*
X84939999Y-41767666D01*
X84939999Y-41767666D02*
X84939999Y-41067666D01*
X121870000Y-34721000D02*
X121970000Y-34754333D01*
X121970000Y-34754333D02*
X122003333Y-34787666D01*
X122003333Y-34787666D02*
X122036666Y-34854333D01*
X122036666Y-34854333D02*
X122036666Y-34954333D01*
X122036666Y-34954333D02*
X122003333Y-35021000D01*
X122003333Y-35021000D02*
X121970000Y-35054333D01*
X121970000Y-35054333D02*
X121903333Y-35087666D01*
X121903333Y-35087666D02*
X121636666Y-35087666D01*
X121636666Y-35087666D02*
X121636666Y-34387666D01*
X121636666Y-34387666D02*
X121870000Y-34387666D01*
X121870000Y-34387666D02*
X121936666Y-34421000D01*
X121936666Y-34421000D02*
X121970000Y-34454333D01*
X121970000Y-34454333D02*
X122003333Y-34521000D01*
X122003333Y-34521000D02*
X122003333Y-34587666D01*
X122003333Y-34587666D02*
X121970000Y-34654333D01*
X121970000Y-34654333D02*
X121936666Y-34687666D01*
X121936666Y-34687666D02*
X121870000Y-34721000D01*
X121870000Y-34721000D02*
X121636666Y-34721000D01*
X122303333Y-34887666D02*
X122636666Y-34887666D01*
X122236666Y-35087666D02*
X122470000Y-34387666D01*
X122470000Y-34387666D02*
X122703333Y-35087666D01*
X122836666Y-34387666D02*
X123236666Y-34387666D01*
X123036666Y-35087666D02*
X123036666Y-34387666D01*
X123369999Y-34387666D02*
X123769999Y-34387666D01*
X123569999Y-35087666D02*
X123569999Y-34387666D01*
X124756666Y-35087666D02*
X124423332Y-35087666D01*
X124423332Y-35087666D02*
X124423332Y-34387666D01*
X124989999Y-34721000D02*
X125223333Y-34721000D01*
X125323333Y-35087666D02*
X124989999Y-35087666D01*
X124989999Y-35087666D02*
X124989999Y-34387666D01*
X124989999Y-34387666D02*
X125323333Y-34387666D01*
X125623332Y-35087666D02*
X125623332Y-34387666D01*
X125623332Y-34387666D02*
X125789999Y-34387666D01*
X125789999Y-34387666D02*
X125889999Y-34421000D01*
X125889999Y-34421000D02*
X125956666Y-34487666D01*
X125956666Y-34487666D02*
X125989999Y-34554333D01*
X125989999Y-34554333D02*
X126023332Y-34687666D01*
X126023332Y-34687666D02*
X126023332Y-34787666D01*
X126023332Y-34787666D02*
X125989999Y-34921000D01*
X125989999Y-34921000D02*
X125956666Y-34987666D01*
X125956666Y-34987666D02*
X125889999Y-35054333D01*
X125889999Y-35054333D02*
X125789999Y-35087666D01*
X125789999Y-35087666D02*
X125623332Y-35087666D01*
X70373666Y-45260000D02*
X70373666Y-45126666D01*
X70373666Y-45126666D02*
X70407000Y-45060000D01*
X70407000Y-45060000D02*
X70473666Y-44993333D01*
X70473666Y-44993333D02*
X70607000Y-44960000D01*
X70607000Y-44960000D02*
X70840333Y-44960000D01*
X70840333Y-44960000D02*
X70973666Y-44993333D01*
X70973666Y-44993333D02*
X71040333Y-45060000D01*
X71040333Y-45060000D02*
X71073666Y-45126666D01*
X71073666Y-45126666D02*
X71073666Y-45260000D01*
X71073666Y-45260000D02*
X71040333Y-45326666D01*
X71040333Y-45326666D02*
X70973666Y-45393333D01*
X70973666Y-45393333D02*
X70840333Y-45426666D01*
X70840333Y-45426666D02*
X70607000Y-45426666D01*
X70607000Y-45426666D02*
X70473666Y-45393333D01*
X70473666Y-45393333D02*
X70407000Y-45326666D01*
X70407000Y-45326666D02*
X70373666Y-45260000D01*
X71073666Y-44326667D02*
X71073666Y-44660000D01*
X71073666Y-44660000D02*
X70373666Y-44660000D01*
X70707000Y-44093333D02*
X70707000Y-43860000D01*
X71073666Y-43760000D02*
X71073666Y-44093333D01*
X71073666Y-44093333D02*
X70373666Y-44093333D01*
X70373666Y-44093333D02*
X70373666Y-43760000D01*
X71073666Y-43460000D02*
X70373666Y-43460000D01*
X70373666Y-43460000D02*
X70373666Y-43293333D01*
X70373666Y-43293333D02*
X70407000Y-43193333D01*
X70407000Y-43193333D02*
X70473666Y-43126667D01*
X70473666Y-43126667D02*
X70540333Y-43093333D01*
X70540333Y-43093333D02*
X70673666Y-43060000D01*
X70673666Y-43060000D02*
X70773666Y-43060000D01*
X70773666Y-43060000D02*
X70907000Y-43093333D01*
X70907000Y-43093333D02*
X70973666Y-43126667D01*
X70973666Y-43126667D02*
X71040333Y-43193333D01*
X71040333Y-43193333D02*
X71073666Y-43293333D01*
X71073666Y-43293333D02*
X71073666Y-43460000D01*
X72174333Y-45426666D02*
X72207666Y-45326666D01*
X72207666Y-45326666D02*
X72207666Y-45160000D01*
X72207666Y-45160000D02*
X72174333Y-45093333D01*
X72174333Y-45093333D02*
X72141000Y-45060000D01*
X72141000Y-45060000D02*
X72074333Y-45026666D01*
X72074333Y-45026666D02*
X72007666Y-45026666D01*
X72007666Y-45026666D02*
X71941000Y-45060000D01*
X71941000Y-45060000D02*
X71907666Y-45093333D01*
X71907666Y-45093333D02*
X71874333Y-45160000D01*
X71874333Y-45160000D02*
X71841000Y-45293333D01*
X71841000Y-45293333D02*
X71807666Y-45360000D01*
X71807666Y-45360000D02*
X71774333Y-45393333D01*
X71774333Y-45393333D02*
X71707666Y-45426666D01*
X71707666Y-45426666D02*
X71641000Y-45426666D01*
X71641000Y-45426666D02*
X71574333Y-45393333D01*
X71574333Y-45393333D02*
X71541000Y-45360000D01*
X71541000Y-45360000D02*
X71507666Y-45293333D01*
X71507666Y-45293333D02*
X71507666Y-45126666D01*
X71507666Y-45126666D02*
X71541000Y-45026666D01*
X72141000Y-44326666D02*
X72174333Y-44359999D01*
X72174333Y-44359999D02*
X72207666Y-44459999D01*
X72207666Y-44459999D02*
X72207666Y-44526666D01*
X72207666Y-44526666D02*
X72174333Y-44626666D01*
X72174333Y-44626666D02*
X72107666Y-44693333D01*
X72107666Y-44693333D02*
X72041000Y-44726666D01*
X72041000Y-44726666D02*
X71907666Y-44759999D01*
X71907666Y-44759999D02*
X71807666Y-44759999D01*
X71807666Y-44759999D02*
X71674333Y-44726666D01*
X71674333Y-44726666D02*
X71607666Y-44693333D01*
X71607666Y-44693333D02*
X71541000Y-44626666D01*
X71541000Y-44626666D02*
X71507666Y-44526666D01*
X71507666Y-44526666D02*
X71507666Y-44459999D01*
X71507666Y-44459999D02*
X71541000Y-44359999D01*
X71541000Y-44359999D02*
X71574333Y-44326666D01*
X72207666Y-43626666D02*
X71874333Y-43859999D01*
X72207666Y-44026666D02*
X71507666Y-44026666D01*
X71507666Y-44026666D02*
X71507666Y-43759999D01*
X71507666Y-43759999D02*
X71541000Y-43693333D01*
X71541000Y-43693333D02*
X71574333Y-43659999D01*
X71574333Y-43659999D02*
X71641000Y-43626666D01*
X71641000Y-43626666D02*
X71741000Y-43626666D01*
X71741000Y-43626666D02*
X71807666Y-43659999D01*
X71807666Y-43659999D02*
X71841000Y-43693333D01*
X71841000Y-43693333D02*
X71874333Y-43759999D01*
X71874333Y-43759999D02*
X71874333Y-44026666D01*
X71841000Y-43326666D02*
X71841000Y-43093333D01*
X72207666Y-42993333D02*
X72207666Y-43326666D01*
X72207666Y-43326666D02*
X71507666Y-43326666D01*
X71507666Y-43326666D02*
X71507666Y-42993333D01*
X71841000Y-42693333D02*
X71841000Y-42460000D01*
X72207666Y-42360000D02*
X72207666Y-42693333D01*
X72207666Y-42693333D02*
X71507666Y-42693333D01*
X71507666Y-42693333D02*
X71507666Y-42360000D01*
X72207666Y-42060000D02*
X71507666Y-42060000D01*
X71507666Y-42060000D02*
X72207666Y-41660000D01*
X72207666Y-41660000D02*
X71507666Y-41660000D01*
X79356666Y-32567666D02*
X79356666Y-31867666D01*
X79356666Y-31867666D02*
X79523333Y-31867666D01*
X79523333Y-31867666D02*
X79623333Y-31901000D01*
X79623333Y-31901000D02*
X79690000Y-31967666D01*
X79690000Y-31967666D02*
X79723333Y-32034333D01*
X79723333Y-32034333D02*
X79756666Y-32167666D01*
X79756666Y-32167666D02*
X79756666Y-32267666D01*
X79756666Y-32267666D02*
X79723333Y-32401000D01*
X79723333Y-32401000D02*
X79690000Y-32467666D01*
X79690000Y-32467666D02*
X79623333Y-32534333D01*
X79623333Y-32534333D02*
X79523333Y-32567666D01*
X79523333Y-32567666D02*
X79356666Y-32567666D01*
X80056666Y-32301000D02*
X80590000Y-32301000D01*
X88100000Y-33281000D02*
X88200000Y-33314333D01*
X88200000Y-33314333D02*
X88233333Y-33347666D01*
X88233333Y-33347666D02*
X88266666Y-33414333D01*
X88266666Y-33414333D02*
X88266666Y-33514333D01*
X88266666Y-33514333D02*
X88233333Y-33581000D01*
X88233333Y-33581000D02*
X88200000Y-33614333D01*
X88200000Y-33614333D02*
X88133333Y-33647666D01*
X88133333Y-33647666D02*
X87866666Y-33647666D01*
X87866666Y-33647666D02*
X87866666Y-32947666D01*
X87866666Y-32947666D02*
X88100000Y-32947666D01*
X88100000Y-32947666D02*
X88166666Y-32981000D01*
X88166666Y-32981000D02*
X88200000Y-33014333D01*
X88200000Y-33014333D02*
X88233333Y-33081000D01*
X88233333Y-33081000D02*
X88233333Y-33147666D01*
X88233333Y-33147666D02*
X88200000Y-33214333D01*
X88200000Y-33214333D02*
X88166666Y-33247666D01*
X88166666Y-33247666D02*
X88100000Y-33281000D01*
X88100000Y-33281000D02*
X87866666Y-33281000D01*
X88533333Y-33447666D02*
X88866666Y-33447666D01*
X88466666Y-33647666D02*
X88700000Y-32947666D01*
X88700000Y-32947666D02*
X88933333Y-33647666D01*
X89066666Y-32947666D02*
X89466666Y-32947666D01*
X89266666Y-33647666D02*
X89266666Y-32947666D01*
X89599999Y-32947666D02*
X89999999Y-32947666D01*
X89799999Y-33647666D02*
X89799999Y-32947666D01*
D11*
%TO.C,R23*%
X74972980Y-63483641D02*
X74972980Y-63176359D01*
X75732980Y-63483641D02*
X75732980Y-63176359D01*
%TO.C,C18*%
X78731144Y-57028000D02*
X78946816Y-57028000D01*
X78731144Y-57748000D02*
X78946816Y-57748000D01*
%TO.C,C17*%
X93734580Y-48310000D02*
X93453420Y-48310000D01*
X93734580Y-47290000D02*
X93453420Y-47290000D01*
%TO.C,C34*%
X99484000Y-45439420D02*
X99484000Y-45720580D01*
X98464000Y-45439420D02*
X98464000Y-45720580D01*
D12*
%TO.C,IC2*%
X100745000Y-41906000D02*
X100745000Y-41906000D01*
X100845000Y-41906000D02*
X100845000Y-41906000D01*
X101245000Y-40800000D02*
X101245000Y-41600000D01*
X101245000Y-44000000D02*
X101245000Y-44806000D01*
X101245000Y-44806000D02*
X101445000Y-44806000D01*
X101445000Y-40800000D02*
X101245000Y-40800000D01*
X105045000Y-40794000D02*
X105245000Y-40794000D01*
X105245000Y-40794000D02*
X105245000Y-41200000D01*
X105245000Y-44600000D02*
X105245000Y-44806000D01*
X105245000Y-44806000D02*
X104645000Y-44806000D01*
X100845000Y-41906000D02*
G75*
G03*
X100745000Y-41906000I-50000J0D01*
G01*
X100745000Y-41906000D02*
G75*
G03*
X100845000Y-41906000I50000J0D01*
G01*
%TO.C,Q8*%
X99330000Y-64655000D02*
X99330000Y-64655000D01*
X99330000Y-64755000D02*
X99330000Y-64755000D01*
D13*
X99865000Y-65630000D02*
X99865000Y-68680000D01*
X96815000Y-65630000D02*
X96815000Y-68680000D01*
D12*
X99330000Y-64755000D02*
G75*
G03*
X99330000Y-64655000I0J50000D01*
G01*
X99330000Y-64655000D02*
G75*
G03*
X99330000Y-64755000I0J-50000D01*
G01*
%TO.C,Q10*%
X116140000Y-38995000D02*
X116140000Y-38995000D01*
X116140000Y-39095000D02*
X116140000Y-39095000D01*
D13*
X116675000Y-39970000D02*
X116675000Y-43020000D01*
X113625000Y-39970000D02*
X113625000Y-43020000D01*
D12*
X116140000Y-39095000D02*
G75*
G03*
X116140000Y-38995000I0J50000D01*
G01*
X116140000Y-38995000D02*
G75*
G03*
X116140000Y-39095000I0J-50000D01*
G01*
D11*
%TO.C,R32*%
X122916359Y-44050000D02*
X123223641Y-44050000D01*
X122916359Y-44810000D02*
X123223641Y-44810000D01*
%TO.C,D1*%
X71980000Y-33140000D02*
X73280000Y-33140000D01*
X73280000Y-30020000D02*
X71280000Y-30020000D01*
%TO.C,R21*%
X107510000Y-40156359D02*
X107510000Y-40463641D01*
X106750000Y-40156359D02*
X106750000Y-40463641D01*
%TO.C,R20*%
X106833641Y-39265000D02*
X106526359Y-39265000D01*
X106833641Y-38505000D02*
X106526359Y-38505000D01*
%TO.C,U7*%
X110530000Y-41450000D02*
X108730000Y-41450000D01*
X110530000Y-41450000D02*
X111330000Y-41450000D01*
X110530000Y-44570000D02*
X109730000Y-44570000D01*
X110530000Y-44570000D02*
X111330000Y-44570000D01*
%TO.C,R14*%
X120366359Y-29420000D02*
X120673641Y-29420000D01*
X120366359Y-30180000D02*
X120673641Y-30180000D01*
D13*
%TO.C,Q5*%
X111185000Y-33700000D02*
X108185000Y-33700000D01*
D12*
X107385000Y-34275000D02*
X107385000Y-34275000D01*
X107285000Y-34275000D02*
X107285000Y-34275000D01*
D13*
X111185000Y-36850000D02*
X108185000Y-36850000D01*
D12*
X107285000Y-34275000D02*
G75*
G03*
X107385000Y-34275000I50000J0D01*
G01*
X107385000Y-34275000D02*
G75*
G03*
X107285000Y-34275000I-50000J0D01*
G01*
D11*
%TO.C,J3*%
X84300000Y-28170000D02*
X84300000Y-26370000D01*
X84300000Y-22660000D02*
X84300000Y-24120000D01*
X75360000Y-28170000D02*
X75360000Y-26370000D01*
X75360000Y-22660000D02*
X84300000Y-22660000D01*
X75360000Y-22660000D02*
X75360000Y-24120000D01*
%TO.C,TP2*%
X70700000Y-32130000D02*
G75*
G03*
X70700000Y-32130000I-700000J0D01*
G01*
%TO.C,R33*%
X120653641Y-39680000D02*
X120346359Y-39680000D01*
X120653641Y-38920000D02*
X120346359Y-38920000D01*
%TO.C,C4*%
X82892164Y-39190000D02*
X83107836Y-39190000D01*
X82892164Y-39910000D02*
X83107836Y-39910000D01*
%TO.C,U5*%
X81107980Y-61555000D02*
X81107980Y-58105000D01*
X81107980Y-61555000D02*
X81107980Y-63505000D01*
X75987980Y-61555000D02*
X75987980Y-59605000D01*
X75987980Y-61555000D02*
X75987980Y-63505000D01*
%TO.C,J1*%
X71410000Y-51889264D02*
X71110000Y-51465000D01*
X71110000Y-51465000D02*
X70810000Y-51889264D01*
X70810000Y-51889264D02*
X71410000Y-51889264D01*
X69750000Y-50505000D02*
X69750000Y-50205000D01*
X69750000Y-50205000D02*
X69300000Y-50205000D01*
X69750000Y-48005000D02*
X69750000Y-47705000D01*
X69750000Y-47705000D02*
X69300000Y-47705000D01*
X69300000Y-52185000D02*
X69300000Y-46025000D01*
X69300000Y-50505000D02*
X69750000Y-50505000D01*
X69300000Y-50205000D02*
X69300000Y-50505000D01*
X69300000Y-48005000D02*
X69750000Y-48005000D01*
X69300000Y-47705000D02*
X69300000Y-48005000D01*
X69300000Y-46025000D02*
X60620000Y-46025000D01*
X60620000Y-52185000D02*
X69300000Y-52185000D01*
X60620000Y-46025000D02*
X60620000Y-52185000D01*
%TO.C,R9*%
X120346359Y-34410000D02*
X120653641Y-34410000D01*
X120346359Y-35170000D02*
X120653641Y-35170000D01*
%TO.C,R7*%
X120653641Y-37440000D02*
X120346359Y-37440000D01*
X120653641Y-36680000D02*
X120346359Y-36680000D01*
D14*
%TO.C,J7*%
X87810000Y-14220000D02*
X87810000Y-32420000D01*
X87810000Y-32420000D02*
X89782000Y-32420000D01*
X94138000Y-32420000D02*
X96982000Y-32420000D01*
X98100000Y-34730000D02*
X99370000Y-34730000D01*
X99370000Y-34730000D02*
X99370000Y-33460000D01*
X99370000Y-34730000D02*
X99370000Y-36000000D01*
X100640000Y-34730000D02*
X99370000Y-34730000D01*
X103310000Y-14220000D02*
X87810000Y-14220000D01*
X103310000Y-32420000D02*
X101338000Y-32420000D01*
X103310000Y-32420000D02*
X103310000Y-14220000D01*
D12*
%TO.C,Q9*%
X114150000Y-38130000D02*
X114150000Y-38130000D01*
X114150000Y-38030000D02*
X114150000Y-38030000D01*
D13*
X113615000Y-37155000D02*
X113615000Y-34105000D01*
X116665000Y-37155000D02*
X116665000Y-34105000D01*
D12*
X114150000Y-38030000D02*
G75*
G03*
X114150000Y-38130000I0J-50000D01*
G01*
X114150000Y-38130000D02*
G75*
G03*
X114150000Y-38030000I0J50000D01*
G01*
D11*
%TO.C,ENJUMPER1*%
X82120000Y-42360000D02*
X83450000Y-42360000D01*
X82120000Y-43690000D02*
X82120000Y-42360000D01*
X82120000Y-44960000D02*
X82120000Y-47560000D01*
X82120000Y-44960000D02*
X84780000Y-44960000D01*
X82120000Y-47560000D02*
X84780000Y-47560000D01*
X84780000Y-44960000D02*
X84780000Y-47560000D01*
%TO.C,J2*%
X73580000Y-67230000D02*
X74910000Y-67230000D01*
X73580000Y-68560000D02*
X73580000Y-67230000D01*
X73580000Y-69830000D02*
X73580000Y-72430000D01*
X73580000Y-69830000D02*
X76240000Y-69830000D01*
X73580000Y-72430000D02*
X76240000Y-72430000D01*
X76240000Y-69830000D02*
X76240000Y-72430000D01*
%TO.C,C25*%
X96484000Y-45439420D02*
X96484000Y-45720580D01*
X95464000Y-45439420D02*
X95464000Y-45720580D01*
D12*
%TO.C,LOGICLED1*%
X122650000Y-40250000D02*
G75*
G03*
X122650000Y-40250000I-50000J0D01*
G01*
D11*
%TO.C,C42*%
X101874000Y-38573836D02*
X101874000Y-38358164D01*
X102594000Y-38573836D02*
X102594000Y-38358164D01*
%TO.C,C53*%
X90217836Y-42430000D02*
X90002164Y-42430000D01*
X90217836Y-41710000D02*
X90002164Y-41710000D01*
%TO.C,C10*%
X73510000Y-42442164D02*
X73510000Y-42657836D01*
X72790000Y-42442164D02*
X72790000Y-42657836D01*
%TO.C,J8*%
X67020000Y-34870000D02*
X68350000Y-34870000D01*
X67020000Y-36200000D02*
X67020000Y-34870000D01*
X67020000Y-37470000D02*
X67020000Y-45150000D01*
X67020000Y-37470000D02*
X69680000Y-37470000D01*
X67020000Y-45150000D02*
X69680000Y-45150000D01*
X69680000Y-37470000D02*
X69680000Y-45150000D01*
%TO.C,R26*%
X88323641Y-59870000D02*
X88016359Y-59870000D01*
X88323641Y-59110000D02*
X88016359Y-59110000D01*
%TO.C,C51*%
X86317836Y-52640000D02*
X86102164Y-52640000D01*
X86317836Y-51920000D02*
X86102164Y-51920000D01*
%TO.C,R35*%
X111330000Y-45793641D02*
X111330000Y-45486359D01*
X112090000Y-45793641D02*
X112090000Y-45486359D01*
%TO.C,C50*%
X90484420Y-51680000D02*
X90765580Y-51680000D01*
X90484420Y-52700000D02*
X90765580Y-52700000D01*
%TO.C,C5*%
X81890000Y-40842164D02*
X81890000Y-41057836D01*
X81170000Y-40842164D02*
X81170000Y-41057836D01*
D12*
%TO.C,DEPLED1*%
X124190000Y-42510000D02*
G75*
G03*
X124190000Y-42510000I-50000J0D01*
G01*
D11*
%TO.C,C12*%
X80587836Y-43770000D02*
X80372164Y-43770000D01*
X80587836Y-43050000D02*
X80372164Y-43050000D01*
%TO.C,C20*%
X81362980Y-67552164D02*
X81362980Y-67767836D01*
X80642980Y-67552164D02*
X80642980Y-67767836D01*
%TO.C,R16*%
X79742742Y-65482500D02*
X80217258Y-65482500D01*
X79742742Y-66527500D02*
X80217258Y-66527500D01*
%TO.C,L5*%
X92260000Y-55089622D02*
X92260000Y-54290378D01*
X93380000Y-55089622D02*
X93380000Y-54290378D01*
%TO.C,C52*%
X86327836Y-51720000D02*
X86112164Y-51720000D01*
X86327836Y-51000000D02*
X86112164Y-51000000D01*
%TO.C,R30*%
X100904000Y-38639641D02*
X100904000Y-38332359D01*
X101664000Y-38639641D02*
X101664000Y-38332359D01*
%TO.C,R27*%
X121876359Y-41180000D02*
X122183641Y-41180000D01*
X121876359Y-41940000D02*
X122183641Y-41940000D01*
%TO.C,R36*%
X77963641Y-52040000D02*
X77656359Y-52040000D01*
X77963641Y-51280000D02*
X77656359Y-51280000D01*
%TO.C,R15*%
X81460480Y-64022258D02*
X81460480Y-63547742D01*
X82505480Y-64022258D02*
X82505480Y-63547742D01*
%TO.C,R13*%
X86553641Y-43370000D02*
X86246359Y-43370000D01*
X86553641Y-42610000D02*
X86246359Y-42610000D01*
%TO.C,JP2*%
X71750000Y-55685000D02*
X71150000Y-55685000D01*
X70450000Y-54985000D02*
X70450000Y-53585000D01*
X72450000Y-53585000D02*
X72450000Y-54985000D01*
X71150000Y-52885000D02*
X71750000Y-52885000D01*
X70450000Y-54985000D02*
G75*
G03*
X71150000Y-55685000I699999J-1D01*
G01*
X71750000Y-55685000D02*
G75*
G03*
X72450000Y-54985000I1J699999D01*
G01*
X71150000Y-52885000D02*
G75*
G03*
X70450000Y-53585000I0J-700000D01*
G01*
X72450000Y-53585000D02*
G75*
G03*
X71750000Y-52885000I-700000J0D01*
G01*
%TO.C,U6*%
X102950000Y-58100000D02*
X101150000Y-58100000D01*
X102950000Y-58100000D02*
X103750000Y-58100000D01*
X102950000Y-61220000D02*
X102150000Y-61220000D01*
X102950000Y-61220000D02*
X103750000Y-61220000D01*
%TO.C,R4*%
X73440000Y-45093641D02*
X73440000Y-44786359D01*
X74200000Y-45093641D02*
X74200000Y-44786359D01*
D12*
%TO.C,USBLED1*%
X86700000Y-38595000D02*
G75*
G03*
X86700000Y-38595000I-50000J0D01*
G01*
D11*
%TO.C,C19*%
X77126816Y-57748000D02*
X76911144Y-57748000D01*
X77126816Y-57028000D02*
X76911144Y-57028000D01*
D14*
%TO.C,U2*%
X78340000Y-40900000D02*
X78340000Y-40430000D01*
X78340000Y-40900000D02*
X77870000Y-40900000D01*
X78340000Y-33900000D02*
X78340000Y-34370000D01*
X78340000Y-33900000D02*
X77870000Y-33900000D01*
X71340000Y-40900000D02*
X71810000Y-40900000D01*
X71340000Y-40900000D02*
X71340000Y-40430000D01*
X71340000Y-33900000D02*
X71810000Y-33900000D01*
X71340000Y-33900000D02*
X71340000Y-34370000D01*
D13*
X79395000Y-40000000D02*
G75*
G03*
X79395000Y-40000000I-100000J0D01*
G01*
D11*
%TO.C,JP1*%
X71140000Y-59010000D02*
X71740000Y-59010000D01*
X72440000Y-59710000D02*
X72440000Y-61110000D01*
X70440000Y-61110000D02*
X70440000Y-59710000D01*
X71740000Y-61810000D02*
X71140000Y-61810000D01*
X72440000Y-59710000D02*
G75*
G03*
X71740000Y-59010000I-699999J1D01*
G01*
X71140000Y-59010000D02*
G75*
G03*
X70440000Y-59710000I-1J-699999D01*
G01*
X71740000Y-61810000D02*
G75*
G03*
X72440000Y-61110000I0J700000D01*
G01*
X70440000Y-61110000D02*
G75*
G03*
X71140000Y-61810000I700000J0D01*
G01*
D12*
%TO.C,3V3LED1*%
X122650000Y-38000000D02*
G75*
G03*
X122650000Y-38000000I-50000J0D01*
G01*
D11*
%TO.C,C15*%
X94994000Y-45429420D02*
X94994000Y-45710580D01*
X93974000Y-45429420D02*
X93974000Y-45710580D01*
D12*
%TO.C,Q7*%
X97350000Y-63795000D02*
X97350000Y-63795000D01*
X97350000Y-63695000D02*
X97350000Y-63695000D01*
D13*
X96815000Y-62820000D02*
X96815000Y-59770000D01*
X99865000Y-62820000D02*
X99865000Y-59770000D01*
D12*
X97350000Y-63695000D02*
G75*
G03*
X97350000Y-63795000I0J-50000D01*
G01*
X97350000Y-63795000D02*
G75*
G03*
X97350000Y-63695000I0J50000D01*
G01*
D11*
%TO.C,R5*%
X77660000Y-49576359D02*
X77660000Y-49883641D01*
X76900000Y-49576359D02*
X76900000Y-49883641D01*
D12*
%TO.C,CANRXLED1*%
X74910000Y-51660000D02*
G75*
G03*
X74910000Y-51660000I-50000J0D01*
G01*
D11*
%TO.C,Y1*%
X78920000Y-46330000D02*
X78920000Y-44030000D01*
X78920000Y-44030000D02*
X76220000Y-44030000D01*
%TO.C,C1*%
X82802164Y-40130000D02*
X83017836Y-40130000D01*
X82802164Y-40850000D02*
X83017836Y-40850000D01*
%TO.C,C46*%
X107396164Y-41346000D02*
X107611836Y-41346000D01*
X107396164Y-42066000D02*
X107611836Y-42066000D01*
%TO.C,R28*%
X121856359Y-43090000D02*
X122163641Y-43090000D01*
X121856359Y-43850000D02*
X122163641Y-43850000D01*
%TO.C,C32*%
X93448420Y-50230000D02*
X93729580Y-50230000D01*
X93448420Y-51250000D02*
X93729580Y-51250000D01*
%TO.C,R12*%
X87970000Y-36356359D02*
X87970000Y-36663641D01*
X87210000Y-36356359D02*
X87210000Y-36663641D01*
%TO.C,TP5*%
X75600000Y-47170000D02*
G75*
G03*
X75600000Y-47170000I-700000J0D01*
G01*
D12*
%TO.C,TXLED1*%
X76380000Y-48640000D02*
G75*
G03*
X76380000Y-48640000I-50000J0D01*
G01*
D11*
%TO.C,TP3*%
X93190000Y-57800000D02*
G75*
G03*
X93190000Y-57800000I-700000J0D01*
G01*
%TO.C,C47*%
X106694000Y-44283836D02*
X106694000Y-44068164D01*
X107414000Y-44283836D02*
X107414000Y-44068164D01*
%TO.C,R24*%
X89363641Y-58920000D02*
X89056359Y-58920000D01*
X89363641Y-58160000D02*
X89056359Y-58160000D01*
%TO.C,J6*%
X67060000Y-59260000D02*
X68390000Y-59260000D01*
X67060000Y-60590000D02*
X67060000Y-59260000D01*
X67060000Y-61860000D02*
X67060000Y-64460000D01*
X67060000Y-61860000D02*
X69720000Y-61860000D01*
X67060000Y-64460000D02*
X69720000Y-64460000D01*
X69720000Y-61860000D02*
X69720000Y-64460000D01*
%TO.C,U1*%
X110530000Y-41160000D02*
X112330000Y-41160000D01*
X110530000Y-41160000D02*
X109730000Y-41160000D01*
X110530000Y-38040000D02*
X111330000Y-38040000D01*
X110530000Y-38040000D02*
X109730000Y-38040000D01*
%TO.C,R22*%
X121376359Y-30360000D02*
X121683641Y-30360000D01*
X121376359Y-31120000D02*
X121683641Y-31120000D01*
%TO.C,C9*%
X78542164Y-42130000D02*
X78757836Y-42130000D01*
X78542164Y-42850000D02*
X78757836Y-42850000D01*
%TO.C,J5*%
X119550000Y-83240000D02*
X110440000Y-83240000D01*
X119550000Y-70220000D02*
X119550000Y-83240000D01*
X119340000Y-69530000D02*
X118740000Y-69230000D01*
X119340000Y-68930000D02*
X119340000Y-69530000D01*
X118740000Y-70220000D02*
X119550000Y-70220000D01*
X118740000Y-69230000D02*
X119340000Y-68930000D01*
X117040000Y-67120000D02*
X117040000Y-65840000D01*
X116440000Y-67120000D02*
X116440000Y-65840000D01*
X115130000Y-70230000D02*
X114150000Y-70230000D01*
X112840000Y-67120000D02*
X112840000Y-65840000D01*
X112240000Y-67120000D02*
X112240000Y-65840000D01*
X110930000Y-70230000D02*
X109950000Y-70230000D01*
X108640000Y-67120000D02*
X108640000Y-65840000D01*
X108040000Y-67120000D02*
X108040000Y-65840000D01*
X106730000Y-70230000D02*
X105750000Y-70230000D01*
X104440000Y-67120000D02*
X104440000Y-65840000D01*
X103840000Y-67120000D02*
X103840000Y-65840000D01*
X102140000Y-70220000D02*
X101330000Y-70220000D01*
X101330000Y-83240000D02*
X110440000Y-83240000D01*
X101330000Y-70220000D02*
X101330000Y-83240000D01*
%TO.C,R2*%
X88423641Y-43370000D02*
X88116359Y-43370000D01*
X88423641Y-42610000D02*
X88116359Y-42610000D01*
%TO.C,TP6*%
X88840000Y-51920000D02*
G75*
G03*
X88840000Y-51920000I-700000J0D01*
G01*
D12*
%TO.C,BATTLED1*%
X122700000Y-35740000D02*
G75*
G03*
X122700000Y-35740000I-50000J0D01*
G01*
D11*
%TO.C,R3*%
X81230000Y-39243641D02*
X81230000Y-38936359D01*
X81990000Y-39243641D02*
X81990000Y-38936359D01*
%TO.C,C23*%
X96222500Y-68760000D02*
X94972500Y-68760000D01*
X95597500Y-69385000D02*
X95597500Y-68135000D01*
X94732500Y-70195563D02*
X94732500Y-67510000D01*
X94732500Y-70195563D02*
X93668063Y-71260000D01*
X94732500Y-61804437D02*
X94732500Y-64490000D01*
X94732500Y-61804437D02*
X93668063Y-60740000D01*
X93668063Y-71260000D02*
X84212500Y-71260000D01*
X93668063Y-60740000D02*
X84212500Y-60740000D01*
X84212500Y-71260000D02*
X84212500Y-67510000D01*
X84212500Y-60740000D02*
X84212500Y-64490000D01*
%TO.C,Q1*%
X111130000Y-45320000D02*
X111130000Y-45920000D01*
X109530000Y-45120000D02*
X109530000Y-46320000D01*
%TO.C,J4*%
X67060000Y-53090000D02*
X68390000Y-53090000D01*
X67060000Y-54420000D02*
X67060000Y-53090000D01*
X67060000Y-55690000D02*
X67060000Y-58290000D01*
X67060000Y-55690000D02*
X69720000Y-55690000D01*
X67060000Y-58290000D02*
X69720000Y-58290000D01*
X69720000Y-55690000D02*
X69720000Y-58290000D01*
%TO.C,C38*%
X97974000Y-45429420D02*
X97974000Y-45710580D01*
X96954000Y-45429420D02*
X96954000Y-45710580D01*
%TO.C,C30*%
X93448420Y-51690000D02*
X93729580Y-51690000D01*
X93448420Y-52710000D02*
X93729580Y-52710000D01*
%TO.C,C8*%
X79980000Y-37347836D02*
X79980000Y-37132164D01*
X80700000Y-37347836D02*
X80700000Y-37132164D01*
%TO.C,C6*%
X79770000Y-40822164D02*
X79770000Y-41037836D01*
X79050000Y-40822164D02*
X79050000Y-41037836D01*
%TO.C,C7*%
X78542164Y-43050000D02*
X78757836Y-43050000D01*
X78542164Y-43770000D02*
X78757836Y-43770000D01*
D13*
%TO.C,Q6*%
X93210000Y-36850000D02*
X96210000Y-36850000D01*
D12*
X97010000Y-36275000D02*
X97010000Y-36275000D01*
X97110000Y-36275000D02*
X97110000Y-36275000D01*
D13*
X93210000Y-33700000D02*
X96210000Y-33700000D01*
D12*
X97110000Y-36275000D02*
G75*
G03*
X97010000Y-36275000I-50000J0D01*
G01*
X97010000Y-36275000D02*
G75*
G03*
X97110000Y-36275000I50000J0D01*
G01*
D11*
%TO.C,R1*%
X87440000Y-54586359D02*
X87440000Y-54893641D01*
X86680000Y-54586359D02*
X86680000Y-54893641D01*
%TO.C,C40*%
X97990000Y-41078748D02*
X97990000Y-42501252D01*
X96170000Y-41078748D02*
X96170000Y-42501252D01*
%TO.C,TP1*%
X78830000Y-32180000D02*
G75*
G03*
X78830000Y-32180000I-700000J0D01*
G01*
%TO.C,R6*%
X79790000Y-37086359D02*
X79790000Y-37393641D01*
X79030000Y-37086359D02*
X79030000Y-37393641D01*
%TO.C,C11*%
X76112164Y-32470000D02*
X76327836Y-32470000D01*
X76112164Y-33190000D02*
X76327836Y-33190000D01*
%TO.C,R11*%
X73370000Y-28913641D02*
X73370000Y-28606359D01*
X74130000Y-28913641D02*
X74130000Y-28606359D01*
%TO.C,TP4*%
X75560000Y-49180000D02*
G75*
G03*
X75560000Y-49180000I-700000J0D01*
G01*
%TO.C,R31*%
X104160000Y-38653641D02*
X104160000Y-38346359D01*
X104920000Y-38653641D02*
X104920000Y-38346359D01*
%TO.C,R34*%
X108570000Y-45803641D02*
X108570000Y-45496359D01*
X109330000Y-45803641D02*
X109330000Y-45496359D01*
%TO.C,C49*%
X88587836Y-57370000D02*
X88372164Y-57370000D01*
X88587836Y-56650000D02*
X88372164Y-56650000D01*
%TO.C,C44*%
X99490000Y-42459420D02*
X99490000Y-42740580D01*
X98470000Y-42459420D02*
X98470000Y-42740580D01*
%TO.C,R8*%
X80740000Y-44953641D02*
X80740000Y-44646359D01*
X81500000Y-44953641D02*
X81500000Y-44646359D01*
D12*
%TO.C,CANTXLED1*%
X75230000Y-51660000D02*
G75*
G03*
X75230000Y-51660000I-50000J0D01*
G01*
D11*
%TO.C,U8*%
X93832500Y-37990000D02*
X92032500Y-37990000D01*
X93832500Y-37990000D02*
X94632500Y-37990000D01*
X93832500Y-41110000D02*
X93032500Y-41110000D01*
X93832500Y-41110000D02*
X94632500Y-41110000D01*
%TO.C,D2*%
X76890000Y-68665000D02*
X76890000Y-70340000D01*
X76890000Y-68665000D02*
X76890000Y-68015000D01*
X80010000Y-68665000D02*
X80010000Y-69315000D01*
X80010000Y-68665000D02*
X80010000Y-68015000D01*
%TO.C,C2*%
X81030000Y-38972164D02*
X81030000Y-39187836D01*
X80310000Y-38972164D02*
X80310000Y-39187836D01*
%TO.C,R17*%
X76772742Y-65492500D02*
X77247258Y-65492500D01*
X76772742Y-66537500D02*
X77247258Y-66537500D01*
%TO.C,BOOTJUMPER1*%
X84775000Y-48530000D02*
X84775000Y-49860000D01*
X83445000Y-48530000D02*
X84775000Y-48530000D01*
X82175000Y-48530000D02*
X79575000Y-48530000D01*
X82175000Y-48530000D02*
X82175000Y-51190000D01*
X79575000Y-48530000D02*
X79575000Y-51190000D01*
X82175000Y-51190000D02*
X79575000Y-51190000D01*
%TO.C,R19*%
X73250000Y-53213641D02*
X73250000Y-52906359D01*
X74010000Y-53213641D02*
X74010000Y-52906359D01*
%TO.C,R29*%
X103940000Y-38336359D02*
X103940000Y-38643641D01*
X103180000Y-38336359D02*
X103180000Y-38643641D01*
%TO.C,R25*%
X107677641Y-43176000D02*
X107370359Y-43176000D01*
X107677641Y-42416000D02*
X107370359Y-42416000D01*
D14*
%TO.C,U4*%
X87860000Y-53220000D02*
X87860000Y-53500000D01*
X87860000Y-53220000D02*
X88140000Y-53220000D01*
X87860000Y-56220000D02*
X87860000Y-55940000D01*
X87860000Y-56220000D02*
X88140000Y-56220000D01*
X90860000Y-53220000D02*
X90580000Y-53220000D01*
X90860000Y-53220000D02*
X90860000Y-53500000D01*
X90860000Y-56220000D02*
X90580000Y-56220000D01*
X90860000Y-56220000D02*
X90860000Y-55940000D01*
D13*
X87300000Y-54220000D02*
G75*
G03*
X87300000Y-54220000I-100000J0D01*
G01*
D11*
%TO.C,C14*%
X79830000Y-45242164D02*
X79830000Y-45457836D01*
X79110000Y-45242164D02*
X79110000Y-45457836D01*
%TO.C,C3*%
X80110000Y-38982164D02*
X80110000Y-39197836D01*
X79390000Y-38982164D02*
X79390000Y-39197836D01*
D14*
%TO.C,U10*%
X85735000Y-49180000D02*
X85735000Y-45180000D01*
X90735000Y-49180000D02*
X90735000Y-45180000D01*
D13*
X85830000Y-51445000D02*
G75*
G03*
X85830000Y-51445000I-100000J0D01*
G01*
D11*
%TO.C,C13*%
X75350000Y-45347836D02*
X75350000Y-45132164D01*
X76070000Y-45347836D02*
X76070000Y-45132164D01*
%TO.C,C36*%
X93443420Y-48750000D02*
X93724580Y-48750000D01*
X93443420Y-49770000D02*
X93724580Y-49770000D01*
%TO.C,C54*%
X90227836Y-43360000D02*
X90012164Y-43360000D01*
X90227836Y-42640000D02*
X90012164Y-42640000D01*
D14*
%TO.C,J9*%
X103820000Y-14210000D02*
X103820000Y-32410000D01*
X103820000Y-32410000D02*
X105792000Y-32410000D01*
X110148000Y-32410000D02*
X112992000Y-32410000D01*
X114110000Y-34720000D02*
X115380000Y-34720000D01*
X115380000Y-34720000D02*
X115380000Y-33450000D01*
X115380000Y-34720000D02*
X115380000Y-35990000D01*
X116650000Y-34720000D02*
X115380000Y-34720000D01*
X119320000Y-14210000D02*
X103820000Y-14210000D01*
X119320000Y-32410000D02*
X117348000Y-32410000D01*
X119320000Y-32410000D02*
X119320000Y-14210000D01*
D11*
%TO.C,C24*%
X121582500Y-55100000D02*
X120332500Y-55100000D01*
X120957500Y-55725000D02*
X120957500Y-54475000D01*
X120092500Y-56535563D02*
X120092500Y-53850000D01*
X120092500Y-56535563D02*
X119028063Y-57600000D01*
X120092500Y-48144437D02*
X120092500Y-50830000D01*
X120092500Y-48144437D02*
X119028063Y-47080000D01*
X119028063Y-57600000D02*
X109572500Y-57600000D01*
X119028063Y-47080000D02*
X109572500Y-47080000D01*
X109572500Y-57600000D02*
X109572500Y-53850000D01*
X109572500Y-47080000D02*
X109572500Y-50830000D01*
D13*
%TO.C,L3*%
X95950000Y-57470000D02*
X106950000Y-57470000D01*
X106950000Y-47470000D02*
X95950000Y-47470000D01*
D11*
%TO.C,R18*%
X71060000Y-57028641D02*
X71060000Y-56721359D01*
X71820000Y-57028641D02*
X71820000Y-56721359D01*
%TO.C,R10*%
X73370000Y-27043641D02*
X73370000Y-26736359D01*
X74130000Y-27043641D02*
X74130000Y-26736359D01*
%TD*%
%LPC*%
%TO.C,U4*%
G36*
X88485000Y-54920000D02*
G01*
X87760000Y-54920000D01*
X87760000Y-54520000D01*
X88485000Y-54520000D01*
X88485000Y-54920000D01*
G37*
D15*
X88485000Y-54920000D02*
X87760000Y-54920000D01*
X87760000Y-54520000D01*
X88485000Y-54520000D01*
X88485000Y-54920000D01*
G36*
X88485000Y-55420000D02*
G01*
X87760000Y-55420000D01*
X87760000Y-55020000D01*
X88485000Y-55020000D01*
X88485000Y-55420000D01*
G37*
X88485000Y-55420000D02*
X87760000Y-55420000D01*
X87760000Y-55020000D01*
X88485000Y-55020000D01*
X88485000Y-55420000D01*
G36*
X88810000Y-53845000D02*
G01*
X88410000Y-53845000D01*
X88410000Y-53120000D01*
X88810000Y-53120000D01*
X88810000Y-53845000D01*
G37*
X88810000Y-53845000D02*
X88410000Y-53845000D01*
X88410000Y-53120000D01*
X88810000Y-53120000D01*
X88810000Y-53845000D01*
G36*
X88810000Y-56320000D02*
G01*
X88410000Y-56320000D01*
X88410000Y-55595000D01*
X88810000Y-55595000D01*
X88810000Y-56320000D01*
G37*
X88810000Y-56320000D02*
X88410000Y-56320000D01*
X88410000Y-55595000D01*
X88810000Y-55595000D01*
X88810000Y-56320000D01*
G36*
X89310000Y-53845000D02*
G01*
X88910000Y-53845000D01*
X88910000Y-53120000D01*
X89310000Y-53120000D01*
X89310000Y-53845000D01*
G37*
X89310000Y-53845000D02*
X88910000Y-53845000D01*
X88910000Y-53120000D01*
X89310000Y-53120000D01*
X89310000Y-53845000D01*
G36*
X89310000Y-56320000D02*
G01*
X88910000Y-56320000D01*
X88910000Y-55595000D01*
X89310000Y-55595000D01*
X89310000Y-56320000D01*
G37*
X89310000Y-56320000D02*
X88910000Y-56320000D01*
X88910000Y-55595000D01*
X89310000Y-55595000D01*
X89310000Y-56320000D01*
G36*
X90960000Y-54945000D02*
G01*
X90235000Y-54945000D01*
X90235000Y-54495000D01*
X90960000Y-54495000D01*
X90960000Y-54945000D01*
G37*
X90960000Y-54945000D02*
X90235000Y-54945000D01*
X90235000Y-54495000D01*
X90960000Y-54495000D01*
X90960000Y-54945000D01*
G36*
X88485000Y-54155000D02*
G01*
X88485000Y-54420000D01*
X87760000Y-54420000D01*
X87760000Y-54020000D01*
X88350000Y-54020000D01*
X88485000Y-54155000D01*
G37*
X88485000Y-54155000D02*
X88485000Y-54420000D01*
X87760000Y-54420000D01*
X87760000Y-54020000D01*
X88350000Y-54020000D01*
X88485000Y-54155000D01*
G36*
X90310000Y-53787000D02*
G01*
X90209000Y-53845000D01*
X89410000Y-53845000D01*
X89410000Y-53120000D01*
X90310000Y-53120000D01*
X90310000Y-53787000D01*
G37*
X90310000Y-53787000D02*
X90209000Y-53845000D01*
X89410000Y-53845000D01*
X89410000Y-53120000D01*
X90310000Y-53120000D01*
X90310000Y-53787000D01*
G36*
X90310000Y-55653000D02*
G01*
X90310000Y-56320000D01*
X89410000Y-56320000D01*
X89410000Y-55595000D01*
X90209000Y-55595000D01*
X90310000Y-55653000D01*
G37*
X90310000Y-55653000D02*
X90310000Y-56320000D01*
X89410000Y-56320000D01*
X89410000Y-55595000D01*
X90209000Y-55595000D01*
X90310000Y-55653000D01*
G36*
X90960000Y-54295000D02*
G01*
X90235000Y-54295000D01*
X90235000Y-53903000D01*
X90336000Y-53845000D01*
X90960000Y-53845000D01*
X90960000Y-54295000D01*
G37*
X90960000Y-54295000D02*
X90235000Y-54295000D01*
X90235000Y-53903000D01*
X90336000Y-53845000D01*
X90960000Y-53845000D01*
X90960000Y-54295000D01*
G36*
X90960000Y-55595000D02*
G01*
X90336000Y-55595000D01*
X90235000Y-55537000D01*
X90235000Y-55145000D01*
X90960000Y-55145000D01*
X90960000Y-55595000D01*
G37*
X90960000Y-55595000D02*
X90336000Y-55595000D01*
X90235000Y-55537000D01*
X90235000Y-55145000D01*
X90960000Y-55145000D01*
X90960000Y-55595000D01*
%TD*%
D16*
%TO.C,R23*%
X75352980Y-63840000D03*
X75352980Y-62820000D03*
%TD*%
D17*
%TO.C,C18*%
X78358980Y-57388000D03*
X79318980Y-57388000D03*
%TD*%
D18*
%TO.C,C17*%
X94369000Y-47800000D03*
X92819000Y-47800000D03*
%TD*%
D19*
%TO.C,C34*%
X98974000Y-44805000D03*
X98974000Y-46355000D03*
%TD*%
D20*
%TO.C,IC2*%
X101263999Y-41905999D03*
X101263999Y-42355999D03*
X101263999Y-43255999D03*
X101263999Y-43705999D03*
D21*
X101813999Y-44805999D03*
X102263999Y-44805999D03*
X102713999Y-44805999D03*
X103413999Y-44805999D03*
X103863999Y-44805999D03*
D22*
X104313999Y-44668999D03*
D23*
X105225999Y-44155999D03*
X105225999Y-43705999D03*
X105225999Y-43255999D03*
X105225999Y-42805999D03*
X105225999Y-42355999D03*
X105225999Y-41905999D03*
X105225999Y-41455999D03*
D22*
X104763999Y-40793999D03*
X104313999Y-40793999D03*
X103863999Y-40793999D03*
X103413999Y-40793999D03*
X102713999Y-40793999D03*
X102263999Y-40793999D03*
X101813999Y-40793999D03*
D24*
X103775999Y-41980999D03*
D25*
X102113999Y-41980999D03*
D26*
X102625999Y-43405999D03*
D27*
X104273999Y-43720999D03*
D28*
X104038999Y-43033999D03*
D29*
X102838999Y-44443999D03*
%TD*%
D30*
%TO.C,Q8*%
X99329999Y-65719999D03*
X98669999Y-65719999D03*
X98009999Y-65719999D03*
X97349999Y-65719999D03*
D31*
X97349999Y-68829999D03*
X98009999Y-68829999D03*
X98669999Y-68829999D03*
X99329999Y-68829999D03*
D32*
X98339999Y-67711999D03*
D33*
X97183999Y-68449999D03*
X99495999Y-68449999D03*
%TD*%
D30*
%TO.C,Q10*%
X116139999Y-40059999D03*
X115479999Y-40059999D03*
X114819999Y-40059999D03*
X114159999Y-40059999D03*
D31*
X114159999Y-43169999D03*
X114819999Y-43169999D03*
X115479999Y-43169999D03*
X116139999Y-43169999D03*
D32*
X115149999Y-42051999D03*
D33*
X113993999Y-42789999D03*
X116305999Y-42789999D03*
%TD*%
D34*
%TO.C,R32*%
X122560000Y-44430000D03*
X123580000Y-44430000D03*
%TD*%
D35*
%TO.C,D1*%
X71629999Y-30829999D03*
D36*
X71629999Y-32529999D03*
X73629999Y-32529999D03*
X73629999Y-30629999D03*
%TD*%
D37*
%TO.C,R21*%
X107130000Y-39800000D03*
X107130000Y-40820000D03*
%TD*%
D38*
%TO.C,R20*%
X107190000Y-38885000D03*
X106170000Y-38885000D03*
%TD*%
D39*
%TO.C,U7*%
X109392500Y-42060000D03*
X109392500Y-43010000D03*
X109392500Y-43960000D03*
X111667500Y-43960000D03*
X111667500Y-43010000D03*
X111667500Y-42060000D03*
%TD*%
D34*
%TO.C,R14*%
X120010000Y-29800000D03*
X121030000Y-29800000D03*
%TD*%
D40*
%TO.C,Q5*%
X108084999Y-34299999D03*
X108084999Y-34949999D03*
X108084999Y-35599999D03*
X108084999Y-36249999D03*
D41*
X111309999Y-36249999D03*
X111309999Y-35599999D03*
X111309999Y-34949999D03*
X111309999Y-34299999D03*
D42*
X110019999Y-35274999D03*
%TD*%
D43*
%TO.C,J3*%
X82720000Y-28950000D03*
X76940000Y-28950000D03*
D44*
X83029999Y-30009999D03*
X82229999Y-30009999D03*
D45*
X81079999Y-30009999D03*
X80079999Y-30009999D03*
X79579999Y-30009999D03*
X78579999Y-30009999D03*
D44*
X77429999Y-30009999D03*
X76629999Y-30009999D03*
X76629999Y-30009999D03*
X77429999Y-30009999D03*
D45*
X78079999Y-30009999D03*
X79079999Y-30009999D03*
X80579999Y-30009999D03*
X81579999Y-30009999D03*
D44*
X82229999Y-30009999D03*
X83029999Y-30009999D03*
D46*
X84149999Y-29429999D03*
D47*
X84149999Y-25259999D03*
D46*
X75509999Y-29429999D03*
D47*
X75509999Y-25259999D03*
%TD*%
D48*
%TO.C,TP2*%
X70000000Y-32130000D03*
%TD*%
D38*
%TO.C,R33*%
X121010000Y-39300000D03*
X119990000Y-39300000D03*
%TD*%
D17*
%TO.C,C4*%
X82520000Y-39550000D03*
X83480000Y-39550000D03*
%TD*%
D49*
%TO.C,U5*%
X80452980Y-59080000D03*
X79182980Y-59080000D03*
X77912980Y-59080000D03*
X76642980Y-59080000D03*
X76642980Y-64030000D03*
X77912980Y-64030000D03*
X79182980Y-64030000D03*
X80452980Y-64030000D03*
%TD*%
D50*
%TO.C,J1*%
X71110000Y-50355000D03*
D51*
X71109999Y-47854999D03*
%TD*%
D34*
%TO.C,R9*%
X119990000Y-34790000D03*
X121010000Y-34790000D03*
%TD*%
D38*
%TO.C,R7*%
X121010000Y-37060000D03*
X119990000Y-37060000D03*
%TD*%
D52*
%TO.C,J7*%
X99159999Y-30569999D03*
D53*
X91960000Y-30570000D03*
D54*
X102309999Y-24569999D03*
X88809999Y-24569999D03*
%TD*%
D30*
%TO.C,Q9*%
X114149999Y-37064999D03*
X114809999Y-37064999D03*
X115469999Y-37064999D03*
X116129999Y-37064999D03*
D31*
X116129999Y-33954999D03*
X115469999Y-33954999D03*
X114809999Y-33954999D03*
X114149999Y-33954999D03*
D32*
X115139999Y-35072999D03*
D33*
X116295999Y-34334999D03*
X113983999Y-34334999D03*
%TD*%
D55*
%TO.C,ENJUMPER1*%
X83449999Y-43689999D03*
D56*
X83449999Y-46229999D03*
%TD*%
D55*
%TO.C,J2*%
X74909999Y-68559999D03*
D56*
X74909999Y-71099999D03*
%TD*%
D19*
%TO.C,C25*%
X95974000Y-44805000D03*
X95974000Y-46355000D03*
%TD*%
D57*
%TO.C,LOGICLED1*%
X121995000Y-40250000D03*
X121025000Y-40250000D03*
%TD*%
D58*
%TO.C,C42*%
X102234000Y-38946000D03*
X102234000Y-37986000D03*
%TD*%
D59*
%TO.C,L2*%
X77270000Y-42445000D03*
X77270000Y-43415000D03*
%TD*%
D60*
%TO.C,C53*%
X90590000Y-42070000D03*
X89630000Y-42070000D03*
%TD*%
D61*
%TO.C,C10*%
X73150000Y-42070000D03*
X73150000Y-43030000D03*
%TD*%
D55*
%TO.C,J8*%
X68349999Y-36199999D03*
D56*
X68349999Y-38739999D03*
X68349999Y-41279999D03*
X68349999Y-43819999D03*
%TD*%
D38*
%TO.C,R26*%
X88680000Y-59490000D03*
X87660000Y-59490000D03*
%TD*%
D62*
%TO.C,H3*%
X123000000Y-26500000D03*
%TD*%
D60*
%TO.C,C51*%
X86690000Y-52280000D03*
X85730000Y-52280000D03*
%TD*%
D16*
%TO.C,R35*%
X111710000Y-46150000D03*
X111710000Y-45130000D03*
%TD*%
D63*
%TO.C,C50*%
X89850000Y-52190000D03*
X91400000Y-52190000D03*
%TD*%
D61*
%TO.C,C5*%
X81530000Y-40470000D03*
X81530000Y-41430000D03*
%TD*%
D57*
%TO.C,DEPLED1*%
X123535000Y-42510000D03*
X122565000Y-42510000D03*
%TD*%
D60*
%TO.C,C12*%
X80960000Y-43410000D03*
X80000000Y-43410000D03*
%TD*%
D61*
%TO.C,C20*%
X81002980Y-67180000D03*
X81002980Y-68140000D03*
%TD*%
D62*
%TO.C,H1*%
X70000000Y-69500000D03*
%TD*%
D64*
%TO.C,R16*%
X79155000Y-66005000D03*
X80805000Y-66005000D03*
%TD*%
D65*
%TO.C,L5*%
X92820000Y-55752500D03*
X92820000Y-53627500D03*
%TD*%
D60*
%TO.C,C52*%
X86700000Y-51360000D03*
X85740000Y-51360000D03*
%TD*%
D16*
%TO.C,R30*%
X101284000Y-38996000D03*
X101284000Y-37976000D03*
%TD*%
D34*
%TO.C,R27*%
X121520000Y-41560000D03*
X122540000Y-41560000D03*
%TD*%
D38*
%TO.C,R36*%
X78320000Y-51660000D03*
X77300000Y-51660000D03*
%TD*%
D66*
%TO.C,R15*%
X81982980Y-64610000D03*
X81982980Y-62960000D03*
%TD*%
D38*
%TO.C,R13*%
X86910000Y-42990000D03*
X85890000Y-42990000D03*
%TD*%
D67*
%TO.C,JP2*%
X71450000Y-54935000D03*
D68*
X71450000Y-53635000D03*
%TD*%
D39*
%TO.C,U6*%
X101812500Y-58710000D03*
X101812500Y-59660000D03*
X101812500Y-60610000D03*
X104087500Y-60610000D03*
X104087500Y-59660000D03*
X104087500Y-58710000D03*
%TD*%
D16*
%TO.C,R4*%
X73820000Y-45450000D03*
X73820000Y-44430000D03*
%TD*%
D69*
%TO.C,USBLED1*%
X86650000Y-37990000D03*
X86650000Y-37020000D03*
%TD*%
D60*
%TO.C,C19*%
X77498980Y-57388000D03*
X76538980Y-57388000D03*
%TD*%
D70*
%TO.C,U2*%
X78285000Y-40000000D03*
X78285000Y-39600000D03*
X78285000Y-39200000D03*
X78285000Y-38800000D03*
X78285000Y-38400000D03*
X78285000Y-38000000D03*
X78285000Y-37600000D03*
X78285000Y-37200000D03*
X78285000Y-36800000D03*
X78285000Y-36400000D03*
X78285000Y-36000000D03*
X78285000Y-35600000D03*
X78285000Y-35200000D03*
X78285000Y-34800000D03*
D71*
X77440000Y-33955000D03*
X77040000Y-33955000D03*
X76640000Y-33955000D03*
X76240000Y-33955000D03*
X75840000Y-33955000D03*
X75440000Y-33955000D03*
X75040000Y-33955000D03*
X74640000Y-33955000D03*
X74240000Y-33955000D03*
X73840000Y-33955000D03*
X73440000Y-33955000D03*
X73040000Y-33955000D03*
X72640000Y-33955000D03*
X72240000Y-33955000D03*
D70*
X71395000Y-34800000D03*
X71395000Y-35200000D03*
X71395000Y-35600000D03*
X71395000Y-36000000D03*
X71395000Y-36400000D03*
X71395000Y-36800000D03*
X71395000Y-37200000D03*
X71395000Y-37600000D03*
X71395000Y-38000000D03*
X71395000Y-38400000D03*
X71395000Y-38800000D03*
X71395000Y-39200000D03*
X71395000Y-39600000D03*
X71395000Y-40000000D03*
D71*
X72240000Y-40845000D03*
X72640000Y-40845000D03*
X73040000Y-40845000D03*
X73440000Y-40845000D03*
X73840000Y-40845000D03*
X74240000Y-40845000D03*
X74640000Y-40845000D03*
X75040000Y-40845000D03*
X75440000Y-40845000D03*
X75840000Y-40845000D03*
X76240000Y-40845000D03*
X76640000Y-40845000D03*
X77040000Y-40845000D03*
X77440000Y-40845000D03*
D72*
X74839999Y-37399999D03*
%TD*%
D73*
%TO.C,JP1*%
X71440000Y-59760000D03*
D74*
X71440000Y-61060000D03*
%TD*%
D57*
%TO.C,3V3LED1*%
X121995000Y-38000000D03*
X121025000Y-38000000D03*
%TD*%
D19*
%TO.C,C15*%
X94484000Y-44795000D03*
X94484000Y-46345000D03*
%TD*%
D30*
%TO.C,Q7*%
X97349999Y-62729999D03*
X98009999Y-62729999D03*
X98669999Y-62729999D03*
X99329999Y-62729999D03*
D31*
X99329999Y-59619999D03*
X98669999Y-59619999D03*
X98009999Y-59619999D03*
X97349999Y-59619999D03*
D32*
X98339999Y-60737999D03*
D33*
X99495999Y-59999999D03*
X97183999Y-59999999D03*
%TD*%
D37*
%TO.C,R5*%
X77280000Y-49220000D03*
X77280000Y-50240000D03*
%TD*%
D75*
%TO.C,CANRXLED1*%
X75465000Y-51660000D03*
X76435000Y-51660000D03*
%TD*%
D76*
%TO.C,Y1*%
X78269999Y-44629999D03*
X76869999Y-44629999D03*
X76869999Y-45729999D03*
X78269999Y-45729999D03*
%TD*%
D17*
%TO.C,C1*%
X82430000Y-40490000D03*
X83390000Y-40490000D03*
%TD*%
%TO.C,C46*%
X107024000Y-41706000D03*
X107984000Y-41706000D03*
%TD*%
D34*
%TO.C,R28*%
X121500000Y-43470000D03*
X122520000Y-43470000D03*
%TD*%
D63*
%TO.C,C32*%
X92814000Y-50740000D03*
X94364000Y-50740000D03*
%TD*%
D37*
%TO.C,R12*%
X87590000Y-36000000D03*
X87590000Y-37020000D03*
%TD*%
D48*
%TO.C,TP5*%
X74900000Y-47170000D03*
%TD*%
D59*
%TO.C,TXLED1*%
X76330000Y-49245000D03*
X76330000Y-50215000D03*
%TD*%
D48*
%TO.C,TP3*%
X92490000Y-57800000D03*
%TD*%
D58*
%TO.C,C47*%
X107054000Y-44656000D03*
X107054000Y-43696000D03*
%TD*%
D38*
%TO.C,R24*%
X89720000Y-58540000D03*
X88700000Y-58540000D03*
%TD*%
D55*
%TO.C,J6*%
X68389999Y-60589999D03*
D56*
X68389999Y-63129999D03*
%TD*%
D77*
%TO.C,U1*%
X111667500Y-40550000D03*
X111667500Y-39600000D03*
X111667500Y-38650000D03*
X109392500Y-38650000D03*
X109392500Y-39600000D03*
X109392500Y-40550000D03*
%TD*%
D34*
%TO.C,R22*%
X121020000Y-30740000D03*
X122040000Y-30740000D03*
%TD*%
D17*
%TO.C,C9*%
X78170000Y-42490000D03*
X79130000Y-42490000D03*
%TD*%
D78*
%TO.C,J5*%
X116740000Y-69230000D03*
D79*
X112539999Y-69229999D03*
X108339999Y-69229999D03*
X104139999Y-69229999D03*
X116739999Y-63729999D03*
X112539999Y-63729999D03*
X108339999Y-63729999D03*
X104139999Y-63729999D03*
%TD*%
D38*
%TO.C,R2*%
X88780000Y-42990000D03*
X87760000Y-42990000D03*
%TD*%
D48*
%TO.C,TP6*%
X88140000Y-51920000D03*
%TD*%
D57*
%TO.C,BATTLED1*%
X122045000Y-35740000D03*
X121075000Y-35740000D03*
%TD*%
D16*
%TO.C,R3*%
X81610000Y-39600000D03*
X81610000Y-38580000D03*
%TD*%
D80*
%TO.C,C23*%
X93472500Y-66000000D03*
X85472500Y-66000000D03*
%TD*%
D81*
%TO.C,Q1*%
X109929999Y-46194999D03*
X110729999Y-46194999D03*
D82*
X110329999Y-45044999D03*
%TD*%
D55*
%TO.C,J4*%
X68389999Y-54419999D03*
D56*
X68389999Y-56959999D03*
%TD*%
D19*
%TO.C,C38*%
X97464000Y-44795000D03*
X97464000Y-46345000D03*
%TD*%
D63*
%TO.C,C30*%
X92814000Y-52200000D03*
X94364000Y-52200000D03*
%TD*%
D58*
%TO.C,C8*%
X80340000Y-37720000D03*
X80340000Y-36760000D03*
%TD*%
D61*
%TO.C,C6*%
X79410000Y-40450000D03*
X79410000Y-41410000D03*
%TD*%
D17*
%TO.C,C7*%
X78170000Y-43410000D03*
X79130000Y-43410000D03*
%TD*%
D40*
%TO.C,Q6*%
X96309999Y-36249999D03*
X96309999Y-35599999D03*
X96309999Y-34949999D03*
X96309999Y-34299999D03*
D41*
X93084999Y-34299999D03*
X93084999Y-34949999D03*
X93084999Y-35599999D03*
X93084999Y-36249999D03*
D42*
X94374999Y-35274999D03*
%TD*%
D37*
%TO.C,R1*%
X87060000Y-54230000D03*
X87060000Y-55250000D03*
%TD*%
D83*
%TO.C,C40*%
X97080000Y-40315000D03*
X97080000Y-43265000D03*
%TD*%
D48*
%TO.C,TP1*%
X78130000Y-32180000D03*
%TD*%
D37*
%TO.C,R6*%
X79410000Y-36730000D03*
X79410000Y-37750000D03*
%TD*%
D17*
%TO.C,C11*%
X75740000Y-32830000D03*
X76700000Y-32830000D03*
%TD*%
D16*
%TO.C,R11*%
X73750000Y-29270000D03*
X73750000Y-28250000D03*
%TD*%
D48*
%TO.C,TP4*%
X74860000Y-49180000D03*
%TD*%
D16*
%TO.C,R31*%
X104540000Y-39010000D03*
X104540000Y-37990000D03*
%TD*%
%TO.C,R34*%
X108950000Y-46160000D03*
X108950000Y-45140000D03*
%TD*%
D60*
%TO.C,C49*%
X88960000Y-57010000D03*
X88000000Y-57010000D03*
%TD*%
D19*
%TO.C,C44*%
X98980000Y-41825000D03*
X98980000Y-43375000D03*
%TD*%
D16*
%TO.C,R8*%
X81120000Y-45310000D03*
X81120000Y-44290000D03*
%TD*%
D57*
%TO.C,CANTXLED1*%
X74575000Y-51660000D03*
X73605000Y-51660000D03*
%TD*%
D39*
%TO.C,U8*%
X92695000Y-38600000D03*
X92695000Y-39550000D03*
X92695000Y-40500000D03*
X94970000Y-40500000D03*
X94970000Y-39550000D03*
X94970000Y-38600000D03*
%TD*%
D84*
%TO.C,D2*%
X77500000Y-69602500D03*
X79400000Y-69602500D03*
X78450000Y-67727500D03*
%TD*%
D61*
%TO.C,C2*%
X80670000Y-38600000D03*
X80670000Y-39560000D03*
%TD*%
D64*
%TO.C,R17*%
X76185000Y-66015000D03*
X77835000Y-66015000D03*
%TD*%
D55*
%TO.C,BOOTJUMPER1*%
X83444999Y-49859999D03*
D56*
X80904999Y-49859999D03*
%TD*%
D16*
%TO.C,R19*%
X73630000Y-53570000D03*
X73630000Y-52550000D03*
%TD*%
D37*
%TO.C,R29*%
X103560000Y-37980000D03*
X103560000Y-39000000D03*
%TD*%
D38*
%TO.C,R25*%
X108034000Y-42796000D03*
X107014000Y-42796000D03*
%TD*%
D61*
%TO.C,C14*%
X79470000Y-44870000D03*
X79470000Y-45830000D03*
%TD*%
%TO.C,C3*%
X79750000Y-38610000D03*
X79750000Y-39570000D03*
%TD*%
D85*
%TO.C,U10*%
X86330000Y-49650000D03*
X87600000Y-49650000D03*
X88870000Y-49650000D03*
X90140000Y-49650000D03*
X90140000Y-44710000D03*
X88870000Y-44710000D03*
X87600000Y-44710000D03*
X86330000Y-44710000D03*
D86*
X88234999Y-47179999D03*
%TD*%
D58*
%TO.C,C13*%
X75710000Y-45720000D03*
X75710000Y-44760000D03*
%TD*%
D63*
%TO.C,C36*%
X92809000Y-49260000D03*
X94359000Y-49260000D03*
%TD*%
D59*
%TO.C,L1*%
X80600000Y-40465000D03*
X80600000Y-41435000D03*
%TD*%
D60*
%TO.C,C54*%
X90600000Y-43000000D03*
X89640000Y-43000000D03*
%TD*%
D62*
%TO.C,H2*%
X70000000Y-26500000D03*
%TD*%
D52*
%TO.C,J9*%
X115169999Y-30559999D03*
D53*
X107970000Y-30560000D03*
D54*
X118319999Y-24559999D03*
X104819999Y-24559999D03*
%TD*%
D62*
%TO.C,H4*%
X123000000Y-69500000D03*
%TD*%
D80*
%TO.C,C24*%
X118832500Y-52340000D03*
X110832500Y-52340000D03*
%TD*%
D87*
%TO.C,L3*%
X96999999Y-52469999D03*
X105899999Y-52469999D03*
%TD*%
D16*
%TO.C,R18*%
X71440000Y-57385000D03*
X71440000Y-56365000D03*
%TD*%
%TO.C,R10*%
X73750000Y-27400000D03*
X73750000Y-26380000D03*
%TD*%
M02*
