M48
INCH
T1C0.0118
T2C0.0157
T3C0.0236
T4C0.0394
T5C0.0472
T6C0.0709
T7C0.1063
T8C0.1260
%
G90
G05
T1
X2.6406Y-1.1415
X2.6406Y-1.3072
X2.6406Y-1.4729
X2.6406Y-1.6386
X2.6406Y-1.8043
X2.6406Y-1.9699
X2.6406Y-2.1356
X2.6406Y-2.467
X2.6406Y-2.6327
X2.7795Y-1.4878
X2.8126Y-2.2831
X2.8174Y-1.6347
X2.8189Y-1.5992
X2.8394Y-2.2425
X2.8449Y-1.4972
X2.8614Y-1.6669
X2.8648Y-0.9339
X2.8669Y-1.713
X2.8677Y-2.3587
X2.8992Y-2.1303
X2.9235Y-2.852
X2.9528Y-1.3756
X2.9528Y-1.7559
X2.9528Y-1.7835
X2.9646Y-1.7323
X2.9665Y-1.2772
X2.9738Y-1.0624
X2.9783Y-1.6421
X2.9843Y-1.6693
X2.9921Y-1.6969
X2.9921Y-1.7244
X2.9941Y-1.376
X3.0004Y-1.7618
X3.0059Y-1.1104
X3.0402Y-1.2925
X3.0551Y-1.8346
X3.0583Y-0.9319
X3.0681Y-2.2338
X3.0705Y-1.9421
X3.0709Y-1.6457
X3.0764Y-1.0839
X3.0827Y-1.8346
X3.0831Y-2.0594
X3.089Y-2.7348
X3.0929Y-1.1382
X3.1071Y-1.8043
X3.1142Y-1.8346
X3.1213Y-2.8457
X3.1346Y-1.4264
X3.1378Y-2.2795
X3.1457Y-1.8346
X3.1579Y-1.5457
X3.1614Y-1.752
X3.1614Y-1.7795
X3.1614Y-1.811
X3.1894Y-1.4472
X3.1895Y-2.7102
X3.1925Y-1.1394
X3.2106Y-1.6591
X3.2518Y-0.9319
X3.2598Y-2.4791
X3.2717Y-2.5984
X3.3184Y-2.8457
X3.3228Y-2.6654
X3.3268Y-2.5315
X3.3819Y-1.6626
X3.3949Y-1.5618
X3.3976Y-2.5315
X3.3976Y-2.6654
X3.4252Y-2.3425
X3.4453Y-0.9319
X3.4606Y-2.5984
X3.4646Y-2.2008
X3.5165Y-2.8457
X3.5531Y-2.6772
X3.5531Y-2.7559
X3.563Y-2.2736
X3.563Y-2.3524
X3.563Y-2.5
X3.5827Y-2.1941
X3.5827Y-2.2165
X3.5831Y-2.0906
X3.5835Y-2.1161
X3.5945Y-1.6575
X3.5945Y-1.6929
X3.6063Y-2.1535
X3.622Y-1.8819
X3.622Y-1.937
X3.622Y-2.0
X3.6319Y-2.4016
X3.6388Y-0.9319
X3.6417Y-2.1417
X3.6417Y-2.2244
X3.6516Y-2.5
X3.6614Y-2.7165
X3.6693Y-2.1417
X3.6693Y-2.2244
X3.689Y-1.5748
X3.6909Y-2.3524
X3.698Y-1.8492
X3.7098Y-1.6236
X3.7132Y-2.8457
X3.7402Y-2.5
X3.748Y-1.7362
X3.75Y-2.1949
X3.75Y-2.3031
X3.75Y-2.4016
X3.7795Y-2.6772
X3.7795Y-2.7559
X3.7913Y-1.4528
X3.7992Y-1.5472
X3.8071Y-1.7362
X3.8071Y-2.4606
X3.8071Y-2.4843
X3.8071Y-2.5079
X3.8091Y-2.2539
X3.8189Y-1.3701
X3.8189Y-1.3976
X3.8189Y-1.4252
X3.8189Y-1.4528
X3.8307Y-1.5472
X3.8307Y-2.5079
X3.8323Y-0.9319
X3.8425Y-2.3661
X3.8425Y-2.3898
X3.8425Y-2.4134
X3.8425Y-2.6457
X3.8425Y-2.6693
X3.8425Y-2.6929
X3.8543Y-2.5079
X3.8622Y-2.5472
X3.8661Y-1.7362
X3.8701Y-2.3661
X3.8701Y-2.3898
X3.8701Y-2.4134
X3.8701Y-2.6457
X3.8701Y-2.6693
X3.8701Y-2.6929
X3.878Y-1.0827
X3.878Y-2.1949
X3.878Y-2.3031
X3.878Y-2.5079
X3.878Y-2.7559
X3.8858Y-1.6102
X3.8858Y-2.5472
X3.8976Y-2.3661
X3.8976Y-2.3898
X3.8976Y-2.4134
X3.8976Y-2.6457
X3.8976Y-2.6693
X3.8976Y-2.6929
X3.9094Y-2.5472
X3.9106Y-2.8457
X3.9134Y-1.6102
X3.9331Y-2.5472
X3.9331Y-2.5709
X3.9331Y-2.5945
X3.9764Y-1.0827
X3.9764Y-2.6772
X3.9764Y-2.7559
X3.9906Y-2.404
X4.0256Y-1.1417
X4.0256Y-1.2598
X4.0748Y-1.0827
X4.0748Y-1.2008
X4.1083Y-2.8457
X4.1339Y-1.1417
X4.1339Y-1.2598
X4.139Y-1.6061
X4.1929Y-1.0827
X4.2193Y-0.9319
X4.2283Y-1.3189
X4.2283Y-1.3465
X4.2283Y-1.374
X4.2283Y-1.4016
X4.2441Y-1.7205
X4.2559Y-1.3189
X4.2642Y-1.7776
X4.2677Y-2.0374
X4.2677Y-2.0846
X4.2913Y-1.0827
X4.2941Y-1.4996
X4.3051Y-2.8453
X4.315Y-1.3543
X4.315Y-1.3858
X4.315Y-1.4173
X4.315Y-1.9921
X4.315Y-2.126
X4.3465Y-1.3543
X4.3465Y-1.3858
X4.3465Y-1.4173
X4.3622Y-1.9921
X4.3622Y-2.126
X4.3937Y-2.3465
X4.3961Y-1.5
X4.4094Y-1.1417
X4.4094Y-1.2205
X4.4094Y-1.9921
X4.4094Y-2.126
X4.4128Y-0.9331
X4.4177Y-1.6272
X4.4409Y-1.3228
X4.4409Y-1.3858
X4.4528Y-2.2283
X4.472Y-1.477
X4.4724Y-1.4535
X4.4724Y-1.5
X4.4882Y-1.0827
X4.4961Y-1.5
X4.5029Y-2.8441
X4.5039Y-1.3543
X4.5039Y-1.378
X4.5039Y-1.4016
X4.5039Y-1.6339
X4.5039Y-1.6575
X4.5039Y-1.6811
X4.5079Y-1.2992
X4.5079Y-1.7717
X4.5118Y-2.3465
X4.5197Y-1.5
X4.5236Y-1.5394
X4.5335Y-1.6337
X4.5354Y-1.3543
X4.5354Y-1.378
X4.5354Y-1.4016
X4.5354Y-1.6575
X4.5354Y-1.6811
X4.5433Y-1.5
X4.5472Y-1.5394
X4.563Y-1.6339
X4.563Y-1.6575
X4.563Y-1.6811
X4.5669Y-1.3543
X4.5669Y-1.378
X4.5669Y-1.4016
X4.5669Y-1.8898
X4.5709Y-1.5394
X4.5709Y-2.2283
X4.572Y-1.4339
X4.5827Y-2.0382
X4.5827Y-2.0776
X4.5866Y-1.0827
X4.5866Y-1.2992
X4.5945Y-1.5394
X4.5945Y-1.563
X4.5945Y-1.5866
X4.6063Y-0.9331
X4.626Y-1.7717
X4.6299Y-2.3465
X4.6535Y-1.9949
X4.6535Y-2.126
X4.6654Y-1.1417
X4.6654Y-1.2205
X4.6654Y-1.2992
X4.6654Y-1.3661
X4.6654Y-1.4331
X4.685Y-1.6535
X4.685Y-1.8898
X4.7008Y-2.8441
X4.7165Y-1.9961
X4.7165Y-2.126
X4.7209Y-1.5705
X4.724Y-1.4807
X4.7441Y-1.7717
X4.765Y-1.1472
X4.7732Y-2.0382
X4.7732Y-2.0776
X4.8287Y-1.5846
X4.8295Y-1.4969
X4.8315Y-1.2098
X4.8315Y-1.4063
X4.8917Y-1.6732
X4.8925Y-1.7496
X4.9528Y-1.1273
X4.9528Y-1.293
X4.9528Y-1.4587
X4.9528Y-1.6243
X4.9528Y-1.79
X4.9528Y-1.9557
X4.9528Y-2.1214
X4.9528Y-2.2871
X4.9528Y-2.4528
X4.9528Y-2.6184
T2
X2.8937Y-1.4134
X2.8937Y-1.4606
X2.8937Y-1.5059
X2.9429Y-1.5059
X2.9449Y-1.4134
X2.9449Y-1.4606
X3.0Y-1.4134
X3.0Y-1.4606
X3.002Y-1.5059
X3.2276Y-1.574
X3.4961Y-1.6535
X4.0083Y-1.6508
X4.0211Y-1.7079
X4.0628Y-1.7081
X4.088Y-1.6528
X4.1787Y-1.8264
T4
X2.6909Y-1.4252
X2.6909Y-1.5252
X2.6909Y-1.6252
X2.6909Y-1.7252
X2.6925Y-2.1425
X2.6925Y-2.2425
X2.6925Y-2.3854
X2.6925Y-2.4854
X2.9492Y-2.6992
X2.9492Y-2.7992
X3.1852Y-1.963
X3.2852Y-1.963
X3.2854Y-1.7201
X3.2854Y-1.8201
T5
X2.7996Y-1.8841
X2.7996Y-1.9825
T6
X4.1Y-2.5091
X4.1Y-2.7256
X4.2654Y-2.5091
X4.2654Y-2.7256
X4.4307Y-2.5091
X4.4307Y-2.7256
X4.5961Y-2.5091
X4.5961Y-2.7256
T7
X3.6205Y-1.2035
X3.9039Y-1.2035
X4.2508Y-1.2031
X4.5343Y-1.2031
T8
X2.7559Y-1.0433
X2.7559Y-2.7362
X4.8425Y-1.0433
X4.8425Y-2.7362
T3
G00X2.9728Y-0.9787
M15
G01X2.9728Y-1.0102
M16
G05
G00X2.9728Y-1.137
M15
G01X2.9728Y-1.1803
M16
G05
G00X3.313Y-0.9787
M15
G01X3.313Y-1.0102
M16
G05
G00X3.313Y-1.137
M15
G01X3.313Y-1.1803
M16
G05
G00X3.4965Y-0.9457
M15
G01X3.4965Y-0.989
M16
G05
G00X4.028Y-0.9457
M15
G01X4.028Y-0.989
M16
G05
G00X4.1268Y-0.9453
M15
G01X4.1268Y-0.9886
M16
G05
G00X4.6583Y-0.9453
M15
G01X4.6583Y-0.9886
M16
G05
T0
M30
