%TF.GenerationSoftware,KiCad,Pcbnew,(7.0.0)*%
%TF.CreationDate,2023-09-07T01:40:49+01:00*%
%TF.ProjectId,PDU,5044552e-6b69-4636-9164-5f7063625858,rev?*%
%TF.SameCoordinates,Original*%
%TF.FileFunction,Paste,Top*%
%TF.FilePolarity,Positive*%
%FSLAX46Y46*%
G04 Gerber Fmt 4.6, Leading zero omitted, Abs format (unit mm)*
G04 Created by KiCad (PCBNEW (7.0.0)) date 2023-09-07 01:40:49*
%MOMM*%
%LPD*%
G01*
G04 APERTURE LIST*
G04 Aperture macros list*
%AMRoundRect*
0 Rectangle with rounded corners*
0 $1 Rounding radius*
0 $2 $3 $4 $5 $6 $7 $8 $9 X,Y pos of 4 corners*
0 Add a 4 corners polygon primitive as box body*
4,1,4,$2,$3,$4,$5,$6,$7,$8,$9,$2,$3,0*
0 Add four circle primitives for the rounded corners*
1,1,$1+$1,$2,$3*
1,1,$1+$1,$4,$5*
1,1,$1+$1,$6,$7*
1,1,$1+$1,$8,$9*
0 Add four rect primitives between the rounded corners*
20,1,$1+$1,$2,$3,$4,$5,0*
20,1,$1+$1,$4,$5,$6,$7,0*
20,1,$1+$1,$6,$7,$8,$9,0*
20,1,$1+$1,$8,$9,$2,$3,0*%
G04 Aperture macros list end*
%ADD10C,0.010000*%
%ADD11RoundRect,0.135000X0.185000X-0.135000X0.185000X0.135000X-0.185000X0.135000X-0.185000X-0.135000X0*%
%ADD12RoundRect,0.140000X-0.140000X-0.170000X0.140000X-0.170000X0.140000X0.170000X-0.140000X0.170000X0*%
%ADD13RoundRect,0.225000X0.225000X0.250000X-0.225000X0.250000X-0.225000X-0.250000X0.225000X-0.250000X0*%
%ADD14RoundRect,0.225000X-0.250000X0.225000X-0.250000X-0.225000X0.250000X-0.225000X0.250000X0.225000X0*%
%ADD15R,0.550000X0.300000*%
%ADD16R,0.300000X0.450000*%
%ADD17R,0.300000X0.725000*%
%ADD18R,0.725000X0.300000*%
%ADD19R,1.575000X1.050000*%
%ADD20R,1.150000X1.050000*%
%ADD21R,2.175000X1.200000*%
%ADD22R,0.580000X0.380000*%
%ADD23R,0.650000X0.455000*%
%ADD24R,2.350000X0.275000*%
%ADD25R,0.405000X0.990000*%
%ADD26R,0.405000X0.510000*%
%ADD27R,2.235000X1.725000*%
%ADD28R,0.077000X0.250000*%
%ADD29RoundRect,0.135000X-0.135000X-0.185000X0.135000X-0.185000X0.135000X0.185000X-0.135000X0.185000X0*%
%ADD30R,0.700000X1.000000*%
%ADD31R,0.700000X0.600000*%
%ADD32RoundRect,0.135000X-0.185000X0.135000X-0.185000X-0.135000X0.185000X-0.135000X0.185000X0.135000X0*%
%ADD33RoundRect,0.135000X0.135000X0.185000X-0.135000X0.185000X-0.135000X-0.185000X0.135000X-0.185000X0*%
%ADD34RoundRect,0.150000X-0.512500X-0.150000X0.512500X-0.150000X0.512500X0.150000X-0.512500X0.150000X0*%
%ADD35R,0.600000X0.400000*%
%ADD36R,0.550000X0.400000*%
%ADD37R,2.030000X2.650000*%
%ADD38R,0.600000X1.160000*%
%ADD39R,0.300000X1.160000*%
%ADD40RoundRect,0.150000X-0.150000X0.825000X-0.150000X-0.825000X0.150000X-0.825000X0.150000X0.825000X0*%
%ADD41RoundRect,0.147500X0.147500X0.172500X-0.147500X0.172500X-0.147500X-0.172500X0.147500X-0.172500X0*%
%ADD42RoundRect,0.140000X0.170000X-0.140000X0.170000X0.140000X-0.170000X0.140000X-0.170000X-0.140000X0*%
%ADD43RoundRect,0.147500X-0.172500X0.147500X-0.172500X-0.147500X0.172500X-0.147500X0.172500X0.147500X0*%
%ADD44RoundRect,0.140000X0.140000X0.170000X-0.140000X0.170000X-0.140000X-0.170000X0.140000X-0.170000X0*%
%ADD45RoundRect,0.140000X-0.170000X0.140000X-0.170000X-0.140000X0.170000X-0.140000X0.170000X0.140000X0*%
%ADD46RoundRect,0.225000X-0.225000X-0.250000X0.225000X-0.250000X0.225000X0.250000X-0.225000X0.250000X0*%
%ADD47RoundRect,0.200000X-0.200000X-0.275000X0.200000X-0.275000X0.200000X0.275000X-0.200000X0.275000X0*%
%ADD48RoundRect,0.218750X0.381250X-0.218750X0.381250X0.218750X-0.381250X0.218750X-0.381250X-0.218750X0*%
%ADD49RoundRect,0.200000X0.275000X-0.200000X0.275000X0.200000X-0.275000X0.200000X-0.275000X-0.200000X0*%
%ADD50RoundRect,0.147500X0.172500X-0.147500X0.172500X0.147500X-0.172500X0.147500X-0.172500X-0.147500X0*%
%ADD51RoundRect,0.006600X0.398400X0.103400X-0.398400X0.103400X-0.398400X-0.103400X0.398400X-0.103400X0*%
%ADD52RoundRect,0.022000X0.088000X0.383000X-0.088000X0.383000X-0.088000X-0.383000X0.088000X-0.383000X0*%
%ADD53RoundRect,0.147500X-0.147500X-0.172500X0.147500X-0.172500X0.147500X0.172500X-0.147500X0.172500X0*%
%ADD54R,0.900000X0.800000*%
%ADD55RoundRect,0.150000X0.512500X0.150000X-0.512500X0.150000X-0.512500X-0.150000X0.512500X-0.150000X0*%
%ADD56RoundRect,0.250000X1.750000X1.000000X-1.750000X1.000000X-1.750000X-1.000000X1.750000X-1.000000X0*%
%ADD57R,0.400000X0.450000*%
%ADD58R,0.500000X0.450000*%
%ADD59RoundRect,0.250000X-0.650000X0.325000X-0.650000X-0.325000X0.650000X-0.325000X0.650000X0.325000X0*%
%ADD60RoundRect,0.150000X0.150000X-0.587500X0.150000X0.587500X-0.150000X0.587500X-0.150000X-0.587500X0*%
%ADD61RoundRect,0.042000X0.258000X-0.943000X0.258000X0.943000X-0.258000X0.943000X-0.258000X-0.943000X0*%
%ADD62R,3.350000X4.700000*%
G04 APERTURE END LIST*
%TO.C,U2*%
G36*
X76355000Y-38915000D02*
G01*
X75085000Y-38915000D01*
X75085000Y-37645000D01*
X76355000Y-37645000D01*
X76355000Y-38915000D01*
G37*
D10*
X76355000Y-38915000D02*
X75085000Y-38915000D01*
X75085000Y-37645000D01*
X76355000Y-37645000D01*
X76355000Y-38915000D01*
G36*
X76355000Y-37155000D02*
G01*
X75085000Y-37155000D01*
X75085000Y-35885000D01*
X76355000Y-35885000D01*
X76355000Y-37155000D01*
G37*
X76355000Y-37155000D02*
X75085000Y-37155000D01*
X75085000Y-35885000D01*
X76355000Y-35885000D01*
X76355000Y-37155000D01*
G36*
X74595000Y-38915000D02*
G01*
X73325000Y-38915000D01*
X73325000Y-37645000D01*
X74595000Y-37645000D01*
X74595000Y-38915000D01*
G37*
X74595000Y-38915000D02*
X73325000Y-38915000D01*
X73325000Y-37645000D01*
X74595000Y-37645000D01*
X74595000Y-38915000D01*
G36*
X74595000Y-37155000D02*
G01*
X73325000Y-37155000D01*
X73325000Y-35885000D01*
X74595000Y-35885000D01*
X74595000Y-37155000D01*
G37*
X74595000Y-37155000D02*
X73325000Y-37155000D01*
X73325000Y-35885000D01*
X74595000Y-35885000D01*
X74595000Y-37155000D01*
%TO.C,U4*%
G36*
X88435000Y-54870000D02*
G01*
X87810000Y-54870000D01*
X87810000Y-54570000D01*
X88435000Y-54570000D01*
X88435000Y-54870000D01*
G37*
X88435000Y-54870000D02*
X87810000Y-54870000D01*
X87810000Y-54570000D01*
X88435000Y-54570000D01*
X88435000Y-54870000D01*
G36*
X88435000Y-55370000D02*
G01*
X87810000Y-55370000D01*
X87810000Y-55070000D01*
X88435000Y-55070000D01*
X88435000Y-55370000D01*
G37*
X88435000Y-55370000D02*
X87810000Y-55370000D01*
X87810000Y-55070000D01*
X88435000Y-55070000D01*
X88435000Y-55370000D01*
G36*
X88760000Y-53795000D02*
G01*
X88460000Y-53795000D01*
X88460000Y-53170000D01*
X88760000Y-53170000D01*
X88760000Y-53795000D01*
G37*
X88760000Y-53795000D02*
X88460000Y-53795000D01*
X88460000Y-53170000D01*
X88760000Y-53170000D01*
X88760000Y-53795000D01*
G36*
X88760000Y-56270000D02*
G01*
X88460000Y-56270000D01*
X88460000Y-55645000D01*
X88760000Y-55645000D01*
X88760000Y-56270000D01*
G37*
X88760000Y-56270000D02*
X88460000Y-56270000D01*
X88460000Y-55645000D01*
X88760000Y-55645000D01*
X88760000Y-56270000D01*
G36*
X89260000Y-53795000D02*
G01*
X88960000Y-53795000D01*
X88960000Y-53170000D01*
X89260000Y-53170000D01*
X89260000Y-53795000D01*
G37*
X89260000Y-53795000D02*
X88960000Y-53795000D01*
X88960000Y-53170000D01*
X89260000Y-53170000D01*
X89260000Y-53795000D01*
G36*
X89260000Y-56270000D02*
G01*
X88960000Y-56270000D01*
X88960000Y-55645000D01*
X89260000Y-55645000D01*
X89260000Y-56270000D01*
G37*
X89260000Y-56270000D02*
X88960000Y-56270000D01*
X88960000Y-55645000D01*
X89260000Y-55645000D01*
X89260000Y-56270000D01*
G36*
X90910000Y-54895000D02*
G01*
X90285000Y-54895000D01*
X90285000Y-54545000D01*
X90910000Y-54545000D01*
X90910000Y-54895000D01*
G37*
X90910000Y-54895000D02*
X90285000Y-54895000D01*
X90285000Y-54545000D01*
X90910000Y-54545000D01*
X90910000Y-54895000D01*
G36*
X88435000Y-54205000D02*
G01*
X88435000Y-54370000D01*
X87810000Y-54370000D01*
X87810000Y-54070000D01*
X88300000Y-54070000D01*
X88435000Y-54205000D01*
G37*
X88435000Y-54205000D02*
X88435000Y-54370000D01*
X87810000Y-54370000D01*
X87810000Y-54070000D01*
X88300000Y-54070000D01*
X88435000Y-54205000D01*
G36*
X90260000Y-53737000D02*
G01*
X90159000Y-53795000D01*
X89460000Y-53795000D01*
X89460000Y-53170000D01*
X90260000Y-53170000D01*
X90260000Y-53737000D01*
G37*
X90260000Y-53737000D02*
X90159000Y-53795000D01*
X89460000Y-53795000D01*
X89460000Y-53170000D01*
X90260000Y-53170000D01*
X90260000Y-53737000D01*
G36*
X90260000Y-55703000D02*
G01*
X90260000Y-56270000D01*
X89460000Y-56270000D01*
X89460000Y-55645000D01*
X90159000Y-55645000D01*
X90260000Y-55703000D01*
G37*
X90260000Y-55703000D02*
X90260000Y-56270000D01*
X89460000Y-56270000D01*
X89460000Y-55645000D01*
X90159000Y-55645000D01*
X90260000Y-55703000D01*
G36*
X90910000Y-54245000D02*
G01*
X90285000Y-54245000D01*
X90285000Y-53953000D01*
X90386000Y-53895000D01*
X90910000Y-53895000D01*
X90910000Y-54245000D01*
G37*
X90910000Y-54245000D02*
X90285000Y-54245000D01*
X90285000Y-53953000D01*
X90386000Y-53895000D01*
X90910000Y-53895000D01*
X90910000Y-54245000D01*
G36*
X90910000Y-55545000D02*
G01*
X90386000Y-55545000D01*
X90285000Y-55487000D01*
X90285000Y-55195000D01*
X90910000Y-55195000D01*
X90910000Y-55545000D01*
G37*
X90910000Y-55545000D02*
X90386000Y-55545000D01*
X90285000Y-55487000D01*
X90285000Y-55195000D01*
X90910000Y-55195000D01*
X90910000Y-55545000D01*
%TO.C,U10*%
G36*
X88936976Y-47881976D02*
G01*
X87535000Y-47881976D01*
X87535000Y-46480000D01*
X88936976Y-46480000D01*
X88936976Y-47881976D01*
G37*
X88936976Y-47881976D02*
X87535000Y-47881976D01*
X87535000Y-46480000D01*
X88936976Y-46480000D01*
X88936976Y-47881976D01*
%TD*%
D11*
%TO.C,R23*%
X75352980Y-63840000D03*
X75352980Y-62820000D03*
%TD*%
D12*
%TO.C,C18*%
X78358980Y-57388000D03*
X79318980Y-57388000D03*
%TD*%
D13*
%TO.C,C17*%
X94369000Y-47800000D03*
X92819000Y-47800000D03*
%TD*%
D14*
%TO.C,C34*%
X98974000Y-44805000D03*
X98974000Y-46355000D03*
%TD*%
D15*
%TO.C,IC2*%
X101263999Y-41905999D03*
X101263999Y-42355999D03*
X101263999Y-43255999D03*
X101263999Y-43705999D03*
D16*
X101813999Y-44805999D03*
X102263999Y-44805999D03*
X102713999Y-44805999D03*
X103413999Y-44805999D03*
X103863999Y-44805999D03*
D17*
X104313999Y-44668999D03*
D18*
X105225999Y-44155999D03*
X105225999Y-43705999D03*
X105225999Y-43255999D03*
X105225999Y-42805999D03*
X105225999Y-42355999D03*
X105225999Y-41905999D03*
X105225999Y-41455999D03*
D17*
X104763999Y-40793999D03*
X104313999Y-40793999D03*
X103863999Y-40793999D03*
X103413999Y-40793999D03*
X102713999Y-40793999D03*
X102263999Y-40793999D03*
X101813999Y-40793999D03*
D19*
X103775999Y-41980999D03*
D20*
X102113999Y-41980999D03*
D21*
X102625999Y-43405999D03*
D22*
X104273999Y-43720999D03*
D23*
X104038999Y-43033999D03*
D24*
X102838999Y-44443999D03*
%TD*%
D25*
%TO.C,Q8*%
X99329999Y-65719999D03*
X98669999Y-65719999D03*
X98009999Y-65719999D03*
X97349999Y-65719999D03*
D26*
X97349999Y-68829999D03*
X98009999Y-68829999D03*
X98669999Y-68829999D03*
X99329999Y-68829999D03*
D27*
X98339999Y-67711999D03*
D28*
X97183999Y-68449999D03*
X99495999Y-68449999D03*
%TD*%
D25*
%TO.C,Q10*%
X116139999Y-40059999D03*
X115479999Y-40059999D03*
X114819999Y-40059999D03*
X114159999Y-40059999D03*
D26*
X114159999Y-43169999D03*
X114819999Y-43169999D03*
X115479999Y-43169999D03*
X116139999Y-43169999D03*
D27*
X115149999Y-42051999D03*
D28*
X113993999Y-42789999D03*
X116305999Y-42789999D03*
%TD*%
D29*
%TO.C,R32*%
X122560000Y-44430000D03*
X123580000Y-44430000D03*
%TD*%
D30*
%TO.C,D1*%
X71629999Y-30829999D03*
D31*
X71629999Y-32529999D03*
X73629999Y-32529999D03*
X73629999Y-30629999D03*
%TD*%
D32*
%TO.C,R21*%
X107130000Y-39800000D03*
X107130000Y-40820000D03*
%TD*%
D33*
%TO.C,R20*%
X107190000Y-38885000D03*
X106170000Y-38885000D03*
%TD*%
D34*
%TO.C,U7*%
X109392500Y-42060000D03*
X109392500Y-43010000D03*
X109392500Y-43960000D03*
X111667500Y-43960000D03*
X111667500Y-43010000D03*
X111667500Y-42060000D03*
%TD*%
D29*
%TO.C,R14*%
X120010000Y-29800000D03*
X121030000Y-29800000D03*
%TD*%
D35*
%TO.C,Q5*%
X108084999Y-34299999D03*
X108084999Y-34949999D03*
X108084999Y-35599999D03*
X108084999Y-36249999D03*
D36*
X111309999Y-36249999D03*
X111309999Y-35599999D03*
X111309999Y-34949999D03*
X111309999Y-34299999D03*
D37*
X110019999Y-35274999D03*
%TD*%
D38*
%TO.C,J3*%
X83029999Y-30009999D03*
X82229999Y-30009999D03*
D39*
X81079999Y-30009999D03*
X80079999Y-30009999D03*
X79579999Y-30009999D03*
X78579999Y-30009999D03*
D38*
X77429999Y-30009999D03*
X76629999Y-30009999D03*
X76629999Y-30009999D03*
X77429999Y-30009999D03*
D39*
X78079999Y-30009999D03*
X79079999Y-30009999D03*
X80579999Y-30009999D03*
X81579999Y-30009999D03*
D38*
X82229999Y-30009999D03*
X83029999Y-30009999D03*
%TD*%
D33*
%TO.C,R33*%
X121010000Y-39300000D03*
X119990000Y-39300000D03*
%TD*%
D12*
%TO.C,C4*%
X82520000Y-39550000D03*
X83480000Y-39550000D03*
%TD*%
D40*
%TO.C,U5*%
X80452980Y-59080000D03*
X79182980Y-59080000D03*
X77912980Y-59080000D03*
X76642980Y-59080000D03*
X76642980Y-64030000D03*
X77912980Y-64030000D03*
X79182980Y-64030000D03*
X80452980Y-64030000D03*
%TD*%
D29*
%TO.C,R9*%
X119990000Y-34790000D03*
X121010000Y-34790000D03*
%TD*%
D33*
%TO.C,R7*%
X121010000Y-37060000D03*
X119990000Y-37060000D03*
%TD*%
D25*
%TO.C,Q9*%
X114149999Y-37064999D03*
X114809999Y-37064999D03*
X115469999Y-37064999D03*
X116129999Y-37064999D03*
D26*
X116129999Y-33954999D03*
X115469999Y-33954999D03*
X114809999Y-33954999D03*
X114149999Y-33954999D03*
D27*
X115139999Y-35072999D03*
D28*
X116295999Y-34334999D03*
X113983999Y-34334999D03*
%TD*%
D14*
%TO.C,C25*%
X95974000Y-44805000D03*
X95974000Y-46355000D03*
%TD*%
D41*
%TO.C,LOGICLED1*%
X121995000Y-40250000D03*
X121025000Y-40250000D03*
%TD*%
D42*
%TO.C,C42*%
X102234000Y-38946000D03*
X102234000Y-37986000D03*
%TD*%
D43*
%TO.C,L2*%
X77270000Y-42445000D03*
X77270000Y-43415000D03*
%TD*%
D44*
%TO.C,C53*%
X90590000Y-42070000D03*
X89630000Y-42070000D03*
%TD*%
D45*
%TO.C,C10*%
X73150000Y-42070000D03*
X73150000Y-43030000D03*
%TD*%
D33*
%TO.C,R26*%
X88680000Y-59490000D03*
X87660000Y-59490000D03*
%TD*%
D44*
%TO.C,C51*%
X86690000Y-52280000D03*
X85730000Y-52280000D03*
%TD*%
D11*
%TO.C,R35*%
X111710000Y-46150000D03*
X111710000Y-45130000D03*
%TD*%
D46*
%TO.C,C50*%
X89850000Y-52190000D03*
X91400000Y-52190000D03*
%TD*%
D45*
%TO.C,C5*%
X81530000Y-40470000D03*
X81530000Y-41430000D03*
%TD*%
D41*
%TO.C,DEPLED1*%
X123535000Y-42510000D03*
X122565000Y-42510000D03*
%TD*%
D44*
%TO.C,C12*%
X80960000Y-43410000D03*
X80000000Y-43410000D03*
%TD*%
D45*
%TO.C,C20*%
X81002980Y-67180000D03*
X81002980Y-68140000D03*
%TD*%
D47*
%TO.C,R16*%
X79155000Y-66005000D03*
X80805000Y-66005000D03*
%TD*%
D48*
%TO.C,L5*%
X92820000Y-55752500D03*
X92820000Y-53627500D03*
%TD*%
D44*
%TO.C,C52*%
X86700000Y-51360000D03*
X85740000Y-51360000D03*
%TD*%
D11*
%TO.C,R30*%
X101284000Y-38996000D03*
X101284000Y-37976000D03*
%TD*%
D29*
%TO.C,R27*%
X121520000Y-41560000D03*
X122540000Y-41560000D03*
%TD*%
D33*
%TO.C,R36*%
X78320000Y-51660000D03*
X77300000Y-51660000D03*
%TD*%
D49*
%TO.C,R15*%
X81982980Y-64610000D03*
X81982980Y-62960000D03*
%TD*%
D33*
%TO.C,R13*%
X86910000Y-42990000D03*
X85890000Y-42990000D03*
%TD*%
D34*
%TO.C,U6*%
X101812500Y-58710000D03*
X101812500Y-59660000D03*
X101812500Y-60610000D03*
X104087500Y-60610000D03*
X104087500Y-59660000D03*
X104087500Y-58710000D03*
%TD*%
D11*
%TO.C,R4*%
X73820000Y-45450000D03*
X73820000Y-44430000D03*
%TD*%
D50*
%TO.C,USBLED1*%
X86650000Y-37990000D03*
X86650000Y-37020000D03*
%TD*%
D44*
%TO.C,C19*%
X77498980Y-57388000D03*
X76538980Y-57388000D03*
%TD*%
D51*
%TO.C,U2*%
X78285000Y-40000000D03*
X78285000Y-39600000D03*
X78285000Y-39200000D03*
X78285000Y-38800000D03*
X78285000Y-38400000D03*
X78285000Y-38000000D03*
X78285000Y-37600000D03*
X78285000Y-37200000D03*
X78285000Y-36800000D03*
X78285000Y-36400000D03*
X78285000Y-36000000D03*
X78285000Y-35600000D03*
X78285000Y-35200000D03*
X78285000Y-34800000D03*
D52*
X77440000Y-33955000D03*
X77040000Y-33955000D03*
X76640000Y-33955000D03*
X76240000Y-33955000D03*
X75840000Y-33955000D03*
X75440000Y-33955000D03*
X75040000Y-33955000D03*
X74640000Y-33955000D03*
X74240000Y-33955000D03*
X73840000Y-33955000D03*
X73440000Y-33955000D03*
X73040000Y-33955000D03*
X72640000Y-33955000D03*
X72240000Y-33955000D03*
D51*
X71395000Y-34800000D03*
X71395000Y-35200000D03*
X71395000Y-35600000D03*
X71395000Y-36000000D03*
X71395000Y-36400000D03*
X71395000Y-36800000D03*
X71395000Y-37200000D03*
X71395000Y-37600000D03*
X71395000Y-38000000D03*
X71395000Y-38400000D03*
X71395000Y-38800000D03*
X71395000Y-39200000D03*
X71395000Y-39600000D03*
X71395000Y-40000000D03*
D52*
X72240000Y-40845000D03*
X72640000Y-40845000D03*
X73040000Y-40845000D03*
X73440000Y-40845000D03*
X73840000Y-40845000D03*
X74240000Y-40845000D03*
X74640000Y-40845000D03*
X75040000Y-40845000D03*
X75440000Y-40845000D03*
X75840000Y-40845000D03*
X76240000Y-40845000D03*
X76640000Y-40845000D03*
X77040000Y-40845000D03*
X77440000Y-40845000D03*
%TD*%
D41*
%TO.C,3V3LED1*%
X121995000Y-38000000D03*
X121025000Y-38000000D03*
%TD*%
D14*
%TO.C,C15*%
X94484000Y-44795000D03*
X94484000Y-46345000D03*
%TD*%
D25*
%TO.C,Q7*%
X97349999Y-62729999D03*
X98009999Y-62729999D03*
X98669999Y-62729999D03*
X99329999Y-62729999D03*
D26*
X99329999Y-59619999D03*
X98669999Y-59619999D03*
X98009999Y-59619999D03*
X97349999Y-59619999D03*
D27*
X98339999Y-60737999D03*
D28*
X99495999Y-59999999D03*
X97183999Y-59999999D03*
%TD*%
D32*
%TO.C,R5*%
X77280000Y-49220000D03*
X77280000Y-50240000D03*
%TD*%
D53*
%TO.C,CANRXLED1*%
X75465000Y-51660000D03*
X76435000Y-51660000D03*
%TD*%
D54*
%TO.C,Y1*%
X78269999Y-44629999D03*
X76869999Y-44629999D03*
X76869999Y-45729999D03*
X78269999Y-45729999D03*
%TD*%
D12*
%TO.C,C1*%
X82430000Y-40490000D03*
X83390000Y-40490000D03*
%TD*%
%TO.C,C46*%
X107024000Y-41706000D03*
X107984000Y-41706000D03*
%TD*%
D29*
%TO.C,R28*%
X121500000Y-43470000D03*
X122520000Y-43470000D03*
%TD*%
D46*
%TO.C,C32*%
X92814000Y-50740000D03*
X94364000Y-50740000D03*
%TD*%
D32*
%TO.C,R12*%
X87590000Y-36000000D03*
X87590000Y-37020000D03*
%TD*%
D43*
%TO.C,TXLED1*%
X76330000Y-49245000D03*
X76330000Y-50215000D03*
%TD*%
D42*
%TO.C,C47*%
X107054000Y-44656000D03*
X107054000Y-43696000D03*
%TD*%
D33*
%TO.C,R24*%
X89720000Y-58540000D03*
X88700000Y-58540000D03*
%TD*%
D55*
%TO.C,U1*%
X111667500Y-40550000D03*
X111667500Y-39600000D03*
X111667500Y-38650000D03*
X109392500Y-38650000D03*
X109392500Y-39600000D03*
X109392500Y-40550000D03*
%TD*%
D29*
%TO.C,R22*%
X121020000Y-30740000D03*
X122040000Y-30740000D03*
%TD*%
D12*
%TO.C,C9*%
X78170000Y-42490000D03*
X79130000Y-42490000D03*
%TD*%
D33*
%TO.C,R2*%
X88780000Y-42990000D03*
X87760000Y-42990000D03*
%TD*%
D41*
%TO.C,BATTLED1*%
X122045000Y-35740000D03*
X121075000Y-35740000D03*
%TD*%
D11*
%TO.C,R3*%
X81610000Y-39600000D03*
X81610000Y-38580000D03*
%TD*%
D56*
%TO.C,C23*%
X93472500Y-66000000D03*
X85472500Y-66000000D03*
%TD*%
D57*
%TO.C,Q1*%
X109929999Y-46194999D03*
X110729999Y-46194999D03*
D58*
X110329999Y-45044999D03*
%TD*%
D14*
%TO.C,C38*%
X97464000Y-44795000D03*
X97464000Y-46345000D03*
%TD*%
D46*
%TO.C,C30*%
X92814000Y-52200000D03*
X94364000Y-52200000D03*
%TD*%
D42*
%TO.C,C8*%
X80340000Y-37720000D03*
X80340000Y-36760000D03*
%TD*%
D45*
%TO.C,C6*%
X79410000Y-40450000D03*
X79410000Y-41410000D03*
%TD*%
D12*
%TO.C,C7*%
X78170000Y-43410000D03*
X79130000Y-43410000D03*
%TD*%
D35*
%TO.C,Q6*%
X96309999Y-36249999D03*
X96309999Y-35599999D03*
X96309999Y-34949999D03*
X96309999Y-34299999D03*
D36*
X93084999Y-34299999D03*
X93084999Y-34949999D03*
X93084999Y-35599999D03*
X93084999Y-36249999D03*
D37*
X94374999Y-35274999D03*
%TD*%
D32*
%TO.C,R1*%
X87060000Y-54230000D03*
X87060000Y-55250000D03*
%TD*%
D59*
%TO.C,C40*%
X97080000Y-40315000D03*
X97080000Y-43265000D03*
%TD*%
D32*
%TO.C,R6*%
X79410000Y-36730000D03*
X79410000Y-37750000D03*
%TD*%
D12*
%TO.C,C11*%
X75740000Y-32830000D03*
X76700000Y-32830000D03*
%TD*%
D11*
%TO.C,R11*%
X73750000Y-29270000D03*
X73750000Y-28250000D03*
%TD*%
%TO.C,R31*%
X104540000Y-39010000D03*
X104540000Y-37990000D03*
%TD*%
%TO.C,R34*%
X108950000Y-46160000D03*
X108950000Y-45140000D03*
%TD*%
D44*
%TO.C,C49*%
X88960000Y-57010000D03*
X88000000Y-57010000D03*
%TD*%
D14*
%TO.C,C44*%
X98980000Y-41825000D03*
X98980000Y-43375000D03*
%TD*%
D11*
%TO.C,R8*%
X81120000Y-45310000D03*
X81120000Y-44290000D03*
%TD*%
D41*
%TO.C,CANTXLED1*%
X74575000Y-51660000D03*
X73605000Y-51660000D03*
%TD*%
D34*
%TO.C,U8*%
X92695000Y-38600000D03*
X92695000Y-39550000D03*
X92695000Y-40500000D03*
X94970000Y-40500000D03*
X94970000Y-39550000D03*
X94970000Y-38600000D03*
%TD*%
D60*
%TO.C,D2*%
X77500000Y-69602500D03*
X79400000Y-69602500D03*
X78450000Y-67727500D03*
%TD*%
D45*
%TO.C,C2*%
X80670000Y-38600000D03*
X80670000Y-39560000D03*
%TD*%
D47*
%TO.C,R17*%
X76185000Y-66015000D03*
X77835000Y-66015000D03*
%TD*%
D11*
%TO.C,R19*%
X73630000Y-53570000D03*
X73630000Y-52550000D03*
%TD*%
D32*
%TO.C,R29*%
X103560000Y-37980000D03*
X103560000Y-39000000D03*
%TD*%
D33*
%TO.C,R25*%
X108034000Y-42796000D03*
X107014000Y-42796000D03*
%TD*%
D45*
%TO.C,C14*%
X79470000Y-44870000D03*
X79470000Y-45830000D03*
%TD*%
%TO.C,C3*%
X79750000Y-38610000D03*
X79750000Y-39570000D03*
%TD*%
D61*
%TO.C,U10*%
X86330000Y-49650000D03*
X87600000Y-49650000D03*
X88870000Y-49650000D03*
X90140000Y-49650000D03*
X90140000Y-44710000D03*
X88870000Y-44710000D03*
X87600000Y-44710000D03*
X86330000Y-44710000D03*
%TD*%
D42*
%TO.C,C13*%
X75710000Y-45720000D03*
X75710000Y-44760000D03*
%TD*%
D46*
%TO.C,C36*%
X92809000Y-49260000D03*
X94359000Y-49260000D03*
%TD*%
D43*
%TO.C,L1*%
X80600000Y-40465000D03*
X80600000Y-41435000D03*
%TD*%
D44*
%TO.C,C54*%
X90600000Y-43000000D03*
X89640000Y-43000000D03*
%TD*%
D56*
%TO.C,C24*%
X118832500Y-52340000D03*
X110832500Y-52340000D03*
%TD*%
D62*
%TO.C,L3*%
X96999999Y-52469999D03*
X105899999Y-52469999D03*
%TD*%
D11*
%TO.C,R18*%
X71440000Y-57385000D03*
X71440000Y-56365000D03*
%TD*%
%TO.C,R10*%
X73750000Y-27400000D03*
X73750000Y-26380000D03*
%TD*%
M02*
