%TF.GenerationSoftware,KiCad,Pcbnew,(7.0.0)*%
%TF.CreationDate,2023-09-07T01:40:49+01:00*%
%TF.ProjectId,PDU,5044552e-6b69-4636-9164-5f7063625858,rev?*%
%TF.SameCoordinates,Original*%
%TF.FileFunction,Copper,L4,Bot*%
%TF.FilePolarity,Positive*%
%FSLAX46Y46*%
G04 Gerber Fmt 4.6, Leading zero omitted, Abs format (unit mm)*
G04 Created by KiCad (PCBNEW (7.0.0)) date 2023-09-07 01:40:49*
%MOMM*%
%LPD*%
G01*
G04 APERTURE LIST*
G04 Aperture macros list*
%AMRoundRect*
0 Rectangle with rounded corners*
0 $1 Rounding radius*
0 $2 $3 $4 $5 $6 $7 $8 $9 X,Y pos of 4 corners*
0 Add a 4 corners polygon primitive as box body*
4,1,4,$2,$3,$4,$5,$6,$7,$8,$9,$2,$3,0*
0 Add four circle primitives for the rounded corners*
1,1,$1+$1,$2,$3*
1,1,$1+$1,$4,$5*
1,1,$1+$1,$6,$7*
1,1,$1+$1,$8,$9*
0 Add four rect primitives between the rounded corners*
20,1,$1+$1,$2,$3,$4,$5,0*
20,1,$1+$1,$4,$5,$6,$7,0*
20,1,$1+$1,$6,$7,$8,$9,0*
20,1,$1+$1,$8,$9,$2,$3,0*%
G04 Aperture macros list end*
%TA.AperFunction,SMDPad,CuDef*%
%ADD10RoundRect,0.200000X0.275000X-0.200000X0.275000X0.200000X-0.275000X0.200000X-0.275000X-0.200000X0*%
%TD*%
%TA.AperFunction,SMDPad,CuDef*%
%ADD11RoundRect,0.225000X0.225000X0.250000X-0.225000X0.250000X-0.225000X-0.250000X0.225000X-0.250000X0*%
%TD*%
%TA.AperFunction,ComponentPad*%
%ADD12O,0.900000X2.000000*%
%TD*%
%TA.AperFunction,ComponentPad*%
%ADD13O,0.900000X1.700000*%
%TD*%
%TA.AperFunction,ComponentPad*%
%ADD14RoundRect,0.250000X0.850000X0.600000X-0.850000X0.600000X-0.850000X-0.600000X0.850000X-0.600000X0*%
%TD*%
%TA.AperFunction,ComponentPad*%
%ADD15O,2.200000X1.700000*%
%TD*%
%TA.AperFunction,ComponentPad*%
%ADD16R,3.716000X3.716000*%
%TD*%
%TA.AperFunction,ComponentPad*%
%ADD17C,3.716000*%
%TD*%
%TA.AperFunction,ComponentPad*%
%ADD18O,1.200000X2.400000*%
%TD*%
%TA.AperFunction,ComponentPad*%
%ADD19R,1.700000X1.700000*%
%TD*%
%TA.AperFunction,ComponentPad*%
%ADD20O,1.700000X1.700000*%
%TD*%
%TA.AperFunction,ComponentPad*%
%ADD21C,5.600000*%
%TD*%
%TA.AperFunction,ComponentPad*%
%ADD22RoundRect,0.250001X1.099999X1.599999X-1.099999X1.599999X-1.099999X-1.599999X1.099999X-1.599999X0*%
%TD*%
%TA.AperFunction,ComponentPad*%
%ADD23O,2.700000X3.700000*%
%TD*%
%TA.AperFunction,ViaPad*%
%ADD24C,0.800000*%
%TD*%
%TA.AperFunction,ViaPad*%
%ADD25C,0.450000*%
%TD*%
%TA.AperFunction,ViaPad*%
%ADD26C,0.600000*%
%TD*%
%TA.AperFunction,Conductor*%
%ADD27C,0.200000*%
%TD*%
%TA.AperFunction,Conductor*%
%ADD28C,0.150000*%
%TD*%
G04 APERTURE END LIST*
D10*
%TO.P,R37,1*%
%TO.N,Net-(C16-Pad2)*%
X103530000Y-44960000D03*
%TO.P,R37,2*%
%TO.N,GND*%
X103530000Y-43310000D03*
%TD*%
D11*
%TO.P,C16,2*%
%TO.N,Net-(C16-Pad2)*%
X103545000Y-46360000D03*
%TO.P,C16,1*%
%TO.N,/Bucks/SW*%
X105095000Y-46360000D03*
%TD*%
D12*
%TO.P,J3,S1,SHIELD*%
%TO.N,GND*%
X84149999Y-29429999D03*
D13*
X84149999Y-25259999D03*
D12*
X75509999Y-29429999D03*
D13*
X75509999Y-25259999D03*
%TD*%
D14*
%TO.P,J1,1,Pin_1*%
%TO.N,/ARMING*%
X71110000Y-50355000D03*
D15*
%TO.P,J1,2,Pin_2*%
%TO.N,GND*%
X71109999Y-47854999D03*
%TD*%
D16*
%TO.P,J7,1,+*%
%TO.N,Net-(J7-+)*%
X99159999Y-30569999D03*
D17*
%TO.P,J7,2,-*%
%TO.N,GND*%
X91960000Y-30570000D03*
D18*
%TO.P,J7,S1*%
%TO.N,N/C*%
X102309999Y-24569999D03*
%TO.P,J7,S2*%
X88809999Y-24569999D03*
%TD*%
D19*
%TO.P,ENJUMPER1,1,Pin_1*%
%TO.N,/CHIP_PU*%
X83449999Y-43689999D03*
D20*
%TO.P,ENJUMPER1,2,Pin_2*%
%TO.N,GND*%
X83449999Y-46229999D03*
%TD*%
D19*
%TO.P,J2,1,Pin_1*%
%TO.N,+3V3*%
X74909999Y-68559999D03*
D20*
%TO.P,J2,2,Pin_2*%
%TO.N,GND*%
X74909999Y-71099999D03*
%TD*%
D19*
%TO.P,J8,1,Pin_1*%
%TO.N,GND*%
X68349999Y-36199999D03*
D20*
%TO.P,J8,2,Pin_2*%
%TO.N,+3V3*%
X68349999Y-38739999D03*
%TO.P,J8,3,Pin_3*%
%TO.N,/SCL*%
X68349999Y-41279999D03*
%TO.P,J8,4,Pin_4*%
%TO.N,/SDA*%
X68349999Y-43819999D03*
%TD*%
D21*
%TO.P,H3,1,1*%
%TO.N,GND*%
X123000000Y-26500000D03*
%TD*%
%TO.P,H1,1,1*%
%TO.N,GND*%
X70000000Y-69500000D03*
%TD*%
D19*
%TO.P,J6,1,Pin_1*%
%TO.N,Net-(J6-Pin_1)*%
X68389999Y-60589999D03*
D20*
%TO.P,J6,2,Pin_2*%
%TO.N,+3V3*%
X68389999Y-63129999D03*
%TD*%
D22*
%TO.P,J5,1,Pin_1*%
%TO.N,GND*%
X116740000Y-69230000D03*
D23*
%TO.P,J5,2,Pin_2*%
X112539999Y-69229999D03*
%TO.P,J5,3,Pin_3*%
X108339999Y-69229999D03*
%TO.P,J5,4,Pin_4*%
%TO.N,Net-(J5-Pin_4)*%
X104139999Y-69229999D03*
%TO.P,J5,5,Pin_5*%
%TO.N,Net-(J5-Pin_5)*%
X116739999Y-63729999D03*
%TO.P,J5,6,Pin_6*%
X112539999Y-63729999D03*
%TO.P,J5,7,Pin_7*%
%TO.N,/CAN+*%
X108339999Y-63729999D03*
%TO.P,J5,8,Pin_8*%
%TO.N,/CAN-*%
X104139999Y-63729999D03*
%TD*%
D19*
%TO.P,J4,1,Pin_1*%
%TO.N,Net-(J4-Pin_1)*%
X68389999Y-54419999D03*
D20*
%TO.P,J4,2,Pin_2*%
%TO.N,GND*%
X68389999Y-56959999D03*
%TD*%
D19*
%TO.P,BOOTJUMPER1,1,Pin_1*%
%TO.N,/BOOT*%
X83444999Y-49859999D03*
D20*
%TO.P,BOOTJUMPER1,2,Pin_2*%
%TO.N,GND*%
X80904999Y-49859999D03*
%TD*%
D21*
%TO.P,H2,1,1*%
%TO.N,GND*%
X70000000Y-26500000D03*
%TD*%
D16*
%TO.P,J9,1,+*%
%TO.N,+12V*%
X115169999Y-30559999D03*
D17*
%TO.P,J9,2,-*%
%TO.N,Net-(J7-+)*%
X107970000Y-30560000D03*
D18*
%TO.P,J9,S1*%
%TO.N,N/C*%
X118319999Y-24559999D03*
%TO.P,J9,S2*%
X104819999Y-24559999D03*
%TD*%
D21*
%TO.P,H4,1,1*%
%TO.N,GND*%
X123000000Y-69500000D03*
%TD*%
D24*
%TO.N,/Bucks/SW*%
X106140000Y-46390000D03*
D25*
%TO.N,+3V3*%
X78310000Y-52310000D03*
X72680000Y-42340000D03*
D24*
X88800000Y-42000000D03*
X81980000Y-39980000D03*
D25*
X75350000Y-32440000D03*
X79620000Y-36230000D03*
X71440000Y-57990000D03*
X77990000Y-49330000D03*
X73640000Y-54110000D03*
X119990000Y-37610000D03*
D26*
X77928980Y-56738000D03*
X78000000Y-41800000D03*
%TO.N,+12V*%
X114400000Y-35000000D03*
X116500000Y-33000000D03*
X118500000Y-34700000D03*
X109600000Y-35200000D03*
X118500000Y-29000000D03*
X116000000Y-35600000D03*
X112800000Y-33600000D03*
X114400000Y-35600000D03*
X114000000Y-27500000D03*
X118500000Y-31000000D03*
X116000000Y-34400000D03*
X118500000Y-33000000D03*
X110400000Y-35200000D03*
X110400000Y-36000000D03*
X109600000Y-36000000D03*
X109600000Y-34400000D03*
X112800000Y-35200000D03*
X115200000Y-34400000D03*
X118500000Y-36400000D03*
X114400000Y-34400000D03*
X114500000Y-33000000D03*
X115200000Y-35600000D03*
X112000000Y-29000000D03*
X116500000Y-27500000D03*
X110400000Y-34400000D03*
X115200000Y-35000000D03*
X112000000Y-31000000D03*
X116000000Y-35000000D03*
D25*
%TO.N,GND*%
X76000000Y-43800000D03*
D24*
X76200000Y-37100000D03*
D26*
X91300000Y-43000000D03*
X67070000Y-33203333D03*
X82800000Y-62970000D03*
D25*
X76000000Y-43100000D03*
D26*
X72766666Y-23720000D03*
X97340736Y-23670000D03*
X99330000Y-72281500D03*
D25*
X81010000Y-36760000D03*
D26*
X114373332Y-72240000D03*
D25*
X77600000Y-46600000D03*
D24*
X73500000Y-35900000D03*
D25*
X80210000Y-39260000D03*
X75000000Y-44600000D03*
D24*
X73500000Y-38250000D03*
D26*
X84500000Y-64300000D03*
X67070000Y-62661664D03*
X81550000Y-42140000D03*
D24*
X76250000Y-38250000D03*
X74800000Y-37100000D03*
D26*
X67070000Y-66870000D03*
X79700000Y-57900000D03*
X78460000Y-69465000D03*
D24*
X73500000Y-37100000D03*
D25*
X78920000Y-45830000D03*
X80300000Y-44500000D03*
D26*
X125800000Y-41258335D03*
D25*
X72820000Y-43510000D03*
D24*
X102135000Y-43380000D03*
D25*
X75000000Y-45300000D03*
X75650000Y-41710000D03*
D26*
X92000000Y-50800000D03*
X82596294Y-23670000D03*
X87900000Y-66000000D03*
X87511108Y-23670000D03*
X124270000Y-44440000D03*
X87000000Y-59500000D03*
X74257780Y-72440000D03*
D24*
X103194000Y-43386000D03*
D26*
X81012980Y-68840000D03*
X91300000Y-42100000D03*
X125800000Y-37050002D03*
X86300000Y-64300000D03*
X125800000Y-28633336D03*
D24*
X76200000Y-35900000D03*
D26*
X84400000Y-67700000D03*
X110800000Y-54000000D03*
X125800000Y-58091667D03*
X109600000Y-50600000D03*
X67070000Y-45828332D03*
X92000000Y-49200000D03*
X92000000Y-47800000D03*
X85900000Y-42230000D03*
D25*
X76210000Y-44750000D03*
X80300000Y-45200000D03*
D26*
X92425922Y-23670000D03*
X93700000Y-40000000D03*
X67070000Y-41619999D03*
X91600000Y-54700000D03*
X108400000Y-52950000D03*
X125800000Y-32841669D03*
X104350000Y-72281500D03*
X84286668Y-72281500D03*
X122720000Y-30730000D03*
X86230000Y-39670000D03*
X96700000Y-44100000D03*
X111660000Y-38100000D03*
D25*
X78300000Y-46600000D03*
D24*
X103835000Y-41980000D03*
D25*
X79100000Y-46600000D03*
D26*
X88000000Y-55900000D03*
D25*
X79900000Y-46600000D03*
D26*
X122720000Y-35720000D03*
X112000000Y-54000000D03*
X95200000Y-44100000D03*
D25*
X75800000Y-42400000D03*
D26*
X125800000Y-53883334D03*
D24*
X74750000Y-38250000D03*
D26*
X124250000Y-42500000D03*
X109600000Y-54000000D03*
X89320000Y-72281500D03*
D25*
X77220000Y-32830000D03*
D26*
X107170364Y-23670000D03*
X109350000Y-72270000D03*
X94315556Y-72281500D03*
X67070000Y-50036665D03*
X67070000Y-54244998D03*
D24*
X74800000Y-35900000D03*
D26*
X98200000Y-44100000D03*
X112000000Y-50600000D03*
X119400000Y-72240000D03*
X112085178Y-23700000D03*
X117000000Y-23700000D03*
X107800000Y-43700000D03*
X125800000Y-62300000D03*
X110800000Y-50600000D03*
X86300000Y-67700000D03*
D25*
X75300000Y-44000000D03*
D26*
X67070000Y-28995000D03*
X122650000Y-40250000D03*
X122670000Y-38020000D03*
X125800000Y-45466668D03*
X108400000Y-51750000D03*
X125800000Y-66508336D03*
X77681480Y-23670000D03*
D25*
X80300000Y-46000000D03*
D26*
X83100000Y-66000000D03*
X125800000Y-49675001D03*
X79280000Y-72281500D03*
X67070000Y-37411666D03*
%TO.N,Net-(J5-Pin_4)*%
X90250000Y-70000000D03*
X97600000Y-67200000D03*
X98300000Y-67800000D03*
X92750000Y-63500000D03*
X90500000Y-63500000D03*
X98500000Y-70000000D03*
X98300000Y-68400000D03*
X99000000Y-67200000D03*
X95000000Y-63500000D03*
X99000000Y-68400000D03*
X97600000Y-67800000D03*
X96000000Y-68000000D03*
X97600000Y-68400000D03*
D25*
X119910000Y-39890000D03*
D26*
X99000000Y-67800000D03*
X98300000Y-67200000D03*
X101000000Y-70000000D03*
X93000000Y-69000000D03*
X96000000Y-70000000D03*
X101000000Y-68000000D03*
X90250000Y-68000000D03*
%TO.N,Net-(J5-Pin_5)*%
X117500000Y-45000000D03*
X118200000Y-50670000D03*
X114400000Y-42700000D03*
X116100000Y-56600000D03*
X115200000Y-42700000D03*
X111600000Y-59600000D03*
X113100000Y-56600000D03*
X115200000Y-42100000D03*
X121240000Y-52770000D03*
X118200000Y-54000000D03*
X120500000Y-45000000D03*
X114500000Y-45000000D03*
X116000000Y-48000000D03*
X114600000Y-59600000D03*
X119000000Y-42000000D03*
X121240000Y-51770000D03*
X115900000Y-41500000D03*
X116400000Y-52770000D03*
X119800000Y-54000000D03*
X117600000Y-59600000D03*
X119800000Y-50700000D03*
X115900000Y-42700000D03*
X115900000Y-42100000D03*
X115150000Y-41495000D03*
X116400000Y-51770000D03*
X114400000Y-42100000D03*
X119000000Y-48000000D03*
X114400000Y-41500000D03*
%TO.N,Net-(IC2-EN)*%
X108100000Y-33500000D03*
X107400000Y-35600000D03*
X97000000Y-36200000D03*
X98700000Y-40900000D03*
D24*
X101810000Y-41930000D03*
D26*
X97000000Y-36900000D03*
X107400000Y-33500000D03*
X96300000Y-36900000D03*
X96500000Y-39300000D03*
X97300000Y-39300000D03*
X107400000Y-34900000D03*
X99400000Y-40900000D03*
X107400000Y-34200000D03*
X97000000Y-34800000D03*
X97000000Y-35500000D03*
%TO.N,Net-(J7-+)*%
X102250000Y-29000000D03*
X103500000Y-30500000D03*
X101000000Y-27500000D03*
X109000000Y-27500000D03*
X103500000Y-27500000D03*
X102250000Y-32000000D03*
X105000000Y-32000000D03*
X105000000Y-29000000D03*
X98500000Y-27500000D03*
X106500000Y-27500000D03*
D25*
%TO.N,Net-(J3-CC1)*%
X81090000Y-28940000D03*
X78140000Y-27530000D03*
%TO.N,/SCL*%
X71600000Y-40620000D03*
%TO.N,Net-(J3-CC2)*%
X78560000Y-28910000D03*
X76350000Y-28203000D03*
%TO.N,Net-(J4-Pin_1)*%
X101360000Y-61062500D03*
X72120000Y-56960000D03*
%TO.N,/SDA*%
X71562500Y-41522500D03*
D26*
%TO.N,RBUS_uC_V*%
X98500000Y-55750000D03*
X99000000Y-60700000D03*
X99000000Y-60100000D03*
X97600000Y-61300000D03*
X90500000Y-57750000D03*
D25*
X93930000Y-46970000D03*
D26*
X98300000Y-61300000D03*
X90500000Y-59750000D03*
X97600000Y-60700000D03*
X95250000Y-61000000D03*
X98300000Y-60700000D03*
X92250000Y-61000000D03*
X96750000Y-57250000D03*
X99000000Y-61300000D03*
X98300000Y-60100000D03*
X95250000Y-55750000D03*
D25*
X105130000Y-40794000D03*
D26*
X98500000Y-58500000D03*
X95250000Y-58500000D03*
X97600000Y-60100000D03*
X93750000Y-59750000D03*
D25*
%TO.N,/3V3Filter/LX1*%
X93200000Y-56500000D03*
X92500000Y-56500000D03*
X91000000Y-55730000D03*
X91000000Y-56300000D03*
%TO.N,/3V3Filter/LX2*%
X93200000Y-54400000D03*
X91020000Y-53750000D03*
X92500000Y-54400000D03*
X91010000Y-53100000D03*
%TO.N,/LIPOPOWER*%
X72260000Y-38030000D03*
X109070000Y-38090000D03*
%TO.N,/USBPOWER*%
X70600000Y-37790000D03*
X94230000Y-41240000D03*
%TO.N,/BattVoltage*%
X121030000Y-29140000D03*
X75000000Y-34940000D03*
%TO.N,/DepVoltage*%
X75535000Y-26985000D03*
X76050000Y-34950000D03*
D26*
%TO.N,Net-(Q7-S_1)*%
X98100000Y-64700000D03*
X99300000Y-64700000D03*
X99900000Y-64700000D03*
X99900000Y-65900000D03*
X96700000Y-62500000D03*
X97900000Y-63700000D03*
X96700000Y-63700000D03*
X98700000Y-64700000D03*
X98500000Y-63700000D03*
X96700000Y-63100000D03*
X97300000Y-63700000D03*
X99900000Y-65300000D03*
%TO.N,Net-(Q10-S_1)*%
X113590000Y-37516500D03*
X116700000Y-40300000D03*
X115400000Y-38100000D03*
X114900000Y-39100000D03*
X116700000Y-39100000D03*
X115500000Y-39100000D03*
X114800000Y-38100000D03*
X113600000Y-36920000D03*
X113600000Y-38100000D03*
X116100000Y-39100000D03*
X114200000Y-38100000D03*
X116700000Y-39700000D03*
D25*
%TO.N,Net-(Q10-G)*%
X112210000Y-41330000D03*
X116130000Y-36420000D03*
%TO.N,Net-(J6-Pin_1)*%
X108310000Y-45150000D03*
X72840000Y-59910000D03*
%TD*%
D27*
%TO.N,Net-(J5-Pin_4)*%
X122270000Y-55080000D02*
X119380000Y-57970000D01*
X106980000Y-66390000D02*
X104140000Y-69230000D01*
X122270000Y-41060000D02*
X122270000Y-55080000D01*
X121100000Y-39890000D02*
X122270000Y-41060000D01*
X119380000Y-57970000D02*
X119380000Y-66070000D01*
X119380000Y-66070000D02*
X119060000Y-66390000D01*
X119060000Y-66390000D02*
X106980000Y-66390000D01*
X119910000Y-39890000D02*
X121100000Y-39890000D01*
%TO.N,Net-(J3-CC1)*%
X81090000Y-28940000D02*
X79680000Y-27530000D01*
X79680000Y-27530000D02*
X78140000Y-27530000D01*
D28*
%TO.N,/SCL*%
X70940000Y-41280000D02*
X68350000Y-41280000D01*
X71600000Y-40620000D02*
X70940000Y-41280000D01*
D27*
%TO.N,Net-(J3-CC2)*%
X78560000Y-28910000D02*
X77853000Y-28203000D01*
X77853000Y-28203000D02*
X76350000Y-28203000D01*
%TO.N,Net-(J4-Pin_1)*%
X101360000Y-61062500D02*
X100502500Y-61920000D01*
X72900000Y-61920000D02*
X72120000Y-61140000D01*
X72120000Y-61140000D02*
X72120000Y-56960000D01*
X100502500Y-61920000D02*
X72900000Y-61920000D01*
D28*
%TO.N,/SDA*%
X69265000Y-43820000D02*
X68350000Y-43820000D01*
X71562500Y-41522500D02*
X69265000Y-43820000D01*
%TO.N,RBUS_uC_V*%
X103917000Y-44013000D02*
X101624552Y-44013000D01*
X98667552Y-46970000D02*
X93930000Y-46970000D01*
X105130000Y-40794000D02*
X105130000Y-42800000D01*
X105130000Y-42800000D02*
X103917000Y-44013000D01*
X101624552Y-44013000D02*
X98667552Y-46970000D01*
D27*
%TO.N,/LIPOPOWER*%
X73583000Y-39353000D02*
X79563000Y-39353000D01*
X94090000Y-40700000D02*
X97110000Y-37680000D01*
X97110000Y-37680000D02*
X108660000Y-37680000D01*
X108660000Y-37680000D02*
X109070000Y-38090000D01*
X79563000Y-39353000D02*
X80910000Y-40700000D01*
X80910000Y-40700000D02*
X94090000Y-40700000D01*
X72260000Y-38030000D02*
X73583000Y-39353000D01*
%TO.N,/USBPOWER*%
X70600000Y-37790000D02*
X72490000Y-39680000D01*
X79427552Y-39680000D02*
X80987552Y-41240000D01*
X72490000Y-39680000D02*
X79427552Y-39680000D01*
X80987552Y-41240000D02*
X94230000Y-41240000D01*
%TO.N,/BattVoltage*%
X73990000Y-27770000D02*
X75420000Y-26340000D01*
X117890000Y-26000000D02*
X121030000Y-29140000D01*
X75420000Y-26340000D02*
X89560000Y-26340000D01*
X89560000Y-26340000D02*
X89900000Y-26000000D01*
X89900000Y-26000000D02*
X117890000Y-26000000D01*
X73990000Y-33930000D02*
X73990000Y-27770000D01*
X75000000Y-34940000D02*
X73990000Y-33930000D01*
%TO.N,/DepVoltage*%
X74430000Y-28090000D02*
X74430000Y-33330000D01*
X75535000Y-26985000D02*
X74430000Y-28090000D01*
X74430000Y-33330000D02*
X76050000Y-34950000D01*
%TO.N,Net-(Q10-G)*%
X112530000Y-41010000D02*
X112530000Y-36523000D01*
X112210000Y-41330000D02*
X112530000Y-41010000D01*
X112530000Y-36523000D02*
X112660000Y-36393000D01*
X112660000Y-36393000D02*
X116103000Y-36393000D01*
X116103000Y-36393000D02*
X116130000Y-36420000D01*
D28*
%TO.N,Net-(J6-Pin_1)*%
X107500000Y-44340000D02*
X108310000Y-45150000D01*
X93520000Y-52580000D02*
X101760000Y-44340000D01*
X101760000Y-44340000D02*
X107500000Y-44340000D01*
X72840000Y-59910000D02*
X80170000Y-52580000D01*
X80170000Y-52580000D02*
X93520000Y-52580000D01*
%TD*%
%TA.AperFunction,Conductor*%
%TO.N,Net-(Q10-S_1)*%
G36*
X115738000Y-36764113D02*
G01*
X115783387Y-36809500D01*
X115800000Y-36871500D01*
X115800000Y-37800000D01*
X119276000Y-37800000D01*
X119338000Y-37816613D01*
X119383387Y-37862000D01*
X119400000Y-37924000D01*
X119400000Y-40476000D01*
X119383387Y-40538000D01*
X119338000Y-40583387D01*
X119276000Y-40600000D01*
X114724000Y-40600000D01*
X114662000Y-40583387D01*
X114616613Y-40538000D01*
X114600000Y-40476000D01*
X114600000Y-39316326D01*
X114600000Y-39300000D01*
X114583674Y-39300000D01*
X113008500Y-39300000D01*
X112946500Y-39283387D01*
X112901113Y-39238000D01*
X112884500Y-39176000D01*
X112884500Y-36871500D01*
X112901113Y-36809500D01*
X112946500Y-36764113D01*
X113008500Y-36747500D01*
X115676000Y-36747500D01*
X115738000Y-36764113D01*
G37*
%TD.AperFunction*%
%TD*%
%TA.AperFunction,Conductor*%
%TO.N,Net-(Q7-S_1)*%
G36*
X98938000Y-62291113D02*
G01*
X98983387Y-62336500D01*
X99000000Y-62398500D01*
X99000000Y-63500000D01*
X101576000Y-63500000D01*
X101638000Y-63516613D01*
X101683387Y-63562000D01*
X101700000Y-63624000D01*
X101700000Y-66176000D01*
X101683387Y-66238000D01*
X101638000Y-66283387D01*
X101576000Y-66300000D01*
X97824000Y-66300000D01*
X97762000Y-66283387D01*
X97716613Y-66238000D01*
X97700000Y-66176000D01*
X97700000Y-65016326D01*
X97700000Y-65000000D01*
X97683674Y-65000000D01*
X95924000Y-65000000D01*
X95862000Y-64983387D01*
X95816613Y-64938000D01*
X95800000Y-64876000D01*
X95800000Y-62398500D01*
X95816613Y-62336500D01*
X95862000Y-62291113D01*
X95924000Y-62274500D01*
X98876000Y-62274500D01*
X98938000Y-62291113D01*
G37*
%TD.AperFunction*%
%TD*%
%TA.AperFunction,Conductor*%
%TO.N,Net-(IC2-EN)*%
G36*
X100638000Y-38051113D02*
G01*
X100683387Y-38096500D01*
X100700000Y-38158500D01*
X100700000Y-39500000D01*
X101500000Y-41300000D01*
X102576000Y-41300000D01*
X102638000Y-41316613D01*
X102683387Y-41362000D01*
X102700000Y-41424000D01*
X102700000Y-42376000D01*
X102683387Y-42438000D01*
X102638000Y-42483387D01*
X102576000Y-42500000D01*
X96024000Y-42500000D01*
X95962000Y-42483387D01*
X95916613Y-42438000D01*
X95900000Y-42376000D01*
X95900000Y-39442701D01*
X95909439Y-39395248D01*
X95936319Y-39355020D01*
X97220520Y-38070819D01*
X97260748Y-38043939D01*
X97308201Y-38034500D01*
X100576000Y-38034500D01*
X100638000Y-38051113D01*
G37*
%TD.AperFunction*%
%TA.AperFunction,Conductor*%
G36*
X108438000Y-33016613D02*
G01*
X108483387Y-33062000D01*
X108500000Y-33124000D01*
X108500000Y-35776000D01*
X108483387Y-35838000D01*
X108438000Y-35883387D01*
X108376000Y-35900000D01*
X107500000Y-35900000D01*
X107500000Y-35916326D01*
X107500000Y-37201500D01*
X107483387Y-37263500D01*
X107438000Y-37308887D01*
X107376000Y-37325500D01*
X97159628Y-37325500D01*
X97136144Y-37323064D01*
X97134905Y-37323012D01*
X97124853Y-37320905D01*
X97114661Y-37322175D01*
X97114654Y-37322175D01*
X97094961Y-37324630D01*
X97089864Y-37325159D01*
X97085748Y-37325500D01*
X97080623Y-37325500D01*
X97075568Y-37326343D01*
X97075560Y-37326344D01*
X97061395Y-37328707D01*
X97056332Y-37329444D01*
X97017642Y-37334267D01*
X97017634Y-37334269D01*
X97007449Y-37335539D01*
X97000705Y-37338835D01*
X96993302Y-37340071D01*
X96984275Y-37344955D01*
X96984269Y-37344958D01*
X96949954Y-37363527D01*
X96945406Y-37365868D01*
X96910388Y-37382988D01*
X96910381Y-37382992D01*
X96901160Y-37387501D01*
X96895852Y-37392808D01*
X96889251Y-37396381D01*
X96882299Y-37403931D01*
X96882297Y-37403934D01*
X96855877Y-37432633D01*
X96852330Y-37436329D01*
X96111681Y-38176979D01*
X96062318Y-38207229D01*
X96004602Y-38211771D01*
X95951115Y-38189616D01*
X95913515Y-38145593D01*
X95900000Y-38089298D01*
X95900000Y-34724000D01*
X95916613Y-34662000D01*
X95962000Y-34616613D01*
X96024000Y-34600000D01*
X96883674Y-34600000D01*
X96900000Y-34600000D01*
X96900000Y-33124000D01*
X96916613Y-33062000D01*
X96962000Y-33016613D01*
X97024000Y-33000000D01*
X108376000Y-33000000D01*
X108438000Y-33016613D01*
G37*
%TD.AperFunction*%
%TD*%
%TA.AperFunction,Conductor*%
%TO.N,Net-(J5-Pin_4)*%
G36*
X95438000Y-62291113D02*
G01*
X95483387Y-62336500D01*
X95500000Y-62398500D01*
X95500000Y-65300000D01*
X96682687Y-65300000D01*
X96744911Y-65316742D01*
X96790332Y-65362448D01*
X96806685Y-65424775D01*
X96797465Y-66900000D01*
X96813854Y-66900000D01*
X101786963Y-66900000D01*
X101800000Y-66900000D01*
X102663056Y-65941048D01*
X102704777Y-65910726D01*
X102755225Y-65900000D01*
X105476000Y-65900000D01*
X105538000Y-65916613D01*
X105583387Y-65962000D01*
X105600000Y-66024000D01*
X105600000Y-71176000D01*
X105583387Y-71238000D01*
X105538000Y-71283387D01*
X105476000Y-71300000D01*
X89424000Y-71300000D01*
X89362000Y-71283387D01*
X89316613Y-71238000D01*
X89300000Y-71176000D01*
X89300000Y-62398500D01*
X89316613Y-62336500D01*
X89362000Y-62291113D01*
X89424000Y-62274500D01*
X95376000Y-62274500D01*
X95438000Y-62291113D01*
G37*
%TD.AperFunction*%
%TD*%
%TA.AperFunction,Conductor*%
%TO.N,+12V*%
G36*
X117784752Y-26409439D02*
G01*
X117824980Y-26436319D01*
X119168304Y-27779643D01*
X120362844Y-28974182D01*
X120390038Y-29015175D01*
X120399152Y-29063516D01*
X120301631Y-36377653D01*
X120284474Y-36438952D01*
X120239164Y-36483662D01*
X120177642Y-36500000D01*
X119400000Y-36500000D01*
X119400000Y-36516326D01*
X119400000Y-37416500D01*
X119383387Y-37478500D01*
X119338000Y-37523887D01*
X119276000Y-37540500D01*
X116824000Y-37540500D01*
X116762000Y-37523887D01*
X116716613Y-37478500D01*
X116700000Y-37416500D01*
X116700000Y-36116326D01*
X116700000Y-36100000D01*
X116683674Y-36100000D01*
X116543818Y-36100000D01*
X116492307Y-36088794D01*
X116460787Y-36065199D01*
X116459746Y-36066402D01*
X116453043Y-36060594D01*
X116447235Y-36053891D01*
X116392590Y-36018773D01*
X116338699Y-35984139D01*
X116338695Y-35984137D01*
X116331240Y-35979346D01*
X116322734Y-35976848D01*
X116322731Y-35976847D01*
X116243833Y-35953681D01*
X116198942Y-35940500D01*
X116061058Y-35940500D01*
X116052547Y-35942998D01*
X116052547Y-35942999D01*
X115937268Y-35976847D01*
X115937262Y-35976849D01*
X115928760Y-35979346D01*
X115921306Y-35984136D01*
X115921300Y-35984139D01*
X115867343Y-36018816D01*
X115800304Y-36038500D01*
X112709628Y-36038500D01*
X112686144Y-36036064D01*
X112684905Y-36036012D01*
X112674853Y-36033905D01*
X112664661Y-36035175D01*
X112664654Y-36035175D01*
X112644961Y-36037630D01*
X112639864Y-36038159D01*
X112635748Y-36038500D01*
X112630623Y-36038500D01*
X112625568Y-36039343D01*
X112625560Y-36039344D01*
X112611395Y-36041707D01*
X112606332Y-36042444D01*
X112567642Y-36047267D01*
X112567634Y-36047269D01*
X112557449Y-36048539D01*
X112550705Y-36051835D01*
X112543302Y-36053071D01*
X112534275Y-36057955D01*
X112534269Y-36057958D01*
X112499954Y-36076527D01*
X112495410Y-36078866D01*
X112477965Y-36087396D01*
X112423496Y-36100000D01*
X112316326Y-36100000D01*
X112300000Y-36100000D01*
X112300000Y-36116326D01*
X112300000Y-36198772D01*
X112293280Y-36239038D01*
X112273849Y-36274940D01*
X112268098Y-36282328D01*
X112264878Y-36286294D01*
X112262176Y-36289483D01*
X112258558Y-36293103D01*
X112255584Y-36297267D01*
X112255578Y-36297275D01*
X112247234Y-36308961D01*
X112244178Y-36313059D01*
X112220224Y-36343836D01*
X112220220Y-36343842D01*
X112213915Y-36351944D01*
X112211478Y-36359042D01*
X112207116Y-36365152D01*
X112204186Y-36374994D01*
X112193055Y-36412378D01*
X112191494Y-36417248D01*
X112178835Y-36454126D01*
X112178834Y-36454131D01*
X112175500Y-36463844D01*
X112175500Y-36471349D01*
X112173358Y-36478544D01*
X112173782Y-36488807D01*
X112173782Y-36488812D01*
X112175394Y-36527763D01*
X112175500Y-36532888D01*
X112175500Y-37376000D01*
X112158887Y-37438000D01*
X112113500Y-37483387D01*
X112051500Y-37500000D01*
X109032958Y-37500000D01*
X108973940Y-37485054D01*
X108937921Y-37451896D01*
X108937000Y-37452745D01*
X108930039Y-37445184D01*
X108924421Y-37436584D01*
X108900650Y-37418082D01*
X108896671Y-37414850D01*
X108893521Y-37412182D01*
X108889897Y-37408558D01*
X108883613Y-37404071D01*
X108874038Y-37397234D01*
X108869936Y-37394176D01*
X108863820Y-37389416D01*
X108847838Y-37376977D01*
X108812600Y-37333585D01*
X108800000Y-37279123D01*
X108800000Y-33124000D01*
X108816613Y-33062000D01*
X108862000Y-33016613D01*
X108924000Y-33000000D01*
X110383674Y-33000000D01*
X110400000Y-33000000D01*
X110400000Y-26524000D01*
X110416613Y-26462000D01*
X110462000Y-26416613D01*
X110524000Y-26400000D01*
X117737299Y-26400000D01*
X117784752Y-26409439D01*
G37*
%TD.AperFunction*%
%TD*%
%TA.AperFunction,Conductor*%
%TO.N,Net-(J7-+)*%
G36*
X110038000Y-26371113D02*
G01*
X110083387Y-26416500D01*
X110100000Y-26478500D01*
X110100000Y-32576000D01*
X110083387Y-32638000D01*
X110038000Y-32683387D01*
X109976000Y-32700000D01*
X97224000Y-32700000D01*
X97162000Y-32683387D01*
X97116613Y-32638000D01*
X97100000Y-32576000D01*
X97100000Y-26478500D01*
X97116613Y-26416500D01*
X97162000Y-26371113D01*
X97224000Y-26354500D01*
X109976000Y-26354500D01*
X110038000Y-26371113D01*
G37*
%TD.AperFunction*%
%TD*%
%TA.AperFunction,Conductor*%
%TO.N,/3V3Filter/LX1*%
G36*
X91124958Y-55012788D02*
G01*
X91168490Y-55048513D01*
X91199577Y-55089026D01*
X91199582Y-55089031D01*
X91204526Y-55095474D01*
X91320357Y-55184355D01*
X91455246Y-55240228D01*
X91600000Y-55259285D01*
X91744754Y-55240228D01*
X91879643Y-55184355D01*
X91995474Y-55095474D01*
X92000422Y-55089026D01*
X92031510Y-55048513D01*
X92075042Y-55012788D01*
X92129885Y-55000000D01*
X93476000Y-55000000D01*
X93538000Y-55016613D01*
X93583387Y-55062000D01*
X93600000Y-55124000D01*
X93600000Y-56776000D01*
X93583387Y-56838000D01*
X93538000Y-56883387D01*
X93476000Y-56900000D01*
X91263813Y-56900000D01*
X91207073Y-56886257D01*
X91162910Y-56848074D01*
X90223097Y-55532336D01*
X90205915Y-55498104D01*
X90200000Y-55460262D01*
X90200000Y-55124000D01*
X90216613Y-55062000D01*
X90262000Y-55016613D01*
X90324000Y-55000000D01*
X91070115Y-55000000D01*
X91124958Y-55012788D01*
G37*
%TD.AperFunction*%
%TD*%
%TA.AperFunction,Conductor*%
%TO.N,RBUS_uC_V*%
G36*
X100838000Y-55016613D02*
G01*
X100883387Y-55062000D01*
X100900000Y-55124000D01*
X100900000Y-60896296D01*
X100895971Y-60924312D01*
X100895192Y-60926020D01*
X100893930Y-60934792D01*
X100893929Y-60934798D01*
X100884281Y-61001902D01*
X100872427Y-61039759D01*
X100849224Y-61071935D01*
X100391980Y-61529181D01*
X100351752Y-61556061D01*
X100304299Y-61565500D01*
X89424000Y-61565500D01*
X89362000Y-61548887D01*
X89316613Y-61503500D01*
X89300000Y-61441500D01*
X89300000Y-57324000D01*
X89316613Y-57262000D01*
X89362000Y-57216613D01*
X89424000Y-57200000D01*
X93883674Y-57200000D01*
X93900000Y-57200000D01*
X93900000Y-55124000D01*
X93916613Y-55062000D01*
X93962000Y-55016613D01*
X94024000Y-55000000D01*
X100776000Y-55000000D01*
X100838000Y-55016613D01*
G37*
%TD.AperFunction*%
%TD*%
%TA.AperFunction,Conductor*%
%TO.N,Net-(J5-Pin_5)*%
G36*
X121604752Y-40909439D02*
G01*
X121644980Y-40936319D01*
X121863681Y-41155020D01*
X121890561Y-41195248D01*
X121900000Y-41242701D01*
X121900000Y-54848638D01*
X121890561Y-54896091D01*
X121863681Y-54936319D01*
X119008638Y-57791361D01*
X119008635Y-57791364D01*
X119000000Y-57800000D01*
X119000000Y-57812211D01*
X119000000Y-65876000D01*
X118983387Y-65938000D01*
X118938000Y-65983387D01*
X118876000Y-66000000D01*
X110424000Y-66000000D01*
X110362000Y-65983387D01*
X110316613Y-65938000D01*
X110300000Y-65876000D01*
X110300000Y-57550093D01*
X110309027Y-57503647D01*
X110334794Y-57463963D01*
X113091708Y-54608588D01*
X113091707Y-54608588D01*
X113100000Y-54600000D01*
X113100000Y-41024000D01*
X113116613Y-40962000D01*
X113162000Y-40916613D01*
X113224000Y-40900000D01*
X121557299Y-40900000D01*
X121604752Y-40909439D01*
G37*
%TD.AperFunction*%
%TD*%
%TA.AperFunction,Conductor*%
%TO.N,/3V3Filter/LX2*%
G36*
X93538000Y-52926113D02*
G01*
X93583387Y-52971500D01*
X93600000Y-53033500D01*
X93600000Y-54576000D01*
X93583387Y-54638000D01*
X93538000Y-54683387D01*
X93476000Y-54700000D01*
X92268030Y-54700000D01*
X92210773Y-54685989D01*
X92166455Y-54647123D01*
X92145091Y-54592185D01*
X92142960Y-54576000D01*
X92140228Y-54555246D01*
X92084355Y-54420358D01*
X91995474Y-54304526D01*
X91879643Y-54215645D01*
X91872134Y-54212534D01*
X91872133Y-54212534D01*
X91752263Y-54162882D01*
X91752260Y-54162881D01*
X91744754Y-54159772D01*
X91736700Y-54158711D01*
X91736694Y-54158710D01*
X91608059Y-54141776D01*
X91600000Y-54140715D01*
X91591941Y-54141776D01*
X91463305Y-54158710D01*
X91463297Y-54158712D01*
X91455246Y-54159772D01*
X91447741Y-54162880D01*
X91447736Y-54162882D01*
X91327865Y-54212535D01*
X91327862Y-54212536D01*
X91320358Y-54215645D01*
X91313913Y-54220589D01*
X91313910Y-54220592D01*
X91210972Y-54299579D01*
X91210970Y-54299581D01*
X91204526Y-54304526D01*
X91199582Y-54310968D01*
X91199579Y-54310972D01*
X91120592Y-54413910D01*
X91120589Y-54413913D01*
X91115645Y-54420358D01*
X91112536Y-54427862D01*
X91112535Y-54427865D01*
X91062882Y-54547736D01*
X91062880Y-54547741D01*
X91059772Y-54555246D01*
X91058711Y-54563304D01*
X91058711Y-54563305D01*
X91054909Y-54592185D01*
X91033545Y-54647123D01*
X90989227Y-54685989D01*
X90931970Y-54700000D01*
X90324000Y-54700000D01*
X90262000Y-54683387D01*
X90216613Y-54638000D01*
X90200000Y-54576000D01*
X90200000Y-53939088D01*
X90205736Y-53901809D01*
X90222415Y-53867979D01*
X90856326Y-52962391D01*
X90900646Y-52923515D01*
X90957911Y-52909500D01*
X93476000Y-52909500D01*
X93538000Y-52926113D01*
G37*
%TD.AperFunction*%
%TD*%
%TA.AperFunction,Conductor*%
%TO.N,GND*%
G36*
X88102339Y-23264555D02*
G01*
X88148090Y-23314832D01*
X88160460Y-23381674D01*
X88135731Y-23444994D01*
X88077569Y-23521505D01*
X88077566Y-23521508D01*
X88073498Y-23526861D01*
X88070674Y-23532963D01*
X88070672Y-23532968D01*
X87998277Y-23689447D01*
X87998275Y-23689451D01*
X87995455Y-23695548D01*
X87994011Y-23702107D01*
X87994010Y-23702111D01*
X87961199Y-23851174D01*
X87955500Y-23877067D01*
X87955500Y-25216332D01*
X87970557Y-25354775D01*
X87972701Y-25361140D01*
X87972703Y-25361146D01*
X88027755Y-25524534D01*
X88029904Y-25530911D01*
X88033374Y-25536678D01*
X88107616Y-25660071D01*
X88125727Y-25690171D01*
X88130351Y-25695053D01*
X88130353Y-25695055D01*
X88207242Y-25776225D01*
X88235952Y-25825746D01*
X88239361Y-25882885D01*
X88216742Y-25935468D01*
X88172915Y-25972288D01*
X88117219Y-25985500D01*
X75469627Y-25985500D01*
X75446139Y-25983064D01*
X75444904Y-25983012D01*
X75434852Y-25980905D01*
X75424661Y-25982175D01*
X75424655Y-25982175D01*
X75404964Y-25984630D01*
X75399865Y-25985159D01*
X75395746Y-25985500D01*
X75390623Y-25985500D01*
X75385576Y-25986342D01*
X75385552Y-25986344D01*
X75371359Y-25988712D01*
X75366301Y-25989449D01*
X75327639Y-25994269D01*
X75327635Y-25994270D01*
X75317449Y-25995540D01*
X75310708Y-25998835D01*
X75303302Y-26000071D01*
X75294271Y-26004958D01*
X75294263Y-26004961D01*
X75259959Y-26023526D01*
X75255404Y-26025871D01*
X75220383Y-26042992D01*
X75211160Y-26047501D01*
X75205852Y-26052808D01*
X75199251Y-26056381D01*
X75192299Y-26063931D01*
X75192297Y-26063934D01*
X75165877Y-26092633D01*
X75162330Y-26096329D01*
X73774419Y-27484240D01*
X73756089Y-27499126D01*
X73755180Y-27499961D01*
X73746584Y-27505579D01*
X73740278Y-27513680D01*
X73740272Y-27513686D01*
X73728099Y-27529326D01*
X73724878Y-27533294D01*
X73722176Y-27536483D01*
X73718558Y-27540103D01*
X73715584Y-27544267D01*
X73715578Y-27544275D01*
X73707234Y-27555961D01*
X73704178Y-27560059D01*
X73680224Y-27590836D01*
X73680220Y-27590842D01*
X73673915Y-27598944D01*
X73671478Y-27606042D01*
X73667116Y-27612152D01*
X73664186Y-27621994D01*
X73653055Y-27659378D01*
X73651494Y-27664248D01*
X73638835Y-27701126D01*
X73638834Y-27701131D01*
X73635500Y-27710844D01*
X73635500Y-27718349D01*
X73633358Y-27725544D01*
X73633782Y-27735807D01*
X73633782Y-27735812D01*
X73635394Y-27774763D01*
X73635500Y-27779888D01*
X73635500Y-33880372D01*
X73633064Y-33903855D01*
X73633012Y-33905094D01*
X73630905Y-33915147D01*
X73632175Y-33925338D01*
X73632175Y-33925345D01*
X73634630Y-33945039D01*
X73635158Y-33950130D01*
X73635500Y-33954257D01*
X73635500Y-33959377D01*
X73636343Y-33964428D01*
X73638704Y-33978579D01*
X73639442Y-33983643D01*
X73645539Y-34032551D01*
X73648835Y-34039294D01*
X73650071Y-34046698D01*
X73654961Y-34055734D01*
X73673516Y-34090021D01*
X73675860Y-34094575D01*
X73697501Y-34138840D01*
X73702808Y-34144147D01*
X73706381Y-34150749D01*
X73713935Y-34157703D01*
X73713936Y-34157704D01*
X73742634Y-34184122D01*
X73746332Y-34187671D01*
X74489224Y-34930562D01*
X74512427Y-34962738D01*
X74524281Y-35000595D01*
X74533929Y-35067701D01*
X74533930Y-35067706D01*
X74535192Y-35076480D01*
X74538876Y-35084548D01*
X74538877Y-35084549D01*
X74585379Y-35186375D01*
X74592471Y-35201903D01*
X74598278Y-35208605D01*
X74598279Y-35208606D01*
X74676958Y-35299408D01*
X74676960Y-35299410D01*
X74682765Y-35306109D01*
X74798760Y-35380654D01*
X74931058Y-35419500D01*
X75060072Y-35419500D01*
X75068942Y-35419500D01*
X75201240Y-35380654D01*
X75317235Y-35306109D01*
X75407529Y-35201903D01*
X75411213Y-35193834D01*
X75416008Y-35186375D01*
X75417244Y-35187169D01*
X75444211Y-35152189D01*
X75494619Y-35127398D01*
X75550794Y-35127394D01*
X75601206Y-35152176D01*
X75635509Y-35196659D01*
X75642471Y-35211903D01*
X75648278Y-35218605D01*
X75648279Y-35218606D01*
X75726958Y-35309408D01*
X75726960Y-35309410D01*
X75732765Y-35316109D01*
X75740222Y-35320901D01*
X75837086Y-35383152D01*
X75848760Y-35390654D01*
X75981058Y-35429500D01*
X76110072Y-35429500D01*
X76118942Y-35429500D01*
X76251240Y-35390654D01*
X76367235Y-35316109D01*
X76457529Y-35211903D01*
X76514808Y-35086480D01*
X76534431Y-34950000D01*
X76514808Y-34813520D01*
X76457529Y-34688097D01*
X76433929Y-34660861D01*
X76373041Y-34590591D01*
X76373039Y-34590589D01*
X76367235Y-34583891D01*
X76276842Y-34525799D01*
X76258699Y-34514139D01*
X76258695Y-34514137D01*
X76251240Y-34509346D01*
X76242734Y-34506848D01*
X76242731Y-34506847D01*
X76127453Y-34472999D01*
X76127452Y-34472998D01*
X76118942Y-34470500D01*
X76110072Y-34470500D01*
X76106268Y-34469953D01*
X76068411Y-34458099D01*
X76036235Y-34434896D01*
X74820819Y-33219480D01*
X74793939Y-33179252D01*
X74784500Y-33131799D01*
X74784500Y-32852052D01*
X74798830Y-32794185D01*
X74838509Y-32749693D01*
X74894365Y-32728860D01*
X74953488Y-32736501D01*
X75002211Y-32770847D01*
X75032765Y-32806109D01*
X75148760Y-32880654D01*
X75281058Y-32919500D01*
X75410072Y-32919500D01*
X75418942Y-32919500D01*
X75551240Y-32880654D01*
X75667235Y-32806109D01*
X75757529Y-32701903D01*
X75814808Y-32576480D01*
X75834431Y-32440000D01*
X75814808Y-32303520D01*
X75757529Y-32178097D01*
X75697788Y-32109151D01*
X75673041Y-32080591D01*
X75673038Y-32080588D01*
X75667235Y-32073891D01*
X75595746Y-32027948D01*
X75558699Y-32004139D01*
X75558695Y-32004137D01*
X75551240Y-31999346D01*
X75542734Y-31996848D01*
X75542731Y-31996847D01*
X75463833Y-31973681D01*
X75418942Y-31960500D01*
X75281058Y-31960500D01*
X75272547Y-31962998D01*
X75272547Y-31962999D01*
X75157268Y-31996847D01*
X75157262Y-31996849D01*
X75148760Y-31999346D01*
X75141306Y-32004136D01*
X75141300Y-32004139D01*
X75040222Y-32069098D01*
X75040218Y-32069100D01*
X75032765Y-32073891D01*
X75002211Y-32109152D01*
X74953488Y-32143499D01*
X74894365Y-32151140D01*
X74838509Y-32130307D01*
X74798830Y-32085815D01*
X74784500Y-32027948D01*
X74784500Y-28288201D01*
X74793939Y-28240748D01*
X74819162Y-28203000D01*
X75865569Y-28203000D01*
X75866831Y-28211777D01*
X75883929Y-28330700D01*
X75883930Y-28330704D01*
X75885192Y-28339480D01*
X75888876Y-28347548D01*
X75888877Y-28347549D01*
X75934796Y-28448099D01*
X75942471Y-28464903D01*
X75948278Y-28471605D01*
X75948279Y-28471606D01*
X76026958Y-28562408D01*
X76026960Y-28562410D01*
X76032765Y-28569109D01*
X76148760Y-28643654D01*
X76241760Y-28670961D01*
X76263232Y-28677266D01*
X76281058Y-28682500D01*
X76289929Y-28682500D01*
X76290569Y-28682592D01*
X76351574Y-28709466D01*
X76389848Y-28764045D01*
X76394273Y-28829710D01*
X76391994Y-28836123D01*
X76391415Y-28844580D01*
X76391415Y-28844583D01*
X76382170Y-28979731D01*
X76382170Y-28979738D01*
X76381592Y-28988196D01*
X76383317Y-28996501D01*
X76383318Y-28996504D01*
X76391879Y-29037700D01*
X76412604Y-29137436D01*
X76416502Y-29144959D01*
X76416504Y-29144964D01*
X76444767Y-29199508D01*
X76482731Y-29272775D01*
X76513863Y-29306109D01*
X76580981Y-29377976D01*
X76580983Y-29377978D01*
X76586772Y-29384176D01*
X76717010Y-29463375D01*
X76863786Y-29504500D01*
X76973690Y-29504500D01*
X76977927Y-29504500D01*
X77091009Y-29488957D01*
X77230818Y-29428230D01*
X77349058Y-29332034D01*
X77436961Y-29207504D01*
X77488006Y-29063877D01*
X77498408Y-28911804D01*
X77467396Y-28762564D01*
X77454952Y-28738548D01*
X77441122Y-28677266D01*
X77459102Y-28617071D01*
X77504276Y-28573414D01*
X77565050Y-28557500D01*
X77654799Y-28557500D01*
X77702252Y-28566939D01*
X77742480Y-28593819D01*
X78049224Y-28900563D01*
X78072427Y-28932739D01*
X78084281Y-28970596D01*
X78093929Y-29037700D01*
X78093930Y-29037704D01*
X78095192Y-29046480D01*
X78098876Y-29054548D01*
X78098877Y-29054549D01*
X78141909Y-29148777D01*
X78152471Y-29171903D01*
X78158278Y-29178605D01*
X78158279Y-29178606D01*
X78236958Y-29269408D01*
X78236960Y-29269410D01*
X78242765Y-29276109D01*
X78250222Y-29280901D01*
X78338120Y-29337390D01*
X78358760Y-29350654D01*
X78491058Y-29389500D01*
X78620072Y-29389500D01*
X78628942Y-29389500D01*
X78761240Y-29350654D01*
X78877235Y-29276109D01*
X78967529Y-29171903D01*
X79024808Y-29046480D01*
X79044431Y-28910000D01*
X79024808Y-28773520D01*
X78967529Y-28648097D01*
X78949444Y-28627225D01*
X78883041Y-28550591D01*
X78883039Y-28550589D01*
X78877235Y-28543891D01*
X78826703Y-28511416D01*
X78768699Y-28474139D01*
X78768695Y-28474137D01*
X78761240Y-28469346D01*
X78752734Y-28466848D01*
X78752731Y-28466847D01*
X78637453Y-28432999D01*
X78637452Y-28432998D01*
X78628942Y-28430500D01*
X78620072Y-28430500D01*
X78616268Y-28429953D01*
X78578411Y-28418099D01*
X78546235Y-28394896D01*
X78316061Y-28164722D01*
X78285406Y-28114089D01*
X78281714Y-28055014D01*
X78305827Y-28000957D01*
X78342216Y-27972173D01*
X78341240Y-27970654D01*
X78444670Y-27904184D01*
X78511709Y-27884500D01*
X79481799Y-27884500D01*
X79529252Y-27893939D01*
X79569480Y-27920819D01*
X80579224Y-28930563D01*
X80602427Y-28962739D01*
X80614281Y-29000596D01*
X80623929Y-29067700D01*
X80623930Y-29067704D01*
X80625192Y-29076480D01*
X80628876Y-29084548D01*
X80628877Y-29084549D01*
X80671831Y-29178606D01*
X80682471Y-29201903D01*
X80688278Y-29208605D01*
X80688279Y-29208606D01*
X80766958Y-29299408D01*
X80766960Y-29299410D01*
X80772765Y-29306109D01*
X80888760Y-29380654D01*
X81021058Y-29419500D01*
X81150072Y-29419500D01*
X81158942Y-29419500D01*
X81291240Y-29380654D01*
X81407235Y-29306109D01*
X81497529Y-29201903D01*
X81554808Y-29076480D01*
X81567501Y-28988196D01*
X82161592Y-28988196D01*
X82163317Y-28996501D01*
X82163318Y-28996504D01*
X82171879Y-29037700D01*
X82192604Y-29137436D01*
X82196502Y-29144959D01*
X82196504Y-29144964D01*
X82224767Y-29199508D01*
X82262731Y-29272775D01*
X82293863Y-29306109D01*
X82360981Y-29377976D01*
X82360983Y-29377978D01*
X82366772Y-29384176D01*
X82497010Y-29463375D01*
X82643786Y-29504500D01*
X82753690Y-29504500D01*
X82757927Y-29504500D01*
X82871009Y-29488957D01*
X83010818Y-29428230D01*
X83129058Y-29332034D01*
X83216961Y-29207504D01*
X83268006Y-29063877D01*
X83278408Y-28911804D01*
X83247396Y-28762564D01*
X83177269Y-28627225D01*
X83099441Y-28543891D01*
X83079018Y-28522023D01*
X83079015Y-28522021D01*
X83073228Y-28515824D01*
X83065982Y-28511417D01*
X83065980Y-28511416D01*
X82950233Y-28441029D01*
X82950229Y-28441027D01*
X82942990Y-28436625D01*
X82921130Y-28430500D01*
X82804378Y-28397787D01*
X82804374Y-28397786D01*
X82796214Y-28395500D01*
X82682073Y-28395500D01*
X82677889Y-28396075D01*
X82677875Y-28396076D01*
X82577391Y-28409888D01*
X82577387Y-28409888D01*
X82568991Y-28411043D01*
X82561219Y-28414418D01*
X82561211Y-28414421D01*
X82436965Y-28468389D01*
X82436962Y-28468390D01*
X82429182Y-28471770D01*
X82422604Y-28477121D01*
X82422600Y-28477124D01*
X82317525Y-28562609D01*
X82317519Y-28562614D01*
X82310942Y-28567966D01*
X82306051Y-28574893D01*
X82306046Y-28574900D01*
X82227932Y-28685563D01*
X82227929Y-28685567D01*
X82223039Y-28692496D01*
X82220198Y-28700487D01*
X82220197Y-28700491D01*
X82174834Y-28828129D01*
X82174832Y-28828136D01*
X82171994Y-28836123D01*
X82171415Y-28844582D01*
X82171415Y-28844584D01*
X82162170Y-28979731D01*
X82162170Y-28979738D01*
X82161592Y-28988196D01*
X81567501Y-28988196D01*
X81574431Y-28940000D01*
X81554808Y-28803520D01*
X81497529Y-28678097D01*
X81451431Y-28624896D01*
X81413041Y-28580591D01*
X81413039Y-28580589D01*
X81407235Y-28573891D01*
X81399777Y-28569098D01*
X81298699Y-28504139D01*
X81298695Y-28504137D01*
X81291240Y-28499346D01*
X81282734Y-28496848D01*
X81282731Y-28496847D01*
X81167453Y-28462999D01*
X81167452Y-28462998D01*
X81158942Y-28460500D01*
X81150072Y-28460500D01*
X81146268Y-28459953D01*
X81108411Y-28448099D01*
X81076235Y-28424896D01*
X79965761Y-27314422D01*
X79950879Y-27296096D01*
X79950040Y-27295184D01*
X79944421Y-27286584D01*
X79920650Y-27268082D01*
X79916671Y-27264850D01*
X79913521Y-27262182D01*
X79909897Y-27258558D01*
X79903613Y-27254071D01*
X79894038Y-27247234D01*
X79889935Y-27244175D01*
X79859159Y-27220222D01*
X79859160Y-27220222D01*
X79851056Y-27213915D01*
X79843957Y-27211478D01*
X79837848Y-27207116D01*
X79828000Y-27204184D01*
X79827996Y-27204182D01*
X79790614Y-27193052D01*
X79785740Y-27191491D01*
X79763018Y-27183691D01*
X79739156Y-27175500D01*
X79731651Y-27175500D01*
X79724456Y-27173358D01*
X79714191Y-27173782D01*
X79714187Y-27173782D01*
X79675237Y-27175394D01*
X79670112Y-27175500D01*
X78511709Y-27175500D01*
X78444670Y-27155816D01*
X78348699Y-27094139D01*
X78348695Y-27094137D01*
X78341240Y-27089346D01*
X78332734Y-27086848D01*
X78332731Y-27086847D01*
X78253833Y-27063681D01*
X78208942Y-27050500D01*
X78071058Y-27050500D01*
X78062547Y-27052998D01*
X78062547Y-27052999D01*
X77947268Y-27086847D01*
X77947262Y-27086849D01*
X77938760Y-27089346D01*
X77931306Y-27094136D01*
X77931300Y-27094139D01*
X77830222Y-27159098D01*
X77830218Y-27159100D01*
X77822765Y-27163891D01*
X77816963Y-27170585D01*
X77816958Y-27170591D01*
X77738279Y-27261393D01*
X77738276Y-27261397D01*
X77732471Y-27268097D01*
X77728789Y-27276159D01*
X77728786Y-27276164D01*
X77692372Y-27355901D01*
X77675192Y-27393520D01*
X77673930Y-27402293D01*
X77673929Y-27402299D01*
X77659080Y-27505579D01*
X77655569Y-27530000D01*
X77656831Y-27538777D01*
X77673929Y-27657700D01*
X77673930Y-27657704D01*
X77675192Y-27666480D01*
X77678876Y-27674548D01*
X77681375Y-27683056D01*
X77680051Y-27683444D01*
X77689054Y-27733347D01*
X77669685Y-27791540D01*
X77624797Y-27833332D01*
X77565370Y-27848500D01*
X76721709Y-27848500D01*
X76654670Y-27828816D01*
X76558699Y-27767139D01*
X76558695Y-27767137D01*
X76551240Y-27762346D01*
X76542734Y-27759848D01*
X76542731Y-27759847D01*
X76439965Y-27729673D01*
X76418942Y-27723500D01*
X76281058Y-27723500D01*
X76272547Y-27725998D01*
X76272547Y-27725999D01*
X76157268Y-27759847D01*
X76157262Y-27759849D01*
X76148760Y-27762346D01*
X76141306Y-27767136D01*
X76141300Y-27767139D01*
X76040222Y-27832098D01*
X76040218Y-27832100D01*
X76032765Y-27836891D01*
X76026963Y-27843585D01*
X76026958Y-27843591D01*
X75948279Y-27934393D01*
X75948276Y-27934397D01*
X75942471Y-27941097D01*
X75938789Y-27949159D01*
X75938786Y-27949164D01*
X75888877Y-28058450D01*
X75885192Y-28066520D01*
X75883930Y-28075293D01*
X75883929Y-28075299D01*
X75867864Y-28187031D01*
X75865569Y-28203000D01*
X74819162Y-28203000D01*
X74820819Y-28200520D01*
X75136839Y-27884500D01*
X75521238Y-27500100D01*
X75553413Y-27476899D01*
X75591272Y-27465046D01*
X75595070Y-27464500D01*
X75603942Y-27464500D01*
X75736240Y-27425654D01*
X75852235Y-27351109D01*
X75942529Y-27246903D01*
X75999808Y-27121480D01*
X76019431Y-26985000D01*
X75999808Y-26848520D01*
X75999654Y-26848184D01*
X75996883Y-26796483D01*
X76019646Y-26744189D01*
X76063409Y-26707616D01*
X76118913Y-26694500D01*
X89510372Y-26694500D01*
X89533855Y-26696935D01*
X89535088Y-26696986D01*
X89545147Y-26699095D01*
X89575055Y-26695366D01*
X89580133Y-26694841D01*
X89584244Y-26694500D01*
X89589377Y-26694500D01*
X89608632Y-26691286D01*
X89613621Y-26690559D01*
X89662551Y-26684461D01*
X89669294Y-26681164D01*
X89676698Y-26679929D01*
X89720025Y-26656480D01*
X89724580Y-26654136D01*
X89768840Y-26632499D01*
X89774147Y-26627191D01*
X89780749Y-26623619D01*
X89814136Y-26587348D01*
X89817614Y-26583722D01*
X90010521Y-26390816D01*
X90050748Y-26363939D01*
X90098200Y-26354500D01*
X96716500Y-26354500D01*
X96778500Y-26371113D01*
X96823887Y-26416500D01*
X96840500Y-26478500D01*
X96840500Y-32576000D01*
X96849342Y-32643164D01*
X96850390Y-32647075D01*
X96850393Y-32647090D01*
X96858035Y-32675610D01*
X96861199Y-32723888D01*
X96845647Y-32769702D01*
X96813747Y-32806077D01*
X96781729Y-32830645D01*
X96781720Y-32830652D01*
X96778506Y-32833119D01*
X96775641Y-32835983D01*
X96775633Y-32835991D01*
X96735991Y-32875633D01*
X96735983Y-32875641D01*
X96733119Y-32878506D01*
X96730650Y-32881722D01*
X96730647Y-32881727D01*
X96696829Y-32925799D01*
X96696825Y-32925804D01*
X96691880Y-32932250D01*
X96688771Y-32939754D01*
X96688767Y-32939762D01*
X96667509Y-32991082D01*
X96667504Y-32991095D01*
X96665955Y-32994836D01*
X96664907Y-32998746D01*
X96664905Y-32998753D01*
X96650391Y-33052917D01*
X96650387Y-33052932D01*
X96649342Y-33056836D01*
X96640500Y-33124000D01*
X96640500Y-33128053D01*
X96640500Y-34216500D01*
X96623887Y-34278500D01*
X96578500Y-34323887D01*
X96516500Y-34340500D01*
X96024000Y-34340500D01*
X96019984Y-34341028D01*
X96019979Y-34341029D01*
X95960861Y-34348812D01*
X95960859Y-34348812D01*
X95956836Y-34349342D01*
X95952932Y-34350387D01*
X95952917Y-34350391D01*
X95898753Y-34364905D01*
X95898746Y-34364907D01*
X95894836Y-34365955D01*
X95891095Y-34367504D01*
X95891082Y-34367509D01*
X95839762Y-34388767D01*
X95839754Y-34388771D01*
X95832250Y-34391880D01*
X95825804Y-34396825D01*
X95825799Y-34396829D01*
X95781727Y-34430647D01*
X95781722Y-34430650D01*
X95778506Y-34433119D01*
X95775641Y-34435983D01*
X95775633Y-34435991D01*
X95735991Y-34475633D01*
X95735983Y-34475641D01*
X95733119Y-34478506D01*
X95730650Y-34481722D01*
X95730647Y-34481727D01*
X95696829Y-34525799D01*
X95696825Y-34525804D01*
X95691880Y-34532250D01*
X95688771Y-34539754D01*
X95688767Y-34539762D01*
X95667509Y-34591082D01*
X95667504Y-34591095D01*
X95665955Y-34594836D01*
X95664907Y-34598746D01*
X95664905Y-34598753D01*
X95650391Y-34652917D01*
X95650387Y-34652932D01*
X95649342Y-34656836D01*
X95648812Y-34660859D01*
X95648812Y-34660861D01*
X95644165Y-34696164D01*
X95640500Y-34724000D01*
X95640500Y-38089298D01*
X95640929Y-38092926D01*
X95640930Y-38092936D01*
X95644470Y-38122839D01*
X95647670Y-38149876D01*
X95648522Y-38153425D01*
X95648524Y-38153436D01*
X95650387Y-38161194D01*
X95661185Y-38206171D01*
X95662448Y-38209595D01*
X95662450Y-38209601D01*
X95671654Y-38234549D01*
X95682299Y-38263404D01*
X95686363Y-38269486D01*
X95710688Y-38305892D01*
X95716191Y-38314127D01*
X95753791Y-38358150D01*
X95756316Y-38360484D01*
X95787094Y-38415860D01*
X95786473Y-38479262D01*
X95754591Y-38534068D01*
X93979480Y-40309181D01*
X93939252Y-40336061D01*
X93891799Y-40345500D01*
X82721017Y-40345500D01*
X82663391Y-40331297D01*
X82618967Y-40291940D01*
X82597921Y-40236447D01*
X82605075Y-40177529D01*
X82607195Y-40171936D01*
X82620149Y-40137782D01*
X82639307Y-39980000D01*
X82620149Y-39822218D01*
X82563787Y-39673605D01*
X82473498Y-39542799D01*
X82390171Y-39468977D01*
X82360144Y-39442375D01*
X82360141Y-39442373D01*
X82354529Y-39437401D01*
X82308033Y-39412998D01*
X82220432Y-39367021D01*
X82220429Y-39367019D01*
X82213793Y-39363537D01*
X82173765Y-39353671D01*
X82066752Y-39327294D01*
X82066747Y-39327293D01*
X82059471Y-39325500D01*
X81900529Y-39325500D01*
X81893253Y-39327293D01*
X81893247Y-39327294D01*
X81753489Y-39361742D01*
X81753487Y-39361742D01*
X81746207Y-39363537D01*
X81739573Y-39367018D01*
X81739567Y-39367021D01*
X81612110Y-39433916D01*
X81612106Y-39433918D01*
X81605471Y-39437401D01*
X81599862Y-39442370D01*
X81599855Y-39442375D01*
X81494708Y-39535529D01*
X81486502Y-39542799D01*
X81482247Y-39548963D01*
X81482242Y-39548969D01*
X81400476Y-39667428D01*
X81400473Y-39667432D01*
X81396213Y-39673605D01*
X81393553Y-39680616D01*
X81393551Y-39680622D01*
X81342511Y-39815203D01*
X81339851Y-39822218D01*
X81338947Y-39829658D01*
X81338946Y-39829665D01*
X81323799Y-39954422D01*
X81320693Y-39980000D01*
X81321597Y-39987445D01*
X81338946Y-40130334D01*
X81338947Y-40130339D01*
X81339851Y-40137782D01*
X81342510Y-40144795D01*
X81342511Y-40144796D01*
X81354925Y-40177529D01*
X81362079Y-40236447D01*
X81341033Y-40291940D01*
X81296609Y-40331297D01*
X81238983Y-40345500D01*
X81108201Y-40345500D01*
X81060748Y-40336061D01*
X81020520Y-40309181D01*
X79848761Y-39137422D01*
X79833879Y-39119096D01*
X79833040Y-39118184D01*
X79827421Y-39109584D01*
X79803650Y-39091082D01*
X79799671Y-39087850D01*
X79796521Y-39085182D01*
X79792897Y-39081558D01*
X79786613Y-39077071D01*
X79777038Y-39070234D01*
X79772935Y-39067175D01*
X79742159Y-39043222D01*
X79742160Y-39043222D01*
X79734056Y-39036915D01*
X79726957Y-39034478D01*
X79720848Y-39030116D01*
X79711000Y-39027184D01*
X79710996Y-39027182D01*
X79673614Y-39016052D01*
X79668740Y-39014491D01*
X79646018Y-39006691D01*
X79622156Y-38998500D01*
X79614651Y-38998500D01*
X79607456Y-38996358D01*
X79597191Y-38996782D01*
X79597187Y-38996782D01*
X79558237Y-38998394D01*
X79553112Y-38998500D01*
X73781200Y-38998500D01*
X73733747Y-38989061D01*
X73693519Y-38962181D01*
X72770774Y-38039435D01*
X72747571Y-38007258D01*
X72735718Y-37969403D01*
X72724808Y-37893520D01*
X72667529Y-37768097D01*
X72648798Y-37746480D01*
X72583041Y-37670591D01*
X72583039Y-37670589D01*
X72577235Y-37663891D01*
X72548540Y-37645450D01*
X72468699Y-37594139D01*
X72468695Y-37594137D01*
X72461240Y-37589346D01*
X72452734Y-37586848D01*
X72452731Y-37586847D01*
X72373833Y-37563681D01*
X72328942Y-37550500D01*
X72191058Y-37550500D01*
X72182547Y-37552998D01*
X72182547Y-37552999D01*
X72067268Y-37586847D01*
X72067262Y-37586849D01*
X72058760Y-37589346D01*
X72051306Y-37594136D01*
X72051300Y-37594139D01*
X71950222Y-37659098D01*
X71950218Y-37659100D01*
X71942765Y-37663891D01*
X71936963Y-37670585D01*
X71936958Y-37670591D01*
X71858279Y-37761393D01*
X71858276Y-37761397D01*
X71852471Y-37768097D01*
X71848789Y-37776159D01*
X71848786Y-37776164D01*
X71798877Y-37885450D01*
X71798876Y-37885452D01*
X71795192Y-37893520D01*
X71793930Y-37902293D01*
X71793929Y-37902299D01*
X71785303Y-37962299D01*
X71775569Y-38030000D01*
X71776831Y-38038777D01*
X71795192Y-38166480D01*
X71792436Y-38166876D01*
X71793495Y-38216234D01*
X71762056Y-38272848D01*
X71706364Y-38305892D01*
X71641608Y-38306355D01*
X71585449Y-38274110D01*
X71110774Y-37799435D01*
X71087571Y-37767258D01*
X71075718Y-37729403D01*
X71064808Y-37653520D01*
X71007529Y-37528097D01*
X70967845Y-37482299D01*
X70923041Y-37430591D01*
X70923039Y-37430589D01*
X70917235Y-37423891D01*
X70905734Y-37416500D01*
X70808699Y-37354139D01*
X70808695Y-37354137D01*
X70801240Y-37349346D01*
X70792734Y-37346848D01*
X70792731Y-37346847D01*
X70713833Y-37323681D01*
X70668942Y-37310500D01*
X70531058Y-37310500D01*
X70522547Y-37312998D01*
X70522547Y-37312999D01*
X70407268Y-37346847D01*
X70407262Y-37346849D01*
X70398760Y-37349346D01*
X70391306Y-37354136D01*
X70391300Y-37354139D01*
X70290222Y-37419098D01*
X70290218Y-37419100D01*
X70282765Y-37423891D01*
X70276963Y-37430585D01*
X70276958Y-37430591D01*
X70198279Y-37521393D01*
X70198276Y-37521397D01*
X70192471Y-37528097D01*
X70188789Y-37536159D01*
X70188786Y-37536164D01*
X70138877Y-37645450D01*
X70138876Y-37645452D01*
X70135192Y-37653520D01*
X70133930Y-37662293D01*
X70133929Y-37662299D01*
X70120666Y-37754549D01*
X70115569Y-37790000D01*
X70116831Y-37798777D01*
X70133929Y-37917700D01*
X70133930Y-37917704D01*
X70135192Y-37926480D01*
X70138876Y-37934548D01*
X70138877Y-37934549D01*
X70186476Y-38038777D01*
X70192471Y-38051903D01*
X70198278Y-38058605D01*
X70198279Y-38058606D01*
X70276958Y-38149408D01*
X70276960Y-38149410D01*
X70282765Y-38156109D01*
X70398760Y-38230654D01*
X70531058Y-38269500D01*
X70539930Y-38269500D01*
X70543728Y-38270046D01*
X70581586Y-38281900D01*
X70613764Y-38305103D01*
X72204235Y-39895573D01*
X72219129Y-39913912D01*
X72219957Y-39914812D01*
X72225579Y-39923416D01*
X72240467Y-39935004D01*
X72249360Y-39941926D01*
X72253340Y-39945158D01*
X72256476Y-39947814D01*
X72260104Y-39951442D01*
X72264278Y-39954422D01*
X72275962Y-39962764D01*
X72280071Y-39965828D01*
X72318944Y-39996085D01*
X72326042Y-39998521D01*
X72332152Y-40002884D01*
X72376962Y-40016224D01*
X72379389Y-40016947D01*
X72384227Y-40018496D01*
X72430844Y-40034500D01*
X72438349Y-40034500D01*
X72445544Y-40036642D01*
X72494772Y-40034605D01*
X72499896Y-40034500D01*
X79229351Y-40034500D01*
X79276804Y-40043939D01*
X79317032Y-40070819D01*
X80701788Y-41455575D01*
X80716678Y-41473909D01*
X80717510Y-41474813D01*
X80723131Y-41483416D01*
X80746923Y-41501934D01*
X80750868Y-41505138D01*
X80754023Y-41507810D01*
X80757655Y-41511442D01*
X80761832Y-41514424D01*
X80773511Y-41522763D01*
X80777615Y-41525822D01*
X80816496Y-41556085D01*
X80823594Y-41558521D01*
X80829704Y-41562884D01*
X80874514Y-41576224D01*
X80876941Y-41576947D01*
X80881779Y-41578496D01*
X80928396Y-41594500D01*
X80935901Y-41594500D01*
X80943096Y-41596642D01*
X80992314Y-41594606D01*
X80997440Y-41594500D01*
X88074153Y-41594500D01*
X88131779Y-41608703D01*
X88176203Y-41648060D01*
X88197249Y-41703553D01*
X88190095Y-41762471D01*
X88173208Y-41807000D01*
X88159851Y-41842218D01*
X88158947Y-41849658D01*
X88158946Y-41849665D01*
X88144445Y-41969098D01*
X88140693Y-42000000D01*
X88141597Y-42007445D01*
X88158946Y-42150334D01*
X88158947Y-42150339D01*
X88159851Y-42157782D01*
X88162510Y-42164795D01*
X88162511Y-42164796D01*
X88209033Y-42287465D01*
X88216213Y-42306395D01*
X88220476Y-42312571D01*
X88267032Y-42380020D01*
X88306502Y-42437201D01*
X88425471Y-42542599D01*
X88566207Y-42616463D01*
X88720529Y-42654500D01*
X88871971Y-42654500D01*
X88879471Y-42654500D01*
X89033793Y-42616463D01*
X89174529Y-42542599D01*
X89293498Y-42437201D01*
X89383787Y-42306395D01*
X89440149Y-42157782D01*
X89459307Y-42000000D01*
X89440149Y-41842218D01*
X89420380Y-41790093D01*
X89409905Y-41762471D01*
X89402751Y-41703553D01*
X89423797Y-41648060D01*
X89468221Y-41608703D01*
X89525847Y-41594500D01*
X93858291Y-41594500D01*
X93925330Y-41614184D01*
X94020251Y-41675186D01*
X94028760Y-41680654D01*
X94161058Y-41719500D01*
X94290072Y-41719500D01*
X94298942Y-41719500D01*
X94431240Y-41680654D01*
X94547235Y-41606109D01*
X94637529Y-41501903D01*
X94694808Y-41376480D01*
X94714431Y-41240000D01*
X94694808Y-41103520D01*
X94637529Y-40978097D01*
X94562582Y-40891603D01*
X94535131Y-40836759D01*
X94537320Y-40775467D01*
X94568614Y-40722723D01*
X95428818Y-39862520D01*
X95478182Y-39832270D01*
X95535898Y-39827728D01*
X95589385Y-39849883D01*
X95626985Y-39893906D01*
X95640500Y-39950201D01*
X95640500Y-42376000D01*
X95649342Y-42443164D01*
X95650388Y-42447069D01*
X95650391Y-42447082D01*
X95655916Y-42467700D01*
X95665955Y-42505164D01*
X95667506Y-42508908D01*
X95667509Y-42508917D01*
X95688767Y-42560237D01*
X95688770Y-42560242D01*
X95691880Y-42567750D01*
X95696828Y-42574198D01*
X95696829Y-42574200D01*
X95706412Y-42586689D01*
X95733119Y-42621494D01*
X95778506Y-42666881D01*
X95832250Y-42708120D01*
X95839760Y-42711230D01*
X95839762Y-42711232D01*
X95891082Y-42732490D01*
X95894836Y-42734045D01*
X95956836Y-42750658D01*
X96024000Y-42759500D01*
X102571947Y-42759500D01*
X102576000Y-42759500D01*
X102643164Y-42750658D01*
X102705164Y-42734045D01*
X102767750Y-42708120D01*
X102821494Y-42666881D01*
X102866881Y-42621494D01*
X102908120Y-42567750D01*
X102934045Y-42505164D01*
X102950658Y-42443164D01*
X102959500Y-42376000D01*
X102959500Y-41424000D01*
X102950658Y-41356836D01*
X102948758Y-41349747D01*
X102940946Y-41320591D01*
X102934045Y-41294836D01*
X102930264Y-41285709D01*
X102911232Y-41239762D01*
X102911230Y-41239760D01*
X102908120Y-41232250D01*
X102866881Y-41178506D01*
X102821494Y-41133119D01*
X102767750Y-41091880D01*
X102760242Y-41088770D01*
X102760237Y-41088767D01*
X102708917Y-41067509D01*
X102708908Y-41067506D01*
X102705164Y-41065955D01*
X102701248Y-41064905D01*
X102701246Y-41064905D01*
X102647082Y-41050391D01*
X102647069Y-41050388D01*
X102643164Y-41049342D01*
X102609909Y-41044964D01*
X102580020Y-41041029D01*
X102580016Y-41041028D01*
X102576000Y-41040500D01*
X102571947Y-41040500D01*
X101749227Y-41040500D01*
X101702751Y-41031461D01*
X101663050Y-41005661D01*
X101635914Y-40966861D01*
X101012500Y-39564182D01*
X100970186Y-39468976D01*
X100959500Y-39418616D01*
X100959500Y-38158500D01*
X100976113Y-38096500D01*
X101021500Y-38051113D01*
X101083500Y-38034500D01*
X108461798Y-38034500D01*
X108509251Y-38043939D01*
X108549479Y-38070819D01*
X108559224Y-38080564D01*
X108582427Y-38112740D01*
X108594281Y-38150597D01*
X108603929Y-38217700D01*
X108603930Y-38217704D01*
X108605192Y-38226480D01*
X108608876Y-38234548D01*
X108608877Y-38234549D01*
X108656714Y-38339299D01*
X108662471Y-38351903D01*
X108668278Y-38358605D01*
X108668279Y-38358606D01*
X108746958Y-38449408D01*
X108746960Y-38449410D01*
X108752765Y-38456109D01*
X108760222Y-38460901D01*
X108835843Y-38509500D01*
X108868760Y-38530654D01*
X109001058Y-38569500D01*
X109130072Y-38569500D01*
X109138942Y-38569500D01*
X109271240Y-38530654D01*
X109387235Y-38456109D01*
X109477529Y-38351903D01*
X109534808Y-38226480D01*
X109554431Y-38090000D01*
X109534808Y-37953520D01*
X109526355Y-37935010D01*
X109515466Y-37874653D01*
X109534835Y-37816460D01*
X109579724Y-37774668D01*
X109639150Y-37759500D01*
X112051500Y-37759500D01*
X112113500Y-37776113D01*
X112158887Y-37821500D01*
X112175500Y-37883500D01*
X112175500Y-40747562D01*
X112164294Y-40799074D01*
X112132702Y-40841275D01*
X112086434Y-40866539D01*
X112017270Y-40886846D01*
X112017262Y-40886849D01*
X112008760Y-40889346D01*
X112001306Y-40894136D01*
X112001300Y-40894139D01*
X111900222Y-40959098D01*
X111900218Y-40959100D01*
X111892765Y-40963891D01*
X111886963Y-40970585D01*
X111886958Y-40970591D01*
X111808279Y-41061393D01*
X111808276Y-41061397D01*
X111802471Y-41068097D01*
X111798789Y-41076159D01*
X111798786Y-41076164D01*
X111748877Y-41185450D01*
X111745192Y-41193520D01*
X111743930Y-41202293D01*
X111743929Y-41202299D01*
X111730625Y-41294836D01*
X111725569Y-41330000D01*
X111726831Y-41338777D01*
X111743929Y-41457700D01*
X111743930Y-41457704D01*
X111745192Y-41466480D01*
X111748876Y-41474548D01*
X111748877Y-41474549D01*
X111796354Y-41578510D01*
X111802471Y-41591903D01*
X111808278Y-41598605D01*
X111808279Y-41598606D01*
X111886958Y-41689408D01*
X111886960Y-41689410D01*
X111892765Y-41696109D01*
X112008760Y-41770654D01*
X112141058Y-41809500D01*
X112270072Y-41809500D01*
X112278942Y-41809500D01*
X112411240Y-41770654D01*
X112527235Y-41696109D01*
X112617529Y-41591903D01*
X112618131Y-41592425D01*
X112658636Y-41555253D01*
X112720043Y-41540975D01*
X112780535Y-41558738D01*
X112824473Y-41603950D01*
X112840500Y-41664924D01*
X112840500Y-54445076D01*
X112831473Y-54491522D01*
X112805706Y-54531204D01*
X112458767Y-54890535D01*
X110150170Y-57281580D01*
X110150156Y-57281595D01*
X110148109Y-57283716D01*
X110146262Y-57286037D01*
X110146257Y-57286044D01*
X110119003Y-57320312D01*
X110118989Y-57320330D01*
X110117149Y-57322645D01*
X110115538Y-57325126D01*
X110115528Y-57325140D01*
X110094625Y-57357334D01*
X110091382Y-57362329D01*
X110089154Y-57367844D01*
X110089151Y-57367850D01*
X110056526Y-57448612D01*
X110054294Y-57454138D01*
X110053157Y-57459983D01*
X110053156Y-57459990D01*
X110045836Y-57497651D01*
X110045832Y-57497672D01*
X110045267Y-57500584D01*
X110044982Y-57503538D01*
X110044980Y-57503556D01*
X110040785Y-57547129D01*
X110040500Y-57550093D01*
X110040500Y-57553068D01*
X110040500Y-62519221D01*
X110022227Y-62584011D01*
X109972795Y-62629706D01*
X109906771Y-62642839D01*
X109843615Y-62619539D01*
X109801939Y-62566674D01*
X109782283Y-62519221D01*
X109774040Y-62499320D01*
X109642081Y-62283983D01*
X109636061Y-62276935D01*
X109481221Y-62095639D01*
X109478061Y-62091939D01*
X109401502Y-62026552D01*
X109289722Y-61931083D01*
X109289719Y-61931081D01*
X109286017Y-61927919D01*
X109281865Y-61925374D01*
X109281860Y-61925371D01*
X109074838Y-61798508D01*
X109074837Y-61798507D01*
X109070680Y-61795960D01*
X108837351Y-61699312D01*
X108832622Y-61698176D01*
X108832614Y-61698174D01*
X108596508Y-61641490D01*
X108596504Y-61641489D01*
X108591775Y-61640354D01*
X108586924Y-61639972D01*
X108586923Y-61639972D01*
X108344854Y-61620921D01*
X108340000Y-61620539D01*
X108335146Y-61620921D01*
X108093076Y-61639972D01*
X108093073Y-61639972D01*
X108088225Y-61640354D01*
X108083497Y-61641488D01*
X108083491Y-61641490D01*
X107847385Y-61698174D01*
X107847373Y-61698177D01*
X107842649Y-61699312D01*
X107838152Y-61701174D01*
X107838148Y-61701176D01*
X107613824Y-61794094D01*
X107613819Y-61794096D01*
X107609320Y-61795960D01*
X107605167Y-61798504D01*
X107605161Y-61798508D01*
X107398139Y-61925371D01*
X107398128Y-61925378D01*
X107393983Y-61927919D01*
X107390286Y-61931076D01*
X107390277Y-61931083D01*
X107205639Y-62088778D01*
X107205632Y-62088784D01*
X107201939Y-62091939D01*
X107198784Y-62095632D01*
X107198778Y-62095639D01*
X107041083Y-62280277D01*
X107041076Y-62280286D01*
X107037919Y-62283983D01*
X107035378Y-62288128D01*
X107035371Y-62288139D01*
X106908508Y-62495161D01*
X106908504Y-62495167D01*
X106905960Y-62499320D01*
X106904096Y-62503819D01*
X106904094Y-62503824D01*
X106812825Y-62724168D01*
X106809312Y-62732649D01*
X106808177Y-62737373D01*
X106808174Y-62737385D01*
X106751490Y-62973491D01*
X106751488Y-62973497D01*
X106750354Y-62978225D01*
X106749972Y-62983073D01*
X106749972Y-62983076D01*
X106735691Y-63164529D01*
X106735690Y-63164545D01*
X106735500Y-63166964D01*
X106735500Y-64293036D01*
X106735690Y-64295455D01*
X106735691Y-64295470D01*
X106749972Y-64476923D01*
X106750354Y-64481775D01*
X106751489Y-64486504D01*
X106751490Y-64486508D01*
X106808174Y-64722614D01*
X106808176Y-64722622D01*
X106809312Y-64727351D01*
X106905960Y-64960680D01*
X106908507Y-64964837D01*
X106908508Y-64964838D01*
X107035371Y-65171860D01*
X107035374Y-65171865D01*
X107037919Y-65176017D01*
X107041081Y-65179719D01*
X107041083Y-65179722D01*
X107125697Y-65278793D01*
X107201939Y-65368061D01*
X107205639Y-65371221D01*
X107322292Y-65470852D01*
X107393983Y-65532081D01*
X107609320Y-65664040D01*
X107842649Y-65760688D01*
X107968599Y-65790926D01*
X108021410Y-65818272D01*
X108055415Y-65867063D01*
X108062791Y-65926075D01*
X108041843Y-65981734D01*
X107997387Y-66021238D01*
X107939651Y-66035500D01*
X107029628Y-66035500D01*
X107006144Y-66033064D01*
X107004905Y-66033012D01*
X106994853Y-66030905D01*
X106984661Y-66032175D01*
X106984654Y-66032175D01*
X106964961Y-66034630D01*
X106959864Y-66035159D01*
X106955748Y-66035500D01*
X106950623Y-66035500D01*
X106945568Y-66036343D01*
X106945560Y-66036344D01*
X106931395Y-66038707D01*
X106926332Y-66039444D01*
X106887642Y-66044267D01*
X106887634Y-66044269D01*
X106877449Y-66045539D01*
X106870705Y-66048835D01*
X106863302Y-66050071D01*
X106854265Y-66054961D01*
X106854263Y-66054962D01*
X106819969Y-66073520D01*
X106815420Y-66075862D01*
X106780389Y-66092988D01*
X106780382Y-66092992D01*
X106771161Y-66097501D01*
X106765854Y-66102807D01*
X106759251Y-66106381D01*
X106752296Y-66113935D01*
X106752293Y-66113938D01*
X106725865Y-66142645D01*
X106722319Y-66146340D01*
X106390479Y-66478182D01*
X106087843Y-66780819D01*
X106071181Y-66797481D01*
X106021818Y-66827731D01*
X105964102Y-66832273D01*
X105910615Y-66810118D01*
X105873015Y-66766095D01*
X105859500Y-66709800D01*
X105859500Y-66028053D01*
X105859500Y-66024000D01*
X105850658Y-65956836D01*
X105834045Y-65894836D01*
X105808120Y-65832250D01*
X105766881Y-65778506D01*
X105721494Y-65733119D01*
X105667750Y-65691880D01*
X105660242Y-65688770D01*
X105660237Y-65688767D01*
X105608917Y-65667509D01*
X105608908Y-65667506D01*
X105605164Y-65665955D01*
X105601248Y-65664905D01*
X105601246Y-65664905D01*
X105547082Y-65650391D01*
X105547069Y-65650388D01*
X105543164Y-65649342D01*
X105519100Y-65646174D01*
X105480020Y-65641029D01*
X105480016Y-65641028D01*
X105476000Y-65640500D01*
X105471947Y-65640500D01*
X105295192Y-65640500D01*
X105237169Y-65626087D01*
X105192634Y-65586198D01*
X105171941Y-65530107D01*
X105179900Y-65470852D01*
X105214661Y-65422209D01*
X105278061Y-65368061D01*
X105442081Y-65176017D01*
X105574040Y-64960680D01*
X105670688Y-64727351D01*
X105729646Y-64481775D01*
X105744500Y-64293036D01*
X105744500Y-63166964D01*
X105729646Y-62978225D01*
X105670688Y-62732649D01*
X105574040Y-62499320D01*
X105442081Y-62283983D01*
X105436061Y-62276935D01*
X105281221Y-62095639D01*
X105278061Y-62091939D01*
X105201502Y-62026552D01*
X105089722Y-61931083D01*
X105089719Y-61931081D01*
X105086017Y-61927919D01*
X105081865Y-61925374D01*
X105081860Y-61925371D01*
X104874838Y-61798508D01*
X104874837Y-61798507D01*
X104870680Y-61795960D01*
X104637351Y-61699312D01*
X104632622Y-61698176D01*
X104632614Y-61698174D01*
X104396508Y-61641490D01*
X104396504Y-61641489D01*
X104391775Y-61640354D01*
X104386924Y-61639972D01*
X104386923Y-61639972D01*
X104144854Y-61620921D01*
X104140000Y-61620539D01*
X104135146Y-61620921D01*
X103893076Y-61639972D01*
X103893073Y-61639972D01*
X103888225Y-61640354D01*
X103883497Y-61641488D01*
X103883491Y-61641490D01*
X103647385Y-61698174D01*
X103647373Y-61698177D01*
X103642649Y-61699312D01*
X103638152Y-61701174D01*
X103638148Y-61701176D01*
X103413824Y-61794094D01*
X103413819Y-61794096D01*
X103409320Y-61795960D01*
X103405167Y-61798504D01*
X103405161Y-61798508D01*
X103198139Y-61925371D01*
X103198128Y-61925378D01*
X103193983Y-61927919D01*
X103190286Y-61931076D01*
X103190277Y-61931083D01*
X103005639Y-62088778D01*
X103005632Y-62088784D01*
X103001939Y-62091939D01*
X102998784Y-62095632D01*
X102998778Y-62095639D01*
X102841083Y-62280277D01*
X102841076Y-62280286D01*
X102837919Y-62283983D01*
X102835378Y-62288128D01*
X102835371Y-62288139D01*
X102708508Y-62495161D01*
X102708504Y-62495167D01*
X102705960Y-62499320D01*
X102704096Y-62503819D01*
X102704094Y-62503824D01*
X102612825Y-62724168D01*
X102609312Y-62732649D01*
X102608177Y-62737373D01*
X102608174Y-62737385D01*
X102551490Y-62973491D01*
X102551488Y-62973497D01*
X102550354Y-62978225D01*
X102549972Y-62983073D01*
X102549972Y-62983076D01*
X102535691Y-63164529D01*
X102535690Y-63164545D01*
X102535500Y-63166964D01*
X102535500Y-64293036D01*
X102535690Y-64295455D01*
X102535691Y-64295470D01*
X102549972Y-64476923D01*
X102550354Y-64481775D01*
X102551489Y-64486504D01*
X102551490Y-64486508D01*
X102608174Y-64722614D01*
X102608176Y-64722622D01*
X102609312Y-64727351D01*
X102705960Y-64960680D01*
X102708507Y-64964837D01*
X102708508Y-64964838D01*
X102835371Y-65171860D01*
X102835374Y-65171865D01*
X102837919Y-65176017D01*
X102841081Y-65179719D01*
X102841083Y-65179722D01*
X102925697Y-65278793D01*
X103001939Y-65368061D01*
X103005639Y-65371221D01*
X103065339Y-65422209D01*
X103100100Y-65470852D01*
X103108059Y-65530107D01*
X103087366Y-65586198D01*
X103042831Y-65626087D01*
X102984808Y-65640500D01*
X102755225Y-65640500D01*
X102751995Y-65640839D01*
X102751987Y-65640840D01*
X102704490Y-65645834D01*
X102704486Y-65645834D01*
X102701258Y-65646174D01*
X102698086Y-65646848D01*
X102698082Y-65646849D01*
X102653984Y-65656225D01*
X102653981Y-65656225D01*
X102650810Y-65656900D01*
X102647724Y-65657902D01*
X102647720Y-65657904D01*
X102605391Y-65671661D01*
X102605389Y-65671661D01*
X102599204Y-65673672D01*
X102593575Y-65676922D01*
X102593570Y-65676925D01*
X102555028Y-65699184D01*
X102555016Y-65699191D01*
X102552214Y-65700810D01*
X102549590Y-65702716D01*
X102549587Y-65702719D01*
X102513126Y-65729218D01*
X102513121Y-65729221D01*
X102510493Y-65731132D01*
X102508090Y-65733295D01*
X102508072Y-65733311D01*
X102472586Y-65765276D01*
X102472579Y-65765282D01*
X102470171Y-65767452D01*
X102468011Y-65769851D01*
X102467999Y-65769864D01*
X102175669Y-66094677D01*
X102126744Y-66127940D01*
X102067975Y-66134749D01*
X102012741Y-66113554D01*
X101973613Y-66069179D01*
X101959500Y-66011725D01*
X101959500Y-63628053D01*
X101959500Y-63624000D01*
X101950658Y-63556836D01*
X101934045Y-63494836D01*
X101908120Y-63432250D01*
X101866881Y-63378506D01*
X101821494Y-63333119D01*
X101767750Y-63291880D01*
X101760242Y-63288770D01*
X101760237Y-63288767D01*
X101708917Y-63267509D01*
X101708908Y-63267506D01*
X101705164Y-63265955D01*
X101701248Y-63264905D01*
X101701246Y-63264905D01*
X101647082Y-63250391D01*
X101647069Y-63250388D01*
X101643164Y-63249342D01*
X101635559Y-63248340D01*
X101580020Y-63241029D01*
X101580016Y-63241028D01*
X101576000Y-63240500D01*
X101571947Y-63240500D01*
X99383500Y-63240500D01*
X99321500Y-63223887D01*
X99276113Y-63178500D01*
X99259500Y-63116500D01*
X99259500Y-62398500D01*
X99276113Y-62336500D01*
X99321500Y-62291113D01*
X99383500Y-62274500D01*
X100452872Y-62274500D01*
X100476355Y-62276935D01*
X100477588Y-62276986D01*
X100487647Y-62279095D01*
X100517555Y-62275366D01*
X100522633Y-62274841D01*
X100526744Y-62274500D01*
X100531877Y-62274500D01*
X100551132Y-62271286D01*
X100556121Y-62270559D01*
X100605051Y-62264461D01*
X100611794Y-62261164D01*
X100619198Y-62259929D01*
X100662525Y-62236480D01*
X100667080Y-62234136D01*
X100676009Y-62229771D01*
X100711340Y-62212499D01*
X100716647Y-62207191D01*
X100723249Y-62203619D01*
X100756634Y-62167351D01*
X100760136Y-62163701D01*
X101346238Y-61577600D01*
X101378413Y-61554399D01*
X101416272Y-61542546D01*
X101420070Y-61542000D01*
X101428942Y-61542000D01*
X101561240Y-61503154D01*
X101677235Y-61428609D01*
X101767529Y-61324403D01*
X101824808Y-61198980D01*
X101844431Y-61062500D01*
X101824808Y-60926020D01*
X101767529Y-60800597D01*
X101677235Y-60696391D01*
X101669777Y-60691598D01*
X101568699Y-60626639D01*
X101568695Y-60626637D01*
X101561240Y-60621846D01*
X101552734Y-60619348D01*
X101552731Y-60619347D01*
X101473833Y-60596181D01*
X101428942Y-60583000D01*
X101291058Y-60583000D01*
X101291058Y-60582102D01*
X101248569Y-60579065D01*
X101202299Y-60553802D01*
X101170706Y-60511600D01*
X101159500Y-60460087D01*
X101159500Y-55128053D01*
X101159500Y-55124000D01*
X101150658Y-55056836D01*
X101134045Y-54994836D01*
X101128380Y-54981160D01*
X101111232Y-54939762D01*
X101111230Y-54939760D01*
X101108120Y-54932250D01*
X101066881Y-54878506D01*
X101021494Y-54833119D01*
X100967750Y-54791880D01*
X100960242Y-54788770D01*
X100960237Y-54788767D01*
X100908917Y-54767509D01*
X100908908Y-54767506D01*
X100905164Y-54765955D01*
X100901248Y-54764905D01*
X100901246Y-54764905D01*
X100847082Y-54750391D01*
X100847069Y-54750388D01*
X100843164Y-54749342D01*
X100835559Y-54748340D01*
X100780020Y-54741029D01*
X100780016Y-54741028D01*
X100776000Y-54740500D01*
X94024000Y-54740500D01*
X94019986Y-54741028D01*
X94019977Y-54741029D01*
X93994775Y-54744347D01*
X93938731Y-54738827D01*
X93890908Y-54709088D01*
X93861171Y-54661264D01*
X93855652Y-54605225D01*
X93859500Y-54576000D01*
X93859500Y-53033500D01*
X93850658Y-52966336D01*
X93834045Y-52904336D01*
X93815256Y-52858978D01*
X93805817Y-52811527D01*
X93815256Y-52764074D01*
X93842133Y-52723848D01*
X101860164Y-44705819D01*
X101900393Y-44678939D01*
X101947846Y-44669500D01*
X102646500Y-44669500D01*
X102708500Y-44686113D01*
X102753887Y-44731500D01*
X102770500Y-44793500D01*
X102770500Y-46765177D01*
X102770573Y-46766668D01*
X102770574Y-46766696D01*
X102771675Y-46789076D01*
X102771751Y-46790626D01*
X102771898Y-46792127D01*
X102771901Y-46792155D01*
X102772544Y-46798681D01*
X102772547Y-46798712D01*
X102772693Y-46800185D01*
X102772912Y-46801667D01*
X102772913Y-46801668D01*
X102776204Y-46823857D01*
X102776209Y-46823885D01*
X102776428Y-46825362D01*
X102776723Y-46826845D01*
X102776727Y-46826868D01*
X102779797Y-46842299D01*
X102788808Y-46887601D01*
X102803572Y-46936274D01*
X102804734Y-46939080D01*
X102804736Y-46939085D01*
X102809722Y-46951123D01*
X102810888Y-46953938D01*
X102834872Y-46998810D01*
X102867399Y-47047490D01*
X102869323Y-47049834D01*
X102869325Y-47049837D01*
X102897741Y-47084462D01*
X102897746Y-47084468D01*
X102899671Y-47086813D01*
X102913186Y-47100328D01*
X102952509Y-47132600D01*
X103001189Y-47165127D01*
X103046057Y-47189109D01*
X103063720Y-47196425D01*
X103112396Y-47211191D01*
X103174638Y-47223572D01*
X103199813Y-47227307D01*
X103209371Y-47228249D01*
X103234823Y-47229500D01*
X103883655Y-47229500D01*
X103885177Y-47229500D01*
X103910632Y-47228249D01*
X103920189Y-47227307D01*
X103945361Y-47223572D01*
X104007603Y-47211191D01*
X104056279Y-47196425D01*
X104073942Y-47189109D01*
X104118808Y-47165129D01*
X104167486Y-47132604D01*
X104206336Y-47100719D01*
X104256839Y-47075813D01*
X104313156Y-47075812D01*
X104363664Y-47100720D01*
X104365551Y-47102269D01*
X104400159Y-47130672D01*
X104400166Y-47130677D01*
X104402509Y-47132600D01*
X104451189Y-47165127D01*
X104496057Y-47189109D01*
X104513720Y-47196425D01*
X104562396Y-47211191D01*
X104624638Y-47223572D01*
X104649813Y-47227307D01*
X104659371Y-47228249D01*
X104684823Y-47229500D01*
X106493655Y-47229500D01*
X106495177Y-47229500D01*
X106520632Y-47228249D01*
X106530189Y-47227307D01*
X106555361Y-47223572D01*
X106617603Y-47211191D01*
X106666279Y-47196425D01*
X106683942Y-47189109D01*
X106728808Y-47165129D01*
X106777486Y-47132604D01*
X106816811Y-47100330D01*
X106830330Y-47086811D01*
X106862604Y-47047486D01*
X106895129Y-46998808D01*
X106919109Y-46953942D01*
X106926425Y-46936279D01*
X106941190Y-46887605D01*
X106953571Y-46825366D01*
X106957307Y-46800184D01*
X106958249Y-46790624D01*
X106959500Y-46765177D01*
X106959500Y-45994823D01*
X106958249Y-45969376D01*
X106957307Y-45959816D01*
X106953571Y-45934634D01*
X106941190Y-45872394D01*
X106926425Y-45823720D01*
X106919109Y-45806057D01*
X106895127Y-45761189D01*
X106862600Y-45712509D01*
X106830328Y-45673186D01*
X106816813Y-45659671D01*
X106777492Y-45627400D01*
X106774977Y-45625719D01*
X106774971Y-45625715D01*
X106731338Y-45596560D01*
X106731335Y-45596558D01*
X106728813Y-45594873D01*
X106726142Y-45593445D01*
X106726133Y-45593440D01*
X106686618Y-45572320D01*
X106686609Y-45572315D01*
X106683934Y-45570886D01*
X106680095Y-45569296D01*
X106669076Y-45564732D01*
X106669066Y-45564728D01*
X106666269Y-45563570D01*
X106663354Y-45562686D01*
X106663349Y-45562684D01*
X106620528Y-45549695D01*
X106620512Y-45549691D01*
X106617601Y-45548808D01*
X106614611Y-45548213D01*
X106614602Y-45548211D01*
X106556868Y-45536727D01*
X106556845Y-45536723D01*
X106555362Y-45536428D01*
X106553885Y-45536209D01*
X106553857Y-45536204D01*
X106531668Y-45532913D01*
X106531667Y-45532912D01*
X106530185Y-45532693D01*
X106528712Y-45532547D01*
X106528681Y-45532544D01*
X106522155Y-45531901D01*
X106522127Y-45531898D01*
X106520626Y-45531751D01*
X106519098Y-45531675D01*
X106519086Y-45531675D01*
X106496696Y-45530574D01*
X106496668Y-45530573D01*
X106495177Y-45530500D01*
X104684823Y-45530500D01*
X104683335Y-45530573D01*
X104683294Y-45530574D01*
X104660928Y-45531672D01*
X104660911Y-45531673D01*
X104659428Y-45531746D01*
X104657964Y-45531889D01*
X104657936Y-45531892D01*
X104651394Y-45532535D01*
X104651353Y-45532540D01*
X104649879Y-45532685D01*
X104648398Y-45532904D01*
X104648362Y-45532909D01*
X104626184Y-45536197D01*
X104626145Y-45536203D01*
X104624646Y-45536426D01*
X104623128Y-45536727D01*
X104623122Y-45536729D01*
X104565376Y-45548215D01*
X104565356Y-45548219D01*
X104562390Y-45548810D01*
X104559493Y-45549688D01*
X104559480Y-45549692D01*
X104516622Y-45562693D01*
X104516615Y-45562695D01*
X104514913Y-45563211D01*
X104514910Y-45563212D01*
X104513709Y-45563577D01*
X104513638Y-45563345D01*
X104456816Y-45569296D01*
X104402102Y-45547806D01*
X104363433Y-45503532D01*
X104349500Y-45446424D01*
X104349500Y-44793500D01*
X104366113Y-44731500D01*
X104411500Y-44686113D01*
X104473500Y-44669500D01*
X107312155Y-44669500D01*
X107359608Y-44678939D01*
X107399836Y-44705819D01*
X107793287Y-45099270D01*
X107816490Y-45131446D01*
X107828344Y-45169303D01*
X107843929Y-45277701D01*
X107843930Y-45277706D01*
X107845192Y-45286480D01*
X107902471Y-45411903D01*
X107908278Y-45418605D01*
X107908279Y-45418606D01*
X107986958Y-45509408D01*
X107986960Y-45509410D01*
X107992765Y-45516109D01*
X108045026Y-45549695D01*
X108080231Y-45572320D01*
X108108760Y-45590654D01*
X108241058Y-45629500D01*
X108370072Y-45629500D01*
X108378942Y-45629500D01*
X108511240Y-45590654D01*
X108627235Y-45516109D01*
X108717529Y-45411903D01*
X108774808Y-45286480D01*
X108794431Y-45150000D01*
X108774808Y-45013520D01*
X108717529Y-44888097D01*
X108654202Y-44815013D01*
X108633041Y-44790591D01*
X108633039Y-44790589D01*
X108627235Y-44783891D01*
X108610209Y-44772949D01*
X108518699Y-44714139D01*
X108518695Y-44714137D01*
X108511240Y-44709346D01*
X108502734Y-44706848D01*
X108502731Y-44706847D01*
X108423833Y-44683681D01*
X108378942Y-44670500D01*
X108370072Y-44670500D01*
X108347845Y-44670500D01*
X108300392Y-44661061D01*
X108260164Y-44634181D01*
X107746993Y-44121010D01*
X107739684Y-44113034D01*
X107722037Y-44092003D01*
X107715066Y-44083695D01*
X107696638Y-44073055D01*
X107681891Y-44064541D01*
X107672769Y-44058729D01*
X107650285Y-44042985D01*
X107650282Y-44042983D01*
X107641401Y-44036765D01*
X107630927Y-44033958D01*
X107627445Y-44032334D01*
X107623824Y-44031016D01*
X107614434Y-44025595D01*
X107603756Y-44023712D01*
X107603753Y-44023711D01*
X107576716Y-44018944D01*
X107566157Y-44016603D01*
X107539637Y-44009497D01*
X107539635Y-44009496D01*
X107529160Y-44006690D01*
X107518356Y-44007635D01*
X107518353Y-44007635D01*
X107491009Y-44010028D01*
X107480201Y-44010500D01*
X104684845Y-44010500D01*
X104628550Y-43996985D01*
X104584527Y-43959385D01*
X104562372Y-43905898D01*
X104566914Y-43848182D01*
X104597164Y-43798819D01*
X104779804Y-43616179D01*
X105348997Y-43046984D01*
X105356965Y-43039684D01*
X105377992Y-43022041D01*
X105377991Y-43022041D01*
X105386305Y-43015066D01*
X105405458Y-42981890D01*
X105411265Y-42972776D01*
X105433235Y-42941401D01*
X105436045Y-42930912D01*
X105437663Y-42927443D01*
X105438975Y-42923837D01*
X105444405Y-42914434D01*
X105451057Y-42876704D01*
X105453392Y-42866170D01*
X105463310Y-42829160D01*
X105459971Y-42791008D01*
X105459500Y-42780201D01*
X105459500Y-41192203D01*
X105467318Y-41148870D01*
X105489784Y-41111003D01*
X105537529Y-41055903D01*
X105594808Y-40930480D01*
X105614431Y-40794000D01*
X105594808Y-40657520D01*
X105537529Y-40532097D01*
X105486861Y-40473622D01*
X105453041Y-40434591D01*
X105453039Y-40434589D01*
X105447235Y-40427891D01*
X105439777Y-40423098D01*
X105338699Y-40358139D01*
X105338695Y-40358137D01*
X105331240Y-40353346D01*
X105322734Y-40350848D01*
X105322731Y-40350847D01*
X105237631Y-40325860D01*
X105198942Y-40314500D01*
X105061058Y-40314500D01*
X105052547Y-40316998D01*
X105052547Y-40316999D01*
X104937268Y-40350847D01*
X104937262Y-40350849D01*
X104928760Y-40353346D01*
X104921306Y-40358136D01*
X104921300Y-40358139D01*
X104820222Y-40423098D01*
X104820218Y-40423100D01*
X104812765Y-40427891D01*
X104806963Y-40434585D01*
X104806958Y-40434591D01*
X104728279Y-40525393D01*
X104728276Y-40525397D01*
X104722471Y-40532097D01*
X104718789Y-40540159D01*
X104718786Y-40540164D01*
X104668877Y-40649450D01*
X104665192Y-40657520D01*
X104663930Y-40666293D01*
X104663929Y-40666299D01*
X104649803Y-40764549D01*
X104645569Y-40794000D01*
X104646831Y-40802777D01*
X104663929Y-40921700D01*
X104663930Y-40921704D01*
X104665192Y-40930480D01*
X104668876Y-40938548D01*
X104668877Y-40938549D01*
X104715436Y-41040500D01*
X104722471Y-41055903D01*
X104770215Y-41111003D01*
X104792682Y-41148870D01*
X104800500Y-41192203D01*
X104800500Y-42612155D01*
X104791061Y-42659608D01*
X104764181Y-42699836D01*
X103816836Y-43647181D01*
X103776608Y-43674061D01*
X103729155Y-43683500D01*
X101644351Y-43683500D01*
X101633543Y-43683028D01*
X101606198Y-43680635D01*
X101606195Y-43680635D01*
X101595392Y-43679690D01*
X101584917Y-43682496D01*
X101584912Y-43682497D01*
X101558393Y-43689603D01*
X101547835Y-43691944D01*
X101520803Y-43696710D01*
X101520798Y-43696711D01*
X101510118Y-43698595D01*
X101500726Y-43704016D01*
X101497099Y-43705337D01*
X101493618Y-43706959D01*
X101483152Y-43709765D01*
X101474271Y-43715982D01*
X101474267Y-43715985D01*
X101451781Y-43731730D01*
X101442663Y-43737539D01*
X101418883Y-43751268D01*
X101418877Y-43751272D01*
X101409486Y-43756695D01*
X101402512Y-43765005D01*
X101402512Y-43765006D01*
X101384870Y-43786030D01*
X101377564Y-43794002D01*
X98567388Y-46604181D01*
X98527160Y-46631061D01*
X98479707Y-46640500D01*
X94333807Y-46640500D01*
X94290474Y-46632682D01*
X94252829Y-46610347D01*
X94247235Y-46603891D01*
X94192590Y-46568773D01*
X94138699Y-46534139D01*
X94138695Y-46534137D01*
X94131240Y-46529346D01*
X94122734Y-46526848D01*
X94122731Y-46526847D01*
X94043833Y-46503681D01*
X93998942Y-46490500D01*
X93861058Y-46490500D01*
X93852547Y-46492998D01*
X93852547Y-46492999D01*
X93737268Y-46526847D01*
X93737262Y-46526849D01*
X93728760Y-46529346D01*
X93721306Y-46534136D01*
X93721300Y-46534139D01*
X93620222Y-46599098D01*
X93620218Y-46599100D01*
X93612765Y-46603891D01*
X93606963Y-46610585D01*
X93606958Y-46610591D01*
X93528279Y-46701393D01*
X93528276Y-46701397D01*
X93522471Y-46708097D01*
X93518789Y-46716159D01*
X93518786Y-46716164D01*
X93468877Y-46825450D01*
X93465192Y-46833520D01*
X93463930Y-46842293D01*
X93463929Y-46842299D01*
X93456999Y-46890503D01*
X93445569Y-46970000D01*
X93446831Y-46978777D01*
X93463929Y-47097700D01*
X93463930Y-47097704D01*
X93465192Y-47106480D01*
X93468876Y-47114548D01*
X93468877Y-47114549D01*
X93518531Y-47223277D01*
X93522471Y-47231903D01*
X93528278Y-47238605D01*
X93528279Y-47238606D01*
X93606958Y-47329408D01*
X93606960Y-47329410D01*
X93612765Y-47336109D01*
X93728760Y-47410654D01*
X93861058Y-47449500D01*
X93990072Y-47449500D01*
X93998942Y-47449500D01*
X94131240Y-47410654D01*
X94247235Y-47336109D01*
X94252829Y-47329652D01*
X94290474Y-47307318D01*
X94333807Y-47299500D01*
X98035154Y-47299500D01*
X98091449Y-47313015D01*
X98135472Y-47350615D01*
X98157627Y-47404102D01*
X98153085Y-47461818D01*
X98122835Y-47511181D01*
X93419836Y-52214181D01*
X93379608Y-52241061D01*
X93332155Y-52250500D01*
X80189787Y-52250500D01*
X80178979Y-52250028D01*
X80151645Y-52247636D01*
X80151642Y-52247636D01*
X80140839Y-52246691D01*
X80130363Y-52249497D01*
X80130360Y-52249498D01*
X80103850Y-52256601D01*
X80093298Y-52258940D01*
X80066249Y-52263710D01*
X80066242Y-52263712D01*
X80055566Y-52265595D01*
X80046177Y-52271014D01*
X80042564Y-52272330D01*
X80039071Y-52273958D01*
X80028599Y-52276765D01*
X80019716Y-52282984D01*
X80019711Y-52282987D01*
X79997220Y-52298735D01*
X79988104Y-52304543D01*
X79964327Y-52318271D01*
X79964324Y-52318273D01*
X79954934Y-52323695D01*
X79947963Y-52332001D01*
X79947962Y-52332003D01*
X79930312Y-52353037D01*
X79923006Y-52361009D01*
X72889836Y-59394181D01*
X72849608Y-59421061D01*
X72802155Y-59430500D01*
X72771058Y-59430500D01*
X72762547Y-59432998D01*
X72762547Y-59432999D01*
X72638760Y-59469346D01*
X72638280Y-59467711D01*
X72589656Y-59476485D01*
X72531462Y-59457117D01*
X72489668Y-59412229D01*
X72474500Y-59352801D01*
X72474500Y-57329352D01*
X72482318Y-57286019D01*
X72504787Y-57248150D01*
X72521718Y-57228610D01*
X72521719Y-57228607D01*
X72527529Y-57221903D01*
X72584808Y-57096480D01*
X72604431Y-56960000D01*
X72584808Y-56823520D01*
X72527529Y-56698097D01*
X72494002Y-56659404D01*
X72443041Y-56600591D01*
X72443039Y-56600589D01*
X72437235Y-56593891D01*
X72429777Y-56589098D01*
X72328699Y-56524139D01*
X72328695Y-56524137D01*
X72321240Y-56519346D01*
X72312734Y-56516848D01*
X72312731Y-56516847D01*
X72233833Y-56493681D01*
X72188942Y-56480500D01*
X72051058Y-56480500D01*
X72042547Y-56482998D01*
X72042547Y-56482999D01*
X71927268Y-56516847D01*
X71927262Y-56516849D01*
X71918760Y-56519346D01*
X71911306Y-56524136D01*
X71911300Y-56524139D01*
X71810222Y-56589098D01*
X71810218Y-56589100D01*
X71802765Y-56593891D01*
X71796963Y-56600585D01*
X71796958Y-56600591D01*
X71718279Y-56691393D01*
X71718276Y-56691397D01*
X71712471Y-56698097D01*
X71708789Y-56706159D01*
X71708786Y-56706164D01*
X71690567Y-56746059D01*
X71655192Y-56823520D01*
X71653930Y-56832293D01*
X71653929Y-56832299D01*
X71640981Y-56922358D01*
X71635569Y-56960000D01*
X71636831Y-56968777D01*
X71653929Y-57087700D01*
X71653930Y-57087704D01*
X71655192Y-57096480D01*
X71712471Y-57221903D01*
X71718276Y-57228602D01*
X71718281Y-57228610D01*
X71735213Y-57248150D01*
X71757682Y-57286019D01*
X71765500Y-57329352D01*
X71765500Y-57420188D01*
X71752384Y-57475693D01*
X71715810Y-57519455D01*
X71663516Y-57542218D01*
X71606566Y-57539165D01*
X71573260Y-57529385D01*
X71517452Y-57512998D01*
X71517447Y-57512997D01*
X71508942Y-57510500D01*
X71371058Y-57510500D01*
X71362547Y-57512998D01*
X71362547Y-57512999D01*
X71247268Y-57546847D01*
X71247262Y-57546849D01*
X71238760Y-57549346D01*
X71231306Y-57554136D01*
X71231300Y-57554139D01*
X71130222Y-57619098D01*
X71130218Y-57619100D01*
X71122765Y-57623891D01*
X71116963Y-57630585D01*
X71116958Y-57630591D01*
X71038279Y-57721393D01*
X71038276Y-57721397D01*
X71032471Y-57728097D01*
X71028789Y-57736159D01*
X71028786Y-57736164D01*
X70978877Y-57845450D01*
X70975192Y-57853520D01*
X70973930Y-57862293D01*
X70973929Y-57862299D01*
X70957864Y-57974031D01*
X70955569Y-57990000D01*
X70956831Y-57998777D01*
X70973929Y-58117700D01*
X70973930Y-58117704D01*
X70975192Y-58126480D01*
X71032471Y-58251903D01*
X71038278Y-58258605D01*
X71038279Y-58258606D01*
X71116958Y-58349408D01*
X71116960Y-58349410D01*
X71122765Y-58356109D01*
X71238760Y-58430654D01*
X71371058Y-58469500D01*
X71500072Y-58469500D01*
X71508942Y-58469500D01*
X71606566Y-58440834D01*
X71663516Y-58437782D01*
X71715810Y-58460545D01*
X71752384Y-58504307D01*
X71765500Y-58559812D01*
X71765500Y-61090372D01*
X71763064Y-61113855D01*
X71763012Y-61115094D01*
X71760905Y-61125147D01*
X71762175Y-61135338D01*
X71762175Y-61135345D01*
X71764630Y-61155039D01*
X71765158Y-61160130D01*
X71765500Y-61164257D01*
X71765500Y-61169377D01*
X71766343Y-61174428D01*
X71768704Y-61188579D01*
X71769442Y-61193643D01*
X71771113Y-61207049D01*
X71775539Y-61242551D01*
X71778835Y-61249294D01*
X71780071Y-61256698D01*
X71784961Y-61265734D01*
X71803516Y-61300021D01*
X71805860Y-61304575D01*
X71827501Y-61348840D01*
X71832808Y-61354147D01*
X71836381Y-61360749D01*
X71843935Y-61367703D01*
X71843936Y-61367704D01*
X71872634Y-61394122D01*
X71876332Y-61397671D01*
X72614236Y-62135574D01*
X72629125Y-62153909D01*
X72629961Y-62154817D01*
X72635579Y-62163416D01*
X72643682Y-62169722D01*
X72643685Y-62169726D01*
X72659360Y-62181926D01*
X72663340Y-62185158D01*
X72666476Y-62187814D01*
X72670104Y-62191442D01*
X72674278Y-62194422D01*
X72685962Y-62202764D01*
X72690071Y-62205828D01*
X72728944Y-62236085D01*
X72736042Y-62238521D01*
X72742152Y-62242884D01*
X72782963Y-62255034D01*
X72789389Y-62256947D01*
X72794227Y-62258496D01*
X72840844Y-62274500D01*
X72848349Y-62274500D01*
X72855544Y-62276642D01*
X72904772Y-62274605D01*
X72909896Y-62274500D01*
X88916500Y-62274500D01*
X88978500Y-62291113D01*
X89023887Y-62336500D01*
X89040500Y-62398499D01*
X89040500Y-62398500D01*
X89040500Y-71176000D01*
X89049342Y-71243164D01*
X89050388Y-71247069D01*
X89050391Y-71247082D01*
X89064905Y-71301246D01*
X89065955Y-71305164D01*
X89067506Y-71308908D01*
X89067509Y-71308917D01*
X89088767Y-71360237D01*
X89088770Y-71360242D01*
X89091880Y-71367750D01*
X89133119Y-71421494D01*
X89178506Y-71466881D01*
X89232250Y-71508120D01*
X89239760Y-71511230D01*
X89239762Y-71511232D01*
X89291082Y-71532490D01*
X89294836Y-71534045D01*
X89356836Y-71550658D01*
X89424000Y-71559500D01*
X105471947Y-71559500D01*
X105476000Y-71559500D01*
X105543164Y-71550658D01*
X105605164Y-71534045D01*
X105667750Y-71508120D01*
X105721494Y-71466881D01*
X105766881Y-71421494D01*
X105808120Y-71367750D01*
X105834045Y-71305164D01*
X105850658Y-71243164D01*
X105859500Y-71176000D01*
X105859500Y-68063200D01*
X105868939Y-68015747D01*
X105895819Y-67975519D01*
X107090519Y-66780819D01*
X107130747Y-66753939D01*
X107178200Y-66744500D01*
X119010372Y-66744500D01*
X119033855Y-66746935D01*
X119035088Y-66746986D01*
X119045147Y-66749095D01*
X119075055Y-66745366D01*
X119080133Y-66744841D01*
X119084244Y-66744500D01*
X119089377Y-66744500D01*
X119108632Y-66741286D01*
X119113621Y-66740559D01*
X119162551Y-66734461D01*
X119169294Y-66731164D01*
X119176698Y-66729929D01*
X119220025Y-66706480D01*
X119224580Y-66704136D01*
X119268840Y-66682499D01*
X119274147Y-66677191D01*
X119280749Y-66673619D01*
X119314134Y-66637351D01*
X119317636Y-66633701D01*
X119595581Y-66355756D01*
X119613900Y-66340881D01*
X119614810Y-66340043D01*
X119623416Y-66334421D01*
X119641914Y-66310654D01*
X119645151Y-66306668D01*
X119647810Y-66303527D01*
X119651442Y-66299897D01*
X119662788Y-66284004D01*
X119665831Y-66279925D01*
X119696085Y-66241056D01*
X119698521Y-66233957D01*
X119702884Y-66227848D01*
X119716958Y-66180571D01*
X119718484Y-66175807D01*
X119734500Y-66129156D01*
X119734500Y-66121651D01*
X119736642Y-66114456D01*
X119734606Y-66065237D01*
X119734500Y-66060112D01*
X119734500Y-58168201D01*
X119743939Y-58120748D01*
X119770819Y-58080520D01*
X120431151Y-57420188D01*
X122485581Y-55365756D01*
X122503900Y-55350881D01*
X122504810Y-55350043D01*
X122513416Y-55344421D01*
X122531914Y-55320654D01*
X122535151Y-55316668D01*
X122537810Y-55313527D01*
X122541442Y-55309897D01*
X122552788Y-55294004D01*
X122555831Y-55289925D01*
X122556574Y-55288971D01*
X122586085Y-55251056D01*
X122588521Y-55243957D01*
X122592884Y-55237848D01*
X122606958Y-55190571D01*
X122608484Y-55185807D01*
X122624500Y-55139156D01*
X122624500Y-55131651D01*
X122626642Y-55124456D01*
X122624606Y-55075237D01*
X122624500Y-55070112D01*
X122624500Y-41109628D01*
X122626935Y-41086144D01*
X122626985Y-41084911D01*
X122629095Y-41074853D01*
X122625366Y-41044944D01*
X122624840Y-41039861D01*
X122624500Y-41035759D01*
X122624500Y-41030623D01*
X122621291Y-41011398D01*
X122620553Y-41006326D01*
X122617197Y-40979404D01*
X122614461Y-40957449D01*
X122611164Y-40950705D01*
X122609929Y-40943302D01*
X122605041Y-40934269D01*
X122605039Y-40934264D01*
X122586473Y-40899958D01*
X122584141Y-40895430D01*
X122562499Y-40851160D01*
X122557191Y-40845852D01*
X122553619Y-40839251D01*
X122546059Y-40832292D01*
X122546058Y-40832290D01*
X122517365Y-40805877D01*
X122513667Y-40802328D01*
X121385761Y-39674422D01*
X121370879Y-39656096D01*
X121370040Y-39655184D01*
X121364421Y-39646584D01*
X121340650Y-39628082D01*
X121336671Y-39624850D01*
X121333521Y-39622182D01*
X121329897Y-39618558D01*
X121323613Y-39614071D01*
X121314038Y-39607234D01*
X121309935Y-39604175D01*
X121279159Y-39580222D01*
X121279160Y-39580222D01*
X121271056Y-39573915D01*
X121263957Y-39571478D01*
X121257848Y-39567116D01*
X121248000Y-39564184D01*
X121247996Y-39564182D01*
X121210614Y-39553052D01*
X121205740Y-39551491D01*
X121180418Y-39542799D01*
X121159156Y-39535500D01*
X121151651Y-39535500D01*
X121144456Y-39533358D01*
X121134191Y-39533782D01*
X121134187Y-39533782D01*
X121095237Y-39535394D01*
X121090112Y-39535500D01*
X120281709Y-39535500D01*
X120214670Y-39515816D01*
X120118699Y-39454139D01*
X120118695Y-39454137D01*
X120111240Y-39449346D01*
X120102734Y-39446848D01*
X120102731Y-39446847D01*
X120023833Y-39423681D01*
X119978942Y-39410500D01*
X119841058Y-39410500D01*
X119832552Y-39412997D01*
X119832549Y-39412998D01*
X119826548Y-39414760D01*
X119818433Y-39417143D01*
X119761484Y-39420196D01*
X119709190Y-39397434D01*
X119672616Y-39353671D01*
X119659500Y-39298166D01*
X119659500Y-38178344D01*
X119672616Y-38122839D01*
X119709190Y-38079077D01*
X119761484Y-38056314D01*
X119818433Y-38059366D01*
X119921058Y-38089500D01*
X120050072Y-38089500D01*
X120058942Y-38089500D01*
X120191240Y-38050654D01*
X120307235Y-37976109D01*
X120397529Y-37871903D01*
X120454808Y-37746480D01*
X120474431Y-37610000D01*
X120454808Y-37473520D01*
X120397529Y-37348097D01*
X120367117Y-37312999D01*
X120313041Y-37250591D01*
X120313039Y-37250589D01*
X120307235Y-37243891D01*
X120241273Y-37201500D01*
X120198699Y-37174139D01*
X120198695Y-37174137D01*
X120191240Y-37169346D01*
X120182734Y-37166848D01*
X120182731Y-37166847D01*
X120103833Y-37143681D01*
X120058942Y-37130500D01*
X119921058Y-37130500D01*
X119912553Y-37132997D01*
X119912547Y-37132998D01*
X119840636Y-37154113D01*
X119818433Y-37160633D01*
X119761484Y-37163686D01*
X119709190Y-37140923D01*
X119672616Y-37097161D01*
X119659500Y-37041656D01*
X119659500Y-36883500D01*
X119676113Y-36821500D01*
X119721500Y-36776113D01*
X119783500Y-36759500D01*
X120173616Y-36759500D01*
X120177642Y-36759500D01*
X120244247Y-36750807D01*
X120305769Y-36734469D01*
X120367914Y-36708970D01*
X120421431Y-36668375D01*
X120466741Y-36623665D01*
X120508046Y-36570694D01*
X120534370Y-36508896D01*
X120551527Y-36447597D01*
X120561108Y-36381113D01*
X120650334Y-29689070D01*
X120666090Y-29630213D01*
X120707980Y-29585965D01*
X120765888Y-29567012D01*
X120824002Y-29577596D01*
X120828760Y-29580654D01*
X120961058Y-29619500D01*
X121090072Y-29619500D01*
X121098942Y-29619500D01*
X121231240Y-29580654D01*
X121347235Y-29506109D01*
X121437529Y-29401903D01*
X121494808Y-29276480D01*
X121514431Y-29140000D01*
X121494808Y-29003520D01*
X121437529Y-28878097D01*
X121394232Y-28828129D01*
X121353041Y-28780591D01*
X121353039Y-28780589D01*
X121347235Y-28773891D01*
X121339777Y-28769098D01*
X121238699Y-28704139D01*
X121238695Y-28704137D01*
X121231240Y-28699346D01*
X121222734Y-28696848D01*
X121222731Y-28696847D01*
X121107453Y-28662999D01*
X121107452Y-28662998D01*
X121098942Y-28660500D01*
X121090072Y-28660500D01*
X121086267Y-28659953D01*
X121048410Y-28648099D01*
X121016234Y-28624896D01*
X118562782Y-26171444D01*
X118530761Y-26116127D01*
X118530545Y-26052210D01*
X118562191Y-25996677D01*
X118617291Y-25964283D01*
X118618951Y-25963821D01*
X118638148Y-25958492D01*
X118802362Y-25871431D01*
X118944021Y-25751105D01*
X119056502Y-25603139D01*
X119134545Y-25434452D01*
X119174500Y-25252933D01*
X119174500Y-23913668D01*
X119159443Y-23775225D01*
X119101385Y-23602916D01*
X119096307Y-23544670D01*
X119118486Y-23490567D01*
X119162992Y-23452644D01*
X119219923Y-23439332D01*
X124247729Y-23481230D01*
X124291328Y-23489538D01*
X124344818Y-23510175D01*
X124356704Y-23515494D01*
X124648853Y-23665150D01*
X124660095Y-23671678D01*
X124934898Y-23851177D01*
X124945417Y-23858866D01*
X124955480Y-23867067D01*
X125199841Y-24066218D01*
X125209501Y-24074975D01*
X125440755Y-24307906D01*
X125449443Y-24317630D01*
X125654944Y-24573540D01*
X125662562Y-24584121D01*
X125840064Y-24860208D01*
X125846529Y-24871532D01*
X125994054Y-25164723D01*
X125999294Y-25176662D01*
X126115216Y-25483723D01*
X126119174Y-25496147D01*
X126202214Y-25813691D01*
X126204845Y-25826462D01*
X126254082Y-26150970D01*
X126255357Y-26163947D01*
X126270392Y-26495084D01*
X126270517Y-26501599D01*
X126270235Y-26540821D01*
X126270218Y-26543217D01*
X126270500Y-26544012D01*
X126270508Y-26544105D01*
X126245525Y-69455915D01*
X126245515Y-69456025D01*
X126245182Y-69456964D01*
X126245202Y-69459754D01*
X126245202Y-69459756D01*
X126245482Y-69498562D01*
X126245357Y-69505081D01*
X126230440Y-69833605D01*
X126229165Y-69846581D01*
X126180323Y-70168485D01*
X126177692Y-70181256D01*
X126095318Y-70496253D01*
X126091360Y-70508677D01*
X125976368Y-70813275D01*
X125971128Y-70825214D01*
X125824786Y-71116054D01*
X125818321Y-71127378D01*
X125642243Y-71401250D01*
X125634625Y-71411831D01*
X125430772Y-71665688D01*
X125422085Y-71675412D01*
X125192686Y-71906475D01*
X125183025Y-71915232D01*
X124930652Y-72120913D01*
X124920126Y-72128607D01*
X124647531Y-72306663D01*
X124636255Y-72313210D01*
X124346484Y-72461649D01*
X124334582Y-72466976D01*
X124030818Y-72584170D01*
X124018423Y-72588217D01*
X123704030Y-72672866D01*
X123691279Y-72675589D01*
X123369741Y-72726756D01*
X123356774Y-72728125D01*
X123028371Y-72745417D01*
X123021851Y-72745589D01*
X70044875Y-72745500D01*
X70003246Y-72745500D01*
X69996756Y-72745330D01*
X69667239Y-72728060D01*
X69654331Y-72726703D01*
X69331644Y-72675595D01*
X69318954Y-72672898D01*
X69003360Y-72588335D01*
X68991018Y-72584325D01*
X68686003Y-72467241D01*
X68674146Y-72461962D01*
X68673532Y-72461649D01*
X68383029Y-72313629D01*
X68371801Y-72307147D01*
X68097789Y-72129201D01*
X68087301Y-72121582D01*
X67833383Y-71915963D01*
X67823738Y-71907278D01*
X67592721Y-71676261D01*
X67584036Y-71666616D01*
X67490135Y-71550658D01*
X67378415Y-71412695D01*
X67370800Y-71402214D01*
X67192849Y-71128192D01*
X67186373Y-71116976D01*
X67038032Y-70825842D01*
X67032763Y-70814007D01*
X66915671Y-70508972D01*
X66911667Y-70496651D01*
X66827097Y-70181031D01*
X66824407Y-70168370D01*
X66773296Y-69845668D01*
X66771939Y-69832760D01*
X66754670Y-69503244D01*
X66754500Y-69496754D01*
X66754500Y-69428986D01*
X73805500Y-69428986D01*
X73805501Y-69435066D01*
X73806687Y-69441030D01*
X73806688Y-69441037D01*
X73817883Y-69497324D01*
X73817884Y-69497327D01*
X73820266Y-69509301D01*
X73876516Y-69593484D01*
X73960699Y-69649734D01*
X74034933Y-69664500D01*
X75785066Y-69664499D01*
X75859301Y-69649734D01*
X75943484Y-69593484D01*
X75999734Y-69509301D01*
X76014500Y-69435067D01*
X76014499Y-67684934D01*
X75999734Y-67610699D01*
X75943484Y-67526516D01*
X75859301Y-67470266D01*
X75847323Y-67467883D01*
X75847322Y-67467883D01*
X75791047Y-67456689D01*
X75791042Y-67456688D01*
X75785067Y-67455500D01*
X75778971Y-67455500D01*
X74041023Y-67455500D01*
X74041012Y-67455500D01*
X74034934Y-67455501D01*
X74028970Y-67456687D01*
X74028962Y-67456688D01*
X73972675Y-67467883D01*
X73972670Y-67467884D01*
X73960699Y-67470266D01*
X73950548Y-67477048D01*
X73950545Y-67477050D01*
X73886669Y-67519731D01*
X73886666Y-67519733D01*
X73876516Y-67526516D01*
X73869733Y-67536666D01*
X73869731Y-67536669D01*
X73827050Y-67600545D01*
X73827048Y-67600548D01*
X73820266Y-67610699D01*
X73817883Y-67622674D01*
X73817883Y-67622677D01*
X73806689Y-67678952D01*
X73806688Y-67678958D01*
X73805500Y-67684933D01*
X73805500Y-67691023D01*
X73805500Y-67691028D01*
X73805500Y-69428976D01*
X73805500Y-69428986D01*
X66754500Y-69428986D01*
X66754500Y-63130000D01*
X67280768Y-63130000D01*
X67281297Y-63135709D01*
X67295768Y-63291880D01*
X67299655Y-63333821D01*
X67355672Y-63530701D01*
X67358224Y-63535826D01*
X67358226Y-63535831D01*
X67444357Y-63708805D01*
X67444359Y-63708809D01*
X67446912Y-63713935D01*
X67450361Y-63718502D01*
X67450364Y-63718507D01*
X67566810Y-63872707D01*
X67566815Y-63872712D01*
X67570268Y-63877285D01*
X67574504Y-63881146D01*
X67574508Y-63881151D01*
X67677239Y-63974802D01*
X67721538Y-64015186D01*
X67895573Y-64122944D01*
X68086444Y-64196888D01*
X68287653Y-64234500D01*
X68486618Y-64234500D01*
X68492347Y-64234500D01*
X68693556Y-64196888D01*
X68884427Y-64122944D01*
X69058462Y-64015186D01*
X69209732Y-63877285D01*
X69333088Y-63713935D01*
X69424328Y-63530701D01*
X69480345Y-63333821D01*
X69499232Y-63130000D01*
X69480345Y-62926179D01*
X69424328Y-62729299D01*
X69333088Y-62546065D01*
X69329635Y-62541492D01*
X69213189Y-62387292D01*
X69213185Y-62387288D01*
X69209732Y-62382715D01*
X69205495Y-62378852D01*
X69205491Y-62378848D01*
X69062696Y-62248674D01*
X69062697Y-62248674D01*
X69058462Y-62244814D01*
X69053596Y-62241801D01*
X69053592Y-62241798D01*
X68889298Y-62140072D01*
X68884427Y-62137056D01*
X68879089Y-62134988D01*
X68879085Y-62134986D01*
X68698902Y-62065183D01*
X68698901Y-62065182D01*
X68693556Y-62063112D01*
X68687921Y-62062058D01*
X68687919Y-62062058D01*
X68497977Y-62026552D01*
X68497972Y-62026551D01*
X68492347Y-62025500D01*
X68287653Y-62025500D01*
X68282028Y-62026551D01*
X68282022Y-62026552D01*
X68092080Y-62062058D01*
X68092075Y-62062059D01*
X68086444Y-62063112D01*
X68081101Y-62065181D01*
X68081097Y-62065183D01*
X67900914Y-62134986D01*
X67900906Y-62134989D01*
X67895573Y-62137056D01*
X67890706Y-62140069D01*
X67890701Y-62140072D01*
X67726407Y-62241798D01*
X67726397Y-62241804D01*
X67721538Y-62244814D01*
X67717307Y-62248670D01*
X67717303Y-62248674D01*
X67574508Y-62378848D01*
X67574498Y-62378858D01*
X67570268Y-62382715D01*
X67566819Y-62387281D01*
X67566810Y-62387292D01*
X67450364Y-62541492D01*
X67450357Y-62541502D01*
X67446912Y-62546065D01*
X67444362Y-62551185D01*
X67444357Y-62551194D01*
X67358226Y-62724168D01*
X67358222Y-62724176D01*
X67355672Y-62729299D01*
X67299655Y-62926179D01*
X67280768Y-63130000D01*
X66754500Y-63130000D01*
X66754500Y-61458986D01*
X67285500Y-61458986D01*
X67285501Y-61465066D01*
X67286687Y-61471030D01*
X67286688Y-61471037D01*
X67297883Y-61527324D01*
X67297884Y-61527327D01*
X67300266Y-61539301D01*
X67356516Y-61623484D01*
X67440699Y-61679734D01*
X67514933Y-61694500D01*
X69265066Y-61694499D01*
X69339301Y-61679734D01*
X69423484Y-61623484D01*
X69479734Y-61539301D01*
X69494500Y-61465067D01*
X69494499Y-59714934D01*
X69479734Y-59640699D01*
X69423484Y-59556516D01*
X69339301Y-59500266D01*
X69327323Y-59497883D01*
X69327322Y-59497883D01*
X69271047Y-59486689D01*
X69271042Y-59486688D01*
X69265067Y-59485500D01*
X69258971Y-59485500D01*
X67521023Y-59485500D01*
X67521012Y-59485500D01*
X67514934Y-59485501D01*
X67508970Y-59486687D01*
X67508962Y-59486688D01*
X67452675Y-59497883D01*
X67452670Y-59497884D01*
X67440699Y-59500266D01*
X67430548Y-59507048D01*
X67430545Y-59507050D01*
X67366669Y-59549731D01*
X67366666Y-59549733D01*
X67356516Y-59556516D01*
X67349733Y-59566666D01*
X67349731Y-59566669D01*
X67307050Y-59630545D01*
X67307048Y-59630548D01*
X67300266Y-59640699D01*
X67297883Y-59652674D01*
X67297883Y-59652677D01*
X67286689Y-59708952D01*
X67286688Y-59708958D01*
X67285500Y-59714933D01*
X67285500Y-59721023D01*
X67285500Y-59721028D01*
X67285500Y-61458976D01*
X67285500Y-61458986D01*
X66754500Y-61458986D01*
X66754500Y-55288986D01*
X67285500Y-55288986D01*
X67285501Y-55295066D01*
X67286687Y-55301030D01*
X67286688Y-55301037D01*
X67297883Y-55357324D01*
X67297884Y-55357327D01*
X67300266Y-55369301D01*
X67356516Y-55453484D01*
X67440699Y-55509734D01*
X67514933Y-55524500D01*
X69265066Y-55524499D01*
X69339301Y-55509734D01*
X69423484Y-55453484D01*
X69479734Y-55369301D01*
X69494500Y-55295067D01*
X69494499Y-54110000D01*
X73155569Y-54110000D01*
X73156831Y-54118777D01*
X73173929Y-54237700D01*
X73173930Y-54237704D01*
X73175192Y-54246480D01*
X73232471Y-54371903D01*
X73238278Y-54378605D01*
X73238279Y-54378606D01*
X73316958Y-54469408D01*
X73316960Y-54469410D01*
X73322765Y-54476109D01*
X73438760Y-54550654D01*
X73571058Y-54589500D01*
X73700072Y-54589500D01*
X73708942Y-54589500D01*
X73841240Y-54550654D01*
X73957235Y-54476109D01*
X74047529Y-54371903D01*
X74104808Y-54246480D01*
X74124431Y-54110000D01*
X74104808Y-53973520D01*
X74047529Y-53848097D01*
X73994639Y-53787058D01*
X73963041Y-53750591D01*
X73963039Y-53750589D01*
X73957235Y-53743891D01*
X73915754Y-53717233D01*
X73848699Y-53674139D01*
X73848695Y-53674137D01*
X73841240Y-53669346D01*
X73832734Y-53666848D01*
X73832731Y-53666847D01*
X73753833Y-53643681D01*
X73708942Y-53630500D01*
X73571058Y-53630500D01*
X73562547Y-53632998D01*
X73562547Y-53632999D01*
X73447268Y-53666847D01*
X73447262Y-53666849D01*
X73438760Y-53669346D01*
X73431306Y-53674136D01*
X73431300Y-53674139D01*
X73330222Y-53739098D01*
X73330218Y-53739100D01*
X73322765Y-53743891D01*
X73316963Y-53750585D01*
X73316958Y-53750591D01*
X73238279Y-53841393D01*
X73238276Y-53841397D01*
X73232471Y-53848097D01*
X73228789Y-53856159D01*
X73228786Y-53856164D01*
X73189832Y-53941462D01*
X73175192Y-53973520D01*
X73173930Y-53982293D01*
X73173929Y-53982299D01*
X73157864Y-54094031D01*
X73155569Y-54110000D01*
X69494499Y-54110000D01*
X69494499Y-53544934D01*
X69479734Y-53470699D01*
X69423484Y-53386516D01*
X69339301Y-53330266D01*
X69327323Y-53327883D01*
X69327322Y-53327883D01*
X69271047Y-53316689D01*
X69271042Y-53316688D01*
X69265067Y-53315500D01*
X69258971Y-53315500D01*
X67521023Y-53315500D01*
X67521012Y-53315500D01*
X67514934Y-53315501D01*
X67508970Y-53316687D01*
X67508962Y-53316688D01*
X67452675Y-53327883D01*
X67452670Y-53327884D01*
X67440699Y-53330266D01*
X67430548Y-53337048D01*
X67430545Y-53337050D01*
X67366669Y-53379731D01*
X67366666Y-53379733D01*
X67356516Y-53386516D01*
X67349733Y-53396666D01*
X67349731Y-53396669D01*
X67307050Y-53460545D01*
X67307048Y-53460548D01*
X67300266Y-53470699D01*
X67297883Y-53482674D01*
X67297883Y-53482677D01*
X67286689Y-53538952D01*
X67286688Y-53538958D01*
X67285500Y-53544933D01*
X67285500Y-53551023D01*
X67285500Y-53551028D01*
X67285500Y-55288976D01*
X67285500Y-55288986D01*
X66754500Y-55288986D01*
X66754500Y-52310000D01*
X77825569Y-52310000D01*
X77826831Y-52318777D01*
X77843929Y-52437700D01*
X77843930Y-52437704D01*
X77845192Y-52446480D01*
X77902471Y-52571903D01*
X77908278Y-52578605D01*
X77908279Y-52578606D01*
X77986958Y-52669408D01*
X77986960Y-52669410D01*
X77992765Y-52676109D01*
X78108760Y-52750654D01*
X78241058Y-52789500D01*
X78370072Y-52789500D01*
X78378942Y-52789500D01*
X78511240Y-52750654D01*
X78627235Y-52676109D01*
X78717529Y-52571903D01*
X78774808Y-52446480D01*
X78794431Y-52310000D01*
X78774808Y-52173520D01*
X78717529Y-52048097D01*
X78627235Y-51943891D01*
X78619777Y-51939098D01*
X78518699Y-51874139D01*
X78518695Y-51874137D01*
X78511240Y-51869346D01*
X78502734Y-51866848D01*
X78502731Y-51866847D01*
X78423833Y-51843681D01*
X78378942Y-51830500D01*
X78241058Y-51830500D01*
X78232547Y-51832998D01*
X78232547Y-51832999D01*
X78117268Y-51866847D01*
X78117262Y-51866849D01*
X78108760Y-51869346D01*
X78101306Y-51874136D01*
X78101300Y-51874139D01*
X78000222Y-51939098D01*
X78000218Y-51939100D01*
X77992765Y-51943891D01*
X77986963Y-51950585D01*
X77986958Y-51950591D01*
X77908279Y-52041393D01*
X77908276Y-52041397D01*
X77902471Y-52048097D01*
X77898789Y-52056159D01*
X77898786Y-52056164D01*
X77848877Y-52165450D01*
X77845192Y-52173520D01*
X77843930Y-52182293D01*
X77843929Y-52182299D01*
X77829453Y-52282987D01*
X77825569Y-52310000D01*
X66754500Y-52310000D01*
X66754500Y-50999960D01*
X69755500Y-50999960D01*
X69755501Y-51003254D01*
X69755853Y-51006531D01*
X69755854Y-51006544D01*
X69760498Y-51049748D01*
X69761960Y-51063342D01*
X69812658Y-51199267D01*
X69899596Y-51315404D01*
X70015733Y-51402342D01*
X70151658Y-51453040D01*
X70211745Y-51459500D01*
X72008254Y-51459499D01*
X72068342Y-51453040D01*
X72204267Y-51402342D01*
X72320404Y-51315404D01*
X72407342Y-51199267D01*
X72458040Y-51063342D01*
X72464500Y-51003255D01*
X72464500Y-50728986D01*
X82340500Y-50728986D01*
X82340501Y-50735066D01*
X82341687Y-50741030D01*
X82341688Y-50741037D01*
X82352883Y-50797324D01*
X82352884Y-50797327D01*
X82355266Y-50809301D01*
X82411516Y-50893484D01*
X82495699Y-50949734D01*
X82569933Y-50964500D01*
X84320066Y-50964499D01*
X84394301Y-50949734D01*
X84478484Y-50893484D01*
X84534734Y-50809301D01*
X84549500Y-50735067D01*
X84549499Y-48984934D01*
X84534734Y-48910699D01*
X84478484Y-48826516D01*
X84394301Y-48770266D01*
X84382323Y-48767883D01*
X84382322Y-48767883D01*
X84326047Y-48756689D01*
X84326042Y-48756688D01*
X84320067Y-48755500D01*
X84313971Y-48755500D01*
X82576023Y-48755500D01*
X82576012Y-48755500D01*
X82569934Y-48755501D01*
X82563970Y-48756687D01*
X82563962Y-48756688D01*
X82507675Y-48767883D01*
X82507670Y-48767884D01*
X82495699Y-48770266D01*
X82485548Y-48777048D01*
X82485545Y-48777050D01*
X82421669Y-48819731D01*
X82421666Y-48819733D01*
X82411516Y-48826516D01*
X82404733Y-48836666D01*
X82404731Y-48836669D01*
X82362050Y-48900545D01*
X82362048Y-48900548D01*
X82355266Y-48910699D01*
X82352883Y-48922674D01*
X82352883Y-48922677D01*
X82341689Y-48978952D01*
X82341688Y-48978958D01*
X82340500Y-48984933D01*
X82340500Y-48991023D01*
X82340500Y-48991028D01*
X82340500Y-50728976D01*
X82340500Y-50728986D01*
X72464500Y-50728986D01*
X72464499Y-49706746D01*
X72458040Y-49646658D01*
X72407342Y-49510733D01*
X72320404Y-49394596D01*
X72234113Y-49330000D01*
X77505569Y-49330000D01*
X77506831Y-49338777D01*
X77523929Y-49457700D01*
X77523930Y-49457704D01*
X77525192Y-49466480D01*
X77582471Y-49591903D01*
X77588278Y-49598605D01*
X77588279Y-49598606D01*
X77666958Y-49689408D01*
X77666960Y-49689410D01*
X77672765Y-49696109D01*
X77788760Y-49770654D01*
X77921058Y-49809500D01*
X78050072Y-49809500D01*
X78058942Y-49809500D01*
X78191240Y-49770654D01*
X78307235Y-49696109D01*
X78397529Y-49591903D01*
X78454808Y-49466480D01*
X78474431Y-49330000D01*
X78454808Y-49193520D01*
X78397529Y-49068097D01*
X78320294Y-48978962D01*
X78313041Y-48970591D01*
X78313039Y-48970589D01*
X78307235Y-48963891D01*
X78299777Y-48959098D01*
X78198699Y-48894139D01*
X78198695Y-48894137D01*
X78191240Y-48889346D01*
X78182734Y-48886848D01*
X78182731Y-48886847D01*
X78103833Y-48863681D01*
X78058942Y-48850500D01*
X77921058Y-48850500D01*
X77912547Y-48852998D01*
X77912547Y-48852999D01*
X77797268Y-48886847D01*
X77797262Y-48886849D01*
X77788760Y-48889346D01*
X77781306Y-48894136D01*
X77781300Y-48894139D01*
X77680222Y-48959098D01*
X77680218Y-48959100D01*
X77672765Y-48963891D01*
X77666963Y-48970585D01*
X77666958Y-48970591D01*
X77588279Y-49061393D01*
X77588276Y-49061397D01*
X77582471Y-49068097D01*
X77578789Y-49076159D01*
X77578786Y-49076164D01*
X77528877Y-49185450D01*
X77525192Y-49193520D01*
X77523930Y-49202293D01*
X77523929Y-49202299D01*
X77515681Y-49259668D01*
X77505569Y-49330000D01*
X72234113Y-49330000D01*
X72204267Y-49307658D01*
X72195964Y-49304561D01*
X72075604Y-49259668D01*
X72075599Y-49259666D01*
X72068342Y-49256960D01*
X72060638Y-49256131D01*
X72060635Y-49256131D01*
X72011541Y-49250853D01*
X72011535Y-49250852D01*
X72008255Y-49250500D01*
X72004945Y-49250500D01*
X70215057Y-49250500D01*
X70215038Y-49250500D01*
X70211746Y-49250501D01*
X70208469Y-49250853D01*
X70208455Y-49250854D01*
X70159370Y-49256131D01*
X70151658Y-49256960D01*
X70144396Y-49259668D01*
X70144390Y-49259670D01*
X70024035Y-49304561D01*
X70024032Y-49304562D01*
X70015733Y-49307658D01*
X70008641Y-49312966D01*
X70008639Y-49312968D01*
X69906691Y-49389284D01*
X69906687Y-49389287D01*
X69899596Y-49394596D01*
X69894287Y-49401687D01*
X69894284Y-49401691D01*
X69817968Y-49503639D01*
X69812658Y-49510733D01*
X69809562Y-49519032D01*
X69809561Y-49519035D01*
X69764668Y-49639395D01*
X69764666Y-49639402D01*
X69761960Y-49646658D01*
X69761131Y-49654359D01*
X69761131Y-49654364D01*
X69755853Y-49703458D01*
X69755500Y-49706745D01*
X69755500Y-49710053D01*
X69755500Y-49710054D01*
X69755500Y-50999942D01*
X69755500Y-50999960D01*
X66754500Y-50999960D01*
X66754500Y-43820000D01*
X67240768Y-43820000D01*
X67241297Y-43825709D01*
X67258067Y-44006690D01*
X67259655Y-44023821D01*
X67315672Y-44220701D01*
X67318224Y-44225826D01*
X67318226Y-44225831D01*
X67404357Y-44398805D01*
X67404359Y-44398809D01*
X67406912Y-44403935D01*
X67410361Y-44408502D01*
X67410364Y-44408507D01*
X67526810Y-44562707D01*
X67526815Y-44562712D01*
X67530268Y-44567285D01*
X67534504Y-44571146D01*
X67534508Y-44571151D01*
X67620403Y-44649454D01*
X67681538Y-44705186D01*
X67686405Y-44708199D01*
X67686407Y-44708201D01*
X67736757Y-44739376D01*
X67855573Y-44812944D01*
X68046444Y-44886888D01*
X68247653Y-44924500D01*
X68446618Y-44924500D01*
X68452347Y-44924500D01*
X68653556Y-44886888D01*
X68844427Y-44812944D01*
X69018462Y-44705186D01*
X69169732Y-44567285D01*
X69175999Y-44558986D01*
X82345500Y-44558986D01*
X82345501Y-44565066D01*
X82346687Y-44571030D01*
X82346688Y-44571037D01*
X82357883Y-44627324D01*
X82357884Y-44627327D01*
X82360266Y-44639301D01*
X82367049Y-44649453D01*
X82367050Y-44649454D01*
X82404289Y-44705186D01*
X82416516Y-44723484D01*
X82500699Y-44779734D01*
X82574933Y-44794500D01*
X84325066Y-44794499D01*
X84399301Y-44779734D01*
X84483484Y-44723484D01*
X84539734Y-44639301D01*
X84554500Y-44565067D01*
X84554499Y-42814934D01*
X84539734Y-42740699D01*
X84483484Y-42656516D01*
X84399301Y-42600266D01*
X84387323Y-42597883D01*
X84387322Y-42597883D01*
X84331047Y-42586689D01*
X84331042Y-42586688D01*
X84325067Y-42585500D01*
X84318971Y-42585500D01*
X82581023Y-42585500D01*
X82581012Y-42585500D01*
X82574934Y-42585501D01*
X82568970Y-42586687D01*
X82568962Y-42586688D01*
X82512675Y-42597883D01*
X82512670Y-42597884D01*
X82500699Y-42600266D01*
X82490548Y-42607048D01*
X82490545Y-42607050D01*
X82426669Y-42649731D01*
X82426666Y-42649733D01*
X82416516Y-42656516D01*
X82409733Y-42666666D01*
X82409731Y-42666669D01*
X82367050Y-42730545D01*
X82367048Y-42730548D01*
X82360266Y-42740699D01*
X82357883Y-42752674D01*
X82357883Y-42752677D01*
X82346689Y-42808952D01*
X82346688Y-42808958D01*
X82345500Y-42814933D01*
X82345500Y-42821023D01*
X82345500Y-42821028D01*
X82345500Y-44558976D01*
X82345500Y-44558986D01*
X69175999Y-44558986D01*
X69293088Y-44403935D01*
X69384328Y-44220701D01*
X69400919Y-44162386D01*
X69422394Y-44120081D01*
X69458184Y-44088937D01*
X69480066Y-44076305D01*
X69504698Y-44046948D01*
X69511985Y-44038996D01*
X71210983Y-42340000D01*
X72195569Y-42340000D01*
X72196831Y-42348777D01*
X72213929Y-42467700D01*
X72213930Y-42467704D01*
X72215192Y-42476480D01*
X72218876Y-42484548D01*
X72218877Y-42484549D01*
X72265522Y-42586688D01*
X72272471Y-42601903D01*
X72278278Y-42608605D01*
X72278279Y-42608606D01*
X72356958Y-42699408D01*
X72356960Y-42699410D01*
X72362765Y-42706109D01*
X72427834Y-42747926D01*
X72445843Y-42759500D01*
X72478760Y-42780654D01*
X72611058Y-42819500D01*
X72740072Y-42819500D01*
X72748942Y-42819500D01*
X72881240Y-42780654D01*
X72997235Y-42706109D01*
X73087529Y-42601903D01*
X73144808Y-42476480D01*
X73164431Y-42340000D01*
X73144808Y-42203520D01*
X73087529Y-42078097D01*
X73029770Y-42011439D01*
X73003041Y-41980591D01*
X73003039Y-41980589D01*
X72997235Y-41973891D01*
X72939355Y-41936694D01*
X72888699Y-41904139D01*
X72888695Y-41904137D01*
X72881240Y-41899346D01*
X72872734Y-41896848D01*
X72872731Y-41896847D01*
X72776211Y-41868507D01*
X72748942Y-41860500D01*
X72611058Y-41860500D01*
X72602547Y-41862998D01*
X72602547Y-41862999D01*
X72487268Y-41896847D01*
X72487262Y-41896849D01*
X72478760Y-41899346D01*
X72471306Y-41904136D01*
X72471300Y-41904139D01*
X72370222Y-41969098D01*
X72370218Y-41969100D01*
X72362765Y-41973891D01*
X72356963Y-41980585D01*
X72356958Y-41980591D01*
X72278279Y-42071393D01*
X72278276Y-42071397D01*
X72272471Y-42078097D01*
X72268789Y-42086159D01*
X72268786Y-42086164D01*
X72218877Y-42195450D01*
X72215192Y-42203520D01*
X72213930Y-42212293D01*
X72213929Y-42212299D01*
X72203122Y-42287465D01*
X72195569Y-42340000D01*
X71210983Y-42340000D01*
X71512664Y-42038319D01*
X71552893Y-42011439D01*
X71600346Y-42002000D01*
X71622572Y-42002000D01*
X71631442Y-42002000D01*
X71763740Y-41963154D01*
X71879735Y-41888609D01*
X71956514Y-41800000D01*
X77440715Y-41800000D01*
X77441776Y-41808059D01*
X77458710Y-41936694D01*
X77458711Y-41936700D01*
X77459772Y-41944754D01*
X77462881Y-41952260D01*
X77462882Y-41952263D01*
X77512534Y-42072133D01*
X77515645Y-42079643D01*
X77520590Y-42086087D01*
X77520591Y-42086089D01*
X77599582Y-42189031D01*
X77604526Y-42195474D01*
X77720357Y-42284355D01*
X77855246Y-42340228D01*
X78000000Y-42359285D01*
X78144754Y-42340228D01*
X78279643Y-42284355D01*
X78395474Y-42195474D01*
X78484355Y-42079643D01*
X78540228Y-41944754D01*
X78559285Y-41800000D01*
X78540228Y-41655246D01*
X78484355Y-41520358D01*
X78395474Y-41404526D01*
X78328216Y-41352917D01*
X78286089Y-41320591D01*
X78286087Y-41320590D01*
X78279643Y-41315645D01*
X78272134Y-41312534D01*
X78272133Y-41312534D01*
X78152263Y-41262882D01*
X78152260Y-41262881D01*
X78144754Y-41259772D01*
X78136700Y-41258711D01*
X78136694Y-41258710D01*
X78008059Y-41241776D01*
X78000000Y-41240715D01*
X77991941Y-41241776D01*
X77863305Y-41258710D01*
X77863297Y-41258712D01*
X77855246Y-41259772D01*
X77847741Y-41262880D01*
X77847736Y-41262882D01*
X77727865Y-41312535D01*
X77727862Y-41312536D01*
X77720358Y-41315645D01*
X77713913Y-41320589D01*
X77713910Y-41320592D01*
X77610972Y-41399579D01*
X77610970Y-41399581D01*
X77604526Y-41404526D01*
X77599582Y-41410968D01*
X77599579Y-41410972D01*
X77520592Y-41513910D01*
X77520589Y-41513913D01*
X77515645Y-41520358D01*
X77512536Y-41527862D01*
X77512535Y-41527865D01*
X77462882Y-41647736D01*
X77462880Y-41647741D01*
X77459772Y-41655246D01*
X77458712Y-41663297D01*
X77458710Y-41663305D01*
X77442768Y-41784403D01*
X77440715Y-41800000D01*
X71956514Y-41800000D01*
X71970029Y-41784403D01*
X72027308Y-41658980D01*
X72046931Y-41522500D01*
X72027308Y-41386020D01*
X71970029Y-41260597D01*
X71907325Y-41188232D01*
X71891918Y-41170451D01*
X71863872Y-41112716D01*
X71868451Y-41048694D01*
X71904427Y-40995537D01*
X71909772Y-40990905D01*
X71917235Y-40986109D01*
X72007529Y-40881903D01*
X72064808Y-40756480D01*
X72084431Y-40620000D01*
X72064808Y-40483520D01*
X72007529Y-40358097D01*
X71971918Y-40316999D01*
X71923041Y-40260591D01*
X71923039Y-40260589D01*
X71917235Y-40253891D01*
X71902622Y-40244500D01*
X71808699Y-40184139D01*
X71808695Y-40184137D01*
X71801240Y-40179346D01*
X71792734Y-40176848D01*
X71792731Y-40176847D01*
X71713833Y-40153681D01*
X71668942Y-40140500D01*
X71531058Y-40140500D01*
X71522547Y-40142998D01*
X71522547Y-40142999D01*
X71407268Y-40176847D01*
X71407262Y-40176849D01*
X71398760Y-40179346D01*
X71391306Y-40184136D01*
X71391300Y-40184139D01*
X71290222Y-40249098D01*
X71290218Y-40249100D01*
X71282765Y-40253891D01*
X71276963Y-40260585D01*
X71276958Y-40260591D01*
X71198279Y-40351393D01*
X71198276Y-40351397D01*
X71192471Y-40358097D01*
X71188789Y-40366159D01*
X71188786Y-40366164D01*
X71160173Y-40428819D01*
X71135192Y-40483520D01*
X71133930Y-40492293D01*
X71133929Y-40492299D01*
X71118344Y-40600695D01*
X71106490Y-40638552D01*
X71083287Y-40670728D01*
X70839833Y-40914183D01*
X70799608Y-40941061D01*
X70752155Y-40950500D01*
X69496286Y-40950500D01*
X69447952Y-40940692D01*
X69407264Y-40912820D01*
X69385435Y-40878747D01*
X69384328Y-40879299D01*
X69295642Y-40701194D01*
X69295641Y-40701193D01*
X69293088Y-40696065D01*
X69282513Y-40682061D01*
X69173189Y-40537292D01*
X69173185Y-40537288D01*
X69169732Y-40532715D01*
X69165495Y-40528852D01*
X69165491Y-40528848D01*
X69022696Y-40398674D01*
X69022697Y-40398674D01*
X69018462Y-40394814D01*
X69013596Y-40391801D01*
X69013592Y-40391798D01*
X68849298Y-40290072D01*
X68844427Y-40287056D01*
X68839089Y-40284988D01*
X68839085Y-40284986D01*
X68658902Y-40215183D01*
X68658901Y-40215182D01*
X68653556Y-40213112D01*
X68647921Y-40212058D01*
X68647919Y-40212058D01*
X68457977Y-40176552D01*
X68457972Y-40176551D01*
X68452347Y-40175500D01*
X68247653Y-40175500D01*
X68242028Y-40176551D01*
X68242022Y-40176552D01*
X68052080Y-40212058D01*
X68052075Y-40212059D01*
X68046444Y-40213112D01*
X68041101Y-40215181D01*
X68041097Y-40215183D01*
X67860914Y-40284986D01*
X67860906Y-40284989D01*
X67855573Y-40287056D01*
X67850706Y-40290069D01*
X67850701Y-40290072D01*
X67686407Y-40391798D01*
X67686397Y-40391804D01*
X67681538Y-40394814D01*
X67677307Y-40398670D01*
X67677303Y-40398674D01*
X67534508Y-40528848D01*
X67534498Y-40528858D01*
X67530268Y-40532715D01*
X67526819Y-40537281D01*
X67526810Y-40537292D01*
X67410364Y-40691492D01*
X67410357Y-40691502D01*
X67406912Y-40696065D01*
X67404362Y-40701185D01*
X67404357Y-40701194D01*
X67318226Y-40874168D01*
X67318222Y-40874176D01*
X67315672Y-40879299D01*
X67314103Y-40884811D01*
X67314103Y-40884813D01*
X67261955Y-41068097D01*
X67259655Y-41076179D01*
X67259126Y-41081884D01*
X67259126Y-41081886D01*
X67245288Y-41231223D01*
X67240768Y-41280000D01*
X67241297Y-41285709D01*
X67258736Y-41473909D01*
X67259655Y-41483821D01*
X67315672Y-41680701D01*
X67318224Y-41685826D01*
X67318226Y-41685831D01*
X67404357Y-41858805D01*
X67404359Y-41858809D01*
X67406912Y-41863935D01*
X67410361Y-41868502D01*
X67410364Y-41868507D01*
X67526810Y-42022707D01*
X67526815Y-42022712D01*
X67530268Y-42027285D01*
X67534504Y-42031146D01*
X67534508Y-42031151D01*
X67586006Y-42078097D01*
X67681538Y-42165186D01*
X67855573Y-42272944D01*
X68046444Y-42346888D01*
X68247653Y-42384500D01*
X68446618Y-42384500D01*
X68452347Y-42384500D01*
X68653556Y-42346888D01*
X68844427Y-42272944D01*
X69018462Y-42165186D01*
X69169732Y-42027285D01*
X69293088Y-41863935D01*
X69384328Y-41680701D01*
X69385435Y-41681252D01*
X69407264Y-41647180D01*
X69447952Y-41619308D01*
X69496286Y-41609500D01*
X70710153Y-41609500D01*
X70766448Y-41623015D01*
X70810471Y-41660615D01*
X70832626Y-41714102D01*
X70828084Y-41771818D01*
X70797834Y-41821181D01*
X69432513Y-43186502D01*
X69371360Y-43219950D01*
X69301824Y-43215124D01*
X69245878Y-43173548D01*
X69173189Y-43077293D01*
X69173188Y-43077292D01*
X69169732Y-43072715D01*
X69165495Y-43068852D01*
X69165491Y-43068848D01*
X69035438Y-42950290D01*
X69018462Y-42934814D01*
X69013596Y-42931801D01*
X69013592Y-42931798D01*
X68849298Y-42830072D01*
X68844427Y-42827056D01*
X68839089Y-42824988D01*
X68839085Y-42824986D01*
X68658902Y-42755183D01*
X68658901Y-42755182D01*
X68653556Y-42753112D01*
X68647921Y-42752058D01*
X68647919Y-42752058D01*
X68457977Y-42716552D01*
X68457972Y-42716551D01*
X68452347Y-42715500D01*
X68247653Y-42715500D01*
X68242028Y-42716551D01*
X68242022Y-42716552D01*
X68052080Y-42752058D01*
X68052075Y-42752059D01*
X68046444Y-42753112D01*
X68041101Y-42755181D01*
X68041097Y-42755183D01*
X67860914Y-42824986D01*
X67860906Y-42824989D01*
X67855573Y-42827056D01*
X67850706Y-42830069D01*
X67850701Y-42830072D01*
X67686407Y-42931798D01*
X67686397Y-42931804D01*
X67681538Y-42934814D01*
X67677307Y-42938670D01*
X67677303Y-42938674D01*
X67534508Y-43068848D01*
X67534498Y-43068858D01*
X67530268Y-43072715D01*
X67526819Y-43077281D01*
X67526810Y-43077292D01*
X67410364Y-43231492D01*
X67410357Y-43231502D01*
X67406912Y-43236065D01*
X67404362Y-43241185D01*
X67404357Y-43241194D01*
X67318226Y-43414168D01*
X67318222Y-43414176D01*
X67315672Y-43419299D01*
X67259655Y-43616179D01*
X67259126Y-43621884D01*
X67259126Y-43621886D01*
X67248659Y-43734839D01*
X67240768Y-43820000D01*
X66754500Y-43820000D01*
X66754500Y-38740000D01*
X67240768Y-38740000D01*
X67259655Y-38943821D01*
X67315672Y-39140701D01*
X67318224Y-39145826D01*
X67318226Y-39145831D01*
X67404357Y-39318805D01*
X67404359Y-39318809D01*
X67406912Y-39323935D01*
X67410361Y-39328502D01*
X67410364Y-39328507D01*
X67526810Y-39482707D01*
X67526815Y-39482712D01*
X67530268Y-39487285D01*
X67534504Y-39491146D01*
X67534508Y-39491151D01*
X67628987Y-39577279D01*
X67681538Y-39625186D01*
X67686405Y-39628199D01*
X67686407Y-39628201D01*
X67749761Y-39667428D01*
X67855573Y-39732944D01*
X68046444Y-39806888D01*
X68247653Y-39844500D01*
X68446618Y-39844500D01*
X68452347Y-39844500D01*
X68653556Y-39806888D01*
X68844427Y-39732944D01*
X69018462Y-39625186D01*
X69169732Y-39487285D01*
X69293088Y-39323935D01*
X69384328Y-39140701D01*
X69440345Y-38943821D01*
X69459232Y-38740000D01*
X69440345Y-38536179D01*
X69384328Y-38339299D01*
X69293088Y-38156065D01*
X69248107Y-38096500D01*
X69173189Y-37997292D01*
X69173185Y-37997288D01*
X69169732Y-37992715D01*
X69165495Y-37988852D01*
X69165491Y-37988848D01*
X69037208Y-37871903D01*
X69018462Y-37854814D01*
X69013596Y-37851801D01*
X69013592Y-37851798D01*
X68849298Y-37750072D01*
X68844427Y-37747056D01*
X68839089Y-37744988D01*
X68839085Y-37744986D01*
X68658902Y-37675183D01*
X68658901Y-37675182D01*
X68653556Y-37673112D01*
X68647921Y-37672058D01*
X68647919Y-37672058D01*
X68457977Y-37636552D01*
X68457972Y-37636551D01*
X68452347Y-37635500D01*
X68247653Y-37635500D01*
X68242028Y-37636551D01*
X68242022Y-37636552D01*
X68052080Y-37672058D01*
X68052075Y-37672059D01*
X68046444Y-37673112D01*
X68041101Y-37675181D01*
X68041097Y-37675183D01*
X67860914Y-37744986D01*
X67860906Y-37744989D01*
X67855573Y-37747056D01*
X67850706Y-37750069D01*
X67850701Y-37750072D01*
X67686407Y-37851798D01*
X67686397Y-37851804D01*
X67681538Y-37854814D01*
X67677307Y-37858670D01*
X67677303Y-37858674D01*
X67534508Y-37988848D01*
X67534498Y-37988858D01*
X67530268Y-37992715D01*
X67526819Y-37997281D01*
X67526810Y-37997292D01*
X67441890Y-38109746D01*
X67406912Y-38156065D01*
X67404362Y-38161185D01*
X67404357Y-38161194D01*
X67318226Y-38334168D01*
X67318222Y-38334176D01*
X67315672Y-38339299D01*
X67314103Y-38344811D01*
X67314103Y-38344813D01*
X67293889Y-38415860D01*
X67259655Y-38536179D01*
X67240768Y-38740000D01*
X66754500Y-38740000D01*
X66754500Y-36230000D01*
X79135569Y-36230000D01*
X79136831Y-36238777D01*
X79153929Y-36357700D01*
X79153930Y-36357704D01*
X79155192Y-36366480D01*
X79158876Y-36374548D01*
X79158877Y-36374549D01*
X79190418Y-36443615D01*
X79212471Y-36491903D01*
X79218278Y-36498605D01*
X79218279Y-36498606D01*
X79296958Y-36589408D01*
X79296960Y-36589410D01*
X79302765Y-36596109D01*
X79367834Y-36637926D01*
X79410819Y-36665551D01*
X79418760Y-36670654D01*
X79551058Y-36709500D01*
X79680072Y-36709500D01*
X79688942Y-36709500D01*
X79821240Y-36670654D01*
X79937235Y-36596109D01*
X80027529Y-36491903D01*
X80084808Y-36366480D01*
X80104431Y-36230000D01*
X80084808Y-36093520D01*
X80027529Y-35968097D01*
X79937235Y-35863891D01*
X79929777Y-35859098D01*
X79828699Y-35794139D01*
X79828695Y-35794137D01*
X79821240Y-35789346D01*
X79812734Y-35786848D01*
X79812731Y-35786847D01*
X79733833Y-35763681D01*
X79688942Y-35750500D01*
X79551058Y-35750500D01*
X79542547Y-35752998D01*
X79542547Y-35752999D01*
X79427268Y-35786847D01*
X79427262Y-35786849D01*
X79418760Y-35789346D01*
X79411306Y-35794136D01*
X79411300Y-35794139D01*
X79310222Y-35859098D01*
X79310218Y-35859100D01*
X79302765Y-35863891D01*
X79296963Y-35870585D01*
X79296958Y-35870591D01*
X79218279Y-35961393D01*
X79218276Y-35961397D01*
X79212471Y-35968097D01*
X79208789Y-35976159D01*
X79208786Y-35976164D01*
X79158877Y-36085450D01*
X79155192Y-36093520D01*
X79153930Y-36102293D01*
X79153929Y-36102299D01*
X79143317Y-36176113D01*
X79135569Y-36230000D01*
X66754500Y-36230000D01*
X66754500Y-26503246D01*
X66754670Y-26496756D01*
X66771939Y-26167239D01*
X66773296Y-26154331D01*
X66783068Y-26092633D01*
X66824407Y-25831625D01*
X66827096Y-25818972D01*
X66911669Y-25503342D01*
X66915669Y-25491033D01*
X67032765Y-25185985D01*
X67038028Y-25174164D01*
X67186377Y-24883014D01*
X67192843Y-24871815D01*
X67370806Y-24597776D01*
X67378408Y-24587313D01*
X67584044Y-24333373D01*
X67592711Y-24323748D01*
X67823748Y-24092711D01*
X67833373Y-24084044D01*
X68087313Y-23878408D01*
X68097776Y-23870806D01*
X68371815Y-23692843D01*
X68383014Y-23686377D01*
X68674164Y-23538028D01*
X68685985Y-23532765D01*
X68991033Y-23415669D01*
X69003342Y-23411669D01*
X69318972Y-23327096D01*
X69331625Y-23324407D01*
X69654333Y-23273295D01*
X69667237Y-23271939D01*
X69996752Y-23254669D01*
X70003242Y-23254500D01*
X70044694Y-23254500D01*
X70044875Y-23254500D01*
X70044933Y-23254478D01*
X88036956Y-23245953D01*
X88102339Y-23264555D01*
G37*
%TD.AperFunction*%
%TA.AperFunction,Conductor*%
G36*
X90402752Y-52927489D02*
G01*
X90448413Y-52976235D01*
X90462163Y-53041597D01*
X90440013Y-53104609D01*
X90011176Y-53717233D01*
X90011163Y-53717252D01*
X90009824Y-53719166D01*
X90008629Y-53721184D01*
X90008622Y-53721196D01*
X89990868Y-53751194D01*
X89990859Y-53751209D01*
X89989665Y-53753228D01*
X89988624Y-53755337D01*
X89988622Y-53755343D01*
X89975077Y-53782815D01*
X89975073Y-53782824D01*
X89972986Y-53787058D01*
X89971567Y-53791556D01*
X89971563Y-53791569D01*
X89955858Y-53841393D01*
X89949254Y-53862345D01*
X89948536Y-53867006D01*
X89948535Y-53867014D01*
X89943878Y-53897281D01*
X89943876Y-53897294D01*
X89943518Y-53899624D01*
X89943338Y-53901965D01*
X89943336Y-53901991D01*
X89940680Y-53936721D01*
X89940678Y-53936747D01*
X89940500Y-53939088D01*
X89940500Y-54576000D01*
X89949342Y-54643164D01*
X89950388Y-54647069D01*
X89950391Y-54647082D01*
X89960883Y-54686237D01*
X89965955Y-54705164D01*
X89967506Y-54708908D01*
X89967509Y-54708917D01*
X89988767Y-54760237D01*
X89988770Y-54760242D01*
X89991880Y-54767750D01*
X89997067Y-54774510D01*
X89997316Y-54775043D01*
X90000892Y-54781237D01*
X90000350Y-54781549D01*
X90019753Y-54823153D01*
X90019757Y-54876828D01*
X90000352Y-54918451D01*
X90000892Y-54918763D01*
X89997333Y-54924925D01*
X89997077Y-54925477D01*
X89996829Y-54925799D01*
X89996825Y-54925804D01*
X89991880Y-54932250D01*
X89988771Y-54939754D01*
X89988767Y-54939762D01*
X89967509Y-54991082D01*
X89967504Y-54991095D01*
X89965955Y-54994836D01*
X89964907Y-54998746D01*
X89964905Y-54998753D01*
X89950391Y-55052917D01*
X89950387Y-55052932D01*
X89949342Y-55056836D01*
X89948812Y-55060859D01*
X89948812Y-55060861D01*
X89946920Y-55075237D01*
X89940500Y-55124000D01*
X89940500Y-55460262D01*
X89940684Y-55462639D01*
X89940685Y-55462648D01*
X89943427Y-55497955D01*
X89943429Y-55497979D01*
X89943613Y-55500337D01*
X89949528Y-55538179D01*
X89973990Y-55614514D01*
X89991172Y-55648746D01*
X90011933Y-55683167D01*
X90013329Y-55685121D01*
X90514905Y-56387328D01*
X90532978Y-56424462D01*
X90533930Y-56427704D01*
X90535192Y-56436480D01*
X90538875Y-56444544D01*
X90538876Y-56444548D01*
X90588786Y-56553835D01*
X90592471Y-56561903D01*
X90598278Y-56568605D01*
X90598279Y-56568606D01*
X90619629Y-56593246D01*
X90682765Y-56666109D01*
X90720542Y-56690387D01*
X90754403Y-56722627D01*
X90769974Y-56744426D01*
X90792746Y-56807519D01*
X90779329Y-56873240D01*
X90733649Y-56922358D01*
X90669072Y-56940500D01*
X89424000Y-56940500D01*
X89419984Y-56941028D01*
X89419979Y-56941029D01*
X89360861Y-56948812D01*
X89360859Y-56948812D01*
X89356836Y-56949342D01*
X89352932Y-56950387D01*
X89352917Y-56950391D01*
X89298753Y-56964905D01*
X89298746Y-56964907D01*
X89294836Y-56965955D01*
X89291095Y-56967504D01*
X89291082Y-56967509D01*
X89239762Y-56988767D01*
X89239754Y-56988771D01*
X89232250Y-56991880D01*
X89225804Y-56996825D01*
X89225799Y-56996829D01*
X89181727Y-57030647D01*
X89181722Y-57030650D01*
X89178506Y-57033119D01*
X89175641Y-57035983D01*
X89175633Y-57035991D01*
X89135991Y-57075633D01*
X89135983Y-57075641D01*
X89133119Y-57078506D01*
X89130650Y-57081722D01*
X89130647Y-57081727D01*
X89096829Y-57125799D01*
X89096825Y-57125804D01*
X89091880Y-57132250D01*
X89088771Y-57139754D01*
X89088767Y-57139762D01*
X89067509Y-57191082D01*
X89067504Y-57191095D01*
X89065955Y-57194836D01*
X89064907Y-57198746D01*
X89064905Y-57198753D01*
X89050391Y-57252917D01*
X89050387Y-57252932D01*
X89049342Y-57256836D01*
X89048812Y-57260859D01*
X89048812Y-57260861D01*
X89044157Y-57296224D01*
X89040500Y-57324000D01*
X89040500Y-57328053D01*
X89040500Y-61441500D01*
X89023887Y-61503500D01*
X88978500Y-61548887D01*
X88916500Y-61565500D01*
X73098200Y-61565500D01*
X73050747Y-61556061D01*
X73010519Y-61529181D01*
X72510819Y-61029480D01*
X72483939Y-60989252D01*
X72474500Y-60941799D01*
X72474500Y-60467199D01*
X72489668Y-60407771D01*
X72531462Y-60362883D01*
X72589656Y-60343515D01*
X72638280Y-60352288D01*
X72638760Y-60350654D01*
X72771058Y-60389500D01*
X72900072Y-60389500D01*
X72908942Y-60389500D01*
X73041240Y-60350654D01*
X73157235Y-60276109D01*
X73247529Y-60171903D01*
X73304808Y-60046480D01*
X73321656Y-59929299D01*
X73333509Y-59891446D01*
X73356709Y-59859272D01*
X76477981Y-56738000D01*
X77369695Y-56738000D01*
X77370756Y-56746059D01*
X77387690Y-56874694D01*
X77387691Y-56874700D01*
X77388752Y-56882754D01*
X77391861Y-56890260D01*
X77391862Y-56890263D01*
X77441514Y-57010133D01*
X77444625Y-57017643D01*
X77533506Y-57133474D01*
X77649337Y-57222355D01*
X77784226Y-57278228D01*
X77928980Y-57297285D01*
X78073734Y-57278228D01*
X78208623Y-57222355D01*
X78324454Y-57133474D01*
X78413335Y-57017643D01*
X78469208Y-56882754D01*
X78488265Y-56738000D01*
X78469208Y-56593246D01*
X78413335Y-56458358D01*
X78324454Y-56342526D01*
X78208623Y-56253645D01*
X78201114Y-56250534D01*
X78201113Y-56250534D01*
X78081243Y-56200882D01*
X78081240Y-56200881D01*
X78073734Y-56197772D01*
X78065680Y-56196711D01*
X78065674Y-56196710D01*
X77937039Y-56179776D01*
X77928980Y-56178715D01*
X77920921Y-56179776D01*
X77792285Y-56196710D01*
X77792277Y-56196712D01*
X77784226Y-56197772D01*
X77776721Y-56200880D01*
X77776716Y-56200882D01*
X77656845Y-56250535D01*
X77656842Y-56250536D01*
X77649338Y-56253645D01*
X77642893Y-56258589D01*
X77642890Y-56258592D01*
X77539952Y-56337579D01*
X77539950Y-56337581D01*
X77533506Y-56342526D01*
X77528562Y-56348968D01*
X77528559Y-56348972D01*
X77449572Y-56451910D01*
X77449569Y-56451913D01*
X77444625Y-56458358D01*
X77441516Y-56465862D01*
X77441515Y-56465865D01*
X77391862Y-56585736D01*
X77391860Y-56585741D01*
X77388752Y-56593246D01*
X77387692Y-56601297D01*
X77387690Y-56601305D01*
X77375831Y-56691393D01*
X77369695Y-56738000D01*
X76477981Y-56738000D01*
X80270163Y-52945819D01*
X80310392Y-52918939D01*
X80357845Y-52909500D01*
X90338428Y-52909500D01*
X90402752Y-52927489D01*
G37*
%TD.AperFunction*%
%TA.AperFunction,Conductor*%
G36*
X91660824Y-54410461D02*
G01*
X91692087Y-54418837D01*
X91733694Y-54436072D01*
X91761717Y-54452250D01*
X91797450Y-54479669D01*
X91820334Y-54502554D01*
X91847744Y-54538276D01*
X91863929Y-54566309D01*
X91883033Y-54612430D01*
X91888589Y-54629096D01*
X91902309Y-54682628D01*
X91902314Y-54682643D01*
X91903235Y-54686237D01*
X91904581Y-54689699D01*
X91904584Y-54689707D01*
X91909526Y-54702416D01*
X91917818Y-54753212D01*
X91904770Y-54802999D01*
X91872631Y-54843200D01*
X91869639Y-54845655D01*
X91869623Y-54845669D01*
X91866887Y-54847915D01*
X91864424Y-54850459D01*
X91864414Y-54850469D01*
X91828101Y-54887989D01*
X91828091Y-54887999D01*
X91825638Y-54890535D01*
X91823487Y-54893337D01*
X91823481Y-54893345D01*
X91820332Y-54897449D01*
X91797447Y-54920332D01*
X91761724Y-54947743D01*
X91733689Y-54963929D01*
X91692088Y-54981160D01*
X91660823Y-54989537D01*
X91616185Y-54995414D01*
X91583816Y-54995414D01*
X91539178Y-54989538D01*
X91507909Y-54981160D01*
X91466305Y-54963927D01*
X91438274Y-54947743D01*
X91408537Y-54924925D01*
X91402550Y-54920331D01*
X91379661Y-54897441D01*
X91374362Y-54890535D01*
X91333113Y-54847915D01*
X91330367Y-54845662D01*
X91330359Y-54845654D01*
X91327376Y-54843206D01*
X91295231Y-54803003D01*
X91282181Y-54753211D01*
X91290474Y-54702413D01*
X91296765Y-54686237D01*
X91311412Y-54629084D01*
X91316965Y-54612429D01*
X91336071Y-54566305D01*
X91352250Y-54538281D01*
X91379670Y-54502547D01*
X91402547Y-54479670D01*
X91438281Y-54452250D01*
X91466302Y-54436072D01*
X91507912Y-54418836D01*
X91539171Y-54410461D01*
X91583820Y-54404584D01*
X91616180Y-54404584D01*
X91660824Y-54410461D01*
G37*
%TD.AperFunction*%
%TA.AperFunction,Conductor*%
G36*
X95585449Y-23242378D02*
G01*
X101503282Y-23291693D01*
X101568267Y-23310725D01*
X101613565Y-23361057D01*
X101625667Y-23427682D01*
X101600964Y-23490730D01*
X101577569Y-23521505D01*
X101577566Y-23521508D01*
X101573498Y-23526861D01*
X101570674Y-23532963D01*
X101570672Y-23532968D01*
X101498277Y-23689447D01*
X101498275Y-23689451D01*
X101495455Y-23695548D01*
X101494011Y-23702107D01*
X101494010Y-23702111D01*
X101461199Y-23851174D01*
X101455500Y-23877067D01*
X101455500Y-25216332D01*
X101470557Y-25354775D01*
X101513393Y-25481907D01*
X101518511Y-25539902D01*
X101496595Y-25593841D01*
X101452478Y-25631832D01*
X101395884Y-25645500D01*
X89949628Y-25645500D01*
X89926144Y-25643064D01*
X89924905Y-25643012D01*
X89914853Y-25640905D01*
X89904661Y-25642175D01*
X89904654Y-25642175D01*
X89884961Y-25644630D01*
X89879864Y-25645159D01*
X89875748Y-25645500D01*
X89870623Y-25645500D01*
X89865568Y-25646343D01*
X89865560Y-25646344D01*
X89851395Y-25648707D01*
X89846332Y-25649444D01*
X89807642Y-25654267D01*
X89807634Y-25654269D01*
X89797449Y-25655539D01*
X89790705Y-25658835D01*
X89783302Y-25660071D01*
X89774267Y-25664960D01*
X89774265Y-25664961D01*
X89766733Y-25669037D01*
X89707221Y-25683977D01*
X89647832Y-25668555D01*
X89603107Y-25626548D01*
X89583999Y-25568240D01*
X89595184Y-25507914D01*
X89624545Y-25444452D01*
X89664500Y-25262933D01*
X89664500Y-23923668D01*
X89649443Y-23785225D01*
X89590096Y-23609089D01*
X89494273Y-23449829D01*
X89489645Y-23444944D01*
X89489125Y-23444259D01*
X89464398Y-23380968D01*
X89476739Y-23314149D01*
X89522441Y-23263865D01*
X89587779Y-23245217D01*
X95584897Y-23242376D01*
X95585449Y-23242378D01*
G37*
%TD.AperFunction*%
%TA.AperFunction,Conductor*%
G36*
X117433294Y-23424443D02*
G01*
X117492499Y-23440054D01*
X117537017Y-23482092D01*
X117555993Y-23540307D01*
X117544800Y-23600504D01*
X117508276Y-23679450D01*
X117505455Y-23685548D01*
X117504011Y-23692107D01*
X117504010Y-23692111D01*
X117466945Y-23860501D01*
X117465500Y-23867067D01*
X117465500Y-25206332D01*
X117480557Y-25344775D01*
X117482701Y-25351140D01*
X117482703Y-25351146D01*
X117526762Y-25481907D01*
X117531880Y-25539902D01*
X117509964Y-25593841D01*
X117465847Y-25631832D01*
X117409253Y-25645500D01*
X105730900Y-25645500D01*
X105671339Y-25630259D01*
X105626420Y-25588283D01*
X105607184Y-25529890D01*
X105618360Y-25469435D01*
X105618361Y-25469433D01*
X105634545Y-25434452D01*
X105674500Y-25252933D01*
X105674500Y-23913668D01*
X105659443Y-23775225D01*
X105600096Y-23599089D01*
X105549034Y-23514223D01*
X105531293Y-23451718D01*
X105547598Y-23388820D01*
X105593472Y-23342802D01*
X105656314Y-23326301D01*
X117433294Y-23424443D01*
G37*
%TD.AperFunction*%
%TD*%
%TA.AperFunction,Conductor*%
%TO.N,/Bucks/SW*%
G36*
X106504736Y-45790942D02*
G01*
X106566975Y-45803322D01*
X106584640Y-45810638D01*
X106633319Y-45843165D01*
X106646834Y-45856680D01*
X106663098Y-45881020D01*
X106679361Y-45905360D01*
X106686677Y-45923023D01*
X106699058Y-45985263D01*
X106700000Y-45994823D01*
X106700000Y-46765177D01*
X106699058Y-46774737D01*
X106686677Y-46836976D01*
X106679361Y-46854639D01*
X106646836Y-46903317D01*
X106633317Y-46916836D01*
X106584639Y-46949361D01*
X106566976Y-46956677D01*
X106519275Y-46966165D01*
X106504734Y-46969058D01*
X106495177Y-46970000D01*
X104684823Y-46970000D01*
X104675265Y-46969058D01*
X104657202Y-46965465D01*
X104613023Y-46956677D01*
X104595360Y-46949361D01*
X104571021Y-46933098D01*
X104546680Y-46916834D01*
X104533165Y-46903319D01*
X104500638Y-46854639D01*
X104493322Y-46836975D01*
X104480942Y-46774736D01*
X104480000Y-46765177D01*
X104480000Y-45994823D01*
X104480939Y-45985274D01*
X104493323Y-45923018D01*
X104500638Y-45905360D01*
X104533167Y-45856677D01*
X104546677Y-45843167D01*
X104595361Y-45810637D01*
X104613018Y-45803323D01*
X104675274Y-45790939D01*
X104684823Y-45790000D01*
X106495177Y-45790000D01*
X106504736Y-45790942D01*
G37*
%TD.AperFunction*%
%TD*%
%TA.AperFunction,Conductor*%
%TO.N,Net-(C16-Pad2)*%
G36*
X103894736Y-44560942D02*
G01*
X103956975Y-44573322D01*
X103974640Y-44580638D01*
X104023319Y-44613165D01*
X104036834Y-44626680D01*
X104053098Y-44651021D01*
X104069361Y-44675360D01*
X104076677Y-44693023D01*
X104089058Y-44755263D01*
X104090000Y-44764823D01*
X104090000Y-46765177D01*
X104089058Y-46774737D01*
X104076677Y-46836976D01*
X104069361Y-46854639D01*
X104036836Y-46903317D01*
X104023317Y-46916836D01*
X103974639Y-46949361D01*
X103956976Y-46956677D01*
X103909275Y-46966165D01*
X103894734Y-46969058D01*
X103885177Y-46970000D01*
X103234823Y-46970000D01*
X103225265Y-46969058D01*
X103207202Y-46965465D01*
X103163023Y-46956677D01*
X103145360Y-46949361D01*
X103121021Y-46933098D01*
X103096680Y-46916834D01*
X103083165Y-46903319D01*
X103050638Y-46854639D01*
X103043322Y-46836975D01*
X103030942Y-46774736D01*
X103030000Y-46765177D01*
X103030000Y-44764823D01*
X103030939Y-44755274D01*
X103043323Y-44693018D01*
X103050638Y-44675360D01*
X103083167Y-44626677D01*
X103096677Y-44613167D01*
X103145361Y-44580637D01*
X103163018Y-44573323D01*
X103225274Y-44560939D01*
X103234823Y-44560000D01*
X103885177Y-44560000D01*
X103894736Y-44560942D01*
G37*
%TD.AperFunction*%
%TD*%
M02*
